<?xml version="1.0" encoding="utf-8" standalone="no"?>
<!DOCTYPE svg PUBLIC "-//W3C//DTD SVG 1.1//EN"
  "http://www.w3.org/Graphics/SVG/1.1/DTD/svg11.dtd">
<svg xmlns:xlink="http://www.w3.org/1999/xlink" width="576pt" height="288pt" viewBox="0 0 576 288" xmlns="http://www.w3.org/2000/svg" version="1.1">
 <metadata>
  <rdf:RDF xmlns:dc="http://purl.org/dc/elements/1.1/" xmlns:cc="http://creativecommons.org/ns#" xmlns:rdf="http://www.w3.org/1999/02/22-rdf-syntax-ns#">
   <cc:Work>
    <dc:type rdf:resource="http://purl.org/dc/dcmitype/StillImage"/>
    <dc:date>2024-10-21T17:13:14.715611</dc:date>
    <dc:format>image/svg+xml</dc:format>
    <dc:creator>
     <cc:Agent>
      <dc:title>Matplotlib v3.9.2, https://matplotlib.org/</dc:title>
     </cc:Agent>
    </dc:creator>
   </cc:Work>
  </rdf:RDF>
 </metadata>
 <defs>
  <style type="text/css">*{stroke-linejoin: round; stroke-linecap: butt}</style>
 </defs>
 <g id="figure_1">
  <g id="patch_1">
   <path d="M 0 288 
L 576 288 
L 576 0 
L 0 0 
z
" style="fill: #ffffff"/>
  </g>
  <g id="axes_1">
   <g id="patch_2">
    <path d="M 72 256.32 
L 518.4 256.32 
L 518.4 34.56 
L 72 34.56 
z
" style="fill: #e5e5e5"/>
   </g>
   <g id="matplotlib.axis_1">
    <g id="xtick_1">
     <g id="line2d_1">
      <path d="M 88.191736 256.32 
L 88.191736 34.56 
" clip-path="url(#p619565be80)" style="fill: none; stroke: #ffffff; stroke-width: 0.8; stroke-linecap: square"/>
     </g>
     <g id="line2d_2">
      <defs>
       <path id="m7c39b7690b" d="M 0 0 
L 0 3.5 
" style="stroke: #555555; stroke-width: 0.8"/>
      </defs>
      <g>
       <use xlink:href="#m7c39b7690b" x="88.191736" y="256.32" style="fill: #555555; stroke: #555555; stroke-width: 0.8"/>
      </g>
     </g>
     <g id="text_1">
      <!-- 0 -->
      <g style="fill: #555555" transform="translate(85.010486 270.918437) scale(0.1 -0.1)">
       <defs>
        <path id="DejaVuSans-30" d="M 2034 4250 
Q 1547 4250 1301 3770 
Q 1056 3291 1056 2328 
Q 1056 1369 1301 889 
Q 1547 409 2034 409 
Q 2525 409 2770 889 
Q 3016 1369 3016 2328 
Q 3016 3291 2770 3770 
Q 2525 4250 2034 4250 
z
M 2034 4750 
Q 2819 4750 3233 4129 
Q 3647 3509 3647 2328 
Q 3647 1150 3233 529 
Q 2819 -91 2034 -91 
Q 1250 -91 836 529 
Q 422 1150 422 2328 
Q 422 3509 836 4129 
Q 1250 4750 2034 4750 
z
" transform="scale(0.015625)"/>
       </defs>
       <use xlink:href="#DejaVuSans-30"/>
      </g>
     </g>
    </g>
    <g id="xtick_2">
     <g id="line2d_3">
      <path d="M 170.175207 256.32 
L 170.175207 34.56 
" clip-path="url(#p619565be80)" style="fill: none; stroke: #ffffff; stroke-width: 0.8; stroke-linecap: square"/>
     </g>
     <g id="line2d_4">
      <g>
       <use xlink:href="#m7c39b7690b" x="170.175207" y="256.32" style="fill: #555555; stroke: #555555; stroke-width: 0.8"/>
      </g>
     </g>
     <g id="text_2">
      <!-- 20 -->
      <g style="fill: #555555" transform="translate(163.812707 270.918437) scale(0.1 -0.1)">
       <defs>
        <path id="DejaVuSans-32" d="M 1228 531 
L 3431 531 
L 3431 0 
L 469 0 
L 469 531 
Q 828 903 1448 1529 
Q 2069 2156 2228 2338 
Q 2531 2678 2651 2914 
Q 2772 3150 2772 3378 
Q 2772 3750 2511 3984 
Q 2250 4219 1831 4219 
Q 1534 4219 1204 4116 
Q 875 4013 500 3803 
L 500 4441 
Q 881 4594 1212 4672 
Q 1544 4750 1819 4750 
Q 2544 4750 2975 4387 
Q 3406 4025 3406 3419 
Q 3406 3131 3298 2873 
Q 3191 2616 2906 2266 
Q 2828 2175 2409 1742 
Q 1991 1309 1228 531 
z
" transform="scale(0.015625)"/>
       </defs>
       <use xlink:href="#DejaVuSans-32"/>
       <use xlink:href="#DejaVuSans-30" x="63.623047"/>
      </g>
     </g>
    </g>
    <g id="xtick_3">
     <g id="line2d_5">
      <path d="M 252.158678 256.32 
L 252.158678 34.56 
" clip-path="url(#p619565be80)" style="fill: none; stroke: #ffffff; stroke-width: 0.8; stroke-linecap: square"/>
     </g>
     <g id="line2d_6">
      <g>
       <use xlink:href="#m7c39b7690b" x="252.158678" y="256.32" style="fill: #555555; stroke: #555555; stroke-width: 0.8"/>
      </g>
     </g>
     <g id="text_3">
      <!-- 40 -->
      <g style="fill: #555555" transform="translate(245.796178 270.918437) scale(0.1 -0.1)">
       <defs>
        <path id="DejaVuSans-34" d="M 2419 4116 
L 825 1625 
L 2419 1625 
L 2419 4116 
z
M 2253 4666 
L 3047 4666 
L 3047 1625 
L 3713 1625 
L 3713 1100 
L 3047 1100 
L 3047 0 
L 2419 0 
L 2419 1100 
L 313 1100 
L 313 1709 
L 2253 4666 
z
" transform="scale(0.015625)"/>
       </defs>
       <use xlink:href="#DejaVuSans-34"/>
       <use xlink:href="#DejaVuSans-30" x="63.623047"/>
      </g>
     </g>
    </g>
    <g id="xtick_4">
     <g id="line2d_7">
      <path d="M 334.142149 256.32 
L 334.142149 34.56 
" clip-path="url(#p619565be80)" style="fill: none; stroke: #ffffff; stroke-width: 0.8; stroke-linecap: square"/>
     </g>
     <g id="line2d_8">
      <g>
       <use xlink:href="#m7c39b7690b" x="334.142149" y="256.32" style="fill: #555555; stroke: #555555; stroke-width: 0.8"/>
      </g>
     </g>
     <g id="text_4">
      <!-- 60 -->
      <g style="fill: #555555" transform="translate(327.779649 270.918437) scale(0.1 -0.1)">
       <defs>
        <path id="DejaVuSans-36" d="M 2113 2584 
Q 1688 2584 1439 2293 
Q 1191 2003 1191 1497 
Q 1191 994 1439 701 
Q 1688 409 2113 409 
Q 2538 409 2786 701 
Q 3034 994 3034 1497 
Q 3034 2003 2786 2293 
Q 2538 2584 2113 2584 
z
M 3366 4563 
L 3366 3988 
Q 3128 4100 2886 4159 
Q 2644 4219 2406 4219 
Q 1781 4219 1451 3797 
Q 1122 3375 1075 2522 
Q 1259 2794 1537 2939 
Q 1816 3084 2150 3084 
Q 2853 3084 3261 2657 
Q 3669 2231 3669 1497 
Q 3669 778 3244 343 
Q 2819 -91 2113 -91 
Q 1303 -91 875 529 
Q 447 1150 447 2328 
Q 447 3434 972 4092 
Q 1497 4750 2381 4750 
Q 2619 4750 2861 4703 
Q 3103 4656 3366 4563 
z
" transform="scale(0.015625)"/>
       </defs>
       <use xlink:href="#DejaVuSans-36"/>
       <use xlink:href="#DejaVuSans-30" x="63.623047"/>
      </g>
     </g>
    </g>
    <g id="xtick_5">
     <g id="line2d_9">
      <path d="M 416.12562 256.32 
L 416.12562 34.56 
" clip-path="url(#p619565be80)" style="fill: none; stroke: #ffffff; stroke-width: 0.8; stroke-linecap: square"/>
     </g>
     <g id="line2d_10">
      <g>
       <use xlink:href="#m7c39b7690b" x="416.12562" y="256.32" style="fill: #555555; stroke: #555555; stroke-width: 0.8"/>
      </g>
     </g>
     <g id="text_5">
      <!-- 80 -->
      <g style="fill: #555555" transform="translate(409.76312 270.918437) scale(0.1 -0.1)">
       <defs>
        <path id="DejaVuSans-38" d="M 2034 2216 
Q 1584 2216 1326 1975 
Q 1069 1734 1069 1313 
Q 1069 891 1326 650 
Q 1584 409 2034 409 
Q 2484 409 2743 651 
Q 3003 894 3003 1313 
Q 3003 1734 2745 1975 
Q 2488 2216 2034 2216 
z
M 1403 2484 
Q 997 2584 770 2862 
Q 544 3141 544 3541 
Q 544 4100 942 4425 
Q 1341 4750 2034 4750 
Q 2731 4750 3128 4425 
Q 3525 4100 3525 3541 
Q 3525 3141 3298 2862 
Q 3072 2584 2669 2484 
Q 3125 2378 3379 2068 
Q 3634 1759 3634 1313 
Q 3634 634 3220 271 
Q 2806 -91 2034 -91 
Q 1263 -91 848 271 
Q 434 634 434 1313 
Q 434 1759 690 2068 
Q 947 2378 1403 2484 
z
M 1172 3481 
Q 1172 3119 1398 2916 
Q 1625 2713 2034 2713 
Q 2441 2713 2670 2916 
Q 2900 3119 2900 3481 
Q 2900 3844 2670 4047 
Q 2441 4250 2034 4250 
Q 1625 4250 1398 4047 
Q 1172 3844 1172 3481 
z
" transform="scale(0.015625)"/>
       </defs>
       <use xlink:href="#DejaVuSans-38"/>
       <use xlink:href="#DejaVuSans-30" x="63.623047"/>
      </g>
     </g>
    </g>
    <g id="xtick_6">
     <g id="line2d_11">
      <path d="M 498.109091 256.32 
L 498.109091 34.56 
" clip-path="url(#p619565be80)" style="fill: none; stroke: #ffffff; stroke-width: 0.8; stroke-linecap: square"/>
     </g>
     <g id="line2d_12">
      <g>
       <use xlink:href="#m7c39b7690b" x="498.109091" y="256.32" style="fill: #555555; stroke: #555555; stroke-width: 0.8"/>
      </g>
     </g>
     <g id="text_6">
      <!-- 100 -->
      <g style="fill: #555555" transform="translate(488.565341 270.918437) scale(0.1 -0.1)">
       <defs>
        <path id="DejaVuSans-31" d="M 794 531 
L 1825 531 
L 1825 4091 
L 703 3866 
L 703 4441 
L 1819 4666 
L 2450 4666 
L 2450 531 
L 3481 531 
L 3481 0 
L 794 0 
L 794 531 
z
" transform="scale(0.015625)"/>
       </defs>
       <use xlink:href="#DejaVuSans-31"/>
       <use xlink:href="#DejaVuSans-30" x="63.623047"/>
       <use xlink:href="#DejaVuSans-30" x="127.246094"/>
      </g>
     </g>
    </g>
    <g id="text_7">
     <!-- Epoch number -->
     <g style="fill: #555555" transform="translate(251.503125 286.11625) scale(0.12 -0.12)">
      <defs>
       <path id="DejaVuSans-45" d="M 628 4666 
L 3578 4666 
L 3578 4134 
L 1259 4134 
L 1259 2753 
L 3481 2753 
L 3481 2222 
L 1259 2222 
L 1259 531 
L 3634 531 
L 3634 0 
L 628 0 
L 628 4666 
z
" transform="scale(0.015625)"/>
       <path id="DejaVuSans-70" d="M 1159 525 
L 1159 -1331 
L 581 -1331 
L 581 3500 
L 1159 3500 
L 1159 2969 
Q 1341 3281 1617 3432 
Q 1894 3584 2278 3584 
Q 2916 3584 3314 3078 
Q 3713 2572 3713 1747 
Q 3713 922 3314 415 
Q 2916 -91 2278 -91 
Q 1894 -91 1617 61 
Q 1341 213 1159 525 
z
M 3116 1747 
Q 3116 2381 2855 2742 
Q 2594 3103 2138 3103 
Q 1681 3103 1420 2742 
Q 1159 2381 1159 1747 
Q 1159 1113 1420 752 
Q 1681 391 2138 391 
Q 2594 391 2855 752 
Q 3116 1113 3116 1747 
z
" transform="scale(0.015625)"/>
       <path id="DejaVuSans-6f" d="M 1959 3097 
Q 1497 3097 1228 2736 
Q 959 2375 959 1747 
Q 959 1119 1226 758 
Q 1494 397 1959 397 
Q 2419 397 2687 759 
Q 2956 1122 2956 1747 
Q 2956 2369 2687 2733 
Q 2419 3097 1959 3097 
z
M 1959 3584 
Q 2709 3584 3137 3096 
Q 3566 2609 3566 1747 
Q 3566 888 3137 398 
Q 2709 -91 1959 -91 
Q 1206 -91 779 398 
Q 353 888 353 1747 
Q 353 2609 779 3096 
Q 1206 3584 1959 3584 
z
" transform="scale(0.015625)"/>
       <path id="DejaVuSans-63" d="M 3122 3366 
L 3122 2828 
Q 2878 2963 2633 3030 
Q 2388 3097 2138 3097 
Q 1578 3097 1268 2742 
Q 959 2388 959 1747 
Q 959 1106 1268 751 
Q 1578 397 2138 397 
Q 2388 397 2633 464 
Q 2878 531 3122 666 
L 3122 134 
Q 2881 22 2623 -34 
Q 2366 -91 2075 -91 
Q 1284 -91 818 406 
Q 353 903 353 1747 
Q 353 2603 823 3093 
Q 1294 3584 2113 3584 
Q 2378 3584 2631 3529 
Q 2884 3475 3122 3366 
z
" transform="scale(0.015625)"/>
       <path id="DejaVuSans-68" d="M 3513 2113 
L 3513 0 
L 2938 0 
L 2938 2094 
Q 2938 2591 2744 2837 
Q 2550 3084 2163 3084 
Q 1697 3084 1428 2787 
Q 1159 2491 1159 1978 
L 1159 0 
L 581 0 
L 581 4863 
L 1159 4863 
L 1159 2956 
Q 1366 3272 1645 3428 
Q 1925 3584 2291 3584 
Q 2894 3584 3203 3211 
Q 3513 2838 3513 2113 
z
" transform="scale(0.015625)"/>
       <path id="DejaVuSans-20" transform="scale(0.015625)"/>
       <path id="DejaVuSans-6e" d="M 3513 2113 
L 3513 0 
L 2938 0 
L 2938 2094 
Q 2938 2591 2744 2837 
Q 2550 3084 2163 3084 
Q 1697 3084 1428 2787 
Q 1159 2491 1159 1978 
L 1159 0 
L 581 0 
L 581 3500 
L 1159 3500 
L 1159 2956 
Q 1366 3272 1645 3428 
Q 1925 3584 2291 3584 
Q 2894 3584 3203 3211 
Q 3513 2838 3513 2113 
z
" transform="scale(0.015625)"/>
       <path id="DejaVuSans-75" d="M 544 1381 
L 544 3500 
L 1119 3500 
L 1119 1403 
Q 1119 906 1312 657 
Q 1506 409 1894 409 
Q 2359 409 2629 706 
Q 2900 1003 2900 1516 
L 2900 3500 
L 3475 3500 
L 3475 0 
L 2900 0 
L 2900 538 
Q 2691 219 2414 64 
Q 2138 -91 1772 -91 
Q 1169 -91 856 284 
Q 544 659 544 1381 
z
M 1991 3584 
L 1991 3584 
z
" transform="scale(0.015625)"/>
       <path id="DejaVuSans-6d" d="M 3328 2828 
Q 3544 3216 3844 3400 
Q 4144 3584 4550 3584 
Q 5097 3584 5394 3201 
Q 5691 2819 5691 2113 
L 5691 0 
L 5113 0 
L 5113 2094 
Q 5113 2597 4934 2840 
Q 4756 3084 4391 3084 
Q 3944 3084 3684 2787 
Q 3425 2491 3425 1978 
L 3425 0 
L 2847 0 
L 2847 2094 
Q 2847 2600 2669 2842 
Q 2491 3084 2119 3084 
Q 1678 3084 1418 2786 
Q 1159 2488 1159 1978 
L 1159 0 
L 581 0 
L 581 3500 
L 1159 3500 
L 1159 2956 
Q 1356 3278 1631 3431 
Q 1906 3584 2284 3584 
Q 2666 3584 2933 3390 
Q 3200 3197 3328 2828 
z
" transform="scale(0.015625)"/>
       <path id="DejaVuSans-62" d="M 3116 1747 
Q 3116 2381 2855 2742 
Q 2594 3103 2138 3103 
Q 1681 3103 1420 2742 
Q 1159 2381 1159 1747 
Q 1159 1113 1420 752 
Q 1681 391 2138 391 
Q 2594 391 2855 752 
Q 3116 1113 3116 1747 
z
M 1159 2969 
Q 1341 3281 1617 3432 
Q 1894 3584 2278 3584 
Q 2916 3584 3314 3078 
Q 3713 2572 3713 1747 
Q 3713 922 3314 415 
Q 2916 -91 2278 -91 
Q 1894 -91 1617 61 
Q 1341 213 1159 525 
L 1159 0 
L 581 0 
L 581 4863 
L 1159 4863 
L 1159 2969 
z
" transform="scale(0.015625)"/>
       <path id="DejaVuSans-65" d="M 3597 1894 
L 3597 1613 
L 953 1613 
Q 991 1019 1311 708 
Q 1631 397 2203 397 
Q 2534 397 2845 478 
Q 3156 559 3463 722 
L 3463 178 
Q 3153 47 2828 -22 
Q 2503 -91 2169 -91 
Q 1331 -91 842 396 
Q 353 884 353 1716 
Q 353 2575 817 3079 
Q 1281 3584 2069 3584 
Q 2775 3584 3186 3129 
Q 3597 2675 3597 1894 
z
M 3022 2063 
Q 3016 2534 2758 2815 
Q 2500 3097 2075 3097 
Q 1594 3097 1305 2825 
Q 1016 2553 972 2059 
L 3022 2063 
z
" transform="scale(0.015625)"/>
       <path id="DejaVuSans-72" d="M 2631 2963 
Q 2534 3019 2420 3045 
Q 2306 3072 2169 3072 
Q 1681 3072 1420 2755 
Q 1159 2438 1159 1844 
L 1159 0 
L 581 0 
L 581 3500 
L 1159 3500 
L 1159 2956 
Q 1341 3275 1631 3429 
Q 1922 3584 2338 3584 
Q 2397 3584 2469 3576 
Q 2541 3569 2628 3553 
L 2631 2963 
z
" transform="scale(0.015625)"/>
      </defs>
      <use xlink:href="#DejaVuSans-45"/>
      <use xlink:href="#DejaVuSans-70" x="63.183594"/>
      <use xlink:href="#DejaVuSans-6f" x="126.660156"/>
      <use xlink:href="#DejaVuSans-63" x="187.841797"/>
      <use xlink:href="#DejaVuSans-68" x="242.822266"/>
      <use xlink:href="#DejaVuSans-20" x="306.201172"/>
      <use xlink:href="#DejaVuSans-6e" x="337.988281"/>
      <use xlink:href="#DejaVuSans-75" x="401.367188"/>
      <use xlink:href="#DejaVuSans-6d" x="464.746094"/>
      <use xlink:href="#DejaVuSans-62" x="562.158203"/>
      <use xlink:href="#DejaVuSans-65" x="625.634766"/>
      <use xlink:href="#DejaVuSans-72" x="687.158203"/>
     </g>
    </g>
   </g>
   <g id="matplotlib.axis_2">
    <g id="ytick_1">
     <g id="line2d_13">
      <path d="M 72 232.216029 
L 518.4 232.216029 
" clip-path="url(#p619565be80)" style="fill: none; stroke: #ffffff; stroke-width: 0.8; stroke-linecap: square"/>
     </g>
     <g id="line2d_14">
      <defs>
       <path id="m703df485cd" d="M 0 0 
L -3.5 0 
" style="stroke: #555555; stroke-width: 0.8"/>
      </defs>
      <g>
       <use xlink:href="#m703df485cd" x="72" y="232.216029" style="fill: #555555; stroke: #555555; stroke-width: 0.8"/>
      </g>
     </g>
     <g id="text_8">
      <!-- 0.2 -->
      <g style="fill: #555555" transform="translate(49.096875 236.015248) scale(0.1 -0.1)">
       <defs>
        <path id="DejaVuSans-2e" d="M 684 794 
L 1344 794 
L 1344 0 
L 684 0 
L 684 794 
z
" transform="scale(0.015625)"/>
       </defs>
       <use xlink:href="#DejaVuSans-30"/>
       <use xlink:href="#DejaVuSans-2e" x="63.623047"/>
       <use xlink:href="#DejaVuSans-32" x="95.410156"/>
      </g>
     </g>
    </g>
    <g id="ytick_2">
     <g id="line2d_15">
      <path d="M 72 206.760752 
L 518.4 206.760752 
" clip-path="url(#p619565be80)" style="fill: none; stroke: #ffffff; stroke-width: 0.8; stroke-linecap: square"/>
     </g>
     <g id="line2d_16">
      <g>
       <use xlink:href="#m703df485cd" x="72" y="206.760752" style="fill: #555555; stroke: #555555; stroke-width: 0.8"/>
      </g>
     </g>
     <g id="text_9">
      <!-- 0.4 -->
      <g style="fill: #555555" transform="translate(49.096875 210.559971) scale(0.1 -0.1)">
       <use xlink:href="#DejaVuSans-30"/>
       <use xlink:href="#DejaVuSans-2e" x="63.623047"/>
       <use xlink:href="#DejaVuSans-34" x="95.410156"/>
      </g>
     </g>
    </g>
    <g id="ytick_3">
     <g id="line2d_17">
      <path d="M 72 181.305475 
L 518.4 181.305475 
" clip-path="url(#p619565be80)" style="fill: none; stroke: #ffffff; stroke-width: 0.8; stroke-linecap: square"/>
     </g>
     <g id="line2d_18">
      <g>
       <use xlink:href="#m703df485cd" x="72" y="181.305475" style="fill: #555555; stroke: #555555; stroke-width: 0.8"/>
      </g>
     </g>
     <g id="text_10">
      <!-- 0.6 -->
      <g style="fill: #555555" transform="translate(49.096875 185.104693) scale(0.1 -0.1)">
       <use xlink:href="#DejaVuSans-30"/>
       <use xlink:href="#DejaVuSans-2e" x="63.623047"/>
       <use xlink:href="#DejaVuSans-36" x="95.410156"/>
      </g>
     </g>
    </g>
    <g id="ytick_4">
     <g id="line2d_19">
      <path d="M 72 155.850198 
L 518.4 155.850198 
" clip-path="url(#p619565be80)" style="fill: none; stroke: #ffffff; stroke-width: 0.8; stroke-linecap: square"/>
     </g>
     <g id="line2d_20">
      <g>
       <use xlink:href="#m703df485cd" x="72" y="155.850198" style="fill: #555555; stroke: #555555; stroke-width: 0.8"/>
      </g>
     </g>
     <g id="text_11">
      <!-- 0.8 -->
      <g style="fill: #555555" transform="translate(49.096875 159.649416) scale(0.1 -0.1)">
       <use xlink:href="#DejaVuSans-30"/>
       <use xlink:href="#DejaVuSans-2e" x="63.623047"/>
       <use xlink:href="#DejaVuSans-38" x="95.410156"/>
      </g>
     </g>
    </g>
    <g id="ytick_5">
     <g id="line2d_21">
      <path d="M 72 130.394921 
L 518.4 130.394921 
" clip-path="url(#p619565be80)" style="fill: none; stroke: #ffffff; stroke-width: 0.8; stroke-linecap: square"/>
     </g>
     <g id="line2d_22">
      <g>
       <use xlink:href="#m703df485cd" x="72" y="130.394921" style="fill: #555555; stroke: #555555; stroke-width: 0.8"/>
      </g>
     </g>
     <g id="text_12">
      <!-- 1.0 -->
      <g style="fill: #555555" transform="translate(49.096875 134.194139) scale(0.1 -0.1)">
       <use xlink:href="#DejaVuSans-31"/>
       <use xlink:href="#DejaVuSans-2e" x="63.623047"/>
       <use xlink:href="#DejaVuSans-30" x="95.410156"/>
      </g>
     </g>
    </g>
    <g id="ytick_6">
     <g id="line2d_23">
      <path d="M 72 104.939643 
L 518.4 104.939643 
" clip-path="url(#p619565be80)" style="fill: none; stroke: #ffffff; stroke-width: 0.8; stroke-linecap: square"/>
     </g>
     <g id="line2d_24">
      <g>
       <use xlink:href="#m703df485cd" x="72" y="104.939643" style="fill: #555555; stroke: #555555; stroke-width: 0.8"/>
      </g>
     </g>
     <g id="text_13">
      <!-- 1.2 -->
      <g style="fill: #555555" transform="translate(49.096875 108.738862) scale(0.1 -0.1)">
       <use xlink:href="#DejaVuSans-31"/>
       <use xlink:href="#DejaVuSans-2e" x="63.623047"/>
       <use xlink:href="#DejaVuSans-32" x="95.410156"/>
      </g>
     </g>
    </g>
    <g id="ytick_7">
     <g id="line2d_25">
      <path d="M 72 79.484366 
L 518.4 79.484366 
" clip-path="url(#p619565be80)" style="fill: none; stroke: #ffffff; stroke-width: 0.8; stroke-linecap: square"/>
     </g>
     <g id="line2d_26">
      <g>
       <use xlink:href="#m703df485cd" x="72" y="79.484366" style="fill: #555555; stroke: #555555; stroke-width: 0.8"/>
      </g>
     </g>
     <g id="text_14">
      <!-- 1.4 -->
      <g style="fill: #555555" transform="translate(49.096875 83.283585) scale(0.1 -0.1)">
       <use xlink:href="#DejaVuSans-31"/>
       <use xlink:href="#DejaVuSans-2e" x="63.623047"/>
       <use xlink:href="#DejaVuSans-34" x="95.410156"/>
      </g>
     </g>
    </g>
    <g id="ytick_8">
     <g id="line2d_27">
      <path d="M 72 54.029089 
L 518.4 54.029089 
" clip-path="url(#p619565be80)" style="fill: none; stroke: #ffffff; stroke-width: 0.8; stroke-linecap: square"/>
     </g>
     <g id="line2d_28">
      <g>
       <use xlink:href="#m703df485cd" x="72" y="54.029089" style="fill: #555555; stroke: #555555; stroke-width: 0.8"/>
      </g>
     </g>
     <g id="text_15">
      <!-- 1.6 -->
      <g style="fill: #555555" transform="translate(49.096875 57.828308) scale(0.1 -0.1)">
       <use xlink:href="#DejaVuSans-31"/>
       <use xlink:href="#DejaVuSans-2e" x="63.623047"/>
       <use xlink:href="#DejaVuSans-36" x="95.410156"/>
      </g>
     </g>
    </g>
    <g id="text_16">
     <!-- Error -->
     <g style="fill: #555555" transform="translate(42.60125 160.062187) rotate(-90) scale(0.12 -0.12)">
      <use xlink:href="#DejaVuSans-45"/>
      <use xlink:href="#DejaVuSans-72" x="63.183594"/>
      <use xlink:href="#DejaVuSans-72" x="102.546875"/>
      <use xlink:href="#DejaVuSans-6f" x="141.410156"/>
      <use xlink:href="#DejaVuSans-72" x="202.591797"/>
     </g>
    </g>
   </g>
   <g id="line2d_29">
    <path d="M 92.290909 138.582187 
L 96.390083 165.996021 
L 100.489256 178.481213 
L 104.58843 185.850845 
L 108.687603 191.610875 
L 112.786777 195.21391 
L 116.88595 197.209834 
L 120.985124 201.141273 
L 125.084298 202.412501 
L 129.183471 204.435298 
L 133.282645 205.31725 
L 137.381818 207.542918 
L 141.480992 208.902853 
L 145.580165 209.470371 
L 149.679339 210.640141 
L 153.778512 211.513681 
L 157.877686 213.328756 
L 161.97686 213.94937 
L 166.076033 214.329024 
L 170.175207 214.695645 
L 174.27438 215.431741 
L 178.373554 216.237999 
L 182.472727 217.419629 
L 186.571901 217.919442 
L 190.671074 218.975199 
L 194.770248 218.571622 
L 198.869421 219.449541 
L 202.968595 219.25747 
L 207.067769 220.363828 
L 211.166942 221.244071 
L 215.266116 221.721123 
L 219.365289 221.727941 
L 223.464463 223.169955 
L 227.563636 223.039762 
L 231.66281 223.259423 
L 235.761983 222.922933 
L 239.861157 223.154103 
L 243.960331 223.568038 
L 248.059504 224.735118 
L 252.158678 224.853365 
L 256.257851 225.541645 
L 260.357025 226.18435 
L 264.456198 225.078387 
L 268.555372 225.879272 
L 272.654545 224.978686 
L 276.753719 227.293885 
L 280.852893 227.759675 
L 284.952066 227.457993 
L 289.05124 228.057397 
L 293.150413 228.395502 
L 297.249587 227.848416 
L 301.34876 228.702105 
L 305.447934 228.264952 
L 309.547107 229.072717 
L 313.646281 229.538636 
L 317.745455 229.569874 
L 321.844628 228.79778 
L 325.943802 229.252163 
L 330.042975 230.11675 
L 334.142149 229.662106 
L 338.241322 229.96099 
L 342.340496 230.572768 
L 346.439669 231.200979 
L 350.538843 231.497331 
L 354.638017 231.299234 
L 358.73719 231.10418 
L 362.836364 230.999224 
L 366.935537 231.637701 
L 371.034711 231.486172 
L 375.133884 232.915581 
L 379.233058 232.632938 
L 383.332231 232.676635 
L 387.431405 231.329381 
L 391.530579 233.06001 
L 395.629752 233.090141 
L 399.728926 233.344364 
L 403.828099 234.079363 
L 407.927273 232.861946 
L 412.026446 233.739982 
L 416.12562 232.917755 
L 420.224793 234.344623 
L 424.323967 234.480658 
L 428.42314 235.101031 
L 432.522314 234.946081 
L 436.621488 234.778118 
L 440.720661 234.481936 
L 444.819835 235.513104 
L 448.919008 234.925358 
L 453.018182 235.392001 
L 457.117355 234.459976 
L 461.216529 235.040192 
L 465.315702 235.654166 
L 469.414876 235.765379 
L 473.51405 236.254576 
L 477.613223 236.45869 
L 481.712397 235.980468 
L 485.81157 236.588099 
L 489.910744 236.393036 
L 494.009917 236.157711 
L 498.109091 235.966576 
" clip-path="url(#p619565be80)" style="fill: none; stroke: #0000ff; stroke-width: 1.5; stroke-linecap: square"/>
   </g>
   <g id="line2d_30">
    <path d="M 92.290909 136.33461 
L 96.390083 162.462921 
L 100.489256 173.481004 
L 104.58843 179.444815 
L 108.687603 183.732155 
L 112.786777 185.477987 
L 116.88595 186.272807 
L 120.985124 189.218419 
L 125.084298 189.390382 
L 129.183471 190.477357 
L 133.282645 189.772668 
L 137.381818 190.468732 
L 141.480992 191.0905 
L 145.580165 191.056178 
L 149.679339 190.671837 
L 153.778512 190.141993 
L 157.877686 190.979155 
L 161.97686 190.685546 
L 166.076033 189.883299 
L 170.175207 188.798096 
L 174.27438 189.001134 
L 178.373554 189.128221 
L 182.472727 189.110423 
L 186.571901 188.924742 
L 190.671074 189.123947 
L 194.770248 187.333071 
L 198.869421 186.931792 
L 202.968595 185.688398 
L 207.067769 186.522945 
L 211.166942 186.298237 
L 215.266116 186.073507 
L 219.365289 184.859566 
L 223.464463 185.123274 
L 227.563636 183.668066 
L 231.66281 184.160411 
L 235.761983 182.219719 
L 239.861157 181.900578 
L 243.960331 181.394076 
L 248.059504 181.834343 
L 252.158678 180.564538 
L 256.257851 180.297683 
L 260.357025 179.734854 
L 264.456198 178.082355 
L 268.555372 177.852227 
L 272.654545 175.694273 
L 276.753719 178.390004 
L 280.852893 177.399973 
L 284.952066 176.026922 
L 289.05124 176.140765 
L 293.150413 175.418478 
L 297.249587 174.098759 
L 301.34876 173.33149 
L 305.447934 172.157284 
L 309.547107 172.670858 
L 313.646281 171.852769 
L 317.745455 171.015961 
L 321.844628 169.423439 
L 325.943802 168.475939 
L 330.042975 168.241055 
L 334.142149 167.899502 
L 338.241322 166.746752 
L 342.340496 166.618398 
L 346.439669 166.433669 
L 350.538843 165.748591 
L 354.638017 164.327538 
L 358.73719 163.006845 
L 362.836364 162.220196 
L 366.935537 163.191097 
L 371.034711 161.940804 
L 375.133884 162.301935 
L 379.233058 161.39006 
L 383.332231 160.413954 
L 387.431405 157.388357 
L 391.530579 159.103472 
L 395.629752 157.772969 
L 399.728926 157.498185 
L 403.828099 156.774035 
L 407.927273 154.492608 
L 412.026446 155.704372 
L 416.12562 152.772306 
L 420.224793 153.280751 
L 424.323967 153.714002 
L 428.42314 153.39117 
L 432.522314 151.477576 
L 436.621488 150.328077 
L 440.720661 149.683562 
L 444.819835 150.371528 
L 448.919008 147.746956 
L 453.018182 148.130637 
L 457.117355 146.326063 
L 461.216529 145.164397 
L 465.315702 146.566036 
L 469.414876 144.33603 
L 473.51405 144.078007 
L 477.613223 144.177872 
L 481.712397 143.265772 
L 485.81157 141.974144 
L 489.910744 141.807474 
L 494.009917 139.280266 
L 498.109091 139.280246 
" clip-path="url(#p619565be80)" style="fill: none; stroke-dasharray: 5.55,2.4; stroke-dashoffset: 0; stroke: #0000ff; stroke-width: 1.5"/>
   </g>
   <g id="line2d_31">
    <path d="M 92.290909 157.834393 
L 96.390083 180.578886 
L 100.489256 188.769215 
L 104.58843 197.207541 
L 108.687603 199.728043 
L 112.786777 206.129725 
L 116.88595 205.750251 
L 120.985124 209.631501 
L 125.084298 211.30848 
L 129.183471 212.688743 
L 133.282645 214.120854 
L 137.381818 216.584418 
L 141.480992 217.498522 
L 145.580165 220.898621 
L 149.679339 220.495501 
L 153.778512 222.626669 
L 157.877686 222.003487 
L 161.97686 224.652326 
L 166.076033 224.947606 
L 170.175207 226.269893 
L 174.27438 225.101618 
L 178.373554 227.839503 
L 182.472727 228.037976 
L 186.571901 228.714898 
L 190.671074 228.902651 
L 194.770248 229.425514 
L 198.869421 228.816629 
L 202.968595 230.566282 
L 207.067769 230.718505 
L 211.166942 232.245085 
L 215.266116 232.534563 
L 219.365289 232.692146 
L 223.464463 233.677515 
L 227.563636 234.543332 
L 231.66281 234.705814 
L 235.761983 235.421094 
L 239.861157 235.475557 
L 243.960331 234.849527 
L 248.059504 236.089829 
L 252.158678 236.782134 
L 256.257851 236.973415 
L 260.357025 236.696449 
L 264.456198 237.796961 
L 268.555372 237.421033 
L 272.654545 237.457884 
L 276.753719 238.378554 
L 280.852893 237.274045 
L 284.952066 239.161722 
L 289.05124 237.617988 
L 293.150413 237.966857 
L 297.249587 239.22314 
L 301.34876 239.469201 
L 305.447934 238.956749 
L 309.547107 240.58925 
L 313.646281 240.701815 
L 317.745455 241.01642 
L 321.844628 240.794354 
L 325.943802 240.759465 
L 330.042975 240.771921 
L 334.142149 240.351327 
L 338.241322 241.208221 
L 342.340496 241.706664 
L 346.439669 240.555672 
L 350.538843 241.845346 
L 354.638017 240.010843 
L 358.73719 241.126024 
L 362.836364 241.845062 
L 366.935537 243.150508 
L 371.034711 242.573098 
L 375.133884 242.344805 
L 379.233058 242.470939 
L 383.332231 242.682821 
L 387.431405 243.38424 
L 391.530579 242.903799 
L 395.629752 243.247538 
L 399.728926 242.442986 
L 403.828099 243.690976 
L 407.927273 243.876438 
L 412.026446 243.706376 
L 416.12562 242.955025 
L 420.224793 242.824264 
L 424.323967 242.134231 
L 428.42314 243.062041 
L 432.522314 243.709616 
L 436.621488 244.70223 
L 440.720661 244.882865 
L 444.819835 244.225129 
L 448.919008 242.188583 
L 453.018182 245.215674 
L 457.117355 245.158046 
L 461.216529 244.61231 
L 465.315702 244.645264 
L 469.414876 243.983704 
L 473.51405 245.55276 
L 477.613223 242.863546 
L 481.712397 245.924504 
L 485.81157 244.866385 
L 489.910744 245.488814 
L 494.009917 245.006397 
L 498.109091 246.24 
" clip-path="url(#p619565be80)" style="fill: none; stroke: #ff0000; stroke-width: 1.5; stroke-linecap: square"/>
   </g>
   <g id="line2d_32">
    <path d="M 92.290909 155.233314 
L 96.390083 175.254847 
L 100.489256 181.654894 
L 104.58843 188.240198 
L 108.687603 188.364663 
L 112.786777 192.831385 
L 116.88595 190.729931 
L 120.985124 192.664625 
L 125.084298 192.319235 
L 129.183471 193.049691 
L 133.282645 192.324729 
L 137.381818 192.891123 
L 141.480992 192.305346 
L 145.580165 193.943724 
L 149.679339 192.162363 
L 153.778512 192.15966 
L 157.877686 189.594886 
L 161.97686 191.471566 
L 166.076033 189.349299 
L 170.175207 189.460414 
L 174.27438 185.257391 
L 178.373554 185.494685 
L 182.472727 184.864144 
L 186.571901 184.265719 
L 190.671074 183.529984 
L 194.770248 180.514239 
L 198.869421 178.866638 
L 202.968595 177.771579 
L 207.067769 176.125637 
L 211.166942 177.302147 
L 215.266116 176.249909 
L 219.365289 173.074027 
L 223.464463 172.74727 
L 227.563636 170.930865 
L 231.66281 169.145314 
L 235.761983 169.496195 
L 239.861157 168.539616 
L 243.960331 167.276227 
L 248.059504 164.119425 
L 252.158678 162.773134 
L 256.257851 161.79212 
L 260.357025 160.449886 
L 264.456198 158.733872 
L 268.555372 154.623085 
L 272.654545 152.859126 
L 276.753719 153.34964 
L 280.852893 153.296256 
L 284.952066 151.330248 
L 289.05124 145.886764 
L 293.150413 145.926819 
L 297.249587 145.231918 
L 301.34876 143.507046 
L 305.447934 141.742791 
L 309.547107 141.36995 
L 313.646281 140.846357 
L 317.745455 139.681854 
L 321.844628 135.4288 
L 325.943802 136.672251 
L 330.042975 133.047872 
L 334.142149 130.351991 
L 338.241322 130.298396 
L 342.340496 128.852892 
L 346.439669 127.206953 
L 350.538843 124.971188 
L 354.638017 121.341632 
L 358.73719 118.720821 
L 362.836364 120.897812 
L 366.935537 121.356473 
L 371.034711 119.495563 
L 375.133884 114.275489 
L 379.233058 113.993481 
L 383.332231 112.792698 
L 387.431405 110.812615 
L 391.530579 109.284232 
L 395.629752 110.26777 
L 399.728926 107.169764 
L 403.828099 104.346994 
L 407.927273 103.84938 
L 412.026446 100.602949 
L 416.12562 96.674069 
L 420.224793 93.635758 
L 424.323967 93.63015 
L 428.42314 91.608308 
L 432.522314 94.518268 
L 436.621488 93.56589 
L 440.720661 92.471642 
L 444.819835 89.25041 
L 448.919008 86.95659 
L 453.018182 87.972795 
L 457.117355 87.492493 
L 461.216529 80.053423 
L 465.315702 82.090514 
L 469.414876 79.881991 
L 473.51405 76.349068 
L 477.613223 76.44023 
L 481.712397 81.011265 
L 485.81157 76.450912 
L 489.910744 76.34036 
L 494.009917 70.183871 
L 498.109091 72.096827 
" clip-path="url(#p619565be80)" style="fill: none; stroke-dasharray: 5.55,2.4; stroke-dashoffset: 0; stroke: #ff0000; stroke-width: 1.5"/>
   </g>
   <g id="line2d_33">
    <path d="M 92.290909 167.40539 
L 96.390083 185.674515 
L 100.489256 191.315002 
L 104.58843 200.804535 
L 108.687603 203.241155 
L 112.786777 208.615866 
L 116.88595 212.198309 
L 120.985124 213.146911 
L 125.084298 212.542181 
L 129.183471 218.319073 
L 133.282645 217.106745 
L 137.381818 219.381062 
L 141.480992 222.639437 
L 145.580165 223.925182 
L 149.679339 222.530112 
L 153.778512 224.869145 
L 157.877686 226.474335 
L 161.97686 225.488872 
L 166.076033 227.144694 
L 170.175207 230.124044 
L 174.27438 228.172928 
L 178.373554 229.387172 
L 182.472727 231.148429 
L 186.571901 231.916423 
L 190.671074 232.596891 
L 194.770248 232.591229 
L 198.869421 233.386866 
L 202.968595 234.265406 
L 207.067769 234.296252 
L 211.166942 232.779875 
L 215.266116 235.703377 
L 219.365289 236.486782 
L 223.464463 235.064839 
L 227.563636 236.675268 
L 231.66281 236.889274 
L 235.761983 235.288294 
L 239.861157 238.552569 
L 243.960331 236.269643 
L 248.059504 237.665736 
L 252.158678 238.21312 
L 256.257851 237.322104 
L 260.357025 238.602394 
L 264.456198 240.073627 
L 268.555372 239.694866 
L 272.654545 240.478375 
L 276.753719 238.359266 
L 280.852893 240.07169 
L 284.952066 239.312331 
L 289.05124 240.264677 
L 293.150413 237.675836 
L 297.249587 238.535253 
L 301.34876 241.034711 
L 305.447934 241.365476 
L 309.547107 240.795354 
L 313.646281 240.583286 
L 317.745455 241.819522 
L 321.844628 239.311802 
L 325.943802 240.439077 
L 330.042975 241.294036 
L 334.142149 242.560853 
L 338.241322 241.558772 
L 342.340496 240.755851 
L 346.439669 242.067633 
L 350.538843 241.682351 
L 354.638017 242.021475 
L 358.73719 241.751428 
L 362.836364 242.888616 
L 366.935537 242.167618 
L 371.034711 242.902377 
L 375.133884 242.36478 
L 379.233058 243.299316 
L 383.332231 242.734019 
L 387.431405 242.844699 
L 391.530579 243.649261 
L 395.629752 239.486333 
L 399.728926 243.016932 
L 403.828099 243.780095 
L 407.927273 242.777666 
L 412.026446 242.571195 
L 416.12562 243.99217 
L 420.224793 242.932077 
L 424.323967 241.547666 
L 428.42314 243.104452 
L 432.522314 242.030376 
L 436.621488 241.584331 
L 440.720661 245.42467 
L 444.819835 243.730302 
L 448.919008 240.917619 
L 453.018182 243.150565 
L 457.117355 244.095335 
L 461.216529 244.329152 
L 465.315702 243.95163 
L 469.414876 245.444401 
L 473.51405 242.42628 
L 477.613223 243.060283 
L 481.712397 243.595035 
L 485.81157 244.85696 
L 489.910744 244.126882 
L 494.009917 244.832542 
L 498.109091 242.69692 
" clip-path="url(#p619565be80)" style="fill: none; stroke: #008000; stroke-width: 1.5; stroke-linecap: square"/>
   </g>
   <g id="line2d_34">
    <path d="M 92.290909 164.547595 
L 96.390083 180.053719 
L 100.489256 183.340291 
L 104.58843 190.766142 
L 108.687603 190.385367 
L 112.786777 194.729268 
L 116.88595 196.535407 
L 120.985124 194.957456 
L 125.084298 192.618094 
L 129.183471 195.970639 
L 133.282645 191.870713 
L 137.381818 193.961715 
L 141.480992 193.850975 
L 145.580165 192.24674 
L 149.679339 187.964852 
L 153.778512 190.103307 
L 157.877686 189.558215 
L 161.97686 184.471672 
L 166.076033 187.365788 
L 170.175207 186.174564 
L 174.27438 183.093352 
L 178.373554 182.997999 
L 182.472727 181.250977 
L 186.571901 180.266327 
L 190.671074 176.536624 
L 194.770248 176.659103 
L 198.869421 176.101308 
L 202.968595 172.650903 
L 207.067769 171.320185 
L 211.166942 168.20222 
L 215.266116 168.472267 
L 219.365289 168.364147 
L 223.464463 162.594556 
L 227.563636 162.267753 
L 231.66281 161.112577 
L 235.761983 159.406259 
L 239.861157 157.942041 
L 243.960331 155.010623 
L 248.059504 153.007934 
L 252.158678 151.503526 
L 256.257851 147.333955 
L 260.357025 150.413638 
L 264.456198 148.535856 
L 268.555372 143.899818 
L 272.654545 143.590801 
L 276.753719 137.869389 
L 280.852893 138.614824 
L 284.952066 134.71373 
L 289.05124 135.710804 
L 293.150413 129.275639 
L 297.249587 129.648343 
L 301.34876 130.36999 
L 305.447934 130.56377 
L 309.547107 125.297172 
L 313.646281 125.965166 
L 317.745455 123.32783 
L 321.844628 115.487356 
L 325.943802 116.717044 
L 330.042975 114.183113 
L 334.142149 117.351694 
L 338.241322 114.381683 
L 342.340496 112.636854 
L 346.439669 110.246937 
L 350.538843 108.016765 
L 354.638017 108.465605 
L 358.73719 102.409068 
L 362.836364 104.794671 
L 366.935537 100.545881 
L 371.034711 97.480521 
L 375.133884 96.02479 
L 379.233058 101.58171 
L 383.332231 92.293625 
L 387.431405 90.105403 
L 391.530579 92.057465 
L 395.629752 85.390252 
L 399.728926 88.953338 
L 403.828099 84.832921 
L 407.927273 83.70593 
L 412.026446 83.36521 
L 416.12562 80.851039 
L 420.224793 80.946765 
L 424.323967 68.573873 
L 428.42314 74.521534 
L 432.522314 70.4514 
L 436.621488 65.730661 
L 440.720661 74.167275 
L 444.819835 60.111312 
L 448.919008 63.739578 
L 453.018182 61.198607 
L 457.117355 64.645998 
L 461.216529 57.121861 
L 465.315702 58.274563 
L 469.414876 65.94576 
L 473.51405 54.877452 
L 477.613223 53.518892 
L 481.712397 44.64 
L 485.81157 55.184188 
L 489.910744 48.819991 
L 494.009917 48.601753 
L 498.109091 49.434118 
" clip-path="url(#p619565be80)" style="fill: none; stroke-dasharray: 5.55,2.4; stroke-dashoffset: 0; stroke: #008000; stroke-width: 1.5"/>
   </g>
   <g id="patch_3">
    <path d="M 72 256.32 
L 72 34.56 
" style="fill: none; stroke: #ffffff; stroke-linejoin: miter; stroke-linecap: square"/>
   </g>
   <g id="patch_4">
    <path d="M 518.4 256.32 
L 518.4 34.56 
" style="fill: none; stroke: #ffffff; stroke-linejoin: miter; stroke-linecap: square"/>
   </g>
   <g id="patch_5">
    <path d="M 72 256.32 
L 518.4 256.32 
" style="fill: none; stroke: #ffffff; stroke-linejoin: miter; stroke-linecap: square"/>
   </g>
   <g id="patch_6">
    <path d="M 72 34.56 
L 518.4 34.56 
" style="fill: none; stroke: #ffffff; stroke-linejoin: miter; stroke-linecap: square"/>
   </g>
   <g id="text_17">
    <!-- Error Performances across Different Network Depths -->
    <g transform="translate(106.362 28.56) scale(0.144 -0.144)">
     <defs>
      <path id="DejaVuSans-50" d="M 1259 4147 
L 1259 2394 
L 2053 2394 
Q 2494 2394 2734 2622 
Q 2975 2850 2975 3272 
Q 2975 3691 2734 3919 
Q 2494 4147 2053 4147 
L 1259 4147 
z
M 628 4666 
L 2053 4666 
Q 2838 4666 3239 4311 
Q 3641 3956 3641 3272 
Q 3641 2581 3239 2228 
Q 2838 1875 2053 1875 
L 1259 1875 
L 1259 0 
L 628 0 
L 628 4666 
z
" transform="scale(0.015625)"/>
      <path id="DejaVuSans-66" d="M 2375 4863 
L 2375 4384 
L 1825 4384 
Q 1516 4384 1395 4259 
Q 1275 4134 1275 3809 
L 1275 3500 
L 2222 3500 
L 2222 3053 
L 1275 3053 
L 1275 0 
L 697 0 
L 697 3053 
L 147 3053 
L 147 3500 
L 697 3500 
L 697 3744 
Q 697 4328 969 4595 
Q 1241 4863 1831 4863 
L 2375 4863 
z
" transform="scale(0.015625)"/>
      <path id="DejaVuSans-61" d="M 2194 1759 
Q 1497 1759 1228 1600 
Q 959 1441 959 1056 
Q 959 750 1161 570 
Q 1363 391 1709 391 
Q 2188 391 2477 730 
Q 2766 1069 2766 1631 
L 2766 1759 
L 2194 1759 
z
M 3341 1997 
L 3341 0 
L 2766 0 
L 2766 531 
Q 2569 213 2275 61 
Q 1981 -91 1556 -91 
Q 1019 -91 701 211 
Q 384 513 384 1019 
Q 384 1609 779 1909 
Q 1175 2209 1959 2209 
L 2766 2209 
L 2766 2266 
Q 2766 2663 2505 2880 
Q 2244 3097 1772 3097 
Q 1472 3097 1187 3025 
Q 903 2953 641 2809 
L 641 3341 
Q 956 3463 1253 3523 
Q 1550 3584 1831 3584 
Q 2591 3584 2966 3190 
Q 3341 2797 3341 1997 
z
" transform="scale(0.015625)"/>
      <path id="DejaVuSans-73" d="M 2834 3397 
L 2834 2853 
Q 2591 2978 2328 3040 
Q 2066 3103 1784 3103 
Q 1356 3103 1142 2972 
Q 928 2841 928 2578 
Q 928 2378 1081 2264 
Q 1234 2150 1697 2047 
L 1894 2003 
Q 2506 1872 2764 1633 
Q 3022 1394 3022 966 
Q 3022 478 2636 193 
Q 2250 -91 1575 -91 
Q 1294 -91 989 -36 
Q 684 19 347 128 
L 347 722 
Q 666 556 975 473 
Q 1284 391 1588 391 
Q 1994 391 2212 530 
Q 2431 669 2431 922 
Q 2431 1156 2273 1281 
Q 2116 1406 1581 1522 
L 1381 1569 
Q 847 1681 609 1914 
Q 372 2147 372 2553 
Q 372 3047 722 3315 
Q 1072 3584 1716 3584 
Q 2034 3584 2315 3537 
Q 2597 3491 2834 3397 
z
" transform="scale(0.015625)"/>
      <path id="DejaVuSans-44" d="M 1259 4147 
L 1259 519 
L 2022 519 
Q 2988 519 3436 956 
Q 3884 1394 3884 2338 
Q 3884 3275 3436 3711 
Q 2988 4147 2022 4147 
L 1259 4147 
z
M 628 4666 
L 1925 4666 
Q 3281 4666 3915 4102 
Q 4550 3538 4550 2338 
Q 4550 1131 3912 565 
Q 3275 0 1925 0 
L 628 0 
L 628 4666 
z
" transform="scale(0.015625)"/>
      <path id="DejaVuSans-69" d="M 603 3500 
L 1178 3500 
L 1178 0 
L 603 0 
L 603 3500 
z
M 603 4863 
L 1178 4863 
L 1178 4134 
L 603 4134 
L 603 4863 
z
" transform="scale(0.015625)"/>
      <path id="DejaVuSans-74" d="M 1172 4494 
L 1172 3500 
L 2356 3500 
L 2356 3053 
L 1172 3053 
L 1172 1153 
Q 1172 725 1289 603 
Q 1406 481 1766 481 
L 2356 481 
L 2356 0 
L 1766 0 
Q 1100 0 847 248 
Q 594 497 594 1153 
L 594 3053 
L 172 3053 
L 172 3500 
L 594 3500 
L 594 4494 
L 1172 4494 
z
" transform="scale(0.015625)"/>
      <path id="DejaVuSans-4e" d="M 628 4666 
L 1478 4666 
L 3547 763 
L 3547 4666 
L 4159 4666 
L 4159 0 
L 3309 0 
L 1241 3903 
L 1241 0 
L 628 0 
L 628 4666 
z
" transform="scale(0.015625)"/>
      <path id="DejaVuSans-77" d="M 269 3500 
L 844 3500 
L 1563 769 
L 2278 3500 
L 2956 3500 
L 3675 769 
L 4391 3500 
L 4966 3500 
L 4050 0 
L 3372 0 
L 2619 2869 
L 1863 0 
L 1184 0 
L 269 3500 
z
" transform="scale(0.015625)"/>
      <path id="DejaVuSans-6b" d="M 581 4863 
L 1159 4863 
L 1159 1991 
L 2875 3500 
L 3609 3500 
L 1753 1863 
L 3688 0 
L 2938 0 
L 1159 1709 
L 1159 0 
L 581 0 
L 581 4863 
z
" transform="scale(0.015625)"/>
     </defs>
     <use xlink:href="#DejaVuSans-45"/>
     <use xlink:href="#DejaVuSans-72" x="63.183594"/>
     <use xlink:href="#DejaVuSans-72" x="102.546875"/>
     <use xlink:href="#DejaVuSans-6f" x="141.410156"/>
     <use xlink:href="#DejaVuSans-72" x="202.591797"/>
     <use xlink:href="#DejaVuSans-20" x="243.705078"/>
     <use xlink:href="#DejaVuSans-50" x="275.492188"/>
     <use xlink:href="#DejaVuSans-65" x="332.169922"/>
     <use xlink:href="#DejaVuSans-72" x="393.693359"/>
     <use xlink:href="#DejaVuSans-66" x="434.806641"/>
     <use xlink:href="#DejaVuSans-6f" x="470.011719"/>
     <use xlink:href="#DejaVuSans-72" x="531.193359"/>
     <use xlink:href="#DejaVuSans-6d" x="570.556641"/>
     <use xlink:href="#DejaVuSans-61" x="667.96875"/>
     <use xlink:href="#DejaVuSans-6e" x="729.248047"/>
     <use xlink:href="#DejaVuSans-63" x="792.626953"/>
     <use xlink:href="#DejaVuSans-65" x="847.607422"/>
     <use xlink:href="#DejaVuSans-73" x="909.130859"/>
     <use xlink:href="#DejaVuSans-20" x="961.230469"/>
     <use xlink:href="#DejaVuSans-61" x="993.017578"/>
     <use xlink:href="#DejaVuSans-63" x="1054.296875"/>
     <use xlink:href="#DejaVuSans-72" x="1109.277344"/>
     <use xlink:href="#DejaVuSans-6f" x="1148.140625"/>
     <use xlink:href="#DejaVuSans-73" x="1209.322266"/>
     <use xlink:href="#DejaVuSans-73" x="1261.421875"/>
     <use xlink:href="#DejaVuSans-20" x="1313.521484"/>
     <use xlink:href="#DejaVuSans-44" x="1345.308594"/>
     <use xlink:href="#DejaVuSans-69" x="1422.310547"/>
     <use xlink:href="#DejaVuSans-66" x="1450.09375"/>
     <use xlink:href="#DejaVuSans-66" x="1485.298828"/>
     <use xlink:href="#DejaVuSans-65" x="1520.503906"/>
     <use xlink:href="#DejaVuSans-72" x="1582.027344"/>
     <use xlink:href="#DejaVuSans-65" x="1620.890625"/>
     <use xlink:href="#DejaVuSans-6e" x="1682.414062"/>
     <use xlink:href="#DejaVuSans-74" x="1745.792969"/>
     <use xlink:href="#DejaVuSans-20" x="1785.001953"/>
     <use xlink:href="#DejaVuSans-4e" x="1816.789062"/>
     <use xlink:href="#DejaVuSans-65" x="1891.59375"/>
     <use xlink:href="#DejaVuSans-74" x="1953.117188"/>
     <use xlink:href="#DejaVuSans-77" x="1992.326172"/>
     <use xlink:href="#DejaVuSans-6f" x="2074.113281"/>
     <use xlink:href="#DejaVuSans-72" x="2135.294922"/>
     <use xlink:href="#DejaVuSans-6b" x="2176.408203"/>
     <use xlink:href="#DejaVuSans-20" x="2234.318359"/>
     <use xlink:href="#DejaVuSans-44" x="2266.105469"/>
     <use xlink:href="#DejaVuSans-65" x="2343.107422"/>
     <use xlink:href="#DejaVuSans-70" x="2404.630859"/>
     <use xlink:href="#DejaVuSans-74" x="2468.107422"/>
     <use xlink:href="#DejaVuSans-68" x="2507.316406"/>
     <use xlink:href="#DejaVuSans-73" x="2570.695312"/>
    </g>
   </g>
   <g id="legend_1">
    <g id="patch_7">
     <path d="M 77.6 111.415 
L 213.35875 111.415 
Q 214.95875 111.415 214.95875 109.815 
L 214.95875 40.16 
Q 214.95875 38.56 213.35875 38.56 
L 77.6 38.56 
Q 76 38.56 76 40.16 
L 76 109.815 
Q 76 111.415 77.6 111.415 
z
" style="fill: #e5e5e5; opacity: 0.8; stroke: #cccccc; stroke-width: 0.5; stroke-linejoin: miter"/>
    </g>
    <g id="line2d_35">
     <path d="M 79.2 45.03875 
L 87.2 45.03875 
L 95.2 45.03875 
" style="fill: none; stroke: #0000ff; stroke-width: 1.5; stroke-linecap: square"/>
    </g>
    <g id="text_18">
     <!-- Error Train - 1 Hidden Layer -->
     <g transform="translate(101.6 47.83875) scale(0.08 -0.08)">
      <defs>
       <path id="DejaVuSans-54" d="M -19 4666 
L 3928 4666 
L 3928 4134 
L 2272 4134 
L 2272 0 
L 1638 0 
L 1638 4134 
L -19 4134 
L -19 4666 
z
" transform="scale(0.015625)"/>
       <path id="DejaVuSans-2d" d="M 313 2009 
L 1997 2009 
L 1997 1497 
L 313 1497 
L 313 2009 
z
" transform="scale(0.015625)"/>
       <path id="DejaVuSans-48" d="M 628 4666 
L 1259 4666 
L 1259 2753 
L 3553 2753 
L 3553 4666 
L 4184 4666 
L 4184 0 
L 3553 0 
L 3553 2222 
L 1259 2222 
L 1259 0 
L 628 0 
L 628 4666 
z
" transform="scale(0.015625)"/>
       <path id="DejaVuSans-64" d="M 2906 2969 
L 2906 4863 
L 3481 4863 
L 3481 0 
L 2906 0 
L 2906 525 
Q 2725 213 2448 61 
Q 2172 -91 1784 -91 
Q 1150 -91 751 415 
Q 353 922 353 1747 
Q 353 2572 751 3078 
Q 1150 3584 1784 3584 
Q 2172 3584 2448 3432 
Q 2725 3281 2906 2969 
z
M 947 1747 
Q 947 1113 1208 752 
Q 1469 391 1925 391 
Q 2381 391 2643 752 
Q 2906 1113 2906 1747 
Q 2906 2381 2643 2742 
Q 2381 3103 1925 3103 
Q 1469 3103 1208 2742 
Q 947 2381 947 1747 
z
" transform="scale(0.015625)"/>
       <path id="DejaVuSans-4c" d="M 628 4666 
L 1259 4666 
L 1259 531 
L 3531 531 
L 3531 0 
L 628 0 
L 628 4666 
z
" transform="scale(0.015625)"/>
       <path id="DejaVuSans-79" d="M 2059 -325 
Q 1816 -950 1584 -1140 
Q 1353 -1331 966 -1331 
L 506 -1331 
L 506 -850 
L 844 -850 
Q 1081 -850 1212 -737 
Q 1344 -625 1503 -206 
L 1606 56 
L 191 3500 
L 800 3500 
L 1894 763 
L 2988 3500 
L 3597 3500 
L 2059 -325 
z
" transform="scale(0.015625)"/>
      </defs>
      <use xlink:href="#DejaVuSans-45"/>
      <use xlink:href="#DejaVuSans-72" x="63.183594"/>
      <use xlink:href="#DejaVuSans-72" x="102.546875"/>
      <use xlink:href="#DejaVuSans-6f" x="141.410156"/>
      <use xlink:href="#DejaVuSans-72" x="202.591797"/>
      <use xlink:href="#DejaVuSans-20" x="243.705078"/>
      <use xlink:href="#DejaVuSans-54" x="275.492188"/>
      <use xlink:href="#DejaVuSans-72" x="321.826172"/>
      <use xlink:href="#DejaVuSans-61" x="362.939453"/>
      <use xlink:href="#DejaVuSans-69" x="424.21875"/>
      <use xlink:href="#DejaVuSans-6e" x="452.001953"/>
      <use xlink:href="#DejaVuSans-20" x="515.380859"/>
      <use xlink:href="#DejaVuSans-2d" x="547.167969"/>
      <use xlink:href="#DejaVuSans-20" x="583.251953"/>
      <use xlink:href="#DejaVuSans-31" x="615.039062"/>
      <use xlink:href="#DejaVuSans-20" x="678.662109"/>
      <use xlink:href="#DejaVuSans-48" x="710.449219"/>
      <use xlink:href="#DejaVuSans-69" x="785.644531"/>
      <use xlink:href="#DejaVuSans-64" x="813.427734"/>
      <use xlink:href="#DejaVuSans-64" x="876.904297"/>
      <use xlink:href="#DejaVuSans-65" x="940.380859"/>
      <use xlink:href="#DejaVuSans-6e" x="1001.904297"/>
      <use xlink:href="#DejaVuSans-20" x="1065.283203"/>
      <use xlink:href="#DejaVuSans-4c" x="1097.070312"/>
      <use xlink:href="#DejaVuSans-61" x="1152.783203"/>
      <use xlink:href="#DejaVuSans-79" x="1214.0625"/>
      <use xlink:href="#DejaVuSans-65" x="1273.242188"/>
      <use xlink:href="#DejaVuSans-72" x="1334.765625"/>
     </g>
    </g>
    <g id="line2d_36">
     <path d="M 79.2 56.78125 
L 87.2 56.78125 
L 95.2 56.78125 
" style="fill: none; stroke-dasharray: 5.55,2.4; stroke-dashoffset: 0; stroke: #0000ff; stroke-width: 1.5"/>
    </g>
    <g id="text_19">
     <!-- Error Valid - 1 Hidden Layer -->
     <g transform="translate(101.6 59.58125) scale(0.08 -0.08)">
      <defs>
       <path id="DejaVuSans-56" d="M 1831 0 
L 50 4666 
L 709 4666 
L 2188 738 
L 3669 4666 
L 4325 4666 
L 2547 0 
L 1831 0 
z
" transform="scale(0.015625)"/>
       <path id="DejaVuSans-6c" d="M 603 4863 
L 1178 4863 
L 1178 0 
L 603 0 
L 603 4863 
z
" transform="scale(0.015625)"/>
      </defs>
      <use xlink:href="#DejaVuSans-45"/>
      <use xlink:href="#DejaVuSans-72" x="63.183594"/>
      <use xlink:href="#DejaVuSans-72" x="102.546875"/>
      <use xlink:href="#DejaVuSans-6f" x="141.410156"/>
      <use xlink:href="#DejaVuSans-72" x="202.591797"/>
      <use xlink:href="#DejaVuSans-20" x="243.705078"/>
      <use xlink:href="#DejaVuSans-56" x="275.492188"/>
      <use xlink:href="#DejaVuSans-61" x="336.150391"/>
      <use xlink:href="#DejaVuSans-6c" x="397.429688"/>
      <use xlink:href="#DejaVuSans-69" x="425.212891"/>
      <use xlink:href="#DejaVuSans-64" x="452.996094"/>
      <use xlink:href="#DejaVuSans-20" x="516.472656"/>
      <use xlink:href="#DejaVuSans-2d" x="548.259766"/>
      <use xlink:href="#DejaVuSans-20" x="584.34375"/>
      <use xlink:href="#DejaVuSans-31" x="616.130859"/>
      <use xlink:href="#DejaVuSans-20" x="679.753906"/>
      <use xlink:href="#DejaVuSans-48" x="711.541016"/>
      <use xlink:href="#DejaVuSans-69" x="786.736328"/>
      <use xlink:href="#DejaVuSans-64" x="814.519531"/>
      <use xlink:href="#DejaVuSans-64" x="877.996094"/>
      <use xlink:href="#DejaVuSans-65" x="941.472656"/>
      <use xlink:href="#DejaVuSans-6e" x="1002.996094"/>
      <use xlink:href="#DejaVuSans-20" x="1066.375"/>
      <use xlink:href="#DejaVuSans-4c" x="1098.162109"/>
      <use xlink:href="#DejaVuSans-61" x="1153.875"/>
      <use xlink:href="#DejaVuSans-79" x="1215.154297"/>
      <use xlink:href="#DejaVuSans-65" x="1274.333984"/>
      <use xlink:href="#DejaVuSans-72" x="1335.857422"/>
     </g>
    </g>
    <g id="line2d_37">
     <path d="M 79.2 68.52375 
L 87.2 68.52375 
L 95.2 68.52375 
" style="fill: none; stroke: #ff0000; stroke-width: 1.5; stroke-linecap: square"/>
    </g>
    <g id="text_20">
     <!-- Error Train - 2 Hidden Layer -->
     <g transform="translate(101.6 71.32375) scale(0.08 -0.08)">
      <use xlink:href="#DejaVuSans-45"/>
      <use xlink:href="#DejaVuSans-72" x="63.183594"/>
      <use xlink:href="#DejaVuSans-72" x="102.546875"/>
      <use xlink:href="#DejaVuSans-6f" x="141.410156"/>
      <use xlink:href="#DejaVuSans-72" x="202.591797"/>
      <use xlink:href="#DejaVuSans-20" x="243.705078"/>
      <use xlink:href="#DejaVuSans-54" x="275.492188"/>
      <use xlink:href="#DejaVuSans-72" x="321.826172"/>
      <use xlink:href="#DejaVuSans-61" x="362.939453"/>
      <use xlink:href="#DejaVuSans-69" x="424.21875"/>
      <use xlink:href="#DejaVuSans-6e" x="452.001953"/>
      <use xlink:href="#DejaVuSans-20" x="515.380859"/>
      <use xlink:href="#DejaVuSans-2d" x="547.167969"/>
      <use xlink:href="#DejaVuSans-20" x="583.251953"/>
      <use xlink:href="#DejaVuSans-32" x="615.039062"/>
      <use xlink:href="#DejaVuSans-20" x="678.662109"/>
      <use xlink:href="#DejaVuSans-48" x="710.449219"/>
      <use xlink:href="#DejaVuSans-69" x="785.644531"/>
      <use xlink:href="#DejaVuSans-64" x="813.427734"/>
      <use xlink:href="#DejaVuSans-64" x="876.904297"/>
      <use xlink:href="#DejaVuSans-65" x="940.380859"/>
      <use xlink:href="#DejaVuSans-6e" x="1001.904297"/>
      <use xlink:href="#DejaVuSans-20" x="1065.283203"/>
      <use xlink:href="#DejaVuSans-4c" x="1097.070312"/>
      <use xlink:href="#DejaVuSans-61" x="1152.783203"/>
      <use xlink:href="#DejaVuSans-79" x="1214.0625"/>
      <use xlink:href="#DejaVuSans-65" x="1273.242188"/>
      <use xlink:href="#DejaVuSans-72" x="1334.765625"/>
     </g>
    </g>
    <g id="line2d_38">
     <path d="M 79.2 80.26625 
L 87.2 80.26625 
L 95.2 80.26625 
" style="fill: none; stroke-dasharray: 5.55,2.4; stroke-dashoffset: 0; stroke: #ff0000; stroke-width: 1.5"/>
    </g>
    <g id="text_21">
     <!-- Error Valid - 2 Hidden Layer -->
     <g transform="translate(101.6 83.06625) scale(0.08 -0.08)">
      <use xlink:href="#DejaVuSans-45"/>
      <use xlink:href="#DejaVuSans-72" x="63.183594"/>
      <use xlink:href="#DejaVuSans-72" x="102.546875"/>
      <use xlink:href="#DejaVuSans-6f" x="141.410156"/>
      <use xlink:href="#DejaVuSans-72" x="202.591797"/>
      <use xlink:href="#DejaVuSans-20" x="243.705078"/>
      <use xlink:href="#DejaVuSans-56" x="275.492188"/>
      <use xlink:href="#DejaVuSans-61" x="336.150391"/>
      <use xlink:href="#DejaVuSans-6c" x="397.429688"/>
      <use xlink:href="#DejaVuSans-69" x="425.212891"/>
      <use xlink:href="#DejaVuSans-64" x="452.996094"/>
      <use xlink:href="#DejaVuSans-20" x="516.472656"/>
      <use xlink:href="#DejaVuSans-2d" x="548.259766"/>
      <use xlink:href="#DejaVuSans-20" x="584.34375"/>
      <use xlink:href="#DejaVuSans-32" x="616.130859"/>
      <use xlink:href="#DejaVuSans-20" x="679.753906"/>
      <use xlink:href="#DejaVuSans-48" x="711.541016"/>
      <use xlink:href="#DejaVuSans-69" x="786.736328"/>
      <use xlink:href="#DejaVuSans-64" x="814.519531"/>
      <use xlink:href="#DejaVuSans-64" x="877.996094"/>
      <use xlink:href="#DejaVuSans-65" x="941.472656"/>
      <use xlink:href="#DejaVuSans-6e" x="1002.996094"/>
      <use xlink:href="#DejaVuSans-20" x="1066.375"/>
      <use xlink:href="#DejaVuSans-4c" x="1098.162109"/>
      <use xlink:href="#DejaVuSans-61" x="1153.875"/>
      <use xlink:href="#DejaVuSans-79" x="1215.154297"/>
      <use xlink:href="#DejaVuSans-65" x="1274.333984"/>
      <use xlink:href="#DejaVuSans-72" x="1335.857422"/>
     </g>
    </g>
    <g id="line2d_39">
     <path d="M 79.2 92.00875 
L 87.2 92.00875 
L 95.2 92.00875 
" style="fill: none; stroke: #008000; stroke-width: 1.5; stroke-linecap: square"/>
    </g>
    <g id="text_22">
     <!-- Error Train - 3 Hidden Layer -->
     <g transform="translate(101.6 94.80875) scale(0.08 -0.08)">
      <defs>
       <path id="DejaVuSans-33" d="M 2597 2516 
Q 3050 2419 3304 2112 
Q 3559 1806 3559 1356 
Q 3559 666 3084 287 
Q 2609 -91 1734 -91 
Q 1441 -91 1130 -33 
Q 819 25 488 141 
L 488 750 
Q 750 597 1062 519 
Q 1375 441 1716 441 
Q 2309 441 2620 675 
Q 2931 909 2931 1356 
Q 2931 1769 2642 2001 
Q 2353 2234 1838 2234 
L 1294 2234 
L 1294 2753 
L 1863 2753 
Q 2328 2753 2575 2939 
Q 2822 3125 2822 3475 
Q 2822 3834 2567 4026 
Q 2313 4219 1838 4219 
Q 1578 4219 1281 4162 
Q 984 4106 628 3988 
L 628 4550 
Q 988 4650 1302 4700 
Q 1616 4750 1894 4750 
Q 2613 4750 3031 4423 
Q 3450 4097 3450 3541 
Q 3450 3153 3228 2886 
Q 3006 2619 2597 2516 
z
" transform="scale(0.015625)"/>
      </defs>
      <use xlink:href="#DejaVuSans-45"/>
      <use xlink:href="#DejaVuSans-72" x="63.183594"/>
      <use xlink:href="#DejaVuSans-72" x="102.546875"/>
      <use xlink:href="#DejaVuSans-6f" x="141.410156"/>
      <use xlink:href="#DejaVuSans-72" x="202.591797"/>
      <use xlink:href="#DejaVuSans-20" x="243.705078"/>
      <use xlink:href="#DejaVuSans-54" x="275.492188"/>
      <use xlink:href="#DejaVuSans-72" x="321.826172"/>
      <use xlink:href="#DejaVuSans-61" x="362.939453"/>
      <use xlink:href="#DejaVuSans-69" x="424.21875"/>
      <use xlink:href="#DejaVuSans-6e" x="452.001953"/>
      <use xlink:href="#DejaVuSans-20" x="515.380859"/>
      <use xlink:href="#DejaVuSans-2d" x="547.167969"/>
      <use xlink:href="#DejaVuSans-20" x="583.251953"/>
      <use xlink:href="#DejaVuSans-33" x="615.039062"/>
      <use xlink:href="#DejaVuSans-20" x="678.662109"/>
      <use xlink:href="#DejaVuSans-48" x="710.449219"/>
      <use xlink:href="#DejaVuSans-69" x="785.644531"/>
      <use xlink:href="#DejaVuSans-64" x="813.427734"/>
      <use xlink:href="#DejaVuSans-64" x="876.904297"/>
      <use xlink:href="#DejaVuSans-65" x="940.380859"/>
      <use xlink:href="#DejaVuSans-6e" x="1001.904297"/>
      <use xlink:href="#DejaVuSans-20" x="1065.283203"/>
      <use xlink:href="#DejaVuSans-4c" x="1097.070312"/>
      <use xlink:href="#DejaVuSans-61" x="1152.783203"/>
      <use xlink:href="#DejaVuSans-79" x="1214.0625"/>
      <use xlink:href="#DejaVuSans-65" x="1273.242188"/>
      <use xlink:href="#DejaVuSans-72" x="1334.765625"/>
     </g>
    </g>
    <g id="line2d_40">
     <path d="M 79.2 103.75125 
L 87.2 103.75125 
L 95.2 103.75125 
" style="fill: none; stroke-dasharray: 5.55,2.4; stroke-dashoffset: 0; stroke: #008000; stroke-width: 1.5"/>
    </g>
    <g id="text_23">
     <!-- Error Valid - 3 Hidden Layer -->
     <g transform="translate(101.6 106.55125) scale(0.08 -0.08)">
      <use xlink:href="#DejaVuSans-45"/>
      <use xlink:href="#DejaVuSans-72" x="63.183594"/>
      <use xlink:href="#DejaVuSans-72" x="102.546875"/>
      <use xlink:href="#DejaVuSans-6f" x="141.410156"/>
      <use xlink:href="#DejaVuSans-72" x="202.591797"/>
      <use xlink:href="#DejaVuSans-20" x="243.705078"/>
      <use xlink:href="#DejaVuSans-56" x="275.492188"/>
      <use xlink:href="#DejaVuSans-61" x="336.150391"/>
      <use xlink:href="#DejaVuSans-6c" x="397.429688"/>
      <use xlink:href="#DejaVuSans-69" x="425.212891"/>
      <use xlink:href="#DejaVuSans-64" x="452.996094"/>
      <use xlink:href="#DejaVuSans-20" x="516.472656"/>
      <use xlink:href="#DejaVuSans-2d" x="548.259766"/>
      <use xlink:href="#DejaVuSans-20" x="584.34375"/>
      <use xlink:href="#DejaVuSans-33" x="616.130859"/>
      <use xlink:href="#DejaVuSans-20" x="679.753906"/>
      <use xlink:href="#DejaVuSans-48" x="711.541016"/>
      <use xlink:href="#DejaVuSans-69" x="786.736328"/>
      <use xlink:href="#DejaVuSans-64" x="814.519531"/>
      <use xlink:href="#DejaVuSans-64" x="877.996094"/>
      <use xlink:href="#DejaVuSans-65" x="941.472656"/>
      <use xlink:href="#DejaVuSans-6e" x="1002.996094"/>
      <use xlink:href="#DejaVuSans-20" x="1066.375"/>
      <use xlink:href="#DejaVuSans-4c" x="1098.162109"/>
      <use xlink:href="#DejaVuSans-61" x="1153.875"/>
      <use xlink:href="#DejaVuSans-79" x="1215.154297"/>
      <use xlink:href="#DejaVuSans-65" x="1274.333984"/>
      <use xlink:href="#DejaVuSans-72" x="1335.857422"/>
     </g>
    </g>
   </g>
  </g>
 </g>
 <defs>
  <clipPath id="p619565be80">
   <rect x="72" y="34.56" width="446.4" height="221.76"/>
  </clipPath>
 </defs>
</svg>
