<?xml version="1.0" encoding="utf-8" standalone="no"?>
<!DOCTYPE svg PUBLIC "-//W3C//DTD SVG 1.1//EN"
  "http://www.w3.org/Graphics/SVG/1.1/DTD/svg11.dtd">
<svg xmlns:xlink="http://www.w3.org/1999/xlink" width="576pt" height="288pt" viewBox="0 0 576 288" xmlns="http://www.w3.org/2000/svg" version="1.1">
 <metadata>
  <rdf:RDF xmlns:dc="http://purl.org/dc/elements/1.1/" xmlns:cc="http://creativecommons.org/ns#" xmlns:rdf="http://www.w3.org/1999/02/22-rdf-syntax-ns#">
   <cc:Work>
    <dc:type rdf:resource="http://purl.org/dc/dcmitype/StillImage"/>
    <dc:date>2024-10-21T17:11:54.336728</dc:date>
    <dc:format>image/svg+xml</dc:format>
    <dc:creator>
     <cc:Agent>
      <dc:title>Matplotlib v3.9.2, https://matplotlib.org/</dc:title>
     </cc:Agent>
    </dc:creator>
   </cc:Work>
  </rdf:RDF>
 </metadata>
 <defs>
  <style type="text/css">*{stroke-linejoin: round; stroke-linecap: butt}</style>
 </defs>
 <g id="figure_1">
  <g id="patch_1">
   <path d="M 0 288 
L 576 288 
L 576 0 
L 0 0 
z
" style="fill: #ffffff"/>
  </g>
  <g id="axes_1">
   <g id="patch_2">
    <path d="M 72 256.32 
L 518.4 256.32 
L 518.4 34.56 
L 72 34.56 
z
" style="fill: #e5e5e5"/>
   </g>
   <g id="matplotlib.axis_1">
    <g id="xtick_1">
     <g id="line2d_1">
      <path d="M 88.191736 256.32 
L 88.191736 34.56 
" clip-path="url(#p7fc571a37e)" style="fill: none; stroke: #ffffff; stroke-width: 0.8; stroke-linecap: square"/>
     </g>
     <g id="line2d_2">
      <defs>
       <path id="m83bc1ac5c2" d="M 0 0 
L 0 3.5 
" style="stroke: #555555; stroke-width: 0.8"/>
      </defs>
      <g>
       <use xlink:href="#m83bc1ac5c2" x="88.191736" y="256.32" style="fill: #555555; stroke: #555555; stroke-width: 0.8"/>
      </g>
     </g>
     <g id="text_1">
      <!-- 0 -->
      <g style="fill: #555555" transform="translate(85.010486 270.918437) scale(0.1 -0.1)">
       <defs>
        <path id="DejaVuSans-30" d="M 2034 4250 
Q 1547 4250 1301 3770 
Q 1056 3291 1056 2328 
Q 1056 1369 1301 889 
Q 1547 409 2034 409 
Q 2525 409 2770 889 
Q 3016 1369 3016 2328 
Q 3016 3291 2770 3770 
Q 2525 4250 2034 4250 
z
M 2034 4750 
Q 2819 4750 3233 4129 
Q 3647 3509 3647 2328 
Q 3647 1150 3233 529 
Q 2819 -91 2034 -91 
Q 1250 -91 836 529 
Q 422 1150 422 2328 
Q 422 3509 836 4129 
Q 1250 4750 2034 4750 
z
" transform="scale(0.015625)"/>
       </defs>
       <use xlink:href="#DejaVuSans-30"/>
      </g>
     </g>
    </g>
    <g id="xtick_2">
     <g id="line2d_3">
      <path d="M 170.175207 256.32 
L 170.175207 34.56 
" clip-path="url(#p7fc571a37e)" style="fill: none; stroke: #ffffff; stroke-width: 0.8; stroke-linecap: square"/>
     </g>
     <g id="line2d_4">
      <g>
       <use xlink:href="#m83bc1ac5c2" x="170.175207" y="256.32" style="fill: #555555; stroke: #555555; stroke-width: 0.8"/>
      </g>
     </g>
     <g id="text_2">
      <!-- 20 -->
      <g style="fill: #555555" transform="translate(163.812707 270.918437) scale(0.1 -0.1)">
       <defs>
        <path id="DejaVuSans-32" d="M 1228 531 
L 3431 531 
L 3431 0 
L 469 0 
L 469 531 
Q 828 903 1448 1529 
Q 2069 2156 2228 2338 
Q 2531 2678 2651 2914 
Q 2772 3150 2772 3378 
Q 2772 3750 2511 3984 
Q 2250 4219 1831 4219 
Q 1534 4219 1204 4116 
Q 875 4013 500 3803 
L 500 4441 
Q 881 4594 1212 4672 
Q 1544 4750 1819 4750 
Q 2544 4750 2975 4387 
Q 3406 4025 3406 3419 
Q 3406 3131 3298 2873 
Q 3191 2616 2906 2266 
Q 2828 2175 2409 1742 
Q 1991 1309 1228 531 
z
" transform="scale(0.015625)"/>
       </defs>
       <use xlink:href="#DejaVuSans-32"/>
       <use xlink:href="#DejaVuSans-30" x="63.623047"/>
      </g>
     </g>
    </g>
    <g id="xtick_3">
     <g id="line2d_5">
      <path d="M 252.158678 256.32 
L 252.158678 34.56 
" clip-path="url(#p7fc571a37e)" style="fill: none; stroke: #ffffff; stroke-width: 0.8; stroke-linecap: square"/>
     </g>
     <g id="line2d_6">
      <g>
       <use xlink:href="#m83bc1ac5c2" x="252.158678" y="256.32" style="fill: #555555; stroke: #555555; stroke-width: 0.8"/>
      </g>
     </g>
     <g id="text_3">
      <!-- 40 -->
      <g style="fill: #555555" transform="translate(245.796178 270.918437) scale(0.1 -0.1)">
       <defs>
        <path id="DejaVuSans-34" d="M 2419 4116 
L 825 1625 
L 2419 1625 
L 2419 4116 
z
M 2253 4666 
L 3047 4666 
L 3047 1625 
L 3713 1625 
L 3713 1100 
L 3047 1100 
L 3047 0 
L 2419 0 
L 2419 1100 
L 313 1100 
L 313 1709 
L 2253 4666 
z
" transform="scale(0.015625)"/>
       </defs>
       <use xlink:href="#DejaVuSans-34"/>
       <use xlink:href="#DejaVuSans-30" x="63.623047"/>
      </g>
     </g>
    </g>
    <g id="xtick_4">
     <g id="line2d_7">
      <path d="M 334.142149 256.32 
L 334.142149 34.56 
" clip-path="url(#p7fc571a37e)" style="fill: none; stroke: #ffffff; stroke-width: 0.8; stroke-linecap: square"/>
     </g>
     <g id="line2d_8">
      <g>
       <use xlink:href="#m83bc1ac5c2" x="334.142149" y="256.32" style="fill: #555555; stroke: #555555; stroke-width: 0.8"/>
      </g>
     </g>
     <g id="text_4">
      <!-- 60 -->
      <g style="fill: #555555" transform="translate(327.779649 270.918437) scale(0.1 -0.1)">
       <defs>
        <path id="DejaVuSans-36" d="M 2113 2584 
Q 1688 2584 1439 2293 
Q 1191 2003 1191 1497 
Q 1191 994 1439 701 
Q 1688 409 2113 409 
Q 2538 409 2786 701 
Q 3034 994 3034 1497 
Q 3034 2003 2786 2293 
Q 2538 2584 2113 2584 
z
M 3366 4563 
L 3366 3988 
Q 3128 4100 2886 4159 
Q 2644 4219 2406 4219 
Q 1781 4219 1451 3797 
Q 1122 3375 1075 2522 
Q 1259 2794 1537 2939 
Q 1816 3084 2150 3084 
Q 2853 3084 3261 2657 
Q 3669 2231 3669 1497 
Q 3669 778 3244 343 
Q 2819 -91 2113 -91 
Q 1303 -91 875 529 
Q 447 1150 447 2328 
Q 447 3434 972 4092 
Q 1497 4750 2381 4750 
Q 2619 4750 2861 4703 
Q 3103 4656 3366 4563 
z
" transform="scale(0.015625)"/>
       </defs>
       <use xlink:href="#DejaVuSans-36"/>
       <use xlink:href="#DejaVuSans-30" x="63.623047"/>
      </g>
     </g>
    </g>
    <g id="xtick_5">
     <g id="line2d_9">
      <path d="M 416.12562 256.32 
L 416.12562 34.56 
" clip-path="url(#p7fc571a37e)" style="fill: none; stroke: #ffffff; stroke-width: 0.8; stroke-linecap: square"/>
     </g>
     <g id="line2d_10">
      <g>
       <use xlink:href="#m83bc1ac5c2" x="416.12562" y="256.32" style="fill: #555555; stroke: #555555; stroke-width: 0.8"/>
      </g>
     </g>
     <g id="text_5">
      <!-- 80 -->
      <g style="fill: #555555" transform="translate(409.76312 270.918437) scale(0.1 -0.1)">
       <defs>
        <path id="DejaVuSans-38" d="M 2034 2216 
Q 1584 2216 1326 1975 
Q 1069 1734 1069 1313 
Q 1069 891 1326 650 
Q 1584 409 2034 409 
Q 2484 409 2743 651 
Q 3003 894 3003 1313 
Q 3003 1734 2745 1975 
Q 2488 2216 2034 2216 
z
M 1403 2484 
Q 997 2584 770 2862 
Q 544 3141 544 3541 
Q 544 4100 942 4425 
Q 1341 4750 2034 4750 
Q 2731 4750 3128 4425 
Q 3525 4100 3525 3541 
Q 3525 3141 3298 2862 
Q 3072 2584 2669 2484 
Q 3125 2378 3379 2068 
Q 3634 1759 3634 1313 
Q 3634 634 3220 271 
Q 2806 -91 2034 -91 
Q 1263 -91 848 271 
Q 434 634 434 1313 
Q 434 1759 690 2068 
Q 947 2378 1403 2484 
z
M 1172 3481 
Q 1172 3119 1398 2916 
Q 1625 2713 2034 2713 
Q 2441 2713 2670 2916 
Q 2900 3119 2900 3481 
Q 2900 3844 2670 4047 
Q 2441 4250 2034 4250 
Q 1625 4250 1398 4047 
Q 1172 3844 1172 3481 
z
" transform="scale(0.015625)"/>
       </defs>
       <use xlink:href="#DejaVuSans-38"/>
       <use xlink:href="#DejaVuSans-30" x="63.623047"/>
      </g>
     </g>
    </g>
    <g id="xtick_6">
     <g id="line2d_11">
      <path d="M 498.109091 256.32 
L 498.109091 34.56 
" clip-path="url(#p7fc571a37e)" style="fill: none; stroke: #ffffff; stroke-width: 0.8; stroke-linecap: square"/>
     </g>
     <g id="line2d_12">
      <g>
       <use xlink:href="#m83bc1ac5c2" x="498.109091" y="256.32" style="fill: #555555; stroke: #555555; stroke-width: 0.8"/>
      </g>
     </g>
     <g id="text_6">
      <!-- 100 -->
      <g style="fill: #555555" transform="translate(488.565341 270.918437) scale(0.1 -0.1)">
       <defs>
        <path id="DejaVuSans-31" d="M 794 531 
L 1825 531 
L 1825 4091 
L 703 3866 
L 703 4441 
L 1819 4666 
L 2450 4666 
L 2450 531 
L 3481 531 
L 3481 0 
L 794 0 
L 794 531 
z
" transform="scale(0.015625)"/>
       </defs>
       <use xlink:href="#DejaVuSans-31"/>
       <use xlink:href="#DejaVuSans-30" x="63.623047"/>
       <use xlink:href="#DejaVuSans-30" x="127.246094"/>
      </g>
     </g>
    </g>
    <g id="text_7">
     <!-- Epoch number -->
     <g style="fill: #555555" transform="translate(251.503125 286.11625) scale(0.12 -0.12)">
      <defs>
       <path id="DejaVuSans-45" d="M 628 4666 
L 3578 4666 
L 3578 4134 
L 1259 4134 
L 1259 2753 
L 3481 2753 
L 3481 2222 
L 1259 2222 
L 1259 531 
L 3634 531 
L 3634 0 
L 628 0 
L 628 4666 
z
" transform="scale(0.015625)"/>
       <path id="DejaVuSans-70" d="M 1159 525 
L 1159 -1331 
L 581 -1331 
L 581 3500 
L 1159 3500 
L 1159 2969 
Q 1341 3281 1617 3432 
Q 1894 3584 2278 3584 
Q 2916 3584 3314 3078 
Q 3713 2572 3713 1747 
Q 3713 922 3314 415 
Q 2916 -91 2278 -91 
Q 1894 -91 1617 61 
Q 1341 213 1159 525 
z
M 3116 1747 
Q 3116 2381 2855 2742 
Q 2594 3103 2138 3103 
Q 1681 3103 1420 2742 
Q 1159 2381 1159 1747 
Q 1159 1113 1420 752 
Q 1681 391 2138 391 
Q 2594 391 2855 752 
Q 3116 1113 3116 1747 
z
" transform="scale(0.015625)"/>
       <path id="DejaVuSans-6f" d="M 1959 3097 
Q 1497 3097 1228 2736 
Q 959 2375 959 1747 
Q 959 1119 1226 758 
Q 1494 397 1959 397 
Q 2419 397 2687 759 
Q 2956 1122 2956 1747 
Q 2956 2369 2687 2733 
Q 2419 3097 1959 3097 
z
M 1959 3584 
Q 2709 3584 3137 3096 
Q 3566 2609 3566 1747 
Q 3566 888 3137 398 
Q 2709 -91 1959 -91 
Q 1206 -91 779 398 
Q 353 888 353 1747 
Q 353 2609 779 3096 
Q 1206 3584 1959 3584 
z
" transform="scale(0.015625)"/>
       <path id="DejaVuSans-63" d="M 3122 3366 
L 3122 2828 
Q 2878 2963 2633 3030 
Q 2388 3097 2138 3097 
Q 1578 3097 1268 2742 
Q 959 2388 959 1747 
Q 959 1106 1268 751 
Q 1578 397 2138 397 
Q 2388 397 2633 464 
Q 2878 531 3122 666 
L 3122 134 
Q 2881 22 2623 -34 
Q 2366 -91 2075 -91 
Q 1284 -91 818 406 
Q 353 903 353 1747 
Q 353 2603 823 3093 
Q 1294 3584 2113 3584 
Q 2378 3584 2631 3529 
Q 2884 3475 3122 3366 
z
" transform="scale(0.015625)"/>
       <path id="DejaVuSans-68" d="M 3513 2113 
L 3513 0 
L 2938 0 
L 2938 2094 
Q 2938 2591 2744 2837 
Q 2550 3084 2163 3084 
Q 1697 3084 1428 2787 
Q 1159 2491 1159 1978 
L 1159 0 
L 581 0 
L 581 4863 
L 1159 4863 
L 1159 2956 
Q 1366 3272 1645 3428 
Q 1925 3584 2291 3584 
Q 2894 3584 3203 3211 
Q 3513 2838 3513 2113 
z
" transform="scale(0.015625)"/>
       <path id="DejaVuSans-20" transform="scale(0.015625)"/>
       <path id="DejaVuSans-6e" d="M 3513 2113 
L 3513 0 
L 2938 0 
L 2938 2094 
Q 2938 2591 2744 2837 
Q 2550 3084 2163 3084 
Q 1697 3084 1428 2787 
Q 1159 2491 1159 1978 
L 1159 0 
L 581 0 
L 581 3500 
L 1159 3500 
L 1159 2956 
Q 1366 3272 1645 3428 
Q 1925 3584 2291 3584 
Q 2894 3584 3203 3211 
Q 3513 2838 3513 2113 
z
" transform="scale(0.015625)"/>
       <path id="DejaVuSans-75" d="M 544 1381 
L 544 3500 
L 1119 3500 
L 1119 1403 
Q 1119 906 1312 657 
Q 1506 409 1894 409 
Q 2359 409 2629 706 
Q 2900 1003 2900 1516 
L 2900 3500 
L 3475 3500 
L 3475 0 
L 2900 0 
L 2900 538 
Q 2691 219 2414 64 
Q 2138 -91 1772 -91 
Q 1169 -91 856 284 
Q 544 659 544 1381 
z
M 1991 3584 
L 1991 3584 
z
" transform="scale(0.015625)"/>
       <path id="DejaVuSans-6d" d="M 3328 2828 
Q 3544 3216 3844 3400 
Q 4144 3584 4550 3584 
Q 5097 3584 5394 3201 
Q 5691 2819 5691 2113 
L 5691 0 
L 5113 0 
L 5113 2094 
Q 5113 2597 4934 2840 
Q 4756 3084 4391 3084 
Q 3944 3084 3684 2787 
Q 3425 2491 3425 1978 
L 3425 0 
L 2847 0 
L 2847 2094 
Q 2847 2600 2669 2842 
Q 2491 3084 2119 3084 
Q 1678 3084 1418 2786 
Q 1159 2488 1159 1978 
L 1159 0 
L 581 0 
L 581 3500 
L 1159 3500 
L 1159 2956 
Q 1356 3278 1631 3431 
Q 1906 3584 2284 3584 
Q 2666 3584 2933 3390 
Q 3200 3197 3328 2828 
z
" transform="scale(0.015625)"/>
       <path id="DejaVuSans-62" d="M 3116 1747 
Q 3116 2381 2855 2742 
Q 2594 3103 2138 3103 
Q 1681 3103 1420 2742 
Q 1159 2381 1159 1747 
Q 1159 1113 1420 752 
Q 1681 391 2138 391 
Q 2594 391 2855 752 
Q 3116 1113 3116 1747 
z
M 1159 2969 
Q 1341 3281 1617 3432 
Q 1894 3584 2278 3584 
Q 2916 3584 3314 3078 
Q 3713 2572 3713 1747 
Q 3713 922 3314 415 
Q 2916 -91 2278 -91 
Q 1894 -91 1617 61 
Q 1341 213 1159 525 
L 1159 0 
L 581 0 
L 581 4863 
L 1159 4863 
L 1159 2969 
z
" transform="scale(0.015625)"/>
       <path id="DejaVuSans-65" d="M 3597 1894 
L 3597 1613 
L 953 1613 
Q 991 1019 1311 708 
Q 1631 397 2203 397 
Q 2534 397 2845 478 
Q 3156 559 3463 722 
L 3463 178 
Q 3153 47 2828 -22 
Q 2503 -91 2169 -91 
Q 1331 -91 842 396 
Q 353 884 353 1716 
Q 353 2575 817 3079 
Q 1281 3584 2069 3584 
Q 2775 3584 3186 3129 
Q 3597 2675 3597 1894 
z
M 3022 2063 
Q 3016 2534 2758 2815 
Q 2500 3097 2075 3097 
Q 1594 3097 1305 2825 
Q 1016 2553 972 2059 
L 3022 2063 
z
" transform="scale(0.015625)"/>
       <path id="DejaVuSans-72" d="M 2631 2963 
Q 2534 3019 2420 3045 
Q 2306 3072 2169 3072 
Q 1681 3072 1420 2755 
Q 1159 2438 1159 1844 
L 1159 0 
L 581 0 
L 581 3500 
L 1159 3500 
L 1159 2956 
Q 1341 3275 1631 3429 
Q 1922 3584 2338 3584 
Q 2397 3584 2469 3576 
Q 2541 3569 2628 3553 
L 2631 2963 
z
" transform="scale(0.015625)"/>
      </defs>
      <use xlink:href="#DejaVuSans-45"/>
      <use xlink:href="#DejaVuSans-70" x="63.183594"/>
      <use xlink:href="#DejaVuSans-6f" x="126.660156"/>
      <use xlink:href="#DejaVuSans-63" x="187.841797"/>
      <use xlink:href="#DejaVuSans-68" x="242.822266"/>
      <use xlink:href="#DejaVuSans-20" x="306.201172"/>
      <use xlink:href="#DejaVuSans-6e" x="337.988281"/>
      <use xlink:href="#DejaVuSans-75" x="401.367188"/>
      <use xlink:href="#DejaVuSans-6d" x="464.746094"/>
      <use xlink:href="#DejaVuSans-62" x="562.158203"/>
      <use xlink:href="#DejaVuSans-65" x="625.634766"/>
      <use xlink:href="#DejaVuSans-72" x="687.158203"/>
     </g>
    </g>
   </g>
   <g id="matplotlib.axis_2">
    <g id="ytick_1">
     <g id="line2d_13">
      <path d="M 72 245.538164 
L 518.4 245.538164 
" clip-path="url(#p7fc571a37e)" style="fill: none; stroke: #ffffff; stroke-width: 0.8; stroke-linecap: square"/>
     </g>
     <g id="line2d_14">
      <defs>
       <path id="m1f60984415" d="M 0 0 
L -3.5 0 
" style="stroke: #555555; stroke-width: 0.8"/>
      </defs>
      <g>
       <use xlink:href="#m1f60984415" x="72" y="245.538164" style="fill: #555555; stroke: #555555; stroke-width: 0.8"/>
      </g>
     </g>
     <g id="text_8">
      <!-- 0.65 -->
      <g style="fill: #555555" transform="translate(42.734375 249.337383) scale(0.1 -0.1)">
       <defs>
        <path id="DejaVuSans-2e" d="M 684 794 
L 1344 794 
L 1344 0 
L 684 0 
L 684 794 
z
" transform="scale(0.015625)"/>
        <path id="DejaVuSans-35" d="M 691 4666 
L 3169 4666 
L 3169 4134 
L 1269 4134 
L 1269 2991 
Q 1406 3038 1543 3061 
Q 1681 3084 1819 3084 
Q 2600 3084 3056 2656 
Q 3513 2228 3513 1497 
Q 3513 744 3044 326 
Q 2575 -91 1722 -91 
Q 1428 -91 1123 -41 
Q 819 9 494 109 
L 494 744 
Q 775 591 1075 516 
Q 1375 441 1709 441 
Q 2250 441 2565 725 
Q 2881 1009 2881 1497 
Q 2881 1984 2565 2268 
Q 2250 2553 1709 2553 
Q 1456 2553 1204 2497 
Q 953 2441 691 2322 
L 691 4666 
z
" transform="scale(0.015625)"/>
       </defs>
       <use xlink:href="#DejaVuSans-30"/>
       <use xlink:href="#DejaVuSans-2e" x="63.623047"/>
       <use xlink:href="#DejaVuSans-36" x="95.410156"/>
       <use xlink:href="#DejaVuSans-35" x="159.033203"/>
      </g>
     </g>
    </g>
    <g id="ytick_2">
     <g id="line2d_15">
      <path d="M 72 210.885015 
L 518.4 210.885015 
" clip-path="url(#p7fc571a37e)" style="fill: none; stroke: #ffffff; stroke-width: 0.8; stroke-linecap: square"/>
     </g>
     <g id="line2d_16">
      <g>
       <use xlink:href="#m1f60984415" x="72" y="210.885015" style="fill: #555555; stroke: #555555; stroke-width: 0.8"/>
      </g>
     </g>
     <g id="text_9">
      <!-- 0.70 -->
      <g style="fill: #555555" transform="translate(42.734375 214.684234) scale(0.1 -0.1)">
       <defs>
        <path id="DejaVuSans-37" d="M 525 4666 
L 3525 4666 
L 3525 4397 
L 1831 0 
L 1172 0 
L 2766 4134 
L 525 4134 
L 525 4666 
z
" transform="scale(0.015625)"/>
       </defs>
       <use xlink:href="#DejaVuSans-30"/>
       <use xlink:href="#DejaVuSans-2e" x="63.623047"/>
       <use xlink:href="#DejaVuSans-37" x="95.410156"/>
       <use xlink:href="#DejaVuSans-30" x="159.033203"/>
      </g>
     </g>
    </g>
    <g id="ytick_3">
     <g id="line2d_17">
      <path d="M 72 176.231867 
L 518.4 176.231867 
" clip-path="url(#p7fc571a37e)" style="fill: none; stroke: #ffffff; stroke-width: 0.8; stroke-linecap: square"/>
     </g>
     <g id="line2d_18">
      <g>
       <use xlink:href="#m1f60984415" x="72" y="176.231867" style="fill: #555555; stroke: #555555; stroke-width: 0.8"/>
      </g>
     </g>
     <g id="text_10">
      <!-- 0.75 -->
      <g style="fill: #555555" transform="translate(42.734375 180.031085) scale(0.1 -0.1)">
       <use xlink:href="#DejaVuSans-30"/>
       <use xlink:href="#DejaVuSans-2e" x="63.623047"/>
       <use xlink:href="#DejaVuSans-37" x="95.410156"/>
       <use xlink:href="#DejaVuSans-35" x="159.033203"/>
      </g>
     </g>
    </g>
    <g id="ytick_4">
     <g id="line2d_19">
      <path d="M 72 141.578718 
L 518.4 141.578718 
" clip-path="url(#p7fc571a37e)" style="fill: none; stroke: #ffffff; stroke-width: 0.8; stroke-linecap: square"/>
     </g>
     <g id="line2d_20">
      <g>
       <use xlink:href="#m1f60984415" x="72" y="141.578718" style="fill: #555555; stroke: #555555; stroke-width: 0.8"/>
      </g>
     </g>
     <g id="text_11">
      <!-- 0.80 -->
      <g style="fill: #555555" transform="translate(42.734375 145.377937) scale(0.1 -0.1)">
       <use xlink:href="#DejaVuSans-30"/>
       <use xlink:href="#DejaVuSans-2e" x="63.623047"/>
       <use xlink:href="#DejaVuSans-38" x="95.410156"/>
       <use xlink:href="#DejaVuSans-30" x="159.033203"/>
      </g>
     </g>
    </g>
    <g id="ytick_5">
     <g id="line2d_21">
      <path d="M 72 106.925569 
L 518.4 106.925569 
" clip-path="url(#p7fc571a37e)" style="fill: none; stroke: #ffffff; stroke-width: 0.8; stroke-linecap: square"/>
     </g>
     <g id="line2d_22">
      <g>
       <use xlink:href="#m1f60984415" x="72" y="106.925569" style="fill: #555555; stroke: #555555; stroke-width: 0.8"/>
      </g>
     </g>
     <g id="text_12">
      <!-- 0.85 -->
      <g style="fill: #555555" transform="translate(42.734375 110.724788) scale(0.1 -0.1)">
       <use xlink:href="#DejaVuSans-30"/>
       <use xlink:href="#DejaVuSans-2e" x="63.623047"/>
       <use xlink:href="#DejaVuSans-38" x="95.410156"/>
       <use xlink:href="#DejaVuSans-35" x="159.033203"/>
      </g>
     </g>
    </g>
    <g id="ytick_6">
     <g id="line2d_23">
      <path d="M 72 72.272421 
L 518.4 72.272421 
" clip-path="url(#p7fc571a37e)" style="fill: none; stroke: #ffffff; stroke-width: 0.8; stroke-linecap: square"/>
     </g>
     <g id="line2d_24">
      <g>
       <use xlink:href="#m1f60984415" x="72" y="72.272421" style="fill: #555555; stroke: #555555; stroke-width: 0.8"/>
      </g>
     </g>
     <g id="text_13">
      <!-- 0.90 -->
      <g style="fill: #555555" transform="translate(42.734375 76.071639) scale(0.1 -0.1)">
       <defs>
        <path id="DejaVuSans-39" d="M 703 97 
L 703 672 
Q 941 559 1184 500 
Q 1428 441 1663 441 
Q 2288 441 2617 861 
Q 2947 1281 2994 2138 
Q 2813 1869 2534 1725 
Q 2256 1581 1919 1581 
Q 1219 1581 811 2004 
Q 403 2428 403 3163 
Q 403 3881 828 4315 
Q 1253 4750 1959 4750 
Q 2769 4750 3195 4129 
Q 3622 3509 3622 2328 
Q 3622 1225 3098 567 
Q 2575 -91 1691 -91 
Q 1453 -91 1209 -44 
Q 966 3 703 97 
z
M 1959 2075 
Q 2384 2075 2632 2365 
Q 2881 2656 2881 3163 
Q 2881 3666 2632 3958 
Q 2384 4250 1959 4250 
Q 1534 4250 1286 3958 
Q 1038 3666 1038 3163 
Q 1038 2656 1286 2365 
Q 1534 2075 1959 2075 
z
" transform="scale(0.015625)"/>
       </defs>
       <use xlink:href="#DejaVuSans-30"/>
       <use xlink:href="#DejaVuSans-2e" x="63.623047"/>
       <use xlink:href="#DejaVuSans-39" x="95.410156"/>
       <use xlink:href="#DejaVuSans-30" x="159.033203"/>
      </g>
     </g>
    </g>
    <g id="ytick_7">
     <g id="line2d_25">
      <path d="M 72 37.619272 
L 518.4 37.619272 
" clip-path="url(#p7fc571a37e)" style="fill: none; stroke: #ffffff; stroke-width: 0.8; stroke-linecap: square"/>
     </g>
     <g id="line2d_26">
      <g>
       <use xlink:href="#m1f60984415" x="72" y="37.619272" style="fill: #555555; stroke: #555555; stroke-width: 0.8"/>
      </g>
     </g>
     <g id="text_14">
      <!-- 0.95 -->
      <g style="fill: #555555" transform="translate(42.734375 41.418491) scale(0.1 -0.1)">
       <use xlink:href="#DejaVuSans-30"/>
       <use xlink:href="#DejaVuSans-2e" x="63.623047"/>
       <use xlink:href="#DejaVuSans-39" x="95.410156"/>
       <use xlink:href="#DejaVuSans-35" x="159.033203"/>
      </g>
     </g>
    </g>
    <g id="text_15">
     <!-- Accuracy -->
     <g style="fill: #555555" transform="translate(36.23875 172.83375) rotate(-90) scale(0.12 -0.12)">
      <defs>
       <path id="DejaVuSans-41" d="M 2188 4044 
L 1331 1722 
L 3047 1722 
L 2188 4044 
z
M 1831 4666 
L 2547 4666 
L 4325 0 
L 3669 0 
L 3244 1197 
L 1141 1197 
L 716 0 
L 50 0 
L 1831 4666 
z
" transform="scale(0.015625)"/>
       <path id="DejaVuSans-61" d="M 2194 1759 
Q 1497 1759 1228 1600 
Q 959 1441 959 1056 
Q 959 750 1161 570 
Q 1363 391 1709 391 
Q 2188 391 2477 730 
Q 2766 1069 2766 1631 
L 2766 1759 
L 2194 1759 
z
M 3341 1997 
L 3341 0 
L 2766 0 
L 2766 531 
Q 2569 213 2275 61 
Q 1981 -91 1556 -91 
Q 1019 -91 701 211 
Q 384 513 384 1019 
Q 384 1609 779 1909 
Q 1175 2209 1959 2209 
L 2766 2209 
L 2766 2266 
Q 2766 2663 2505 2880 
Q 2244 3097 1772 3097 
Q 1472 3097 1187 3025 
Q 903 2953 641 2809 
L 641 3341 
Q 956 3463 1253 3523 
Q 1550 3584 1831 3584 
Q 2591 3584 2966 3190 
Q 3341 2797 3341 1997 
z
" transform="scale(0.015625)"/>
       <path id="DejaVuSans-79" d="M 2059 -325 
Q 1816 -950 1584 -1140 
Q 1353 -1331 966 -1331 
L 506 -1331 
L 506 -850 
L 844 -850 
Q 1081 -850 1212 -737 
Q 1344 -625 1503 -206 
L 1606 56 
L 191 3500 
L 800 3500 
L 1894 763 
L 2988 3500 
L 3597 3500 
L 2059 -325 
z
" transform="scale(0.015625)"/>
      </defs>
      <use xlink:href="#DejaVuSans-41"/>
      <use xlink:href="#DejaVuSans-63" x="66.658203"/>
      <use xlink:href="#DejaVuSans-63" x="121.638672"/>
      <use xlink:href="#DejaVuSans-75" x="176.619141"/>
      <use xlink:href="#DejaVuSans-72" x="239.998047"/>
      <use xlink:href="#DejaVuSans-61" x="281.111328"/>
      <use xlink:href="#DejaVuSans-63" x="342.390625"/>
      <use xlink:href="#DejaVuSans-79" x="397.371094"/>
     </g>
    </g>
   </g>
   <g id="line2d_27">
    <path d="M 92.290909 242.620369 
L 96.390083 218.474055 
L 100.489256 202.720734 
L 104.58843 193.683192 
L 108.687603 186.28128 
L 112.786777 180.113019 
L 116.88595 179.205107 
L 120.985124 170.403207 
L 125.084298 167.624025 
L 129.183471 164.387421 
L 133.282645 160.880522 
L 137.381818 158.364703 
L 141.480992 156.722144 
L 145.580165 156.243931 
L 149.679339 155.197406 
L 153.778512 151.926148 
L 157.877686 152.321194 
L 161.97686 148.911324 
L 166.076033 148.959839 
L 170.175207 150.158838 
L 174.27438 147.483615 
L 178.373554 147.095499 
L 182.472727 145.487593 
L 186.571901 146.471743 
L 190.671074 144.330178 
L 194.770248 145.127201 
L 198.869421 143.02722 
L 202.968595 141.627232 
L 207.067769 144.538097 
L 211.166942 141.197533 
L 215.266116 141.072782 
L 219.365289 140.206453 
L 223.464463 141.606441 
L 227.563636 140.05398 
L 231.66281 138.168848 
L 235.761983 137.947068 
L 239.861157 136.165896 
L 243.960331 137.281728 
L 248.059504 137.683704 
L 252.158678 137.503508 
L 256.257851 136.082729 
L 260.357025 138.321322 
L 264.456198 138.134195 
L 268.555372 135.673822 
L 272.654545 135.944116 
L 276.753719 134.973828 
L 280.852893 136.214411 
L 284.952066 133.982748 
L 289.05124 134.932244 
L 293.150413 134.807493 
L 297.249587 132.603553 
L 301.34876 132.395634 
L 305.447934 133.657008 
L 309.547107 132.270882 
L 313.646281 133.511465 
L 317.745455 133.553049 
L 321.844628 131.848114 
L 325.943802 130.212485 
L 330.042975 132.423356 
L 334.142149 131.709501 
L 338.241322 130.676838 
L 342.340496 130.586739 
L 346.439669 131.051092 
L 350.538843 129.692688 
L 354.638017 130.59367 
L 358.73719 132.090686 
L 362.836364 128.826359 
L 366.935537 130.877826 
L 371.034711 129.49863 
L 375.133884 130.850103 
L 379.233058 128.971903 
L 383.332231 128.83329 
L 387.431405 129.457047 
L 391.530579 128.590718 
L 395.629752 129.38774 
L 399.728926 127.772904 
L 403.828099 128.583787 
L 407.927273 131.570889 
L 412.026446 127.50954 
L 416.12562 128.715469 
L 420.224793 129.914468 
L 424.323967 127.176869 
L 428.42314 126.816477 
L 432.522314 127.163008 
L 436.621488 127.322413 
L 440.720661 126.463015 
L 444.819835 126.213512 
L 448.919008 126.005593 
L 453.018182 126.975881 
L 457.117355 127.052118 
L 461.216529 126.698656 
L 465.315702 126.920436 
L 469.414876 125.998662 
L 473.51405 126.171928 
L 477.613223 125.714507 
L 481.712397 127.363996 
L 485.81157 124.570953 
L 489.910744 125.451143 
L 494.009917 125.132334 
L 498.109091 125.222432 
" clip-path="url(#p7fc571a37e)" style="fill: none; stroke: #ff0000; stroke-width: 1.5; stroke-linecap: square"/>
   </g>
   <g id="line2d_28">
    <path d="M 92.290909 246.24 
L 96.390083 221.895066 
L 100.489256 206.410811 
L 104.58843 196.365785 
L 108.687603 192.725011 
L 112.786777 187.548971 
L 116.88595 184.039791 
L 120.985124 177.109162 
L 125.084298 175.880949 
L 129.183471 173.687712 
L 133.282645 170.573315 
L 137.381818 166.099111 
L 141.480992 165.660463 
L 145.580165 165.046357 
L 149.679339 164.212927 
L 153.778512 163.335632 
L 157.877686 163.68655 
L 161.97686 160.835341 
L 166.076033 160.879206 
L 170.175207 162.721525 
L 174.27438 159.25621 
L 178.373554 160.791476 
L 182.472727 157.984133 
L 186.571901 158.378915 
L 190.671074 157.326162 
L 194.770248 161.230124 
L 198.869421 156.75592 
L 202.968595 156.580461 
L 207.067769 158.027998 
L 211.166942 154.343359 
L 215.266116 155.396113 
L 219.365289 155.747031 
L 223.464463 156.580461 
L 227.563636 155.08906 
L 231.66281 152.632634 
L 235.761983 153.904711 
L 239.861157 151.974663 
L 243.960331 152.193986 
L 248.059504 154.1679 
L 252.158678 154.606547 
L 256.257851 154.913601 
L 260.357025 157.326162 
L 264.456198 155.790896 
L 268.555372 151.623745 
L 272.654545 152.325581 
L 276.753719 155.00133 
L 280.852893 152.281716 
L 284.952066 149.649831 
L 289.05124 152.106257 
L 293.150413 153.466064 
L 297.249587 150.176208 
L 301.34876 152.764228 
L 305.447934 151.930798 
L 309.547107 151.711474 
L 313.646281 151.930798 
L 317.745455 151.667609 
L 321.844628 150.570991 
L 325.943802 149.605966 
L 330.042975 151.272827 
L 334.142149 150.702585 
L 338.241322 149.737561 
L 342.340496 149.167319 
L 346.439669 151.272827 
L 350.538843 150.395532 
L 354.638017 150.74645 
L 358.73719 152.369445 
L 362.836364 150.527126 
L 366.935537 152.544904 
L 371.034711 150.74645 
L 375.133884 149.781425 
L 379.233058 151.228962 
L 383.332231 151.228962 
L 387.431405 149.605966 
L 391.530579 149.386643 
L 395.629752 151.141233 
L 399.728926 148.246159 
L 403.828099 149.869155 
L 407.927273 152.895822 
L 412.026446 149.649831 
L 416.12562 150.790315 
L 420.224793 151.448286 
L 424.323967 151.536015 
L 428.42314 148.904131 
L 432.522314 148.904131 
L 436.621488 149.342778 
L 440.720661 149.430507 
L 444.819835 149.518237 
L 448.919008 150.439397 
L 453.018182 149.079589 
L 457.117355 150.527126 
L 461.216529 150.044614 
L 465.315702 151.097368 
L 469.414876 149.82529 
L 473.51405 149.781425 
L 477.613223 149.123454 
L 481.712397 151.49215 
L 485.81157 150.527126 
L 489.910744 149.167319 
L 494.009917 148.684807 
L 498.109091 149.956884 
" clip-path="url(#p7fc571a37e)" style="fill: none; stroke-dasharray: 5.55,2.4; stroke-dashoffset: 0; stroke: #ff0000; stroke-width: 1.5"/>
   </g>
   <g id="line2d_29">
    <path d="M 92.290909 214.059244 
L 96.390083 181.887261 
L 100.489256 167.547788 
L 104.58843 160.610227 
L 108.687603 149.618249 
L 112.786777 142.03614 
L 116.88595 138.868842 
L 120.985124 134.211459 
L 125.084298 130.635254 
L 129.183471 127.176869 
L 133.282645 126.275888 
L 137.381818 125.104611 
L 141.480992 122.89374 
L 145.580165 119.906639 
L 149.679339 119.608622 
L 153.778512 122.353151 
L 157.877686 113.766101 
L 161.97686 113.405708 
L 166.076033 112.352252 
L 170.175207 111.056225 
L 174.27438 110.647318 
L 178.373554 111.250282 
L 182.472727 108.283973 
L 186.571901 107.105766 
L 190.671074 108.900799 
L 194.770248 109.593862 
L 198.869421 106.38498 
L 202.968595 103.862231 
L 207.067769 103.647382 
L 211.166942 104.797866 
L 215.266116 103.286989 
L 219.365289 102.63551 
L 223.464463 102.559273 
L 227.563636 101.554331 
L 231.66281 101.561262 
L 235.761983 100.182067 
L 239.861157 100.32761 
L 243.960331 99.710784 
L 248.059504 99.509796 
L 252.158678 99.350391 
L 256.257851 99.502865 
L 260.357025 98.400895 
L 264.456198 97.46526 
L 268.555372 99.294946 
L 272.654545 96.571209 
L 276.753719 96.307845 
L 280.852893 96.300914 
L 284.952066 97.340508 
L 289.05124 96.772197 
L 293.150413 96.536555 
L 297.249587 96.113787 
L 301.34876 93.694997 
L 305.447934 93.9445 
L 309.547107 93.882124 
L 313.646281 94.776175 
L 317.745455 92.4059 
L 321.844628 94.852412 
L 325.943802 92.003924 
L 330.042975 93.542523 
L 334.142149 93.660344 
L 338.241322 91.068289 
L 342.340496 91.906895 
L 346.439669 93.06431 
L 350.538843 91.366306 
L 354.638017 91.456404 
L 358.73719 90.257405 
L 362.836364 91.470265 
L 366.935537 90.777202 
L 371.034711 89.245533 
L 375.133884 88.795042 
L 379.233058 90.97819 
L 383.332231 90.063347 
L 387.431405 88.33069 
L 391.530579 91.310861 
L 395.629752 90.985121 
L 399.728926 89.058406 
L 403.828099 90.049486 
L 407.927273 87.582182 
L 412.026446 88.607915 
L 416.12562 88.386135 
L 420.224793 90.597006 
L 424.323967 87.000009 
L 428.42314 87.935644 
L 432.522314 88.11584 
L 436.621488 87.388124 
L 440.720661 87.67228 
L 444.819835 88.309898 
L 448.919008 85.724773 
L 453.018182 85.537646 
L 457.117355 87.741586 
L 461.216529 85.821802 
L 465.315702 84.345578 
L 469.414876 84.671317 
L 473.51405 84.206965 
L 477.613223 87.173275 
L 481.712397 84.941612 
L 485.81157 84.109936 
L 489.910744 85.787149 
L 494.009917 86.722784 
L 498.109091 84.643595 
" clip-path="url(#p7fc571a37e)" style="fill: none; stroke: #008000; stroke-width: 1.5; stroke-linecap: square"/>
   </g>
   <g id="line2d_30">
    <path d="M 92.290909 217.157674 
L 96.390083 188.55786 
L 100.489256 174.038629 
L 104.58843 166.362299 
L 108.687603 158.466645 
L 112.786777 151.185097 
L 116.88595 148.816401 
L 120.985124 146.272246 
L 125.084298 144.210603 
L 129.183471 141.052341 
L 133.282645 142.89466 
L 137.381818 141.2278 
L 141.480992 141.666448 
L 145.580165 138.201133 
L 149.679339 137.455432 
L 153.778512 140.920747 
L 157.877686 133.814658 
L 161.97686 133.55147 
L 166.076033 133.814658 
L 170.175207 132.761904 
L 174.27438 132.454851 
L 178.373554 133.332146 
L 182.472727 131.972339 
L 186.571901 131.489827 
L 190.671074 133.946252 
L 194.770248 132.674175 
L 198.869421 129.779102 
L 202.968595 130.173884 
L 207.067769 129.428184 
L 211.166942 131.533691 
L 215.266116 128.726348 
L 219.365289 130.173884 
L 223.464463 131.051179 
L 227.563636 127.805188 
L 231.66281 130.568667 
L 235.761983 130.173884 
L 239.861157 128.945671 
L 243.960331 129.515913 
L 248.059504 128.857942 
L 252.158678 127.761323 
L 256.257851 129.340454 
L 260.357025 129.384319 
L 264.456198 129.20886 
L 268.555372 131.972339 
L 272.654545 129.691372 
L 276.753719 129.472048 
L 280.852893 127.278811 
L 284.952066 127.849053 
L 289.05124 130.261614 
L 293.150413 129.998425 
L 297.249587 129.822966 
L 301.34876 128.463159 
L 305.447934 127.673594 
L 309.547107 129.12113 
L 313.646281 130.13002 
L 317.745455 127.585864 
L 321.844628 132.498716 
L 325.943802 129.340454 
L 330.042975 130.919585 
L 334.142149 130.13002 
L 338.241322 129.603643 
L 342.340496 129.428184 
L 346.439669 129.954561 
L 350.538843 129.20886 
L 354.638017 131.621421 
L 358.73719 131.358232 
L 362.836364 130.744126 
L 366.935537 132.542581 
L 371.034711 130.173884 
L 375.133884 129.779102 
L 379.233058 131.70915 
L 383.332231 129.559778 
L 387.431405 130.04229 
L 391.530579 134.077847 
L 395.629752 132.323257 
L 399.728926 131.095044 
L 403.828099 132.71804 
L 407.927273 131.79688 
L 412.026446 132.016204 
L 416.12562 131.314368 
L 420.224793 133.990117 
L 424.323967 131.270503 
L 428.42314 131.489827 
L 432.522314 132.586445 
L 436.621488 131.70915 
L 440.720661 132.323257 
L 444.819835 133.507605 
L 448.919008 131.70915 
L 453.018182 131.577556 
L 457.117355 133.025093 
L 461.216529 133.244417 
L 465.315702 131.138909 
L 469.414876 133.244417 
L 473.51405 132.016204 
L 477.613223 135.130601 
L 481.712397 131.226638 
L 485.81157 132.279392 
L 489.910744 134.077847 
L 494.009917 135.656977 
L 498.109091 133.507605 
" clip-path="url(#p7fc571a37e)" style="fill: none; stroke-dasharray: 5.55,2.4; stroke-dashoffset: 0; stroke: #008000; stroke-width: 1.5"/>
   </g>
   <g id="line2d_31">
    <path d="M 92.290909 188.131758 
L 96.390083 155.710272 
L 100.489256 136.110451 
L 104.58843 126.982812 
L 108.687603 118.37497 
L 112.786777 114.812626 
L 116.88595 109.46218 
L 120.985124 104.298861 
L 125.084298 100.99295 
L 129.183471 99.88405 
L 133.282645 97.340508 
L 137.381818 94.173211 
L 141.480992 92.745501 
L 145.580165 91.41482 
L 149.679339 88.379204 
L 153.778512 87.928713 
L 157.877686 86.12675 
L 161.97686 86.279223 
L 166.076033 80.311951 
L 170.175207 82.668365 
L 174.27438 80.152547 
L 178.373554 79.300079 
L 182.472727 79.75057 
L 186.571901 76.701093 
L 190.671074 77.54663 
L 194.770248 77.421879 
L 198.869421 75.876348 
L 202.968595 76.00803 
L 207.067769 75.328828 
L 211.166942 73.47142 
L 215.266116 72.868455 
L 219.365289 70.317983 
L 223.464463 69.299181 
L 227.563636 71.246688 
L 231.66281 68.127904 
L 235.761983 68.654632 
L 239.861157 68.696216 
L 243.960331 66.152675 
L 248.059504 64.440809 
L 252.158678 65.133872 
L 256.257851 63.851706 
L 260.357025 64.815063 
L 264.456198 65.362583 
L 268.555372 64.482393 
L 272.654545 64.551699 
L 276.753719 63.394284 
L 280.852893 64.274474 
L 284.952066 63.539827 
L 289.05124 61.779447 
L 293.150413 61.377471 
L 297.249587 60.677477 
L 301.34876 58.861652 
L 305.447934 59.346796 
L 309.547107 58.327994 
L 313.646281 58.120075 
L 317.745455 59.000265 
L 321.844628 60.324015 
L 325.943802 58.438884 
L 330.042975 58.72304 
L 334.142149 57.433942 
L 338.241322 57.551763 
L 342.340496 60.233917 
L 346.439669 54.966638 
L 350.538843 55.070598 
L 354.638017 58.986404 
L 358.73719 55.673563 
L 362.836364 56.234944 
L 366.935537 62.652707 
L 371.034711 53.171605 
L 375.133884 55.285447 
L 379.233058 54.169616 
L 383.332231 55.153765 
L 387.431405 55.077528 
L 391.530579 54.079518 
L 395.629752 52.353791 
L 399.728926 52.256762 
L 403.828099 50.974596 
L 407.927273 49.872625 
L 412.026446 49.020158 
L 416.12562 49.796389 
L 420.224793 49.747874 
L 424.323967 48.38254 
L 428.42314 49.796389 
L 432.522314 50.323116 
L 436.621488 51.937953 
L 440.720661 51.563699 
L 444.819835 50.510243 
L 448.919008 48.860754 
L 453.018182 48.881545 
L 457.117355 47.571656 
L 461.216529 47.370668 
L 465.315702 48.923129 
L 469.414876 47.772645 
L 473.51405 48.098384 
L 477.613223 48.853823 
L 481.712397 45.145936 
L 485.81157 44.97267 
L 489.910744 44.64 
L 494.009917 45.437022 
L 498.109091 46.123155 
" clip-path="url(#p7fc571a37e)" style="fill: none; stroke: #0000ff; stroke-width: 1.5; stroke-linecap: square"/>
   </g>
   <g id="line2d_32">
    <path d="M 92.290909 191.23361 
L 96.390083 160.352829 
L 100.489256 143.070119 
L 104.58843 135.788572 
L 108.687603 130.393208 
L 112.786777 127.542 
L 116.88595 124.515332 
L 120.985124 123.11166 
L 125.084298 118.900645 
L 129.183471 121.006153 
L 133.282645 121.576394 
L 137.381818 116.531949 
L 141.480992 118.637456 
L 145.580165 118.85678 
L 149.679339 116.970596 
L 153.778512 116.093301 
L 157.877686 117.233785 
L 161.97686 119.734075 
L 166.076033 116.882867 
L 170.175207 118.812915 
L 174.27438 117.277649 
L 178.373554 119.427022 
L 182.472727 119.909534 
L 186.571901 117.716297 
L 190.671074 121.488665 
L 194.770248 121.620259 
L 198.869421 119.734075 
L 202.968595 121.137747 
L 207.067769 120.918423 
L 211.166942 121.093882 
L 215.266116 121.795718 
L 219.365289 120.348181 
L 223.464463 122.146636 
L 227.563636 121.225476 
L 231.66281 120.699099 
L 235.761983 123.418714 
L 239.861157 121.839583 
L 243.960331 122.980066 
L 248.059504 121.181612 
L 252.158678 122.234365 
L 256.257851 122.27823 
L 260.357025 124.559197 
L 264.456198 123.023931 
L 268.555372 125.436492 
L 272.654545 126.708569 
L 276.753719 126.796299 
L 280.852893 126.138328 
L 284.952066 126.006734 
L 289.05124 127.892918 
L 293.150413 125.129439 
L 297.249587 126.884028 
L 301.34876 125.743545 
L 305.447934 126.971758 
L 309.547107 127.892918 
L 313.646281 125.655816 
L 317.745455 127.278811 
L 321.844628 129.428184 
L 325.943802 127.542 
L 330.042975 129.866831 
L 334.142149 129.998425 
L 338.241322 131.928474 
L 342.340496 131.884609 
L 346.439669 129.603643 
L 350.538843 128.2877 
L 354.638017 133.46374 
L 358.73719 130.568667 
L 362.836364 131.358232 
L 366.935537 133.55147 
L 371.034711 130.349343 
L 375.133884 133.288281 
L 379.233058 130.217749 
L 383.332231 130.349343 
L 387.431405 132.937363 
L 391.530579 133.025093 
L 395.629752 132.323257 
L 399.728926 132.147798 
L 403.828099 132.410986 
L 407.927273 129.822966 
L 412.026446 130.568667 
L 416.12562 131.577556 
L 420.224793 133.112822 
L 424.323967 132.323257 
L 428.42314 134.648088 
L 432.522314 133.55147 
L 436.621488 136.665867 
L 440.720661 135.569248 
L 444.819835 136.622002 
L 448.919008 133.858523 
L 453.018182 134.428765 
L 457.117355 136.095625 
L 461.216529 134.999006 
L 465.315702 134.253306 
L 469.414876 135.744707 
L 473.51405 138.201133 
L 477.613223 137.016785 
L 481.712397 134.999006 
L 485.81157 138.552051 
L 489.910744 134.516494 
L 494.009917 136.402678 
L 498.109091 137.937944 
" clip-path="url(#p7fc571a37e)" style="fill: none; stroke-dasharray: 5.55,2.4; stroke-dashoffset: 0; stroke: #0000ff; stroke-width: 1.5"/>
   </g>
   <g id="patch_3">
    <path d="M 72 256.32 
L 72 34.56 
" style="fill: none; stroke: #ffffff; stroke-linejoin: miter; stroke-linecap: square"/>
   </g>
   <g id="patch_4">
    <path d="M 518.4 256.32 
L 518.4 34.56 
" style="fill: none; stroke: #ffffff; stroke-linejoin: miter; stroke-linecap: square"/>
   </g>
   <g id="patch_5">
    <path d="M 72 256.32 
L 518.4 256.32 
" style="fill: none; stroke: #ffffff; stroke-linejoin: miter; stroke-linecap: square"/>
   </g>
   <g id="patch_6">
    <path d="M 72 34.56 
L 518.4 34.56 
" style="fill: none; stroke: #ffffff; stroke-linejoin: miter; stroke-linecap: square"/>
   </g>
   <g id="text_16">
    <!-- Accuracy Performances across Different Network Widths -->
    <g transform="translate(92.053125 28.56) scale(0.144 -0.144)">
     <defs>
      <path id="DejaVuSans-50" d="M 1259 4147 
L 1259 2394 
L 2053 2394 
Q 2494 2394 2734 2622 
Q 2975 2850 2975 3272 
Q 2975 3691 2734 3919 
Q 2494 4147 2053 4147 
L 1259 4147 
z
M 628 4666 
L 2053 4666 
Q 2838 4666 3239 4311 
Q 3641 3956 3641 3272 
Q 3641 2581 3239 2228 
Q 2838 1875 2053 1875 
L 1259 1875 
L 1259 0 
L 628 0 
L 628 4666 
z
" transform="scale(0.015625)"/>
      <path id="DejaVuSans-66" d="M 2375 4863 
L 2375 4384 
L 1825 4384 
Q 1516 4384 1395 4259 
Q 1275 4134 1275 3809 
L 1275 3500 
L 2222 3500 
L 2222 3053 
L 1275 3053 
L 1275 0 
L 697 0 
L 697 3053 
L 147 3053 
L 147 3500 
L 697 3500 
L 697 3744 
Q 697 4328 969 4595 
Q 1241 4863 1831 4863 
L 2375 4863 
z
" transform="scale(0.015625)"/>
      <path id="DejaVuSans-73" d="M 2834 3397 
L 2834 2853 
Q 2591 2978 2328 3040 
Q 2066 3103 1784 3103 
Q 1356 3103 1142 2972 
Q 928 2841 928 2578 
Q 928 2378 1081 2264 
Q 1234 2150 1697 2047 
L 1894 2003 
Q 2506 1872 2764 1633 
Q 3022 1394 3022 966 
Q 3022 478 2636 193 
Q 2250 -91 1575 -91 
Q 1294 -91 989 -36 
Q 684 19 347 128 
L 347 722 
Q 666 556 975 473 
Q 1284 391 1588 391 
Q 1994 391 2212 530 
Q 2431 669 2431 922 
Q 2431 1156 2273 1281 
Q 2116 1406 1581 1522 
L 1381 1569 
Q 847 1681 609 1914 
Q 372 2147 372 2553 
Q 372 3047 722 3315 
Q 1072 3584 1716 3584 
Q 2034 3584 2315 3537 
Q 2597 3491 2834 3397 
z
" transform="scale(0.015625)"/>
      <path id="DejaVuSans-44" d="M 1259 4147 
L 1259 519 
L 2022 519 
Q 2988 519 3436 956 
Q 3884 1394 3884 2338 
Q 3884 3275 3436 3711 
Q 2988 4147 2022 4147 
L 1259 4147 
z
M 628 4666 
L 1925 4666 
Q 3281 4666 3915 4102 
Q 4550 3538 4550 2338 
Q 4550 1131 3912 565 
Q 3275 0 1925 0 
L 628 0 
L 628 4666 
z
" transform="scale(0.015625)"/>
      <path id="DejaVuSans-69" d="M 603 3500 
L 1178 3500 
L 1178 0 
L 603 0 
L 603 3500 
z
M 603 4863 
L 1178 4863 
L 1178 4134 
L 603 4134 
L 603 4863 
z
" transform="scale(0.015625)"/>
      <path id="DejaVuSans-74" d="M 1172 4494 
L 1172 3500 
L 2356 3500 
L 2356 3053 
L 1172 3053 
L 1172 1153 
Q 1172 725 1289 603 
Q 1406 481 1766 481 
L 2356 481 
L 2356 0 
L 1766 0 
Q 1100 0 847 248 
Q 594 497 594 1153 
L 594 3053 
L 172 3053 
L 172 3500 
L 594 3500 
L 594 4494 
L 1172 4494 
z
" transform="scale(0.015625)"/>
      <path id="DejaVuSans-4e" d="M 628 4666 
L 1478 4666 
L 3547 763 
L 3547 4666 
L 4159 4666 
L 4159 0 
L 3309 0 
L 1241 3903 
L 1241 0 
L 628 0 
L 628 4666 
z
" transform="scale(0.015625)"/>
      <path id="DejaVuSans-77" d="M 269 3500 
L 844 3500 
L 1563 769 
L 2278 3500 
L 2956 3500 
L 3675 769 
L 4391 3500 
L 4966 3500 
L 4050 0 
L 3372 0 
L 2619 2869 
L 1863 0 
L 1184 0 
L 269 3500 
z
" transform="scale(0.015625)"/>
      <path id="DejaVuSans-6b" d="M 581 4863 
L 1159 4863 
L 1159 1991 
L 2875 3500 
L 3609 3500 
L 1753 1863 
L 3688 0 
L 2938 0 
L 1159 1709 
L 1159 0 
L 581 0 
L 581 4863 
z
" transform="scale(0.015625)"/>
      <path id="DejaVuSans-57" d="M 213 4666 
L 850 4666 
L 1831 722 
L 2809 4666 
L 3519 4666 
L 4500 722 
L 5478 4666 
L 6119 4666 
L 4947 0 
L 4153 0 
L 3169 4050 
L 2175 0 
L 1381 0 
L 213 4666 
z
" transform="scale(0.015625)"/>
      <path id="DejaVuSans-64" d="M 2906 2969 
L 2906 4863 
L 3481 4863 
L 3481 0 
L 2906 0 
L 2906 525 
Q 2725 213 2448 61 
Q 2172 -91 1784 -91 
Q 1150 -91 751 415 
Q 353 922 353 1747 
Q 353 2572 751 3078 
Q 1150 3584 1784 3584 
Q 2172 3584 2448 3432 
Q 2725 3281 2906 2969 
z
M 947 1747 
Q 947 1113 1208 752 
Q 1469 391 1925 391 
Q 2381 391 2643 752 
Q 2906 1113 2906 1747 
Q 2906 2381 2643 2742 
Q 2381 3103 1925 3103 
Q 1469 3103 1208 2742 
Q 947 2381 947 1747 
z
" transform="scale(0.015625)"/>
     </defs>
     <use xlink:href="#DejaVuSans-41"/>
     <use xlink:href="#DejaVuSans-63" x="66.658203"/>
     <use xlink:href="#DejaVuSans-63" x="121.638672"/>
     <use xlink:href="#DejaVuSans-75" x="176.619141"/>
     <use xlink:href="#DejaVuSans-72" x="239.998047"/>
     <use xlink:href="#DejaVuSans-61" x="281.111328"/>
     <use xlink:href="#DejaVuSans-63" x="342.390625"/>
     <use xlink:href="#DejaVuSans-79" x="397.371094"/>
     <use xlink:href="#DejaVuSans-20" x="456.550781"/>
     <use xlink:href="#DejaVuSans-50" x="488.337891"/>
     <use xlink:href="#DejaVuSans-65" x="545.015625"/>
     <use xlink:href="#DejaVuSans-72" x="606.539062"/>
     <use xlink:href="#DejaVuSans-66" x="647.652344"/>
     <use xlink:href="#DejaVuSans-6f" x="682.857422"/>
     <use xlink:href="#DejaVuSans-72" x="744.039062"/>
     <use xlink:href="#DejaVuSans-6d" x="783.402344"/>
     <use xlink:href="#DejaVuSans-61" x="880.814453"/>
     <use xlink:href="#DejaVuSans-6e" x="942.09375"/>
     <use xlink:href="#DejaVuSans-63" x="1005.472656"/>
     <use xlink:href="#DejaVuSans-65" x="1060.453125"/>
     <use xlink:href="#DejaVuSans-73" x="1121.976562"/>
     <use xlink:href="#DejaVuSans-20" x="1174.076172"/>
     <use xlink:href="#DejaVuSans-61" x="1205.863281"/>
     <use xlink:href="#DejaVuSans-63" x="1267.142578"/>
     <use xlink:href="#DejaVuSans-72" x="1322.123047"/>
     <use xlink:href="#DejaVuSans-6f" x="1360.986328"/>
     <use xlink:href="#DejaVuSans-73" x="1422.167969"/>
     <use xlink:href="#DejaVuSans-73" x="1474.267578"/>
     <use xlink:href="#DejaVuSans-20" x="1526.367188"/>
     <use xlink:href="#DejaVuSans-44" x="1558.154297"/>
     <use xlink:href="#DejaVuSans-69" x="1635.15625"/>
     <use xlink:href="#DejaVuSans-66" x="1662.939453"/>
     <use xlink:href="#DejaVuSans-66" x="1698.144531"/>
     <use xlink:href="#DejaVuSans-65" x="1733.349609"/>
     <use xlink:href="#DejaVuSans-72" x="1794.873047"/>
     <use xlink:href="#DejaVuSans-65" x="1833.736328"/>
     <use xlink:href="#DejaVuSans-6e" x="1895.259766"/>
     <use xlink:href="#DejaVuSans-74" x="1958.638672"/>
     <use xlink:href="#DejaVuSans-20" x="1997.847656"/>
     <use xlink:href="#DejaVuSans-4e" x="2029.634766"/>
     <use xlink:href="#DejaVuSans-65" x="2104.439453"/>
     <use xlink:href="#DejaVuSans-74" x="2165.962891"/>
     <use xlink:href="#DejaVuSans-77" x="2205.171875"/>
     <use xlink:href="#DejaVuSans-6f" x="2286.958984"/>
     <use xlink:href="#DejaVuSans-72" x="2348.140625"/>
     <use xlink:href="#DejaVuSans-6b" x="2389.253906"/>
     <use xlink:href="#DejaVuSans-20" x="2447.164062"/>
     <use xlink:href="#DejaVuSans-57" x="2478.951172"/>
     <use xlink:href="#DejaVuSans-69" x="2575.578125"/>
     <use xlink:href="#DejaVuSans-64" x="2603.361328"/>
     <use xlink:href="#DejaVuSans-74" x="2666.837891"/>
     <use xlink:href="#DejaVuSans-68" x="2706.046875"/>
     <use xlink:href="#DejaVuSans-73" x="2769.425781"/>
    </g>
   </g>
   <g id="legend_1">
    <g id="patch_7">
     <path d="M 393.71125 252.32 
L 512.8 252.32 
Q 514.4 252.32 514.4 250.72 
L 514.4 181.065 
Q 514.4 179.465 512.8 179.465 
L 393.71125 179.465 
Q 392.11125 179.465 392.11125 181.065 
L 392.11125 250.72 
Q 392.11125 252.32 393.71125 252.32 
z
" style="fill: #e5e5e5; opacity: 0.8; stroke: #cccccc; stroke-width: 0.5; stroke-linejoin: miter"/>
    </g>
    <g id="line2d_33">
     <path d="M 395.31125 185.94375 
L 403.31125 185.94375 
L 411.31125 185.94375 
" style="fill: none; stroke: #ff0000; stroke-width: 1.5; stroke-linecap: square"/>
    </g>
    <g id="text_17">
     <!-- Acc Train - (32 Units) -->
     <g transform="translate(417.71125 188.74375) scale(0.08 -0.08)">
      <defs>
       <path id="DejaVuSans-54" d="M -19 4666 
L 3928 4666 
L 3928 4134 
L 2272 4134 
L 2272 0 
L 1638 0 
L 1638 4134 
L -19 4134 
L -19 4666 
z
" transform="scale(0.015625)"/>
       <path id="DejaVuSans-2d" d="M 313 2009 
L 1997 2009 
L 1997 1497 
L 313 1497 
L 313 2009 
z
" transform="scale(0.015625)"/>
       <path id="DejaVuSans-28" d="M 1984 4856 
Q 1566 4138 1362 3434 
Q 1159 2731 1159 2009 
Q 1159 1288 1364 580 
Q 1569 -128 1984 -844 
L 1484 -844 
Q 1016 -109 783 600 
Q 550 1309 550 2009 
Q 550 2706 781 3412 
Q 1013 4119 1484 4856 
L 1984 4856 
z
" transform="scale(0.015625)"/>
       <path id="DejaVuSans-33" d="M 2597 2516 
Q 3050 2419 3304 2112 
Q 3559 1806 3559 1356 
Q 3559 666 3084 287 
Q 2609 -91 1734 -91 
Q 1441 -91 1130 -33 
Q 819 25 488 141 
L 488 750 
Q 750 597 1062 519 
Q 1375 441 1716 441 
Q 2309 441 2620 675 
Q 2931 909 2931 1356 
Q 2931 1769 2642 2001 
Q 2353 2234 1838 2234 
L 1294 2234 
L 1294 2753 
L 1863 2753 
Q 2328 2753 2575 2939 
Q 2822 3125 2822 3475 
Q 2822 3834 2567 4026 
Q 2313 4219 1838 4219 
Q 1578 4219 1281 4162 
Q 984 4106 628 3988 
L 628 4550 
Q 988 4650 1302 4700 
Q 1616 4750 1894 4750 
Q 2613 4750 3031 4423 
Q 3450 4097 3450 3541 
Q 3450 3153 3228 2886 
Q 3006 2619 2597 2516 
z
" transform="scale(0.015625)"/>
       <path id="DejaVuSans-55" d="M 556 4666 
L 1191 4666 
L 1191 1831 
Q 1191 1081 1462 751 
Q 1734 422 2344 422 
Q 2950 422 3222 751 
Q 3494 1081 3494 1831 
L 3494 4666 
L 4128 4666 
L 4128 1753 
Q 4128 841 3676 375 
Q 3225 -91 2344 -91 
Q 1459 -91 1007 375 
Q 556 841 556 1753 
L 556 4666 
z
" transform="scale(0.015625)"/>
       <path id="DejaVuSans-29" d="M 513 4856 
L 1013 4856 
Q 1481 4119 1714 3412 
Q 1947 2706 1947 2009 
Q 1947 1309 1714 600 
Q 1481 -109 1013 -844 
L 513 -844 
Q 928 -128 1133 580 
Q 1338 1288 1338 2009 
Q 1338 2731 1133 3434 
Q 928 4138 513 4856 
z
" transform="scale(0.015625)"/>
      </defs>
      <use xlink:href="#DejaVuSans-41"/>
      <use xlink:href="#DejaVuSans-63" x="66.658203"/>
      <use xlink:href="#DejaVuSans-63" x="121.638672"/>
      <use xlink:href="#DejaVuSans-20" x="176.619141"/>
      <use xlink:href="#DejaVuSans-54" x="208.40625"/>
      <use xlink:href="#DejaVuSans-72" x="254.740234"/>
      <use xlink:href="#DejaVuSans-61" x="295.853516"/>
      <use xlink:href="#DejaVuSans-69" x="357.132812"/>
      <use xlink:href="#DejaVuSans-6e" x="384.916016"/>
      <use xlink:href="#DejaVuSans-20" x="448.294922"/>
      <use xlink:href="#DejaVuSans-2d" x="480.082031"/>
      <use xlink:href="#DejaVuSans-20" x="516.166016"/>
      <use xlink:href="#DejaVuSans-28" x="547.953125"/>
      <use xlink:href="#DejaVuSans-33" x="586.966797"/>
      <use xlink:href="#DejaVuSans-32" x="650.589844"/>
      <use xlink:href="#DejaVuSans-20" x="714.212891"/>
      <use xlink:href="#DejaVuSans-55" x="746"/>
      <use xlink:href="#DejaVuSans-6e" x="819.193359"/>
      <use xlink:href="#DejaVuSans-69" x="882.572266"/>
      <use xlink:href="#DejaVuSans-74" x="910.355469"/>
      <use xlink:href="#DejaVuSans-73" x="949.564453"/>
      <use xlink:href="#DejaVuSans-29" x="1001.664062"/>
     </g>
    </g>
    <g id="line2d_34">
     <path d="M 395.31125 197.68625 
L 403.31125 197.68625 
L 411.31125 197.68625 
" style="fill: none; stroke-dasharray: 5.55,2.4; stroke-dashoffset: 0; stroke: #ff0000; stroke-width: 1.5"/>
    </g>
    <g id="text_18">
     <!-- Valid Train - (32 Units) -->
     <g transform="translate(417.71125 200.48625) scale(0.08 -0.08)">
      <defs>
       <path id="DejaVuSans-56" d="M 1831 0 
L 50 4666 
L 709 4666 
L 2188 738 
L 3669 4666 
L 4325 4666 
L 2547 0 
L 1831 0 
z
" transform="scale(0.015625)"/>
       <path id="DejaVuSans-6c" d="M 603 4863 
L 1178 4863 
L 1178 0 
L 603 0 
L 603 4863 
z
" transform="scale(0.015625)"/>
      </defs>
      <use xlink:href="#DejaVuSans-56"/>
      <use xlink:href="#DejaVuSans-61" x="60.658203"/>
      <use xlink:href="#DejaVuSans-6c" x="121.9375"/>
      <use xlink:href="#DejaVuSans-69" x="149.720703"/>
      <use xlink:href="#DejaVuSans-64" x="177.503906"/>
      <use xlink:href="#DejaVuSans-20" x="240.980469"/>
      <use xlink:href="#DejaVuSans-54" x="272.767578"/>
      <use xlink:href="#DejaVuSans-72" x="319.101562"/>
      <use xlink:href="#DejaVuSans-61" x="360.214844"/>
      <use xlink:href="#DejaVuSans-69" x="421.494141"/>
      <use xlink:href="#DejaVuSans-6e" x="449.277344"/>
      <use xlink:href="#DejaVuSans-20" x="512.65625"/>
      <use xlink:href="#DejaVuSans-2d" x="544.443359"/>
      <use xlink:href="#DejaVuSans-20" x="580.527344"/>
      <use xlink:href="#DejaVuSans-28" x="612.314453"/>
      <use xlink:href="#DejaVuSans-33" x="651.328125"/>
      <use xlink:href="#DejaVuSans-32" x="714.951172"/>
      <use xlink:href="#DejaVuSans-20" x="778.574219"/>
      <use xlink:href="#DejaVuSans-55" x="810.361328"/>
      <use xlink:href="#DejaVuSans-6e" x="883.554688"/>
      <use xlink:href="#DejaVuSans-69" x="946.933594"/>
      <use xlink:href="#DejaVuSans-74" x="974.716797"/>
      <use xlink:href="#DejaVuSans-73" x="1013.925781"/>
      <use xlink:href="#DejaVuSans-29" x="1066.025391"/>
     </g>
    </g>
    <g id="line2d_35">
     <path d="M 395.31125 209.42875 
L 403.31125 209.42875 
L 411.31125 209.42875 
" style="fill: none; stroke: #008000; stroke-width: 1.5; stroke-linecap: square"/>
    </g>
    <g id="text_19">
     <!-- Acc Train - (64 Units) -->
     <g transform="translate(417.71125 212.22875) scale(0.08 -0.08)">
      <use xlink:href="#DejaVuSans-41"/>
      <use xlink:href="#DejaVuSans-63" x="66.658203"/>
      <use xlink:href="#DejaVuSans-63" x="121.638672"/>
      <use xlink:href="#DejaVuSans-20" x="176.619141"/>
      <use xlink:href="#DejaVuSans-54" x="208.40625"/>
      <use xlink:href="#DejaVuSans-72" x="254.740234"/>
      <use xlink:href="#DejaVuSans-61" x="295.853516"/>
      <use xlink:href="#DejaVuSans-69" x="357.132812"/>
      <use xlink:href="#DejaVuSans-6e" x="384.916016"/>
      <use xlink:href="#DejaVuSans-20" x="448.294922"/>
      <use xlink:href="#DejaVuSans-2d" x="480.082031"/>
      <use xlink:href="#DejaVuSans-20" x="516.166016"/>
      <use xlink:href="#DejaVuSans-28" x="547.953125"/>
      <use xlink:href="#DejaVuSans-36" x="586.966797"/>
      <use xlink:href="#DejaVuSans-34" x="650.589844"/>
      <use xlink:href="#DejaVuSans-20" x="714.212891"/>
      <use xlink:href="#DejaVuSans-55" x="746"/>
      <use xlink:href="#DejaVuSans-6e" x="819.193359"/>
      <use xlink:href="#DejaVuSans-69" x="882.572266"/>
      <use xlink:href="#DejaVuSans-74" x="910.355469"/>
      <use xlink:href="#DejaVuSans-73" x="949.564453"/>
      <use xlink:href="#DejaVuSans-29" x="1001.664062"/>
     </g>
    </g>
    <g id="line2d_36">
     <path d="M 395.31125 221.17125 
L 403.31125 221.17125 
L 411.31125 221.17125 
" style="fill: none; stroke-dasharray: 5.55,2.4; stroke-dashoffset: 0; stroke: #008000; stroke-width: 1.5"/>
    </g>
    <g id="text_20">
     <!-- Valid Train - (64 Units) -->
     <g transform="translate(417.71125 223.97125) scale(0.08 -0.08)">
      <use xlink:href="#DejaVuSans-56"/>
      <use xlink:href="#DejaVuSans-61" x="60.658203"/>
      <use xlink:href="#DejaVuSans-6c" x="121.9375"/>
      <use xlink:href="#DejaVuSans-69" x="149.720703"/>
      <use xlink:href="#DejaVuSans-64" x="177.503906"/>
      <use xlink:href="#DejaVuSans-20" x="240.980469"/>
      <use xlink:href="#DejaVuSans-54" x="272.767578"/>
      <use xlink:href="#DejaVuSans-72" x="319.101562"/>
      <use xlink:href="#DejaVuSans-61" x="360.214844"/>
      <use xlink:href="#DejaVuSans-69" x="421.494141"/>
      <use xlink:href="#DejaVuSans-6e" x="449.277344"/>
      <use xlink:href="#DejaVuSans-20" x="512.65625"/>
      <use xlink:href="#DejaVuSans-2d" x="544.443359"/>
      <use xlink:href="#DejaVuSans-20" x="580.527344"/>
      <use xlink:href="#DejaVuSans-28" x="612.314453"/>
      <use xlink:href="#DejaVuSans-36" x="651.328125"/>
      <use xlink:href="#DejaVuSans-34" x="714.951172"/>
      <use xlink:href="#DejaVuSans-20" x="778.574219"/>
      <use xlink:href="#DejaVuSans-55" x="810.361328"/>
      <use xlink:href="#DejaVuSans-6e" x="883.554688"/>
      <use xlink:href="#DejaVuSans-69" x="946.933594"/>
      <use xlink:href="#DejaVuSans-74" x="974.716797"/>
      <use xlink:href="#DejaVuSans-73" x="1013.925781"/>
      <use xlink:href="#DejaVuSans-29" x="1066.025391"/>
     </g>
    </g>
    <g id="line2d_37">
     <path d="M 395.31125 232.91375 
L 403.31125 232.91375 
L 411.31125 232.91375 
" style="fill: none; stroke: #0000ff; stroke-width: 1.5; stroke-linecap: square"/>
    </g>
    <g id="text_21">
     <!-- Acc Train - (128 Units) -->
     <g transform="translate(417.71125 235.71375) scale(0.08 -0.08)">
      <use xlink:href="#DejaVuSans-41"/>
      <use xlink:href="#DejaVuSans-63" x="66.658203"/>
      <use xlink:href="#DejaVuSans-63" x="121.638672"/>
      <use xlink:href="#DejaVuSans-20" x="176.619141"/>
      <use xlink:href="#DejaVuSans-54" x="208.40625"/>
      <use xlink:href="#DejaVuSans-72" x="254.740234"/>
      <use xlink:href="#DejaVuSans-61" x="295.853516"/>
      <use xlink:href="#DejaVuSans-69" x="357.132812"/>
      <use xlink:href="#DejaVuSans-6e" x="384.916016"/>
      <use xlink:href="#DejaVuSans-20" x="448.294922"/>
      <use xlink:href="#DejaVuSans-2d" x="480.082031"/>
      <use xlink:href="#DejaVuSans-20" x="516.166016"/>
      <use xlink:href="#DejaVuSans-28" x="547.953125"/>
      <use xlink:href="#DejaVuSans-31" x="586.966797"/>
      <use xlink:href="#DejaVuSans-32" x="650.589844"/>
      <use xlink:href="#DejaVuSans-38" x="714.212891"/>
      <use xlink:href="#DejaVuSans-20" x="777.835938"/>
      <use xlink:href="#DejaVuSans-55" x="809.623047"/>
      <use xlink:href="#DejaVuSans-6e" x="882.816406"/>
      <use xlink:href="#DejaVuSans-69" x="946.195312"/>
      <use xlink:href="#DejaVuSans-74" x="973.978516"/>
      <use xlink:href="#DejaVuSans-73" x="1013.1875"/>
      <use xlink:href="#DejaVuSans-29" x="1065.287109"/>
     </g>
    </g>
    <g id="line2d_38">
     <path d="M 395.31125 244.65625 
L 403.31125 244.65625 
L 411.31125 244.65625 
" style="fill: none; stroke-dasharray: 5.55,2.4; stroke-dashoffset: 0; stroke: #0000ff; stroke-width: 1.5"/>
    </g>
    <g id="text_22">
     <!-- Valid Train - (128 Units) -->
     <g transform="translate(417.71125 247.45625) scale(0.08 -0.08)">
      <use xlink:href="#DejaVuSans-56"/>
      <use xlink:href="#DejaVuSans-61" x="60.658203"/>
      <use xlink:href="#DejaVuSans-6c" x="121.9375"/>
      <use xlink:href="#DejaVuSans-69" x="149.720703"/>
      <use xlink:href="#DejaVuSans-64" x="177.503906"/>
      <use xlink:href="#DejaVuSans-20" x="240.980469"/>
      <use xlink:href="#DejaVuSans-54" x="272.767578"/>
      <use xlink:href="#DejaVuSans-72" x="319.101562"/>
      <use xlink:href="#DejaVuSans-61" x="360.214844"/>
      <use xlink:href="#DejaVuSans-69" x="421.494141"/>
      <use xlink:href="#DejaVuSans-6e" x="449.277344"/>
      <use xlink:href="#DejaVuSans-20" x="512.65625"/>
      <use xlink:href="#DejaVuSans-2d" x="544.443359"/>
      <use xlink:href="#DejaVuSans-20" x="580.527344"/>
      <use xlink:href="#DejaVuSans-28" x="612.314453"/>
      <use xlink:href="#DejaVuSans-31" x="651.328125"/>
      <use xlink:href="#DejaVuSans-32" x="714.951172"/>
      <use xlink:href="#DejaVuSans-38" x="778.574219"/>
      <use xlink:href="#DejaVuSans-20" x="842.197266"/>
      <use xlink:href="#DejaVuSans-55" x="873.984375"/>
      <use xlink:href="#DejaVuSans-6e" x="947.177734"/>
      <use xlink:href="#DejaVuSans-69" x="1010.556641"/>
      <use xlink:href="#DejaVuSans-74" x="1038.339844"/>
      <use xlink:href="#DejaVuSans-73" x="1077.548828"/>
      <use xlink:href="#DejaVuSans-29" x="1129.648438"/>
     </g>
    </g>
   </g>
  </g>
 </g>
 <defs>
  <clipPath id="p7fc571a37e">
   <rect x="72" y="34.56" width="446.4" height="221.76"/>
  </clipPath>
 </defs>
</svg>
