<?xml version="1.0" encoding="utf-8" standalone="no"?>
<!DOCTYPE svg PUBLIC "-//W3C//DTD SVG 1.1//EN"
  "http://www.w3.org/Graphics/SVG/1.1/DTD/svg11.dtd">
<svg xmlns:xlink="http://www.w3.org/1999/xlink" width="576pt" height="288pt" viewBox="0 0 576 288" xmlns="http://www.w3.org/2000/svg" version="1.1">
 <metadata>
  <rdf:RDF xmlns:dc="http://purl.org/dc/elements/1.1/" xmlns:cc="http://creativecommons.org/ns#" xmlns:rdf="http://www.w3.org/1999/02/22-rdf-syntax-ns#">
   <cc:Work>
    <dc:type rdf:resource="http://purl.org/dc/dcmitype/StillImage"/>
    <dc:date>2024-10-21T17:11:54.172212</dc:date>
    <dc:format>image/svg+xml</dc:format>
    <dc:creator>
     <cc:Agent>
      <dc:title>Matplotlib v3.9.2, https://matplotlib.org/</dc:title>
     </cc:Agent>
    </dc:creator>
   </cc:Work>
  </rdf:RDF>
 </metadata>
 <defs>
  <style type="text/css">*{stroke-linejoin: round; stroke-linecap: butt}</style>
 </defs>
 <g id="figure_1">
  <g id="patch_1">
   <path d="M 0 288 
L 576 288 
L 576 0 
L 0 0 
z
" style="fill: #ffffff"/>
  </g>
  <g id="axes_1">
   <g id="patch_2">
    <path d="M 72 256.32 
L 518.4 256.32 
L 518.4 34.56 
L 72 34.56 
z
" style="fill: #e5e5e5"/>
   </g>
   <g id="matplotlib.axis_1">
    <g id="xtick_1">
     <g id="line2d_1">
      <path d="M 88.191736 256.32 
L 88.191736 34.56 
" clip-path="url(#pf57655f825)" style="fill: none; stroke: #ffffff; stroke-width: 0.8; stroke-linecap: square"/>
     </g>
     <g id="line2d_2">
      <defs>
       <path id="m52e03dbe56" d="M 0 0 
L 0 3.5 
" style="stroke: #555555; stroke-width: 0.8"/>
      </defs>
      <g>
       <use xlink:href="#m52e03dbe56" x="88.191736" y="256.32" style="fill: #555555; stroke: #555555; stroke-width: 0.8"/>
      </g>
     </g>
     <g id="text_1">
      <!-- 0 -->
      <g style="fill: #555555" transform="translate(85.010486 270.918437) scale(0.1 -0.1)">
       <defs>
        <path id="DejaVuSans-30" d="M 2034 4250 
Q 1547 4250 1301 3770 
Q 1056 3291 1056 2328 
Q 1056 1369 1301 889 
Q 1547 409 2034 409 
Q 2525 409 2770 889 
Q 3016 1369 3016 2328 
Q 3016 3291 2770 3770 
Q 2525 4250 2034 4250 
z
M 2034 4750 
Q 2819 4750 3233 4129 
Q 3647 3509 3647 2328 
Q 3647 1150 3233 529 
Q 2819 -91 2034 -91 
Q 1250 -91 836 529 
Q 422 1150 422 2328 
Q 422 3509 836 4129 
Q 1250 4750 2034 4750 
z
" transform="scale(0.015625)"/>
       </defs>
       <use xlink:href="#DejaVuSans-30"/>
      </g>
     </g>
    </g>
    <g id="xtick_2">
     <g id="line2d_3">
      <path d="M 170.175207 256.32 
L 170.175207 34.56 
" clip-path="url(#pf57655f825)" style="fill: none; stroke: #ffffff; stroke-width: 0.8; stroke-linecap: square"/>
     </g>
     <g id="line2d_4">
      <g>
       <use xlink:href="#m52e03dbe56" x="170.175207" y="256.32" style="fill: #555555; stroke: #555555; stroke-width: 0.8"/>
      </g>
     </g>
     <g id="text_2">
      <!-- 20 -->
      <g style="fill: #555555" transform="translate(163.812707 270.918437) scale(0.1 -0.1)">
       <defs>
        <path id="DejaVuSans-32" d="M 1228 531 
L 3431 531 
L 3431 0 
L 469 0 
L 469 531 
Q 828 903 1448 1529 
Q 2069 2156 2228 2338 
Q 2531 2678 2651 2914 
Q 2772 3150 2772 3378 
Q 2772 3750 2511 3984 
Q 2250 4219 1831 4219 
Q 1534 4219 1204 4116 
Q 875 4013 500 3803 
L 500 4441 
Q 881 4594 1212 4672 
Q 1544 4750 1819 4750 
Q 2544 4750 2975 4387 
Q 3406 4025 3406 3419 
Q 3406 3131 3298 2873 
Q 3191 2616 2906 2266 
Q 2828 2175 2409 1742 
Q 1991 1309 1228 531 
z
" transform="scale(0.015625)"/>
       </defs>
       <use xlink:href="#DejaVuSans-32"/>
       <use xlink:href="#DejaVuSans-30" x="63.623047"/>
      </g>
     </g>
    </g>
    <g id="xtick_3">
     <g id="line2d_5">
      <path d="M 252.158678 256.32 
L 252.158678 34.56 
" clip-path="url(#pf57655f825)" style="fill: none; stroke: #ffffff; stroke-width: 0.8; stroke-linecap: square"/>
     </g>
     <g id="line2d_6">
      <g>
       <use xlink:href="#m52e03dbe56" x="252.158678" y="256.32" style="fill: #555555; stroke: #555555; stroke-width: 0.8"/>
      </g>
     </g>
     <g id="text_3">
      <!-- 40 -->
      <g style="fill: #555555" transform="translate(245.796178 270.918437) scale(0.1 -0.1)">
       <defs>
        <path id="DejaVuSans-34" d="M 2419 4116 
L 825 1625 
L 2419 1625 
L 2419 4116 
z
M 2253 4666 
L 3047 4666 
L 3047 1625 
L 3713 1625 
L 3713 1100 
L 3047 1100 
L 3047 0 
L 2419 0 
L 2419 1100 
L 313 1100 
L 313 1709 
L 2253 4666 
z
" transform="scale(0.015625)"/>
       </defs>
       <use xlink:href="#DejaVuSans-34"/>
       <use xlink:href="#DejaVuSans-30" x="63.623047"/>
      </g>
     </g>
    </g>
    <g id="xtick_4">
     <g id="line2d_7">
      <path d="M 334.142149 256.32 
L 334.142149 34.56 
" clip-path="url(#pf57655f825)" style="fill: none; stroke: #ffffff; stroke-width: 0.8; stroke-linecap: square"/>
     </g>
     <g id="line2d_8">
      <g>
       <use xlink:href="#m52e03dbe56" x="334.142149" y="256.32" style="fill: #555555; stroke: #555555; stroke-width: 0.8"/>
      </g>
     </g>
     <g id="text_4">
      <!-- 60 -->
      <g style="fill: #555555" transform="translate(327.779649 270.918437) scale(0.1 -0.1)">
       <defs>
        <path id="DejaVuSans-36" d="M 2113 2584 
Q 1688 2584 1439 2293 
Q 1191 2003 1191 1497 
Q 1191 994 1439 701 
Q 1688 409 2113 409 
Q 2538 409 2786 701 
Q 3034 994 3034 1497 
Q 3034 2003 2786 2293 
Q 2538 2584 2113 2584 
z
M 3366 4563 
L 3366 3988 
Q 3128 4100 2886 4159 
Q 2644 4219 2406 4219 
Q 1781 4219 1451 3797 
Q 1122 3375 1075 2522 
Q 1259 2794 1537 2939 
Q 1816 3084 2150 3084 
Q 2853 3084 3261 2657 
Q 3669 2231 3669 1497 
Q 3669 778 3244 343 
Q 2819 -91 2113 -91 
Q 1303 -91 875 529 
Q 447 1150 447 2328 
Q 447 3434 972 4092 
Q 1497 4750 2381 4750 
Q 2619 4750 2861 4703 
Q 3103 4656 3366 4563 
z
" transform="scale(0.015625)"/>
       </defs>
       <use xlink:href="#DejaVuSans-36"/>
       <use xlink:href="#DejaVuSans-30" x="63.623047"/>
      </g>
     </g>
    </g>
    <g id="xtick_5">
     <g id="line2d_9">
      <path d="M 416.12562 256.32 
L 416.12562 34.56 
" clip-path="url(#pf57655f825)" style="fill: none; stroke: #ffffff; stroke-width: 0.8; stroke-linecap: square"/>
     </g>
     <g id="line2d_10">
      <g>
       <use xlink:href="#m52e03dbe56" x="416.12562" y="256.32" style="fill: #555555; stroke: #555555; stroke-width: 0.8"/>
      </g>
     </g>
     <g id="text_5">
      <!-- 80 -->
      <g style="fill: #555555" transform="translate(409.76312 270.918437) scale(0.1 -0.1)">
       <defs>
        <path id="DejaVuSans-38" d="M 2034 2216 
Q 1584 2216 1326 1975 
Q 1069 1734 1069 1313 
Q 1069 891 1326 650 
Q 1584 409 2034 409 
Q 2484 409 2743 651 
Q 3003 894 3003 1313 
Q 3003 1734 2745 1975 
Q 2488 2216 2034 2216 
z
M 1403 2484 
Q 997 2584 770 2862 
Q 544 3141 544 3541 
Q 544 4100 942 4425 
Q 1341 4750 2034 4750 
Q 2731 4750 3128 4425 
Q 3525 4100 3525 3541 
Q 3525 3141 3298 2862 
Q 3072 2584 2669 2484 
Q 3125 2378 3379 2068 
Q 3634 1759 3634 1313 
Q 3634 634 3220 271 
Q 2806 -91 2034 -91 
Q 1263 -91 848 271 
Q 434 634 434 1313 
Q 434 1759 690 2068 
Q 947 2378 1403 2484 
z
M 1172 3481 
Q 1172 3119 1398 2916 
Q 1625 2713 2034 2713 
Q 2441 2713 2670 2916 
Q 2900 3119 2900 3481 
Q 2900 3844 2670 4047 
Q 2441 4250 2034 4250 
Q 1625 4250 1398 4047 
Q 1172 3844 1172 3481 
z
" transform="scale(0.015625)"/>
       </defs>
       <use xlink:href="#DejaVuSans-38"/>
       <use xlink:href="#DejaVuSans-30" x="63.623047"/>
      </g>
     </g>
    </g>
    <g id="xtick_6">
     <g id="line2d_11">
      <path d="M 498.109091 256.32 
L 498.109091 34.56 
" clip-path="url(#pf57655f825)" style="fill: none; stroke: #ffffff; stroke-width: 0.8; stroke-linecap: square"/>
     </g>
     <g id="line2d_12">
      <g>
       <use xlink:href="#m52e03dbe56" x="498.109091" y="256.32" style="fill: #555555; stroke: #555555; stroke-width: 0.8"/>
      </g>
     </g>
     <g id="text_6">
      <!-- 100 -->
      <g style="fill: #555555" transform="translate(488.565341 270.918437) scale(0.1 -0.1)">
       <defs>
        <path id="DejaVuSans-31" d="M 794 531 
L 1825 531 
L 1825 4091 
L 703 3866 
L 703 4441 
L 1819 4666 
L 2450 4666 
L 2450 531 
L 3481 531 
L 3481 0 
L 794 0 
L 794 531 
z
" transform="scale(0.015625)"/>
       </defs>
       <use xlink:href="#DejaVuSans-31"/>
       <use xlink:href="#DejaVuSans-30" x="63.623047"/>
       <use xlink:href="#DejaVuSans-30" x="127.246094"/>
      </g>
     </g>
    </g>
    <g id="text_7">
     <!-- Epoch number -->
     <g style="fill: #555555" transform="translate(251.503125 286.11625) scale(0.12 -0.12)">
      <defs>
       <path id="DejaVuSans-45" d="M 628 4666 
L 3578 4666 
L 3578 4134 
L 1259 4134 
L 1259 2753 
L 3481 2753 
L 3481 2222 
L 1259 2222 
L 1259 531 
L 3634 531 
L 3634 0 
L 628 0 
L 628 4666 
z
" transform="scale(0.015625)"/>
       <path id="DejaVuSans-70" d="M 1159 525 
L 1159 -1331 
L 581 -1331 
L 581 3500 
L 1159 3500 
L 1159 2969 
Q 1341 3281 1617 3432 
Q 1894 3584 2278 3584 
Q 2916 3584 3314 3078 
Q 3713 2572 3713 1747 
Q 3713 922 3314 415 
Q 2916 -91 2278 -91 
Q 1894 -91 1617 61 
Q 1341 213 1159 525 
z
M 3116 1747 
Q 3116 2381 2855 2742 
Q 2594 3103 2138 3103 
Q 1681 3103 1420 2742 
Q 1159 2381 1159 1747 
Q 1159 1113 1420 752 
Q 1681 391 2138 391 
Q 2594 391 2855 752 
Q 3116 1113 3116 1747 
z
" transform="scale(0.015625)"/>
       <path id="DejaVuSans-6f" d="M 1959 3097 
Q 1497 3097 1228 2736 
Q 959 2375 959 1747 
Q 959 1119 1226 758 
Q 1494 397 1959 397 
Q 2419 397 2687 759 
Q 2956 1122 2956 1747 
Q 2956 2369 2687 2733 
Q 2419 3097 1959 3097 
z
M 1959 3584 
Q 2709 3584 3137 3096 
Q 3566 2609 3566 1747 
Q 3566 888 3137 398 
Q 2709 -91 1959 -91 
Q 1206 -91 779 398 
Q 353 888 353 1747 
Q 353 2609 779 3096 
Q 1206 3584 1959 3584 
z
" transform="scale(0.015625)"/>
       <path id="DejaVuSans-63" d="M 3122 3366 
L 3122 2828 
Q 2878 2963 2633 3030 
Q 2388 3097 2138 3097 
Q 1578 3097 1268 2742 
Q 959 2388 959 1747 
Q 959 1106 1268 751 
Q 1578 397 2138 397 
Q 2388 397 2633 464 
Q 2878 531 3122 666 
L 3122 134 
Q 2881 22 2623 -34 
Q 2366 -91 2075 -91 
Q 1284 -91 818 406 
Q 353 903 353 1747 
Q 353 2603 823 3093 
Q 1294 3584 2113 3584 
Q 2378 3584 2631 3529 
Q 2884 3475 3122 3366 
z
" transform="scale(0.015625)"/>
       <path id="DejaVuSans-68" d="M 3513 2113 
L 3513 0 
L 2938 0 
L 2938 2094 
Q 2938 2591 2744 2837 
Q 2550 3084 2163 3084 
Q 1697 3084 1428 2787 
Q 1159 2491 1159 1978 
L 1159 0 
L 581 0 
L 581 4863 
L 1159 4863 
L 1159 2956 
Q 1366 3272 1645 3428 
Q 1925 3584 2291 3584 
Q 2894 3584 3203 3211 
Q 3513 2838 3513 2113 
z
" transform="scale(0.015625)"/>
       <path id="DejaVuSans-20" transform="scale(0.015625)"/>
       <path id="DejaVuSans-6e" d="M 3513 2113 
L 3513 0 
L 2938 0 
L 2938 2094 
Q 2938 2591 2744 2837 
Q 2550 3084 2163 3084 
Q 1697 3084 1428 2787 
Q 1159 2491 1159 1978 
L 1159 0 
L 581 0 
L 581 3500 
L 1159 3500 
L 1159 2956 
Q 1366 3272 1645 3428 
Q 1925 3584 2291 3584 
Q 2894 3584 3203 3211 
Q 3513 2838 3513 2113 
z
" transform="scale(0.015625)"/>
       <path id="DejaVuSans-75" d="M 544 1381 
L 544 3500 
L 1119 3500 
L 1119 1403 
Q 1119 906 1312 657 
Q 1506 409 1894 409 
Q 2359 409 2629 706 
Q 2900 1003 2900 1516 
L 2900 3500 
L 3475 3500 
L 3475 0 
L 2900 0 
L 2900 538 
Q 2691 219 2414 64 
Q 2138 -91 1772 -91 
Q 1169 -91 856 284 
Q 544 659 544 1381 
z
M 1991 3584 
L 1991 3584 
z
" transform="scale(0.015625)"/>
       <path id="DejaVuSans-6d" d="M 3328 2828 
Q 3544 3216 3844 3400 
Q 4144 3584 4550 3584 
Q 5097 3584 5394 3201 
Q 5691 2819 5691 2113 
L 5691 0 
L 5113 0 
L 5113 2094 
Q 5113 2597 4934 2840 
Q 4756 3084 4391 3084 
Q 3944 3084 3684 2787 
Q 3425 2491 3425 1978 
L 3425 0 
L 2847 0 
L 2847 2094 
Q 2847 2600 2669 2842 
Q 2491 3084 2119 3084 
Q 1678 3084 1418 2786 
Q 1159 2488 1159 1978 
L 1159 0 
L 581 0 
L 581 3500 
L 1159 3500 
L 1159 2956 
Q 1356 3278 1631 3431 
Q 1906 3584 2284 3584 
Q 2666 3584 2933 3390 
Q 3200 3197 3328 2828 
z
" transform="scale(0.015625)"/>
       <path id="DejaVuSans-62" d="M 3116 1747 
Q 3116 2381 2855 2742 
Q 2594 3103 2138 3103 
Q 1681 3103 1420 2742 
Q 1159 2381 1159 1747 
Q 1159 1113 1420 752 
Q 1681 391 2138 391 
Q 2594 391 2855 752 
Q 3116 1113 3116 1747 
z
M 1159 2969 
Q 1341 3281 1617 3432 
Q 1894 3584 2278 3584 
Q 2916 3584 3314 3078 
Q 3713 2572 3713 1747 
Q 3713 922 3314 415 
Q 2916 -91 2278 -91 
Q 1894 -91 1617 61 
Q 1341 213 1159 525 
L 1159 0 
L 581 0 
L 581 4863 
L 1159 4863 
L 1159 2969 
z
" transform="scale(0.015625)"/>
       <path id="DejaVuSans-65" d="M 3597 1894 
L 3597 1613 
L 953 1613 
Q 991 1019 1311 708 
Q 1631 397 2203 397 
Q 2534 397 2845 478 
Q 3156 559 3463 722 
L 3463 178 
Q 3153 47 2828 -22 
Q 2503 -91 2169 -91 
Q 1331 -91 842 396 
Q 353 884 353 1716 
Q 353 2575 817 3079 
Q 1281 3584 2069 3584 
Q 2775 3584 3186 3129 
Q 3597 2675 3597 1894 
z
M 3022 2063 
Q 3016 2534 2758 2815 
Q 2500 3097 2075 3097 
Q 1594 3097 1305 2825 
Q 1016 2553 972 2059 
L 3022 2063 
z
" transform="scale(0.015625)"/>
       <path id="DejaVuSans-72" d="M 2631 2963 
Q 2534 3019 2420 3045 
Q 2306 3072 2169 3072 
Q 1681 3072 1420 2755 
Q 1159 2438 1159 1844 
L 1159 0 
L 581 0 
L 581 3500 
L 1159 3500 
L 1159 2956 
Q 1341 3275 1631 3429 
Q 1922 3584 2338 3584 
Q 2397 3584 2469 3576 
Q 2541 3569 2628 3553 
L 2631 2963 
z
" transform="scale(0.015625)"/>
      </defs>
      <use xlink:href="#DejaVuSans-45"/>
      <use xlink:href="#DejaVuSans-70" x="63.183594"/>
      <use xlink:href="#DejaVuSans-6f" x="126.660156"/>
      <use xlink:href="#DejaVuSans-63" x="187.841797"/>
      <use xlink:href="#DejaVuSans-68" x="242.822266"/>
      <use xlink:href="#DejaVuSans-20" x="306.201172"/>
      <use xlink:href="#DejaVuSans-6e" x="337.988281"/>
      <use xlink:href="#DejaVuSans-75" x="401.367188"/>
      <use xlink:href="#DejaVuSans-6d" x="464.746094"/>
      <use xlink:href="#DejaVuSans-62" x="562.158203"/>
      <use xlink:href="#DejaVuSans-65" x="625.634766"/>
      <use xlink:href="#DejaVuSans-72" x="687.158203"/>
     </g>
    </g>
   </g>
   <g id="matplotlib.axis_2">
    <g id="ytick_1">
     <g id="line2d_13">
      <path d="M 72 238.904351 
L 518.4 238.904351 
" clip-path="url(#pf57655f825)" style="fill: none; stroke: #ffffff; stroke-width: 0.8; stroke-linecap: square"/>
     </g>
     <g id="line2d_14">
      <defs>
       <path id="m7ca4f17135" d="M 0 0 
L -3.5 0 
" style="stroke: #555555; stroke-width: 0.8"/>
      </defs>
      <g>
       <use xlink:href="#m7ca4f17135" x="72" y="238.904351" style="fill: #555555; stroke: #555555; stroke-width: 0.8"/>
      </g>
     </g>
     <g id="text_8">
      <!-- 0.2 -->
      <g style="fill: #555555" transform="translate(49.096875 242.703569) scale(0.1 -0.1)">
       <defs>
        <path id="DejaVuSans-2e" d="M 684 794 
L 1344 794 
L 1344 0 
L 684 0 
L 684 794 
z
" transform="scale(0.015625)"/>
       </defs>
       <use xlink:href="#DejaVuSans-30"/>
       <use xlink:href="#DejaVuSans-2e" x="63.623047"/>
       <use xlink:href="#DejaVuSans-32" x="95.410156"/>
      </g>
     </g>
    </g>
    <g id="ytick_2">
     <g id="line2d_15">
      <path d="M 72 202.031008 
L 518.4 202.031008 
" clip-path="url(#pf57655f825)" style="fill: none; stroke: #ffffff; stroke-width: 0.8; stroke-linecap: square"/>
     </g>
     <g id="line2d_16">
      <g>
       <use xlink:href="#m7ca4f17135" x="72" y="202.031008" style="fill: #555555; stroke: #555555; stroke-width: 0.8"/>
      </g>
     </g>
     <g id="text_9">
      <!-- 0.4 -->
      <g style="fill: #555555" transform="translate(49.096875 205.830226) scale(0.1 -0.1)">
       <use xlink:href="#DejaVuSans-30"/>
       <use xlink:href="#DejaVuSans-2e" x="63.623047"/>
       <use xlink:href="#DejaVuSans-34" x="95.410156"/>
      </g>
     </g>
    </g>
    <g id="ytick_3">
     <g id="line2d_17">
      <path d="M 72 165.157664 
L 518.4 165.157664 
" clip-path="url(#pf57655f825)" style="fill: none; stroke: #ffffff; stroke-width: 0.8; stroke-linecap: square"/>
     </g>
     <g id="line2d_18">
      <g>
       <use xlink:href="#m7ca4f17135" x="72" y="165.157664" style="fill: #555555; stroke: #555555; stroke-width: 0.8"/>
      </g>
     </g>
     <g id="text_10">
      <!-- 0.6 -->
      <g style="fill: #555555" transform="translate(49.096875 168.956883) scale(0.1 -0.1)">
       <use xlink:href="#DejaVuSans-30"/>
       <use xlink:href="#DejaVuSans-2e" x="63.623047"/>
       <use xlink:href="#DejaVuSans-36" x="95.410156"/>
      </g>
     </g>
    </g>
    <g id="ytick_4">
     <g id="line2d_19">
      <path d="M 72 128.284321 
L 518.4 128.284321 
" clip-path="url(#pf57655f825)" style="fill: none; stroke: #ffffff; stroke-width: 0.8; stroke-linecap: square"/>
     </g>
     <g id="line2d_20">
      <g>
       <use xlink:href="#m7ca4f17135" x="72" y="128.284321" style="fill: #555555; stroke: #555555; stroke-width: 0.8"/>
      </g>
     </g>
     <g id="text_11">
      <!-- 0.8 -->
      <g style="fill: #555555" transform="translate(49.096875 132.08354) scale(0.1 -0.1)">
       <use xlink:href="#DejaVuSans-30"/>
       <use xlink:href="#DejaVuSans-2e" x="63.623047"/>
       <use xlink:href="#DejaVuSans-38" x="95.410156"/>
      </g>
     </g>
    </g>
    <g id="ytick_5">
     <g id="line2d_21">
      <path d="M 72 91.410978 
L 518.4 91.410978 
" clip-path="url(#pf57655f825)" style="fill: none; stroke: #ffffff; stroke-width: 0.8; stroke-linecap: square"/>
     </g>
     <g id="line2d_22">
      <g>
       <use xlink:href="#m7ca4f17135" x="72" y="91.410978" style="fill: #555555; stroke: #555555; stroke-width: 0.8"/>
      </g>
     </g>
     <g id="text_12">
      <!-- 1.0 -->
      <g style="fill: #555555" transform="translate(49.096875 95.210197) scale(0.1 -0.1)">
       <use xlink:href="#DejaVuSans-31"/>
       <use xlink:href="#DejaVuSans-2e" x="63.623047"/>
       <use xlink:href="#DejaVuSans-30" x="95.410156"/>
      </g>
     </g>
    </g>
    <g id="ytick_6">
     <g id="line2d_23">
      <path d="M 72 54.537635 
L 518.4 54.537635 
" clip-path="url(#pf57655f825)" style="fill: none; stroke: #ffffff; stroke-width: 0.8; stroke-linecap: square"/>
     </g>
     <g id="line2d_24">
      <g>
       <use xlink:href="#m7ca4f17135" x="72" y="54.537635" style="fill: #555555; stroke: #555555; stroke-width: 0.8"/>
      </g>
     </g>
     <g id="text_13">
      <!-- 1.2 -->
      <g style="fill: #555555" transform="translate(49.096875 58.336854) scale(0.1 -0.1)">
       <use xlink:href="#DejaVuSans-31"/>
       <use xlink:href="#DejaVuSans-2e" x="63.623047"/>
       <use xlink:href="#DejaVuSans-32" x="95.410156"/>
      </g>
     </g>
    </g>
    <g id="text_14">
     <!-- Error -->
     <g style="fill: #555555" transform="translate(42.60125 160.062187) rotate(-90) scale(0.12 -0.12)">
      <use xlink:href="#DejaVuSans-45"/>
      <use xlink:href="#DejaVuSans-72" x="63.183594"/>
      <use xlink:href="#DejaVuSans-72" x="102.546875"/>
      <use xlink:href="#DejaVuSans-6f" x="141.410156"/>
      <use xlink:href="#DejaVuSans-72" x="202.591797"/>
     </g>
    </g>
   </g>
   <g id="line2d_25">
    <path d="M 92.290909 45.909819 
L 96.390083 70.940742 
L 100.489256 87.143007 
L 104.58843 98.732888 
L 108.687603 107.781173 
L 112.786777 113.860937 
L 116.88595 117.30044 
L 120.985124 124.404869 
L 125.084298 127.944899 
L 129.183471 131.441986 
L 133.282645 134.998759 
L 137.381818 138.003617 
L 141.480992 139.977475 
L 145.580165 140.988233 
L 149.679339 142.952965 
L 153.778512 144.544645 
L 157.877686 145.753511 
L 161.97686 148.117932 
L 166.076033 148.973645 
L 170.175207 148.624364 
L 174.27438 150.875538 
L 178.373554 151.073538 
L 182.472727 152.642152 
L 186.571901 152.205816 
L 190.671074 154.013946 
L 194.770248 154.260933 
L 198.869421 155.322521 
L 202.968595 156.789046 
L 207.067769 155.61095 
L 211.166942 157.059675 
L 215.266116 157.910611 
L 219.365289 158.556353 
L 223.464463 158.484187 
L 227.563636 158.844752 
L 231.66281 160.195392 
L 235.761983 161.005193 
L 239.861157 161.965283 
L 243.960331 161.718064 
L 248.059504 161.653002 
L 252.158678 161.923177 
L 256.257851 162.911843 
L 260.357025 162.33011 
L 264.456198 162.46747 
L 268.555372 163.742068 
L 272.654545 163.668522 
L 276.753719 164.3274 
L 280.852893 163.715152 
L 284.952066 165.168315 
L 289.05124 165.163887 
L 293.150413 164.592352 
L 297.249587 165.968112 
L 301.34876 166.466583 
L 305.447934 166.478344 
L 309.547107 166.629422 
L 313.646281 166.319275 
L 317.745455 166.861169 
L 321.844628 167.592243 
L 325.943802 168.484649 
L 330.042975 166.88623 
L 334.142149 167.881334 
L 338.241322 168.280013 
L 342.340496 168.762173 
L 346.439669 168.298126 
L 350.538843 169.811807 
L 354.638017 169.179843 
L 358.73719 168.305272 
L 362.836364 170.124639 
L 366.935537 168.331264 
L 371.034711 169.715153 
L 375.133884 169.319866 
L 379.233058 170.354195 
L 383.332231 170.31046 
L 387.431405 170.065312 
L 391.530579 170.505829 
L 395.629752 170.540579 
L 399.728926 171.406641 
L 403.828099 171.474818 
L 407.927273 169.456112 
L 412.026446 171.340722 
L 416.12562 171.590643 
L 420.224793 170.719743 
L 424.323967 171.707832 
L 428.42314 172.370342 
L 432.522314 172.461404 
L 436.621488 171.575053 
L 440.720661 172.753264 
L 444.819835 173.236901 
L 448.919008 172.901774 
L 453.018182 172.439294 
L 457.117355 172.230505 
L 461.216529 172.514126 
L 465.315702 173.240733 
L 469.414876 173.034251 
L 473.51405 172.977311 
L 477.613223 173.606715 
L 481.712397 172.779251 
L 485.81157 174.330207 
L 489.910744 173.812379 
L 494.009917 174.414481 
L 498.109091 174.020889 
" clip-path="url(#pf57655f825)" style="fill: none; stroke: #ff0000; stroke-width: 1.5; stroke-linecap: square"/>
   </g>
   <g id="line2d_26">
    <path d="M 92.290909 44.64 
L 96.390083 68.006118 
L 100.489256 82.959481 
L 104.58843 94.546071 
L 108.687603 102.305901 
L 112.786777 107.554575 
L 116.88595 111.311168 
L 120.985124 117.25992 
L 125.084298 120.400647 
L 129.183471 123.807426 
L 133.282645 126.094075 
L 137.381818 129.323328 
L 141.480992 130.857919 
L 145.580165 131.023202 
L 149.679339 132.468508 
L 153.778512 133.587849 
L 157.877686 134.73132 
L 161.97686 136.681595 
L 166.076033 137.009494 
L 170.175207 136.309169 
L 174.27438 138.017364 
L 178.373554 137.782025 
L 182.472727 139.44915 
L 186.571901 138.523122 
L 190.671074 140.13352 
L 194.770248 139.193702 
L 198.869421 140.844831 
L 202.968595 141.631809 
L 207.067769 140.460554 
L 211.166942 141.916995 
L 215.266116 141.996025 
L 219.365289 142.539448 
L 223.464463 142.24405 
L 227.563636 142.754779 
L 231.66281 143.629382 
L 235.761983 143.478357 
L 239.861157 145.095565 
L 243.960331 143.662415 
L 248.059504 143.09279 
L 252.158678 143.434391 
L 256.257851 144.160962 
L 260.357025 143.474253 
L 264.456198 144.300102 
L 268.555372 144.967955 
L 272.654545 144.65873 
L 276.753719 144.515208 
L 280.852893 144.04489 
L 284.952066 145.854216 
L 289.05124 145.186041 
L 293.150413 144.838101 
L 297.249587 145.699697 
L 301.34876 145.257363 
L 305.447934 145.892708 
L 309.547107 145.682668 
L 313.646281 145.269072 
L 317.745455 145.924103 
L 321.844628 146.215869 
L 325.943802 146.852731 
L 330.042975 144.943905 
L 334.142149 146.451361 
L 338.241322 146.476257 
L 342.340496 147.107122 
L 346.439669 146.187468 
L 350.538843 147.61306 
L 354.638017 146.96314 
L 358.73719 145.905309 
L 362.836364 147.143887 
L 366.935537 145.661277 
L 371.034711 146.263392 
L 375.133884 145.85562 
L 379.233058 147.091375 
L 383.332231 146.908963 
L 387.431405 146.194397 
L 391.530579 146.75587 
L 395.629752 147.255906 
L 399.728926 147.205808 
L 403.828099 147.471272 
L 407.927273 144.781341 
L 412.026446 146.541975 
L 416.12562 147.077455 
L 420.224793 145.474021 
L 424.323967 146.509644 
L 428.42314 146.895444 
L 432.522314 147.819635 
L 436.621488 146.219194 
L 440.720661 147.138141 
L 444.819835 147.337363 
L 448.919008 147.424823 
L 453.018182 146.577686 
L 457.117355 146.425794 
L 461.216529 146.563811 
L 465.315702 146.466719 
L 469.414876 146.842747 
L 473.51405 146.6907 
L 477.613223 147.448786 
L 481.712397 146.374189 
L 485.81157 147.27179 
L 489.910744 147.016547 
L 494.009917 147.90098 
L 498.109091 147.333157 
" clip-path="url(#pf57655f825)" style="fill: none; stroke-dasharray: 5.55,2.4; stroke-dashoffset: 0; stroke: #ff0000; stroke-width: 1.5"/>
   </g>
   <g id="line2d_27">
    <path d="M 92.290909 75.614847 
L 96.390083 108.336854 
L 100.489256 125.612147 
L 104.58843 137.013121 
L 108.687603 146.59159 
L 112.786777 154.536865 
L 116.88595 158.108282 
L 120.985124 163.159502 
L 125.084298 166.529169 
L 129.183471 170.409206 
L 133.282645 171.754764 
L 137.381818 174.096229 
L 141.480992 176.165471 
L 145.580165 178.359246 
L 149.679339 179.011235 
L 153.778512 178.17277 
L 157.877686 184.064211 
L 161.97686 185.261709 
L 166.076033 186.026851 
L 170.175207 186.286886 
L 174.27438 187.265247 
L 178.373554 188.117752 
L 182.472727 189.559317 
L 186.571901 191.121122 
L 190.671074 189.839785 
L 194.770248 190.076103 
L 198.869421 192.256586 
L 202.968595 194.520387 
L 207.067769 194.581604 
L 211.166942 194.415739 
L 215.266116 195.775148 
L 219.365289 196.128155 
L 223.464463 196.016369 
L 227.563636 196.731824 
L 231.66281 197.292249 
L 235.761983 198.070727 
L 239.861157 198.316901 
L 243.960331 198.419004 
L 248.059504 199.607562 
L 252.158678 199.559269 
L 256.257851 199.550303 
L 260.357025 200.197013 
L 264.456198 200.705096 
L 268.555372 199.708119 
L 272.654545 201.474821 
L 276.753719 201.600339 
L 280.852893 202.49271 
L 284.952066 201.087316 
L 289.05124 201.418496 
L 293.150413 202.554418 
L 297.249587 202.354032 
L 301.34876 203.583112 
L 305.447934 204.342467 
L 309.547107 204.547522 
L 313.646281 203.762693 
L 317.745455 205.898276 
L 321.844628 204.573942 
L 325.943802 205.933019 
L 330.042975 205.303147 
L 334.142149 204.887358 
L 338.241322 206.999913 
L 342.340496 206.394951 
L 346.439669 206.080132 
L 350.538843 206.708982 
L 354.638017 206.734485 
L 358.73719 207.682542 
L 362.836364 207.22252 
L 366.935537 207.265117 
L 371.034711 208.701398 
L 375.133884 209.021257 
L 379.233058 207.616116 
L 383.332231 208.668885 
L 387.431405 209.169075 
L 391.530579 208.087146 
L 395.629752 207.965684 
L 399.728926 209.524285 
L 403.828099 208.657783 
L 407.927273 209.810585 
L 412.026446 209.726702 
L 416.12562 209.833285 
L 420.224793 208.631614 
L 424.323967 210.33127 
L 428.42314 210.205547 
L 432.522314 210.375211 
L 436.621488 210.074717 
L 440.720661 210.459673 
L 444.819835 210.566838 
L 448.919008 211.629375 
L 453.018182 211.910878 
L 457.117355 210.035696 
L 461.216529 211.797624 
L 465.315702 212.426664 
L 469.414876 212.212439 
L 473.51405 212.936973 
L 477.613223 211.686583 
L 481.712397 212.641244 
L 485.81157 213.058002 
L 489.910744 212.448684 
L 494.009917 212.439968 
L 498.109091 213.001907 
" clip-path="url(#pf57655f825)" style="fill: none; stroke: #008000; stroke-width: 1.5; stroke-linecap: square"/>
   </g>
   <g id="line2d_28">
    <path d="M 92.290909 73.732363 
L 96.390083 103.937742 
L 100.489256 119.525974 
L 104.58843 130.045191 
L 108.687603 138.043118 
L 112.786777 144.967136 
L 116.88595 147.037136 
L 120.985124 151.889414 
L 125.084298 153.930254 
L 129.183471 156.617389 
L 133.282645 157.718965 
L 137.381818 158.681206 
L 141.480992 159.256361 
L 145.580165 161.729127 
L 149.679339 161.943287 
L 153.778512 159.21042 
L 157.877686 165.090061 
L 161.97686 165.896355 
L 166.076033 166.297834 
L 170.175207 165.457976 
L 174.27438 165.718942 
L 178.373554 166.703105 
L 182.472727 166.513463 
L 186.571901 167.618643 
L 190.671074 166.401145 
L 194.770248 165.289148 
L 198.869421 167.570072 
L 202.968595 168.805626 
L 207.067769 168.472584 
L 211.166942 167.618293 
L 215.266116 168.58476 
L 219.365289 168.270663 
L 223.464463 167.924044 
L 227.563636 168.278608 
L 231.66281 167.697086 
L 235.761983 168.42281 
L 239.861157 168.92252 
L 243.960331 168.122229 
L 248.059504 168.344492 
L 252.158678 168.185929 
L 256.257851 167.93968 
L 260.357025 167.37404 
L 264.456198 168.126752 
L 268.555372 166.256538 
L 272.654545 167.967814 
L 276.753719 167.393113 
L 280.852893 167.573968 
L 284.952066 166.327392 
L 289.05124 165.639607 
L 293.150413 166.393261 
L 297.249587 166.44245 
L 301.34876 166.76345 
L 305.447934 166.713368 
L 309.547107 166.425058 
L 313.646281 165.390375 
L 317.745455 167.297274 
L 321.844628 165.304068 
L 325.943802 167.019202 
L 330.042975 164.773167 
L 334.142149 165.543557 
L 338.241322 165.651885 
L 342.340496 165.333563 
L 346.439669 164.540475 
L 350.538843 164.504589 
L 354.638017 164.142077 
L 358.73719 164.576894 
L 362.836364 163.909591 
L 366.935537 163.64958 
L 371.034711 164.084184 
L 375.133884 163.930813 
L 379.233058 163.29446 
L 383.332231 163.069327 
L 387.431405 163.304191 
L 391.530579 161.54841 
L 395.629752 161.783145 
L 399.728926 162.47488 
L 403.828099 161.631964 
L 407.927273 161.683411 
L 412.026446 161.352741 
L 416.12562 161.173088 
L 420.224793 159.37967 
L 424.323967 160.513574 
L 428.42314 160.498835 
L 432.522314 160.357936 
L 436.621488 160.299334 
L 440.720661 160.423234 
L 444.819835 158.49591 
L 448.919008 159.596805 
L 453.018182 160.187959 
L 457.117355 157.801612 
L 461.216529 158.654097 
L 465.315702 159.06769 
L 469.414876 157.405242 
L 473.51405 158.989815 
L 477.613223 156.600297 
L 481.712397 158.081764 
L 485.81157 157.768159 
L 489.910744 156.569868 
L 494.009917 155.74235 
L 498.109091 155.664882 
" clip-path="url(#pf57655f825)" style="fill: none; stroke-dasharray: 5.55,2.4; stroke-dashoffset: 0; stroke: #008000; stroke-width: 1.5"/>
   </g>
   <g id="line2d_29">
    <path d="M 92.290909 104.057733 
L 96.390083 139.740686 
L 100.489256 159.741988 
L 104.58843 171.463692 
L 108.687603 179.878785 
L 112.786777 184.598242 
L 116.88595 189.084496 
L 120.985124 193.043011 
L 125.084298 196.06593 
L 129.183471 198.732709 
L 133.282645 201.546032 
L 137.381818 203.719806 
L 141.480992 205.201389 
L 145.580165 206.318734 
L 149.679339 208.899035 
L 153.778512 210.127736 
L 157.877686 211.222136 
L 161.97686 212.562249 
L 166.076033 215.015916 
L 170.175207 214.558723 
L 174.27438 216.803252 
L 178.373554 217.085389 
L 182.472727 217.6514 
L 186.571901 219.665897 
L 190.671074 219.080823 
L 194.770248 219.718574 
L 198.869421 221.186032 
L 202.968595 221.35798 
L 207.067769 221.849458 
L 211.166942 223.67079 
L 215.266116 223.761175 
L 219.365289 225.517851 
L 223.464463 225.976197 
L 227.563636 225.337804 
L 231.66281 226.888687 
L 235.761983 226.966549 
L 239.861157 227.30584 
L 243.960331 228.615841 
L 248.059504 229.837936 
L 252.158678 229.518515 
L 256.257851 230.549694 
L 260.357025 230.288277 
L 264.456198 230.436811 
L 268.555372 229.945869 
L 272.654545 231.284059 
L 276.753719 231.885696 
L 280.852893 231.36522 
L 284.952066 232.059227 
L 289.05124 233.112972 
L 293.150413 233.248557 
L 297.249587 233.554495 
L 301.34876 234.421314 
L 305.447934 234.727759 
L 309.547107 235.45981 
L 313.646281 235.485741 
L 317.745455 235.360871 
L 321.844628 235.331655 
L 325.943802 235.841373 
L 330.042975 235.202478 
L 334.142149 236.565766 
L 338.241322 236.646937 
L 342.340496 235.35518 
L 346.439669 238.369913 
L 350.538843 238.372662 
L 354.638017 236.24267 
L 358.73719 237.846954 
L 362.836364 238.459271 
L 366.935537 234.676408 
L 371.034711 239.527251 
L 375.133884 238.74076 
L 379.233058 239.1507 
L 383.332231 238.962684 
L 387.431405 239.511328 
L 391.530579 239.928656 
L 395.629752 240.117356 
L 399.728926 240.810535 
L 403.828099 241.791111 
L 407.927273 242.189026 
L 412.026446 242.758762 
L 416.12562 242.436823 
L 420.224793 242.498581 
L 424.323967 243.160324 
L 428.42314 242.519922 
L 432.522314 242.34173 
L 436.621488 241.899653 
L 440.720661 242.25959 
L 444.819835 242.34398 
L 448.919008 243.381048 
L 453.018182 243.464452 
L 457.117355 244.332563 
L 461.216529 244.471351 
L 465.315702 243.607734 
L 469.414876 244.721633 
L 473.51405 244.483852 
L 477.613223 244.071895 
L 481.712397 246.016366 
L 485.81157 245.942832 
L 489.910744 246.24 
L 494.009917 245.625121 
L 498.109091 245.791468 
" clip-path="url(#pf57655f825)" style="fill: none; stroke: #0000ff; stroke-width: 1.5; stroke-linecap: square"/>
   </g>
   <g id="line2d_30">
    <path d="M 92.290909 101.036173 
L 96.390083 133.747374 
L 100.489256 152.617281 
L 104.58843 161.792236 
L 108.687603 168.858969 
L 112.786777 172.205102 
L 116.88595 174.152677 
L 120.985124 176.723306 
L 125.084298 178.305423 
L 129.183471 179.071508 
L 133.282645 179.372301 
L 137.381818 180.226831 
L 141.480992 179.912862 
L 145.580165 179.50192 
L 149.679339 180.02324 
L 153.778512 179.869949 
L 157.877686 179.169246 
L 161.97686 179.355118 
L 166.076033 180.075471 
L 170.175207 178.914922 
L 174.27438 179.73198 
L 178.373554 177.57518 
L 182.472727 177.192245 
L 186.571901 178.784128 
L 190.671074 175.740216 
L 194.770248 174.544238 
L 198.869421 174.504669 
L 202.968595 173.281797 
L 207.067769 173.776062 
L 211.166942 174.344969 
L 215.266116 172.252663 
L 219.365289 172.551122 
L 223.464463 172.085026 
L 227.563636 170.029506 
L 231.66281 170.444563 
L 235.761983 168.220261 
L 239.861157 167.492656 
L 243.960331 167.068486 
L 248.059504 168.03596 
L 252.158678 166.550978 
L 256.257851 165.877754 
L 260.357025 165.423667 
L 264.456198 163.402826 
L 268.555372 160.830678 
L 272.654545 161.375959 
L 276.753719 160.617035 
L 280.852893 158.803786 
L 284.952066 159.092519 
L 289.05124 157.970637 
L 293.150413 156.514794 
L 297.249587 155.534743 
L 301.34876 154.790293 
L 305.447934 154.128924 
L 309.547107 153.017354 
L 313.646281 153.552991 
L 317.745455 151.969304 
L 321.844628 150.402876 
L 325.943802 149.716404 
L 330.042975 147.554718 
L 334.142149 147.506146 
L 338.241322 145.391125 
L 342.340496 143.438098 
L 346.439669 145.428534 
L 350.538843 145.033158 
L 354.638017 142.104562 
L 358.73719 140.770758 
L 362.836364 140.025608 
L 366.935537 134.783882 
L 371.034711 139.994046 
L 375.133884 138.750629 
L 379.233058 135.822536 
L 383.332231 135.670748 
L 387.431405 133.618081 
L 391.530579 133.086724 
L 395.629752 131.843946 
L 399.728926 132.734191 
L 403.828099 132.086487 
L 407.927273 131.250532 
L 412.026446 130.040276 
L 416.12562 128.046108 
L 420.224793 127.617768 
L 424.323967 126.420668 
L 428.42314 125.055522 
L 432.522314 123.518873 
L 436.621488 119.852219 
L 440.720661 120.667254 
L 444.819835 119.026678 
L 448.919008 119.100814 
L 453.018182 117.082228 
L 457.117355 115.996897 
L 461.216529 115.930539 
L 465.315702 114.342921 
L 469.414876 113.67731 
L 473.51405 111.961525 
L 477.613223 112.551458 
L 481.712397 113.246596 
L 485.81157 109.162477 
L 489.910744 108.809515 
L 494.009917 107.215938 
L 498.109091 108.326003 
" clip-path="url(#pf57655f825)" style="fill: none; stroke-dasharray: 5.55,2.4; stroke-dashoffset: 0; stroke: #0000ff; stroke-width: 1.5"/>
   </g>
   <g id="patch_3">
    <path d="M 72 256.32 
L 72 34.56 
" style="fill: none; stroke: #ffffff; stroke-linejoin: miter; stroke-linecap: square"/>
   </g>
   <g id="patch_4">
    <path d="M 518.4 256.32 
L 518.4 34.56 
" style="fill: none; stroke: #ffffff; stroke-linejoin: miter; stroke-linecap: square"/>
   </g>
   <g id="patch_5">
    <path d="M 72 256.32 
L 518.4 256.32 
" style="fill: none; stroke: #ffffff; stroke-linejoin: miter; stroke-linecap: square"/>
   </g>
   <g id="patch_6">
    <path d="M 72 34.56 
L 518.4 34.56 
" style="fill: none; stroke: #ffffff; stroke-linejoin: miter; stroke-linecap: square"/>
   </g>
   <g id="text_15">
    <!-- Error Performances across Different Network Widths -->
    <g transform="translate(107.379 28.56) scale(0.144 -0.144)">
     <defs>
      <path id="DejaVuSans-50" d="M 1259 4147 
L 1259 2394 
L 2053 2394 
Q 2494 2394 2734 2622 
Q 2975 2850 2975 3272 
Q 2975 3691 2734 3919 
Q 2494 4147 2053 4147 
L 1259 4147 
z
M 628 4666 
L 2053 4666 
Q 2838 4666 3239 4311 
Q 3641 3956 3641 3272 
Q 3641 2581 3239 2228 
Q 2838 1875 2053 1875 
L 1259 1875 
L 1259 0 
L 628 0 
L 628 4666 
z
" transform="scale(0.015625)"/>
      <path id="DejaVuSans-66" d="M 2375 4863 
L 2375 4384 
L 1825 4384 
Q 1516 4384 1395 4259 
Q 1275 4134 1275 3809 
L 1275 3500 
L 2222 3500 
L 2222 3053 
L 1275 3053 
L 1275 0 
L 697 0 
L 697 3053 
L 147 3053 
L 147 3500 
L 697 3500 
L 697 3744 
Q 697 4328 969 4595 
Q 1241 4863 1831 4863 
L 2375 4863 
z
" transform="scale(0.015625)"/>
      <path id="DejaVuSans-61" d="M 2194 1759 
Q 1497 1759 1228 1600 
Q 959 1441 959 1056 
Q 959 750 1161 570 
Q 1363 391 1709 391 
Q 2188 391 2477 730 
Q 2766 1069 2766 1631 
L 2766 1759 
L 2194 1759 
z
M 3341 1997 
L 3341 0 
L 2766 0 
L 2766 531 
Q 2569 213 2275 61 
Q 1981 -91 1556 -91 
Q 1019 -91 701 211 
Q 384 513 384 1019 
Q 384 1609 779 1909 
Q 1175 2209 1959 2209 
L 2766 2209 
L 2766 2266 
Q 2766 2663 2505 2880 
Q 2244 3097 1772 3097 
Q 1472 3097 1187 3025 
Q 903 2953 641 2809 
L 641 3341 
Q 956 3463 1253 3523 
Q 1550 3584 1831 3584 
Q 2591 3584 2966 3190 
Q 3341 2797 3341 1997 
z
" transform="scale(0.015625)"/>
      <path id="DejaVuSans-73" d="M 2834 3397 
L 2834 2853 
Q 2591 2978 2328 3040 
Q 2066 3103 1784 3103 
Q 1356 3103 1142 2972 
Q 928 2841 928 2578 
Q 928 2378 1081 2264 
Q 1234 2150 1697 2047 
L 1894 2003 
Q 2506 1872 2764 1633 
Q 3022 1394 3022 966 
Q 3022 478 2636 193 
Q 2250 -91 1575 -91 
Q 1294 -91 989 -36 
Q 684 19 347 128 
L 347 722 
Q 666 556 975 473 
Q 1284 391 1588 391 
Q 1994 391 2212 530 
Q 2431 669 2431 922 
Q 2431 1156 2273 1281 
Q 2116 1406 1581 1522 
L 1381 1569 
Q 847 1681 609 1914 
Q 372 2147 372 2553 
Q 372 3047 722 3315 
Q 1072 3584 1716 3584 
Q 2034 3584 2315 3537 
Q 2597 3491 2834 3397 
z
" transform="scale(0.015625)"/>
      <path id="DejaVuSans-44" d="M 1259 4147 
L 1259 519 
L 2022 519 
Q 2988 519 3436 956 
Q 3884 1394 3884 2338 
Q 3884 3275 3436 3711 
Q 2988 4147 2022 4147 
L 1259 4147 
z
M 628 4666 
L 1925 4666 
Q 3281 4666 3915 4102 
Q 4550 3538 4550 2338 
Q 4550 1131 3912 565 
Q 3275 0 1925 0 
L 628 0 
L 628 4666 
z
" transform="scale(0.015625)"/>
      <path id="DejaVuSans-69" d="M 603 3500 
L 1178 3500 
L 1178 0 
L 603 0 
L 603 3500 
z
M 603 4863 
L 1178 4863 
L 1178 4134 
L 603 4134 
L 603 4863 
z
" transform="scale(0.015625)"/>
      <path id="DejaVuSans-74" d="M 1172 4494 
L 1172 3500 
L 2356 3500 
L 2356 3053 
L 1172 3053 
L 1172 1153 
Q 1172 725 1289 603 
Q 1406 481 1766 481 
L 2356 481 
L 2356 0 
L 1766 0 
Q 1100 0 847 248 
Q 594 497 594 1153 
L 594 3053 
L 172 3053 
L 172 3500 
L 594 3500 
L 594 4494 
L 1172 4494 
z
" transform="scale(0.015625)"/>
      <path id="DejaVuSans-4e" d="M 628 4666 
L 1478 4666 
L 3547 763 
L 3547 4666 
L 4159 4666 
L 4159 0 
L 3309 0 
L 1241 3903 
L 1241 0 
L 628 0 
L 628 4666 
z
" transform="scale(0.015625)"/>
      <path id="DejaVuSans-77" d="M 269 3500 
L 844 3500 
L 1563 769 
L 2278 3500 
L 2956 3500 
L 3675 769 
L 4391 3500 
L 4966 3500 
L 4050 0 
L 3372 0 
L 2619 2869 
L 1863 0 
L 1184 0 
L 269 3500 
z
" transform="scale(0.015625)"/>
      <path id="DejaVuSans-6b" d="M 581 4863 
L 1159 4863 
L 1159 1991 
L 2875 3500 
L 3609 3500 
L 1753 1863 
L 3688 0 
L 2938 0 
L 1159 1709 
L 1159 0 
L 581 0 
L 581 4863 
z
" transform="scale(0.015625)"/>
      <path id="DejaVuSans-57" d="M 213 4666 
L 850 4666 
L 1831 722 
L 2809 4666 
L 3519 4666 
L 4500 722 
L 5478 4666 
L 6119 4666 
L 4947 0 
L 4153 0 
L 3169 4050 
L 2175 0 
L 1381 0 
L 213 4666 
z
" transform="scale(0.015625)"/>
      <path id="DejaVuSans-64" d="M 2906 2969 
L 2906 4863 
L 3481 4863 
L 3481 0 
L 2906 0 
L 2906 525 
Q 2725 213 2448 61 
Q 2172 -91 1784 -91 
Q 1150 -91 751 415 
Q 353 922 353 1747 
Q 353 2572 751 3078 
Q 1150 3584 1784 3584 
Q 2172 3584 2448 3432 
Q 2725 3281 2906 2969 
z
M 947 1747 
Q 947 1113 1208 752 
Q 1469 391 1925 391 
Q 2381 391 2643 752 
Q 2906 1113 2906 1747 
Q 2906 2381 2643 2742 
Q 2381 3103 1925 3103 
Q 1469 3103 1208 2742 
Q 947 2381 947 1747 
z
" transform="scale(0.015625)"/>
     </defs>
     <use xlink:href="#DejaVuSans-45"/>
     <use xlink:href="#DejaVuSans-72" x="63.183594"/>
     <use xlink:href="#DejaVuSans-72" x="102.546875"/>
     <use xlink:href="#DejaVuSans-6f" x="141.410156"/>
     <use xlink:href="#DejaVuSans-72" x="202.591797"/>
     <use xlink:href="#DejaVuSans-20" x="243.705078"/>
     <use xlink:href="#DejaVuSans-50" x="275.492188"/>
     <use xlink:href="#DejaVuSans-65" x="332.169922"/>
     <use xlink:href="#DejaVuSans-72" x="393.693359"/>
     <use xlink:href="#DejaVuSans-66" x="434.806641"/>
     <use xlink:href="#DejaVuSans-6f" x="470.011719"/>
     <use xlink:href="#DejaVuSans-72" x="531.193359"/>
     <use xlink:href="#DejaVuSans-6d" x="570.556641"/>
     <use xlink:href="#DejaVuSans-61" x="667.96875"/>
     <use xlink:href="#DejaVuSans-6e" x="729.248047"/>
     <use xlink:href="#DejaVuSans-63" x="792.626953"/>
     <use xlink:href="#DejaVuSans-65" x="847.607422"/>
     <use xlink:href="#DejaVuSans-73" x="909.130859"/>
     <use xlink:href="#DejaVuSans-20" x="961.230469"/>
     <use xlink:href="#DejaVuSans-61" x="993.017578"/>
     <use xlink:href="#DejaVuSans-63" x="1054.296875"/>
     <use xlink:href="#DejaVuSans-72" x="1109.277344"/>
     <use xlink:href="#DejaVuSans-6f" x="1148.140625"/>
     <use xlink:href="#DejaVuSans-73" x="1209.322266"/>
     <use xlink:href="#DejaVuSans-73" x="1261.421875"/>
     <use xlink:href="#DejaVuSans-20" x="1313.521484"/>
     <use xlink:href="#DejaVuSans-44" x="1345.308594"/>
     <use xlink:href="#DejaVuSans-69" x="1422.310547"/>
     <use xlink:href="#DejaVuSans-66" x="1450.09375"/>
     <use xlink:href="#DejaVuSans-66" x="1485.298828"/>
     <use xlink:href="#DejaVuSans-65" x="1520.503906"/>
     <use xlink:href="#DejaVuSans-72" x="1582.027344"/>
     <use xlink:href="#DejaVuSans-65" x="1620.890625"/>
     <use xlink:href="#DejaVuSans-6e" x="1682.414062"/>
     <use xlink:href="#DejaVuSans-74" x="1745.792969"/>
     <use xlink:href="#DejaVuSans-20" x="1785.001953"/>
     <use xlink:href="#DejaVuSans-4e" x="1816.789062"/>
     <use xlink:href="#DejaVuSans-65" x="1891.59375"/>
     <use xlink:href="#DejaVuSans-74" x="1953.117188"/>
     <use xlink:href="#DejaVuSans-77" x="1992.326172"/>
     <use xlink:href="#DejaVuSans-6f" x="2074.113281"/>
     <use xlink:href="#DejaVuSans-72" x="2135.294922"/>
     <use xlink:href="#DejaVuSans-6b" x="2176.408203"/>
     <use xlink:href="#DejaVuSans-20" x="2234.318359"/>
     <use xlink:href="#DejaVuSans-57" x="2266.105469"/>
     <use xlink:href="#DejaVuSans-69" x="2362.732422"/>
     <use xlink:href="#DejaVuSans-64" x="2390.515625"/>
     <use xlink:href="#DejaVuSans-74" x="2453.992188"/>
     <use xlink:href="#DejaVuSans-68" x="2493.201172"/>
     <use xlink:href="#DejaVuSans-73" x="2556.580078"/>
    </g>
   </g>
   <g id="legend_1">
    <g id="patch_7">
     <path d="M 235.5025 111.415 
L 354.8975 111.415 
Q 356.4975 111.415 356.4975 109.815 
L 356.4975 40.16 
Q 356.4975 38.56 354.8975 38.56 
L 235.5025 38.56 
Q 233.9025 38.56 233.9025 40.16 
L 233.9025 109.815 
Q 233.9025 111.415 235.5025 111.415 
z
" style="fill: #e5e5e5; opacity: 0.8; stroke: #cccccc; stroke-width: 0.5; stroke-linejoin: miter"/>
    </g>
    <g id="line2d_31">
     <path d="M 237.1025 45.03875 
L 245.1025 45.03875 
L 253.1025 45.03875 
" style="fill: none; stroke: #ff0000; stroke-width: 1.5; stroke-linecap: square"/>
    </g>
    <g id="text_16">
     <!-- Error Train - (32 Units) -->
     <g transform="translate(259.5025 47.83875) scale(0.08 -0.08)">
      <defs>
       <path id="DejaVuSans-54" d="M -19 4666 
L 3928 4666 
L 3928 4134 
L 2272 4134 
L 2272 0 
L 1638 0 
L 1638 4134 
L -19 4134 
L -19 4666 
z
" transform="scale(0.015625)"/>
       <path id="DejaVuSans-2d" d="M 313 2009 
L 1997 2009 
L 1997 1497 
L 313 1497 
L 313 2009 
z
" transform="scale(0.015625)"/>
       <path id="DejaVuSans-28" d="M 1984 4856 
Q 1566 4138 1362 3434 
Q 1159 2731 1159 2009 
Q 1159 1288 1364 580 
Q 1569 -128 1984 -844 
L 1484 -844 
Q 1016 -109 783 600 
Q 550 1309 550 2009 
Q 550 2706 781 3412 
Q 1013 4119 1484 4856 
L 1984 4856 
z
" transform="scale(0.015625)"/>
       <path id="DejaVuSans-33" d="M 2597 2516 
Q 3050 2419 3304 2112 
Q 3559 1806 3559 1356 
Q 3559 666 3084 287 
Q 2609 -91 1734 -91 
Q 1441 -91 1130 -33 
Q 819 25 488 141 
L 488 750 
Q 750 597 1062 519 
Q 1375 441 1716 441 
Q 2309 441 2620 675 
Q 2931 909 2931 1356 
Q 2931 1769 2642 2001 
Q 2353 2234 1838 2234 
L 1294 2234 
L 1294 2753 
L 1863 2753 
Q 2328 2753 2575 2939 
Q 2822 3125 2822 3475 
Q 2822 3834 2567 4026 
Q 2313 4219 1838 4219 
Q 1578 4219 1281 4162 
Q 984 4106 628 3988 
L 628 4550 
Q 988 4650 1302 4700 
Q 1616 4750 1894 4750 
Q 2613 4750 3031 4423 
Q 3450 4097 3450 3541 
Q 3450 3153 3228 2886 
Q 3006 2619 2597 2516 
z
" transform="scale(0.015625)"/>
       <path id="DejaVuSans-55" d="M 556 4666 
L 1191 4666 
L 1191 1831 
Q 1191 1081 1462 751 
Q 1734 422 2344 422 
Q 2950 422 3222 751 
Q 3494 1081 3494 1831 
L 3494 4666 
L 4128 4666 
L 4128 1753 
Q 4128 841 3676 375 
Q 3225 -91 2344 -91 
Q 1459 -91 1007 375 
Q 556 841 556 1753 
L 556 4666 
z
" transform="scale(0.015625)"/>
       <path id="DejaVuSans-29" d="M 513 4856 
L 1013 4856 
Q 1481 4119 1714 3412 
Q 1947 2706 1947 2009 
Q 1947 1309 1714 600 
Q 1481 -109 1013 -844 
L 513 -844 
Q 928 -128 1133 580 
Q 1338 1288 1338 2009 
Q 1338 2731 1133 3434 
Q 928 4138 513 4856 
z
" transform="scale(0.015625)"/>
      </defs>
      <use xlink:href="#DejaVuSans-45"/>
      <use xlink:href="#DejaVuSans-72" x="63.183594"/>
      <use xlink:href="#DejaVuSans-72" x="102.546875"/>
      <use xlink:href="#DejaVuSans-6f" x="141.410156"/>
      <use xlink:href="#DejaVuSans-72" x="202.591797"/>
      <use xlink:href="#DejaVuSans-20" x="243.705078"/>
      <use xlink:href="#DejaVuSans-54" x="275.492188"/>
      <use xlink:href="#DejaVuSans-72" x="321.826172"/>
      <use xlink:href="#DejaVuSans-61" x="362.939453"/>
      <use xlink:href="#DejaVuSans-69" x="424.21875"/>
      <use xlink:href="#DejaVuSans-6e" x="452.001953"/>
      <use xlink:href="#DejaVuSans-20" x="515.380859"/>
      <use xlink:href="#DejaVuSans-2d" x="547.167969"/>
      <use xlink:href="#DejaVuSans-20" x="583.251953"/>
      <use xlink:href="#DejaVuSans-28" x="615.039062"/>
      <use xlink:href="#DejaVuSans-33" x="654.052734"/>
      <use xlink:href="#DejaVuSans-32" x="717.675781"/>
      <use xlink:href="#DejaVuSans-20" x="781.298828"/>
      <use xlink:href="#DejaVuSans-55" x="813.085938"/>
      <use xlink:href="#DejaVuSans-6e" x="886.279297"/>
      <use xlink:href="#DejaVuSans-69" x="949.658203"/>
      <use xlink:href="#DejaVuSans-74" x="977.441406"/>
      <use xlink:href="#DejaVuSans-73" x="1016.650391"/>
      <use xlink:href="#DejaVuSans-29" x="1068.75"/>
     </g>
    </g>
    <g id="line2d_32">
     <path d="M 237.1025 56.78125 
L 245.1025 56.78125 
L 253.1025 56.78125 
" style="fill: none; stroke-dasharray: 5.55,2.4; stroke-dashoffset: 0; stroke: #ff0000; stroke-width: 1.5"/>
    </g>
    <g id="text_17">
     <!-- Error Valid - (32 Units) -->
     <g transform="translate(259.5025 59.58125) scale(0.08 -0.08)">
      <defs>
       <path id="DejaVuSans-56" d="M 1831 0 
L 50 4666 
L 709 4666 
L 2188 738 
L 3669 4666 
L 4325 4666 
L 2547 0 
L 1831 0 
z
" transform="scale(0.015625)"/>
       <path id="DejaVuSans-6c" d="M 603 4863 
L 1178 4863 
L 1178 0 
L 603 0 
L 603 4863 
z
" transform="scale(0.015625)"/>
      </defs>
      <use xlink:href="#DejaVuSans-45"/>
      <use xlink:href="#DejaVuSans-72" x="63.183594"/>
      <use xlink:href="#DejaVuSans-72" x="102.546875"/>
      <use xlink:href="#DejaVuSans-6f" x="141.410156"/>
      <use xlink:href="#DejaVuSans-72" x="202.591797"/>
      <use xlink:href="#DejaVuSans-20" x="243.705078"/>
      <use xlink:href="#DejaVuSans-56" x="275.492188"/>
      <use xlink:href="#DejaVuSans-61" x="336.150391"/>
      <use xlink:href="#DejaVuSans-6c" x="397.429688"/>
      <use xlink:href="#DejaVuSans-69" x="425.212891"/>
      <use xlink:href="#DejaVuSans-64" x="452.996094"/>
      <use xlink:href="#DejaVuSans-20" x="516.472656"/>
      <use xlink:href="#DejaVuSans-2d" x="548.259766"/>
      <use xlink:href="#DejaVuSans-20" x="584.34375"/>
      <use xlink:href="#DejaVuSans-28" x="616.130859"/>
      <use xlink:href="#DejaVuSans-33" x="655.144531"/>
      <use xlink:href="#DejaVuSans-32" x="718.767578"/>
      <use xlink:href="#DejaVuSans-20" x="782.390625"/>
      <use xlink:href="#DejaVuSans-55" x="814.177734"/>
      <use xlink:href="#DejaVuSans-6e" x="887.371094"/>
      <use xlink:href="#DejaVuSans-69" x="950.75"/>
      <use xlink:href="#DejaVuSans-74" x="978.533203"/>
      <use xlink:href="#DejaVuSans-73" x="1017.742188"/>
      <use xlink:href="#DejaVuSans-29" x="1069.841797"/>
     </g>
    </g>
    <g id="line2d_33">
     <path d="M 237.1025 68.52375 
L 245.1025 68.52375 
L 253.1025 68.52375 
" style="fill: none; stroke: #008000; stroke-width: 1.5; stroke-linecap: square"/>
    </g>
    <g id="text_18">
     <!-- Error Train - (64 Units) -->
     <g transform="translate(259.5025 71.32375) scale(0.08 -0.08)">
      <use xlink:href="#DejaVuSans-45"/>
      <use xlink:href="#DejaVuSans-72" x="63.183594"/>
      <use xlink:href="#DejaVuSans-72" x="102.546875"/>
      <use xlink:href="#DejaVuSans-6f" x="141.410156"/>
      <use xlink:href="#DejaVuSans-72" x="202.591797"/>
      <use xlink:href="#DejaVuSans-20" x="243.705078"/>
      <use xlink:href="#DejaVuSans-54" x="275.492188"/>
      <use xlink:href="#DejaVuSans-72" x="321.826172"/>
      <use xlink:href="#DejaVuSans-61" x="362.939453"/>
      <use xlink:href="#DejaVuSans-69" x="424.21875"/>
      <use xlink:href="#DejaVuSans-6e" x="452.001953"/>
      <use xlink:href="#DejaVuSans-20" x="515.380859"/>
      <use xlink:href="#DejaVuSans-2d" x="547.167969"/>
      <use xlink:href="#DejaVuSans-20" x="583.251953"/>
      <use xlink:href="#DejaVuSans-28" x="615.039062"/>
      <use xlink:href="#DejaVuSans-36" x="654.052734"/>
      <use xlink:href="#DejaVuSans-34" x="717.675781"/>
      <use xlink:href="#DejaVuSans-20" x="781.298828"/>
      <use xlink:href="#DejaVuSans-55" x="813.085938"/>
      <use xlink:href="#DejaVuSans-6e" x="886.279297"/>
      <use xlink:href="#DejaVuSans-69" x="949.658203"/>
      <use xlink:href="#DejaVuSans-74" x="977.441406"/>
      <use xlink:href="#DejaVuSans-73" x="1016.650391"/>
      <use xlink:href="#DejaVuSans-29" x="1068.75"/>
     </g>
    </g>
    <g id="line2d_34">
     <path d="M 237.1025 80.26625 
L 245.1025 80.26625 
L 253.1025 80.26625 
" style="fill: none; stroke-dasharray: 5.55,2.4; stroke-dashoffset: 0; stroke: #008000; stroke-width: 1.5"/>
    </g>
    <g id="text_19">
     <!-- Error Valid - (64 Units) -->
     <g transform="translate(259.5025 83.06625) scale(0.08 -0.08)">
      <use xlink:href="#DejaVuSans-45"/>
      <use xlink:href="#DejaVuSans-72" x="63.183594"/>
      <use xlink:href="#DejaVuSans-72" x="102.546875"/>
      <use xlink:href="#DejaVuSans-6f" x="141.410156"/>
      <use xlink:href="#DejaVuSans-72" x="202.591797"/>
      <use xlink:href="#DejaVuSans-20" x="243.705078"/>
      <use xlink:href="#DejaVuSans-56" x="275.492188"/>
      <use xlink:href="#DejaVuSans-61" x="336.150391"/>
      <use xlink:href="#DejaVuSans-6c" x="397.429688"/>
      <use xlink:href="#DejaVuSans-69" x="425.212891"/>
      <use xlink:href="#DejaVuSans-64" x="452.996094"/>
      <use xlink:href="#DejaVuSans-20" x="516.472656"/>
      <use xlink:href="#DejaVuSans-2d" x="548.259766"/>
      <use xlink:href="#DejaVuSans-20" x="584.34375"/>
      <use xlink:href="#DejaVuSans-28" x="616.130859"/>
      <use xlink:href="#DejaVuSans-36" x="655.144531"/>
      <use xlink:href="#DejaVuSans-34" x="718.767578"/>
      <use xlink:href="#DejaVuSans-20" x="782.390625"/>
      <use xlink:href="#DejaVuSans-55" x="814.177734"/>
      <use xlink:href="#DejaVuSans-6e" x="887.371094"/>
      <use xlink:href="#DejaVuSans-69" x="950.75"/>
      <use xlink:href="#DejaVuSans-74" x="978.533203"/>
      <use xlink:href="#DejaVuSans-73" x="1017.742188"/>
      <use xlink:href="#DejaVuSans-29" x="1069.841797"/>
     </g>
    </g>
    <g id="line2d_35">
     <path d="M 237.1025 92.00875 
L 245.1025 92.00875 
L 253.1025 92.00875 
" style="fill: none; stroke: #0000ff; stroke-width: 1.5; stroke-linecap: square"/>
    </g>
    <g id="text_20">
     <!-- Error Train - (128 Units) -->
     <g transform="translate(259.5025 94.80875) scale(0.08 -0.08)">
      <use xlink:href="#DejaVuSans-45"/>
      <use xlink:href="#DejaVuSans-72" x="63.183594"/>
      <use xlink:href="#DejaVuSans-72" x="102.546875"/>
      <use xlink:href="#DejaVuSans-6f" x="141.410156"/>
      <use xlink:href="#DejaVuSans-72" x="202.591797"/>
      <use xlink:href="#DejaVuSans-20" x="243.705078"/>
      <use xlink:href="#DejaVuSans-54" x="275.492188"/>
      <use xlink:href="#DejaVuSans-72" x="321.826172"/>
      <use xlink:href="#DejaVuSans-61" x="362.939453"/>
      <use xlink:href="#DejaVuSans-69" x="424.21875"/>
      <use xlink:href="#DejaVuSans-6e" x="452.001953"/>
      <use xlink:href="#DejaVuSans-20" x="515.380859"/>
      <use xlink:href="#DejaVuSans-2d" x="547.167969"/>
      <use xlink:href="#DejaVuSans-20" x="583.251953"/>
      <use xlink:href="#DejaVuSans-28" x="615.039062"/>
      <use xlink:href="#DejaVuSans-31" x="654.052734"/>
      <use xlink:href="#DejaVuSans-32" x="717.675781"/>
      <use xlink:href="#DejaVuSans-38" x="781.298828"/>
      <use xlink:href="#DejaVuSans-20" x="844.921875"/>
      <use xlink:href="#DejaVuSans-55" x="876.708984"/>
      <use xlink:href="#DejaVuSans-6e" x="949.902344"/>
      <use xlink:href="#DejaVuSans-69" x="1013.28125"/>
      <use xlink:href="#DejaVuSans-74" x="1041.064453"/>
      <use xlink:href="#DejaVuSans-73" x="1080.273438"/>
      <use xlink:href="#DejaVuSans-29" x="1132.373047"/>
     </g>
    </g>
    <g id="line2d_36">
     <path d="M 237.1025 103.75125 
L 245.1025 103.75125 
L 253.1025 103.75125 
" style="fill: none; stroke-dasharray: 5.55,2.4; stroke-dashoffset: 0; stroke: #0000ff; stroke-width: 1.5"/>
    </g>
    <g id="text_21">
     <!-- Error Valid - (128 Units) -->
     <g transform="translate(259.5025 106.55125) scale(0.08 -0.08)">
      <use xlink:href="#DejaVuSans-45"/>
      <use xlink:href="#DejaVuSans-72" x="63.183594"/>
      <use xlink:href="#DejaVuSans-72" x="102.546875"/>
      <use xlink:href="#DejaVuSans-6f" x="141.410156"/>
      <use xlink:href="#DejaVuSans-72" x="202.591797"/>
      <use xlink:href="#DejaVuSans-20" x="243.705078"/>
      <use xlink:href="#DejaVuSans-56" x="275.492188"/>
      <use xlink:href="#DejaVuSans-61" x="336.150391"/>
      <use xlink:href="#DejaVuSans-6c" x="397.429688"/>
      <use xlink:href="#DejaVuSans-69" x="425.212891"/>
      <use xlink:href="#DejaVuSans-64" x="452.996094"/>
      <use xlink:href="#DejaVuSans-20" x="516.472656"/>
      <use xlink:href="#DejaVuSans-2d" x="548.259766"/>
      <use xlink:href="#DejaVuSans-20" x="584.34375"/>
      <use xlink:href="#DejaVuSans-28" x="616.130859"/>
      <use xlink:href="#DejaVuSans-31" x="655.144531"/>
      <use xlink:href="#DejaVuSans-32" x="718.767578"/>
      <use xlink:href="#DejaVuSans-38" x="782.390625"/>
      <use xlink:href="#DejaVuSans-20" x="846.013672"/>
      <use xlink:href="#DejaVuSans-55" x="877.800781"/>
      <use xlink:href="#DejaVuSans-6e" x="950.994141"/>
      <use xlink:href="#DejaVuSans-69" x="1014.373047"/>
      <use xlink:href="#DejaVuSans-74" x="1042.15625"/>
      <use xlink:href="#DejaVuSans-73" x="1081.365234"/>
      <use xlink:href="#DejaVuSans-29" x="1133.464844"/>
     </g>
    </g>
   </g>
  </g>
 </g>
 <defs>
  <clipPath id="pf57655f825">
   <rect x="72" y="34.56" width="446.4" height="221.76"/>
  </clipPath>
 </defs>
</svg>
