<?xml version="1.0" encoding="utf-8" standalone="no"?>
<!DOCTYPE svg PUBLIC "-//W3C//DTD SVG 1.1//EN"
  "http://www.w3.org/Graphics/SVG/1.1/DTD/svg11.dtd">
<svg xmlns:xlink="http://www.w3.org/1999/xlink" width="576pt" height="288pt" viewBox="0 0 576 288" xmlns="http://www.w3.org/2000/svg" version="1.1">
 <metadata>
  <rdf:RDF xmlns:dc="http://purl.org/dc/elements/1.1/" xmlns:cc="http://creativecommons.org/ns#" xmlns:rdf="http://www.w3.org/1999/02/22-rdf-syntax-ns#">
   <cc:Work>
    <dc:type rdf:resource="http://purl.org/dc/dcmitype/StillImage"/>
    <dc:date>2024-10-22T20:38:30.224512</dc:date>
    <dc:format>image/svg+xml</dc:format>
    <dc:creator>
     <cc:Agent>
      <dc:title>Matplotlib v3.9.2, https://matplotlib.org/</dc:title>
     </cc:Agent>
    </dc:creator>
   </cc:Work>
  </rdf:RDF>
 </metadata>
 <defs>
  <style type="text/css">*{stroke-linejoin: round; stroke-linecap: butt}</style>
 </defs>
 <g id="figure_1">
  <g id="patch_1">
   <path d="M 0 288 
L 576 288 
L 576 0 
L 0 0 
z
" style="fill: #ffffff"/>
  </g>
  <g id="axes_1">
   <g id="patch_2">
    <path d="M 72 256.32 
L 518.4 256.32 
L 518.4 34.56 
L 72 34.56 
z
" style="fill: #e5e5e5"/>
   </g>
   <g id="matplotlib.axis_1">
    <g id="xtick_1">
     <g id="line2d_1">
      <path d="M 88.191736 256.32 
L 88.191736 34.56 
" clip-path="url(#p47b93a183a)" style="fill: none; stroke: #ffffff; stroke-width: 0.8; stroke-linecap: square"/>
     </g>
     <g id="line2d_2">
      <defs>
       <path id="m6b3c94284a" d="M 0 0 
L 0 3.5 
" style="stroke: #555555; stroke-width: 0.8"/>
      </defs>
      <g>
       <use xlink:href="#m6b3c94284a" x="88.191736" y="256.32" style="fill: #555555; stroke: #555555; stroke-width: 0.8"/>
      </g>
     </g>
     <g id="text_1">
      <!-- 0 -->
      <g style="fill: #555555" transform="translate(85.010486 270.918437) scale(0.1 -0.1)">
       <defs>
        <path id="DejaVuSans-30" d="M 2034 4250 
Q 1547 4250 1301 3770 
Q 1056 3291 1056 2328 
Q 1056 1369 1301 889 
Q 1547 409 2034 409 
Q 2525 409 2770 889 
Q 3016 1369 3016 2328 
Q 3016 3291 2770 3770 
Q 2525 4250 2034 4250 
z
M 2034 4750 
Q 2819 4750 3233 4129 
Q 3647 3509 3647 2328 
Q 3647 1150 3233 529 
Q 2819 -91 2034 -91 
Q 1250 -91 836 529 
Q 422 1150 422 2328 
Q 422 3509 836 4129 
Q 1250 4750 2034 4750 
z
" transform="scale(0.015625)"/>
       </defs>
       <use xlink:href="#DejaVuSans-30"/>
      </g>
     </g>
    </g>
    <g id="xtick_2">
     <g id="line2d_3">
      <path d="M 170.175207 256.32 
L 170.175207 34.56 
" clip-path="url(#p47b93a183a)" style="fill: none; stroke: #ffffff; stroke-width: 0.8; stroke-linecap: square"/>
     </g>
     <g id="line2d_4">
      <g>
       <use xlink:href="#m6b3c94284a" x="170.175207" y="256.32" style="fill: #555555; stroke: #555555; stroke-width: 0.8"/>
      </g>
     </g>
     <g id="text_2">
      <!-- 20 -->
      <g style="fill: #555555" transform="translate(163.812707 270.918437) scale(0.1 -0.1)">
       <defs>
        <path id="DejaVuSans-32" d="M 1228 531 
L 3431 531 
L 3431 0 
L 469 0 
L 469 531 
Q 828 903 1448 1529 
Q 2069 2156 2228 2338 
Q 2531 2678 2651 2914 
Q 2772 3150 2772 3378 
Q 2772 3750 2511 3984 
Q 2250 4219 1831 4219 
Q 1534 4219 1204 4116 
Q 875 4013 500 3803 
L 500 4441 
Q 881 4594 1212 4672 
Q 1544 4750 1819 4750 
Q 2544 4750 2975 4387 
Q 3406 4025 3406 3419 
Q 3406 3131 3298 2873 
Q 3191 2616 2906 2266 
Q 2828 2175 2409 1742 
Q 1991 1309 1228 531 
z
" transform="scale(0.015625)"/>
       </defs>
       <use xlink:href="#DejaVuSans-32"/>
       <use xlink:href="#DejaVuSans-30" x="63.623047"/>
      </g>
     </g>
    </g>
    <g id="xtick_3">
     <g id="line2d_5">
      <path d="M 252.158678 256.32 
L 252.158678 34.56 
" clip-path="url(#p47b93a183a)" style="fill: none; stroke: #ffffff; stroke-width: 0.8; stroke-linecap: square"/>
     </g>
     <g id="line2d_6">
      <g>
       <use xlink:href="#m6b3c94284a" x="252.158678" y="256.32" style="fill: #555555; stroke: #555555; stroke-width: 0.8"/>
      </g>
     </g>
     <g id="text_3">
      <!-- 40 -->
      <g style="fill: #555555" transform="translate(245.796178 270.918437) scale(0.1 -0.1)">
       <defs>
        <path id="DejaVuSans-34" d="M 2419 4116 
L 825 1625 
L 2419 1625 
L 2419 4116 
z
M 2253 4666 
L 3047 4666 
L 3047 1625 
L 3713 1625 
L 3713 1100 
L 3047 1100 
L 3047 0 
L 2419 0 
L 2419 1100 
L 313 1100 
L 313 1709 
L 2253 4666 
z
" transform="scale(0.015625)"/>
       </defs>
       <use xlink:href="#DejaVuSans-34"/>
       <use xlink:href="#DejaVuSans-30" x="63.623047"/>
      </g>
     </g>
    </g>
    <g id="xtick_4">
     <g id="line2d_7">
      <path d="M 334.142149 256.32 
L 334.142149 34.56 
" clip-path="url(#p47b93a183a)" style="fill: none; stroke: #ffffff; stroke-width: 0.8; stroke-linecap: square"/>
     </g>
     <g id="line2d_8">
      <g>
       <use xlink:href="#m6b3c94284a" x="334.142149" y="256.32" style="fill: #555555; stroke: #555555; stroke-width: 0.8"/>
      </g>
     </g>
     <g id="text_4">
      <!-- 60 -->
      <g style="fill: #555555" transform="translate(327.779649 270.918437) scale(0.1 -0.1)">
       <defs>
        <path id="DejaVuSans-36" d="M 2113 2584 
Q 1688 2584 1439 2293 
Q 1191 2003 1191 1497 
Q 1191 994 1439 701 
Q 1688 409 2113 409 
Q 2538 409 2786 701 
Q 3034 994 3034 1497 
Q 3034 2003 2786 2293 
Q 2538 2584 2113 2584 
z
M 3366 4563 
L 3366 3988 
Q 3128 4100 2886 4159 
Q 2644 4219 2406 4219 
Q 1781 4219 1451 3797 
Q 1122 3375 1075 2522 
Q 1259 2794 1537 2939 
Q 1816 3084 2150 3084 
Q 2853 3084 3261 2657 
Q 3669 2231 3669 1497 
Q 3669 778 3244 343 
Q 2819 -91 2113 -91 
Q 1303 -91 875 529 
Q 447 1150 447 2328 
Q 447 3434 972 4092 
Q 1497 4750 2381 4750 
Q 2619 4750 2861 4703 
Q 3103 4656 3366 4563 
z
" transform="scale(0.015625)"/>
       </defs>
       <use xlink:href="#DejaVuSans-36"/>
       <use xlink:href="#DejaVuSans-30" x="63.623047"/>
      </g>
     </g>
    </g>
    <g id="xtick_5">
     <g id="line2d_9">
      <path d="M 416.12562 256.32 
L 416.12562 34.56 
" clip-path="url(#p47b93a183a)" style="fill: none; stroke: #ffffff; stroke-width: 0.8; stroke-linecap: square"/>
     </g>
     <g id="line2d_10">
      <g>
       <use xlink:href="#m6b3c94284a" x="416.12562" y="256.32" style="fill: #555555; stroke: #555555; stroke-width: 0.8"/>
      </g>
     </g>
     <g id="text_5">
      <!-- 80 -->
      <g style="fill: #555555" transform="translate(409.76312 270.918437) scale(0.1 -0.1)">
       <defs>
        <path id="DejaVuSans-38" d="M 2034 2216 
Q 1584 2216 1326 1975 
Q 1069 1734 1069 1313 
Q 1069 891 1326 650 
Q 1584 409 2034 409 
Q 2484 409 2743 651 
Q 3003 894 3003 1313 
Q 3003 1734 2745 1975 
Q 2488 2216 2034 2216 
z
M 1403 2484 
Q 997 2584 770 2862 
Q 544 3141 544 3541 
Q 544 4100 942 4425 
Q 1341 4750 2034 4750 
Q 2731 4750 3128 4425 
Q 3525 4100 3525 3541 
Q 3525 3141 3298 2862 
Q 3072 2584 2669 2484 
Q 3125 2378 3379 2068 
Q 3634 1759 3634 1313 
Q 3634 634 3220 271 
Q 2806 -91 2034 -91 
Q 1263 -91 848 271 
Q 434 634 434 1313 
Q 434 1759 690 2068 
Q 947 2378 1403 2484 
z
M 1172 3481 
Q 1172 3119 1398 2916 
Q 1625 2713 2034 2713 
Q 2441 2713 2670 2916 
Q 2900 3119 2900 3481 
Q 2900 3844 2670 4047 
Q 2441 4250 2034 4250 
Q 1625 4250 1398 4047 
Q 1172 3844 1172 3481 
z
" transform="scale(0.015625)"/>
       </defs>
       <use xlink:href="#DejaVuSans-38"/>
       <use xlink:href="#DejaVuSans-30" x="63.623047"/>
      </g>
     </g>
    </g>
    <g id="xtick_6">
     <g id="line2d_11">
      <path d="M 498.109091 256.32 
L 498.109091 34.56 
" clip-path="url(#p47b93a183a)" style="fill: none; stroke: #ffffff; stroke-width: 0.8; stroke-linecap: square"/>
     </g>
     <g id="line2d_12">
      <g>
       <use xlink:href="#m6b3c94284a" x="498.109091" y="256.32" style="fill: #555555; stroke: #555555; stroke-width: 0.8"/>
      </g>
     </g>
     <g id="text_6">
      <!-- 100 -->
      <g style="fill: #555555" transform="translate(488.565341 270.918437) scale(0.1 -0.1)">
       <defs>
        <path id="DejaVuSans-31" d="M 794 531 
L 1825 531 
L 1825 4091 
L 703 3866 
L 703 4441 
L 1819 4666 
L 2450 4666 
L 2450 531 
L 3481 531 
L 3481 0 
L 794 0 
L 794 531 
z
" transform="scale(0.015625)"/>
       </defs>
       <use xlink:href="#DejaVuSans-31"/>
       <use xlink:href="#DejaVuSans-30" x="63.623047"/>
       <use xlink:href="#DejaVuSans-30" x="127.246094"/>
      </g>
     </g>
    </g>
    <g id="text_7">
     <!-- Epoch number -->
     <g style="fill: #555555" transform="translate(251.503125 286.11625) scale(0.12 -0.12)">
      <defs>
       <path id="DejaVuSans-45" d="M 628 4666 
L 3578 4666 
L 3578 4134 
L 1259 4134 
L 1259 2753 
L 3481 2753 
L 3481 2222 
L 1259 2222 
L 1259 531 
L 3634 531 
L 3634 0 
L 628 0 
L 628 4666 
z
" transform="scale(0.015625)"/>
       <path id="DejaVuSans-70" d="M 1159 525 
L 1159 -1331 
L 581 -1331 
L 581 3500 
L 1159 3500 
L 1159 2969 
Q 1341 3281 1617 3432 
Q 1894 3584 2278 3584 
Q 2916 3584 3314 3078 
Q 3713 2572 3713 1747 
Q 3713 922 3314 415 
Q 2916 -91 2278 -91 
Q 1894 -91 1617 61 
Q 1341 213 1159 525 
z
M 3116 1747 
Q 3116 2381 2855 2742 
Q 2594 3103 2138 3103 
Q 1681 3103 1420 2742 
Q 1159 2381 1159 1747 
Q 1159 1113 1420 752 
Q 1681 391 2138 391 
Q 2594 391 2855 752 
Q 3116 1113 3116 1747 
z
" transform="scale(0.015625)"/>
       <path id="DejaVuSans-6f" d="M 1959 3097 
Q 1497 3097 1228 2736 
Q 959 2375 959 1747 
Q 959 1119 1226 758 
Q 1494 397 1959 397 
Q 2419 397 2687 759 
Q 2956 1122 2956 1747 
Q 2956 2369 2687 2733 
Q 2419 3097 1959 3097 
z
M 1959 3584 
Q 2709 3584 3137 3096 
Q 3566 2609 3566 1747 
Q 3566 888 3137 398 
Q 2709 -91 1959 -91 
Q 1206 -91 779 398 
Q 353 888 353 1747 
Q 353 2609 779 3096 
Q 1206 3584 1959 3584 
z
" transform="scale(0.015625)"/>
       <path id="DejaVuSans-63" d="M 3122 3366 
L 3122 2828 
Q 2878 2963 2633 3030 
Q 2388 3097 2138 3097 
Q 1578 3097 1268 2742 
Q 959 2388 959 1747 
Q 959 1106 1268 751 
Q 1578 397 2138 397 
Q 2388 397 2633 464 
Q 2878 531 3122 666 
L 3122 134 
Q 2881 22 2623 -34 
Q 2366 -91 2075 -91 
Q 1284 -91 818 406 
Q 353 903 353 1747 
Q 353 2603 823 3093 
Q 1294 3584 2113 3584 
Q 2378 3584 2631 3529 
Q 2884 3475 3122 3366 
z
" transform="scale(0.015625)"/>
       <path id="DejaVuSans-68" d="M 3513 2113 
L 3513 0 
L 2938 0 
L 2938 2094 
Q 2938 2591 2744 2837 
Q 2550 3084 2163 3084 
Q 1697 3084 1428 2787 
Q 1159 2491 1159 1978 
L 1159 0 
L 581 0 
L 581 4863 
L 1159 4863 
L 1159 2956 
Q 1366 3272 1645 3428 
Q 1925 3584 2291 3584 
Q 2894 3584 3203 3211 
Q 3513 2838 3513 2113 
z
" transform="scale(0.015625)"/>
       <path id="DejaVuSans-20" transform="scale(0.015625)"/>
       <path id="DejaVuSans-6e" d="M 3513 2113 
L 3513 0 
L 2938 0 
L 2938 2094 
Q 2938 2591 2744 2837 
Q 2550 3084 2163 3084 
Q 1697 3084 1428 2787 
Q 1159 2491 1159 1978 
L 1159 0 
L 581 0 
L 581 3500 
L 1159 3500 
L 1159 2956 
Q 1366 3272 1645 3428 
Q 1925 3584 2291 3584 
Q 2894 3584 3203 3211 
Q 3513 2838 3513 2113 
z
" transform="scale(0.015625)"/>
       <path id="DejaVuSans-75" d="M 544 1381 
L 544 3500 
L 1119 3500 
L 1119 1403 
Q 1119 906 1312 657 
Q 1506 409 1894 409 
Q 2359 409 2629 706 
Q 2900 1003 2900 1516 
L 2900 3500 
L 3475 3500 
L 3475 0 
L 2900 0 
L 2900 538 
Q 2691 219 2414 64 
Q 2138 -91 1772 -91 
Q 1169 -91 856 284 
Q 544 659 544 1381 
z
M 1991 3584 
L 1991 3584 
z
" transform="scale(0.015625)"/>
       <path id="DejaVuSans-6d" d="M 3328 2828 
Q 3544 3216 3844 3400 
Q 4144 3584 4550 3584 
Q 5097 3584 5394 3201 
Q 5691 2819 5691 2113 
L 5691 0 
L 5113 0 
L 5113 2094 
Q 5113 2597 4934 2840 
Q 4756 3084 4391 3084 
Q 3944 3084 3684 2787 
Q 3425 2491 3425 1978 
L 3425 0 
L 2847 0 
L 2847 2094 
Q 2847 2600 2669 2842 
Q 2491 3084 2119 3084 
Q 1678 3084 1418 2786 
Q 1159 2488 1159 1978 
L 1159 0 
L 581 0 
L 581 3500 
L 1159 3500 
L 1159 2956 
Q 1356 3278 1631 3431 
Q 1906 3584 2284 3584 
Q 2666 3584 2933 3390 
Q 3200 3197 3328 2828 
z
" transform="scale(0.015625)"/>
       <path id="DejaVuSans-62" d="M 3116 1747 
Q 3116 2381 2855 2742 
Q 2594 3103 2138 3103 
Q 1681 3103 1420 2742 
Q 1159 2381 1159 1747 
Q 1159 1113 1420 752 
Q 1681 391 2138 391 
Q 2594 391 2855 752 
Q 3116 1113 3116 1747 
z
M 1159 2969 
Q 1341 3281 1617 3432 
Q 1894 3584 2278 3584 
Q 2916 3584 3314 3078 
Q 3713 2572 3713 1747 
Q 3713 922 3314 415 
Q 2916 -91 2278 -91 
Q 1894 -91 1617 61 
Q 1341 213 1159 525 
L 1159 0 
L 581 0 
L 581 4863 
L 1159 4863 
L 1159 2969 
z
" transform="scale(0.015625)"/>
       <path id="DejaVuSans-65" d="M 3597 1894 
L 3597 1613 
L 953 1613 
Q 991 1019 1311 708 
Q 1631 397 2203 397 
Q 2534 397 2845 478 
Q 3156 559 3463 722 
L 3463 178 
Q 3153 47 2828 -22 
Q 2503 -91 2169 -91 
Q 1331 -91 842 396 
Q 353 884 353 1716 
Q 353 2575 817 3079 
Q 1281 3584 2069 3584 
Q 2775 3584 3186 3129 
Q 3597 2675 3597 1894 
z
M 3022 2063 
Q 3016 2534 2758 2815 
Q 2500 3097 2075 3097 
Q 1594 3097 1305 2825 
Q 1016 2553 972 2059 
L 3022 2063 
z
" transform="scale(0.015625)"/>
       <path id="DejaVuSans-72" d="M 2631 2963 
Q 2534 3019 2420 3045 
Q 2306 3072 2169 3072 
Q 1681 3072 1420 2755 
Q 1159 2438 1159 1844 
L 1159 0 
L 581 0 
L 581 3500 
L 1159 3500 
L 1159 2956 
Q 1341 3275 1631 3429 
Q 1922 3584 2338 3584 
Q 2397 3584 2469 3576 
Q 2541 3569 2628 3553 
L 2631 2963 
z
" transform="scale(0.015625)"/>
      </defs>
      <use xlink:href="#DejaVuSans-45"/>
      <use xlink:href="#DejaVuSans-70" x="63.183594"/>
      <use xlink:href="#DejaVuSans-6f" x="126.660156"/>
      <use xlink:href="#DejaVuSans-63" x="187.841797"/>
      <use xlink:href="#DejaVuSans-68" x="242.822266"/>
      <use xlink:href="#DejaVuSans-20" x="306.201172"/>
      <use xlink:href="#DejaVuSans-6e" x="337.988281"/>
      <use xlink:href="#DejaVuSans-75" x="401.367188"/>
      <use xlink:href="#DejaVuSans-6d" x="464.746094"/>
      <use xlink:href="#DejaVuSans-62" x="562.158203"/>
      <use xlink:href="#DejaVuSans-65" x="625.634766"/>
      <use xlink:href="#DejaVuSans-72" x="687.158203"/>
     </g>
    </g>
   </g>
   <g id="matplotlib.axis_2">
    <g id="ytick_1">
     <g id="line2d_13">
      <path d="M 72 244.668303 
L 518.4 244.668303 
" clip-path="url(#p47b93a183a)" style="fill: none; stroke: #ffffff; stroke-width: 0.8; stroke-linecap: square"/>
     </g>
     <g id="line2d_14">
      <defs>
       <path id="m92edddc980" d="M 0 0 
L -3.5 0 
" style="stroke: #555555; stroke-width: 0.8"/>
      </defs>
      <g>
       <use xlink:href="#m92edddc980" x="72" y="244.668303" style="fill: #555555; stroke: #555555; stroke-width: 0.8"/>
      </g>
     </g>
     <g id="text_8">
      <!-- 0.65 -->
      <g style="fill: #555555" transform="translate(42.734375 248.467522) scale(0.1 -0.1)">
       <defs>
        <path id="DejaVuSans-2e" d="M 684 794 
L 1344 794 
L 1344 0 
L 684 0 
L 684 794 
z
" transform="scale(0.015625)"/>
        <path id="DejaVuSans-35" d="M 691 4666 
L 3169 4666 
L 3169 4134 
L 1269 4134 
L 1269 2991 
Q 1406 3038 1543 3061 
Q 1681 3084 1819 3084 
Q 2600 3084 3056 2656 
Q 3513 2228 3513 1497 
Q 3513 744 3044 326 
Q 2575 -91 1722 -91 
Q 1428 -91 1123 -41 
Q 819 9 494 109 
L 494 744 
Q 775 591 1075 516 
Q 1375 441 1709 441 
Q 2250 441 2565 725 
Q 2881 1009 2881 1497 
Q 2881 1984 2565 2268 
Q 2250 2553 1709 2553 
Q 1456 2553 1204 2497 
Q 953 2441 691 2322 
L 691 4666 
z
" transform="scale(0.015625)"/>
       </defs>
       <use xlink:href="#DejaVuSans-30"/>
       <use xlink:href="#DejaVuSans-2e" x="63.623047"/>
       <use xlink:href="#DejaVuSans-36" x="95.410156"/>
       <use xlink:href="#DejaVuSans-35" x="159.033203"/>
      </g>
     </g>
    </g>
    <g id="ytick_2">
     <g id="line2d_15">
      <path d="M 72 210.178286 
L 518.4 210.178286 
" clip-path="url(#p47b93a183a)" style="fill: none; stroke: #ffffff; stroke-width: 0.8; stroke-linecap: square"/>
     </g>
     <g id="line2d_16">
      <g>
       <use xlink:href="#m92edddc980" x="72" y="210.178286" style="fill: #555555; stroke: #555555; stroke-width: 0.8"/>
      </g>
     </g>
     <g id="text_9">
      <!-- 0.70 -->
      <g style="fill: #555555" transform="translate(42.734375 213.977505) scale(0.1 -0.1)">
       <defs>
        <path id="DejaVuSans-37" d="M 525 4666 
L 3525 4666 
L 3525 4397 
L 1831 0 
L 1172 0 
L 2766 4134 
L 525 4134 
L 525 4666 
z
" transform="scale(0.015625)"/>
       </defs>
       <use xlink:href="#DejaVuSans-30"/>
       <use xlink:href="#DejaVuSans-2e" x="63.623047"/>
       <use xlink:href="#DejaVuSans-37" x="95.410156"/>
       <use xlink:href="#DejaVuSans-30" x="159.033203"/>
      </g>
     </g>
    </g>
    <g id="ytick_3">
     <g id="line2d_17">
      <path d="M 72 175.688269 
L 518.4 175.688269 
" clip-path="url(#p47b93a183a)" style="fill: none; stroke: #ffffff; stroke-width: 0.8; stroke-linecap: square"/>
     </g>
     <g id="line2d_18">
      <g>
       <use xlink:href="#m92edddc980" x="72" y="175.688269" style="fill: #555555; stroke: #555555; stroke-width: 0.8"/>
      </g>
     </g>
     <g id="text_10">
      <!-- 0.75 -->
      <g style="fill: #555555" transform="translate(42.734375 179.487488) scale(0.1 -0.1)">
       <use xlink:href="#DejaVuSans-30"/>
       <use xlink:href="#DejaVuSans-2e" x="63.623047"/>
       <use xlink:href="#DejaVuSans-37" x="95.410156"/>
       <use xlink:href="#DejaVuSans-35" x="159.033203"/>
      </g>
     </g>
    </g>
    <g id="ytick_4">
     <g id="line2d_19">
      <path d="M 72 141.198252 
L 518.4 141.198252 
" clip-path="url(#p47b93a183a)" style="fill: none; stroke: #ffffff; stroke-width: 0.8; stroke-linecap: square"/>
     </g>
     <g id="line2d_20">
      <g>
       <use xlink:href="#m92edddc980" x="72" y="141.198252" style="fill: #555555; stroke: #555555; stroke-width: 0.8"/>
      </g>
     </g>
     <g id="text_11">
      <!-- 0.80 -->
      <g style="fill: #555555" transform="translate(42.734375 144.997471) scale(0.1 -0.1)">
       <use xlink:href="#DejaVuSans-30"/>
       <use xlink:href="#DejaVuSans-2e" x="63.623047"/>
       <use xlink:href="#DejaVuSans-38" x="95.410156"/>
       <use xlink:href="#DejaVuSans-30" x="159.033203"/>
      </g>
     </g>
    </g>
    <g id="ytick_5">
     <g id="line2d_21">
      <path d="M 72 106.708235 
L 518.4 106.708235 
" clip-path="url(#p47b93a183a)" style="fill: none; stroke: #ffffff; stroke-width: 0.8; stroke-linecap: square"/>
     </g>
     <g id="line2d_22">
      <g>
       <use xlink:href="#m92edddc980" x="72" y="106.708235" style="fill: #555555; stroke: #555555; stroke-width: 0.8"/>
      </g>
     </g>
     <g id="text_12">
      <!-- 0.85 -->
      <g style="fill: #555555" transform="translate(42.734375 110.507453) scale(0.1 -0.1)">
       <use xlink:href="#DejaVuSans-30"/>
       <use xlink:href="#DejaVuSans-2e" x="63.623047"/>
       <use xlink:href="#DejaVuSans-38" x="95.410156"/>
       <use xlink:href="#DejaVuSans-35" x="159.033203"/>
      </g>
     </g>
    </g>
    <g id="ytick_6">
     <g id="line2d_23">
      <path d="M 72 72.218218 
L 518.4 72.218218 
" clip-path="url(#p47b93a183a)" style="fill: none; stroke: #ffffff; stroke-width: 0.8; stroke-linecap: square"/>
     </g>
     <g id="line2d_24">
      <g>
       <use xlink:href="#m92edddc980" x="72" y="72.218218" style="fill: #555555; stroke: #555555; stroke-width: 0.8"/>
      </g>
     </g>
     <g id="text_13">
      <!-- 0.90 -->
      <g style="fill: #555555" transform="translate(42.734375 76.017436) scale(0.1 -0.1)">
       <defs>
        <path id="DejaVuSans-39" d="M 703 97 
L 703 672 
Q 941 559 1184 500 
Q 1428 441 1663 441 
Q 2288 441 2617 861 
Q 2947 1281 2994 2138 
Q 2813 1869 2534 1725 
Q 2256 1581 1919 1581 
Q 1219 1581 811 2004 
Q 403 2428 403 3163 
Q 403 3881 828 4315 
Q 1253 4750 1959 4750 
Q 2769 4750 3195 4129 
Q 3622 3509 3622 2328 
Q 3622 1225 3098 567 
Q 2575 -91 1691 -91 
Q 1453 -91 1209 -44 
Q 966 3 703 97 
z
M 1959 2075 
Q 2384 2075 2632 2365 
Q 2881 2656 2881 3163 
Q 2881 3666 2632 3958 
Q 2384 4250 1959 4250 
Q 1534 4250 1286 3958 
Q 1038 3666 1038 3163 
Q 1038 2656 1286 2365 
Q 1534 2075 1959 2075 
z
" transform="scale(0.015625)"/>
       </defs>
       <use xlink:href="#DejaVuSans-30"/>
       <use xlink:href="#DejaVuSans-2e" x="63.623047"/>
       <use xlink:href="#DejaVuSans-39" x="95.410156"/>
       <use xlink:href="#DejaVuSans-30" x="159.033203"/>
      </g>
     </g>
    </g>
    <g id="ytick_7">
     <g id="line2d_25">
      <path d="M 72 37.728201 
L 518.4 37.728201 
" clip-path="url(#p47b93a183a)" style="fill: none; stroke: #ffffff; stroke-width: 0.8; stroke-linecap: square"/>
     </g>
     <g id="line2d_26">
      <g>
       <use xlink:href="#m92edddc980" x="72" y="37.728201" style="fill: #555555; stroke: #555555; stroke-width: 0.8"/>
      </g>
     </g>
     <g id="text_14">
      <!-- 0.95 -->
      <g style="fill: #555555" transform="translate(42.734375 41.527419) scale(0.1 -0.1)">
       <use xlink:href="#DejaVuSans-30"/>
       <use xlink:href="#DejaVuSans-2e" x="63.623047"/>
       <use xlink:href="#DejaVuSans-39" x="95.410156"/>
       <use xlink:href="#DejaVuSans-35" x="159.033203"/>
      </g>
     </g>
    </g>
    <g id="text_15">
     <!-- Accuracy -->
     <g style="fill: #555555" transform="translate(36.23875 172.83375) rotate(-90) scale(0.12 -0.12)">
      <defs>
       <path id="DejaVuSans-41" d="M 2188 4044 
L 1331 1722 
L 3047 1722 
L 2188 4044 
z
M 1831 4666 
L 2547 4666 
L 4325 0 
L 3669 0 
L 3244 1197 
L 1141 1197 
L 716 0 
L 50 0 
L 1831 4666 
z
" transform="scale(0.015625)"/>
       <path id="DejaVuSans-61" d="M 2194 1759 
Q 1497 1759 1228 1600 
Q 959 1441 959 1056 
Q 959 750 1161 570 
Q 1363 391 1709 391 
Q 2188 391 2477 730 
Q 2766 1069 2766 1631 
L 2766 1759 
L 2194 1759 
z
M 3341 1997 
L 3341 0 
L 2766 0 
L 2766 531 
Q 2569 213 2275 61 
Q 1981 -91 1556 -91 
Q 1019 -91 701 211 
Q 384 513 384 1019 
Q 384 1609 779 1909 
Q 1175 2209 1959 2209 
L 2766 2209 
L 2766 2266 
Q 2766 2663 2505 2880 
Q 2244 3097 1772 3097 
Q 1472 3097 1187 3025 
Q 903 2953 641 2809 
L 641 3341 
Q 956 3463 1253 3523 
Q 1550 3584 1831 3584 
Q 2591 3584 2966 3190 
Q 3341 2797 3341 1997 
z
" transform="scale(0.015625)"/>
       <path id="DejaVuSans-79" d="M 2059 -325 
Q 1816 -950 1584 -1140 
Q 1353 -1331 966 -1331 
L 506 -1331 
L 506 -850 
L 844 -850 
Q 1081 -850 1212 -737 
Q 1344 -625 1503 -206 
L 1606 56 
L 191 3500 
L 800 3500 
L 1894 763 
L 2988 3500 
L 3597 3500 
L 2059 -325 
z
" transform="scale(0.015625)"/>
      </defs>
      <use xlink:href="#DejaVuSans-41"/>
      <use xlink:href="#DejaVuSans-63" x="66.658203"/>
      <use xlink:href="#DejaVuSans-63" x="121.638672"/>
      <use xlink:href="#DejaVuSans-75" x="176.619141"/>
      <use xlink:href="#DejaVuSans-72" x="239.998047"/>
      <use xlink:href="#DejaVuSans-61" x="281.111328"/>
      <use xlink:href="#DejaVuSans-63" x="342.390625"/>
      <use xlink:href="#DejaVuSans-79" x="397.371094"/>
     </g>
    </g>
   </g>
   <g id="line2d_27">
    <path d="M 92.290909 243.12315 
L 96.390083 216.007099 
L 100.489256 203.211302 
L 104.58843 193.105727 
L 108.687603 188.194349 
L 112.786777 179.523559 
L 116.88595 172.839393 
L 120.985124 170.963137 
L 125.084298 166.548414 
L 129.183471 162.513082 
L 133.282645 159.891841 
L 137.381818 158.795059 
L 141.480992 156.132429 
L 145.580165 153.662944 
L 149.679339 152.993838 
L 153.778512 150.620924 
L 157.877686 153.186982 
L 161.97686 150.827865 
L 166.076033 147.689273 
L 170.175207 145.813016 
L 174.27438 146.371754 
L 178.373554 144.329945 
L 182.472727 143.419409 
L 186.571901 143.998841 
L 190.671074 142.757201 
L 194.770248 141.812174 
L 198.869421 139.687589 
L 202.968595 141.89495 
L 207.067769 139.135749 
L 211.166942 140.391185 
L 215.266116 139.597915 
L 219.365289 139.528935 
L 223.464463 138.004476 
L 227.563636 138.073456 
L 231.66281 136.569692 
L 235.761983 136.597284 
L 239.861157 135.672951 
L 243.960331 136.059239 
L 248.059504 133.39661 
L 252.158678 133.858776 
L 256.257851 134.907273 
L 260.357025 134.29335 
L 264.456198 131.865253 
L 268.555372 134.403718 
L 272.654545 134.514086 
L 276.753719 134.196778 
L 280.852893 131.720395 
L 284.952066 132.486073 
L 289.05124 131.844559 
L 293.150413 131.906641 
L 297.249587 133.658734 
L 301.34876 130.175242 
L 305.447934 130.395978 
L 309.547107 131.389291 
L 313.646281 130.651205 
L 317.745455 129.56132 
L 321.844628 130.568429 
L 325.943802 129.713076 
L 330.042975 129.45785 
L 334.142149 131.313413 
L 338.241322 131.651415 
L 342.340496 128.367965 
L 346.439669 127.112529 
L 350.538843 128.547314 
L 354.638017 129.650994 
L 358.73719 130.658103 
L 362.836364 130.416672 
L 366.935537 127.133223 
L 371.034711 132.375705 
L 375.133884 128.533518 
L 379.233058 127.105631 
L 383.332231 127.491919 
L 387.431405 127.015957 
L 391.530579 128.285189 
L 395.629752 125.443212 
L 399.728926 126.671057 
L 403.828099 127.457429 
L 407.927273 126.740037 
L 412.026446 125.629458 
L 416.12562 125.298354 
L 420.224793 125.788112 
L 424.323967 128.202413 
L 428.42314 126.995263 
L 432.522314 125.325946 
L 436.621488 124.663738 
L 440.720661 127.298775 
L 444.819835 125.319048 
L 448.919008 125.077618 
L 453.018182 125.10521 
L 457.117355 124.511982 
L 461.216529 124.387817 
L 465.315702 126.526199 
L 469.414876 125.505294 
L 473.51405 123.849773 
L 477.613223 124.249857 
L 481.712397 124.208469 
L 485.81157 124.298143 
L 489.910744 123.346219 
L 494.009917 125.367334 
L 498.109091 122.794379 
" clip-path="url(#p47b93a183a)" style="fill: none; stroke: #ff0000; stroke-width: 1.5; stroke-linecap: square"/>
   </g>
   <g id="line2d_28">
    <path d="M 92.290909 246.24 
L 96.390083 220.219683 
L 100.489256 207.515133 
L 104.58843 200.486155 
L 108.687603 194.548633 
L 112.786777 185.860641 
L 116.88595 178.875321 
L 120.985124 175.993877 
L 125.084298 174.465838 
L 129.183471 171.540735 
L 133.282645 166.956619 
L 137.381818 166.476378 
L 141.480992 165.865163 
L 145.580165 161.412021 
L 149.679339 160.713489 
L 153.778512 159.272767 
L 157.877686 163.813225 
L 161.97686 162.241528 
L 166.076033 157.919361 
L 170.175207 157.482779 
L 174.27438 156.95888 
L 178.373554 154.601334 
L 182.472727 154.426701 
L 186.571901 155.343525 
L 190.671074 153.859144 
L 194.770248 153.990119 
L 198.869421 152.200131 
L 202.968595 155.430841 
L 207.067769 152.942321 
L 211.166942 151.850865 
L 215.266116 154.295727 
L 219.365289 152.112814 
L 223.464463 152.069156 
L 227.563636 150.410142 
L 231.66281 153.029637 
L 235.761983 151.195991 
L 239.861157 152.243789 
L 243.960331 152.331105 
L 248.059504 149.275028 
L 252.158678 151.108674 
L 256.257851 151.326966 
L 260.357025 152.243789 
L 264.456198 149.929902 
L 268.555372 150.322826 
L 272.654545 149.536977 
L 276.753719 151.370624 
L 280.852893 151.065016 
L 284.952066 150.322826 
L 289.05124 150.672092 
L 293.150413 150.71575 
L 297.249587 152.331105 
L 301.34876 150.322826 
L 305.447934 147.703331 
L 309.547107 150.628434 
L 313.646281 151.195991 
L 317.745455 149.842585 
L 321.844628 152.549397 
L 325.943802 149.929902 
L 330.042975 150.497459 
L 334.142149 152.72403 
L 338.241322 151.545257 
L 342.340496 148.270888 
L 346.439669 150.410142 
L 350.538843 150.366484 
L 354.638017 151.850865 
L 358.73719 151.588915 
L 362.836364 153.815486 
L 366.935537 149.493319 
L 371.034711 154.121094 
L 375.133884 151.326966 
L 379.233058 149.275028 
L 383.332231 152.025498 
L 387.431405 150.060876 
L 391.530579 151.45794 
L 395.629752 148.096255 
L 399.728926 150.9777 
L 403.828099 151.45794 
L 407.927273 151.981839 
L 412.026446 151.108674 
L 416.12562 150.060876 
L 420.224793 149.71161 
L 424.323967 153.902802 
L 428.42314 150.9777 
L 432.522314 149.886243 
L 436.621488 148.96942 
L 440.720661 152.243789 
L 444.819835 149.318686 
L 448.919008 148.096255 
L 453.018182 149.100395 
L 457.117355 150.541117 
L 461.216529 149.97356 
L 465.315702 153.509878 
L 469.414876 150.890383 
L 473.51405 148.663812 
L 477.613223 148.096255 
L 481.712397 150.803067 
L 485.81157 149.886243 
L 489.910744 149.667952 
L 494.009917 150.803067 
L 498.109091 147.659673 
" clip-path="url(#p47b93a183a)" style="fill: none; stroke-dasharray: 5.55,2.4; stroke-dashoffset: 0; stroke: #ff0000; stroke-width: 1.5"/>
   </g>
   <g id="line2d_29">
    <path d="M 92.290909 213.254795 
L 96.390083 178.744084 
L 100.489256 165.065344 
L 104.58843 154.5045 
L 108.687603 147.689273 
L 112.786777 141.494866 
L 116.88595 135.328051 
L 120.985124 133.782898 
L 125.084298 130.016588 
L 129.183471 128.174821 
L 133.282645 125.636356 
L 137.381818 121.449268 
L 141.480992 118.421045 
L 145.580165 118.669373 
L 149.679339 117.427732 
L 153.778512 115.123799 
L 157.877686 112.385292 
L 161.97686 111.426469 
L 166.076033 110.702179 
L 170.175207 110.612505 
L 174.27438 110.474545 
L 178.373554 108.701758 
L 182.472727 108.632778 
L 186.571901 107.004849 
L 190.671074 106.811705 
L 194.770248 108.667268 
L 198.869421 108.605186 
L 202.968595 103.976625 
L 207.067769 102.721189 
L 211.166942 102.810863 
L 215.266116 103.321315 
L 219.365289 103.342009 
L 223.464463 100.375868 
L 227.563636 101.47265 
L 231.66281 102.783271 
L 235.761983 101.017382 
L 239.861157 98.513407 
L 243.960331 99.913701 
L 248.059504 99.437739 
L 252.158678 97.871892 
L 256.257851 97.8443 
L 260.357025 96.071513 
L 264.456198 96.8096 
L 268.555372 96.968254 
L 272.654545 97.147602 
L 276.753719 96.416414 
L 280.852893 97.94777 
L 284.952066 98.465121 
L 289.05124 94.540157 
L 293.150413 96.168086 
L 297.249587 93.533048 
L 301.34876 93.346802 
L 305.447934 94.415993 
L 309.547107 93.857254 
L 313.646281 94.553953 
L 317.745455 91.463647 
L 321.844628 92.884636 
L 325.943802 91.767159 
L 330.042975 92.843248 
L 334.142149 91.367075 
L 338.241322 92.298306 
L 342.340496 90.435845 
L 346.439669 90.208211 
L 350.538843 90.187517 
L 354.638017 91.304993 
L 358.73719 90.594499 
L 362.836364 89.739146 
L 366.935537 92.056875 
L 371.034711 92.18104 
L 375.133884 89.394246 
L 379.233058 88.600976 
L 383.332231 89.394246 
L 387.431405 89.083836 
L 391.530579 87.738725 
L 395.629752 87.862889 
L 399.728926 87.945665 
L 403.828099 88.118116 
L 407.927273 87.690439 
L 412.026446 87.366233 
L 416.12562 88.911386 
L 420.224793 88.145708 
L 424.323967 89.608084 
L 428.42314 90.415151 
L 432.522314 88.835508 
L 436.621488 87.414519 
L 440.720661 87.649051 
L 444.819835 88.869998 
L 448.919008 89.325266 
L 453.018182 85.048504 
L 457.117355 86.345329 
L 461.216529 84.489766 
L 465.315702 85.979734 
L 469.414876 86.428105 
L 473.51405 88.883794 
L 477.613223 85.103688 
L 481.712397 89.339062 
L 485.81157 84.227642 
L 489.910744 87.062721 
L 494.009917 84.696706 
L 498.109091 85.014014 
" clip-path="url(#p47b93a183a)" style="fill: none; stroke: #008000; stroke-width: 1.5; stroke-linecap: square"/>
   </g>
   <g id="line2d_30">
    <path d="M 92.290909 216.945315 
L 96.390083 184.157969 
L 100.489256 169.92538 
L 104.58843 162.328845 
L 108.687603 154.688651 
L 112.786777 152.767688 
L 116.88595 147.397723 
L 120.985124 145.083836 
L 125.084298 141.285568 
L 129.183471 139.932163 
L 133.282645 135.959262 
L 137.381818 136.832427 
L 141.480992 134.343907 
L 145.580165 132.291969 
L 149.679339 133.994641 
L 153.778512 131.811728 
L 157.877686 129.235891 
L 161.97686 129.0176 
L 166.076033 131.942703 
L 170.175207 129.235891 
L 174.27438 129.541499 
L 178.373554 129.934423 
L 182.472727 129.235891 
L 186.571901 126.005181 
L 190.671074 129.585157 
L 194.770248 130.240031 
L 198.869421 131.287829 
L 202.968595 126.660055 
L 207.067769 127.096637 
L 211.166942 126.26713 
L 215.266116 127.53322 
L 219.365289 128.188093 
L 223.464463 126.048839 
L 227.563636 128.493701 
L 231.66281 125.481282 
L 235.761983 127.27127 
L 239.861157 125.393965 
L 243.960331 127.882486 
L 248.059504 126.048839 
L 252.158678 126.223472 
L 256.257851 127.620536 
L 260.357025 127.445903 
L 264.456198 126.398105 
L 268.555372 127.53322 
L 272.654545 128.624676 
L 276.753719 128.406385 
L 280.852893 130.589297 
L 284.952066 128.01346 
L 289.05124 126.660055 
L 293.150413 127.314928 
L 297.249587 125.961523 
L 301.34876 127.53322 
L 305.447934 128.057119 
L 309.547107 128.537359 
L 313.646281 127.707853 
L 317.745455 125.52494 
L 321.844628 126.703713 
L 325.943802 129.497841 
L 330.042975 128.231752 
L 334.142149 129.410524 
L 338.241322 128.930284 
L 342.340496 127.620536 
L 346.439669 129.366866 
L 350.538843 129.104917 
L 354.638017 129.192233 
L 358.73719 130.02174 
L 362.836364 129.061258 
L 366.935537 132.684893 
L 371.034711 131.942703 
L 375.133884 130.632955 
L 379.233058 127.664194 
L 383.332231 130.676614 
L 387.431405 130.982221 
L 391.530579 129.934423 
L 395.629752 129.978082 
L 399.728926 131.069538 
L 403.828099 130.501981 
L 407.927273 131.593437 
L 412.026446 131.593437 
L 416.12562 133.645375 
L 420.224793 131.811728 
L 424.323967 133.645375 
L 428.42314 133.208792 
L 432.522314 133.601716 
L 436.621488 133.077817 
L 440.720661 131.724412 
L 444.819835 133.339767 
L 448.919008 134.649514 
L 453.018182 128.973942 
L 457.117355 132.728551 
L 461.216529 130.807588 
L 465.315702 131.331487 
L 469.414876 133.121476 
L 473.51405 135.435363 
L 477.613223 131.549779 
L 481.712397 132.728551 
L 485.81157 131.113196 
L 489.910744 134.25659 
L 494.009917 132.248311 
L 498.109091 133.732691 
" clip-path="url(#p47b93a183a)" style="fill: none; stroke-dasharray: 5.55,2.4; stroke-dashoffset: 0; stroke: #008000; stroke-width: 1.5"/>
   </g>
   <g id="line2d_31">
    <path d="M 92.290909 188.511657 
L 96.390083 154.428622 
L 100.489256 134.624455 
L 104.58843 126.167502 
L 108.687603 117.800224 
L 112.786777 113.32342 
L 116.88595 105.61835 
L 120.985124 102.514249 
L 125.084298 98.561693 
L 129.183471 98.568591 
L 133.282645 96.471598 
L 137.381818 96.733722 
L 141.480992 92.76737 
L 145.580165 89.86331 
L 149.679339 88.821712 
L 153.778512 87.331743 
L 157.877686 84.496664 
L 161.97686 83.937925 
L 166.076033 82.103057 
L 170.175207 82.447957 
L 174.27438 80.730354 
L 178.373554 79.192099 
L 182.472727 79.612877 
L 186.571901 76.384612 
L 190.671074 76.019018 
L 194.770248 75.770689 
L 198.869421 74.798071 
L 202.968595 76.094896 
L 207.067769 73.266714 
L 211.166942 73.232224 
L 215.266116 73.197734 
L 219.365289 69.459016 
L 223.464463 70.824821 
L 227.563636 69.286566 
L 231.66281 67.755209 
L 235.761983 67.762107 
L 239.861157 69.107218 
L 243.960331 65.485766 
L 248.059504 66.189363 
L 252.158678 65.361602 
L 256.257851 64.720088 
L 260.357025 66.989531 
L 264.456198 63.706081 
L 268.555372 64.464862 
L 272.654545 65.589236 
L 276.753719 64.216534 
L 280.852893 62.747259 
L 284.952066 61.919499 
L 289.05124 60.691654 
L 293.150413 60.836512 
L 297.249587 63.354283 
L 301.34876 59.456911 
L 305.447934 63.016281 
L 309.547107 62.485135 
L 313.646281 59.94667 
L 317.745455 59.781117 
L 321.844628 57.677226 
L 325.943802 58.139393 
L 330.042975 57.208162 
L 334.142149 59.160297 
L 338.241322 57.325428 
L 342.340496 56.359708 
L 346.439669 54.421369 
L 350.538843 55.690601 
L 354.638017 53.600506 
L 358.73719 54.262715 
L 362.836364 55.069781 
L 366.935537 54.242021 
L 371.034711 54.290307 
L 375.133884 51.876006 
L 379.233058 54.228225 
L 383.332231 52.579602 
L 387.431405 53.793651 
L 391.530579 53.076258 
L 395.629752 53.290096 
L 399.728926 49.882483 
L 403.828099 51.641473 
L 407.927273 51.544901 
L 412.026446 49.434112 
L 416.12562 52.752052 
L 420.224793 50.048035 
L 424.323967 50.551589 
L 428.42314 49.592766 
L 432.522314 50.655059 
L 436.621488 48.02692 
L 440.720661 52.455438 
L 444.819835 47.585447 
L 448.919008 51.337961 
L 453.018182 46.150663 
L 457.117355 47.695816 
L 461.216529 46.398991 
L 465.315702 45.736783 
L 469.414876 45.384984 
L 473.51405 45.081472 
L 477.613223 45.219432 
L 481.712397 45.667803 
L 485.81157 44.64 
L 489.910744 48.123492 
L 494.009917 45.29531 
L 498.109091 46.612829 
" clip-path="url(#p47b93a183a)" style="fill: none; stroke: #0000ff; stroke-width: 1.5; stroke-linecap: square"/>
   </g>
   <g id="line2d_32">
    <path d="M 92.290909 192.016454 
L 96.390083 162.459819 
L 100.489256 142.944582 
L 104.58843 138.535099 
L 108.687603 132.990501 
L 112.786777 129.803449 
L 116.88595 124.127876 
L 120.985124 122.643496 
L 125.084298 119.893026 
L 129.183471 122.905445 
L 133.282645 121.29009 
L 137.381818 124.127876 
L 141.480992 122.730812 
L 145.580165 120.111317 
L 149.679339 120.678875 
L 153.778512 118.80157 
L 157.877686 119.369127 
L 161.97686 118.190354 
L 166.076033 120.416925 
L 170.175207 119.980343 
L 174.27438 121.246432 
L 178.373554 118.495962 
L 182.472727 119.674735 
L 186.571901 118.015721 
L 190.671074 121.159115 
L 194.770248 119.500102 
L 198.869421 122.992762 
L 202.968595 124.04056 
L 207.067769 122.468863 
L 211.166942 122.468863 
L 215.266116 125.001041 
L 219.365289 122.599838 
L 223.464463 121.29009 
L 227.563636 121.813989 
L 231.66281 121.813989 
L 235.761983 123.080078 
L 239.861157 124.127876 
L 243.960331 124.608117 
L 248.059504 125.917864 
L 252.158678 124.127876 
L 256.257851 124.913725 
L 260.357025 126.878346 
L 264.456198 125.393965 
L 268.555372 125.655915 
L 272.654545 129.0176 
L 276.753719 126.092497 
L 280.852893 126.441763 
L 284.952066 125.917864 
L 289.05124 125.219332 
L 293.150413 126.616396 
L 297.249587 129.803449 
L 301.34876 129.27955 
L 305.447934 129.75979 
L 309.547107 129.454183 
L 313.646281 129.104917 
L 317.745455 129.104917 
L 321.844628 129.0176 
L 325.943802 128.711992 
L 330.042975 128.188093 
L 334.142149 131.02588 
L 338.241322 131.375146 
L 342.340496 131.02588 
L 346.439669 129.585157 
L 350.538843 130.76393 
L 354.638017 130.458322 
L 358.73719 132.903184 
L 362.836364 131.287829 
L 366.935537 132.422944 
L 371.034711 132.466602 
L 375.133884 130.327348 
L 379.233058 132.422944 
L 383.332231 133.165134 
L 387.431405 131.942703 
L 391.530579 132.291969 
L 395.629752 132.728551 
L 399.728926 132.117336 
L 403.828099 133.907324 
L 407.927273 133.689033 
L 412.026446 132.815868 
L 416.12562 134.736831 
L 420.224793 134.649514 
L 424.323967 133.907324 
L 428.42314 135.217072 
L 432.522314 133.121476 
L 436.621488 131.76807 
L 440.720661 137.312668 
L 444.819835 136.483161 
L 448.919008 136.308528 
L 453.018182 134.824147 
L 457.117355 135.304388 
L 461.216529 135.959262 
L 465.315702 137.356326 
L 469.414876 137.138035 
L 473.51405 134.169274 
L 477.613223 134.51854 
L 481.712397 138.054858 
L 485.81157 135.173413 
L 489.910744 135.871945 
L 494.009917 135.959262 
L 498.109091 136.701452 
" clip-path="url(#p47b93a183a)" style="fill: none; stroke-dasharray: 5.55,2.4; stroke-dashoffset: 0; stroke: #0000ff; stroke-width: 1.5"/>
   </g>
   <g id="patch_3">
    <path d="M 72 256.32 
L 72 34.56 
" style="fill: none; stroke: #ffffff; stroke-linejoin: miter; stroke-linecap: square"/>
   </g>
   <g id="patch_4">
    <path d="M 518.4 256.32 
L 518.4 34.56 
" style="fill: none; stroke: #ffffff; stroke-linejoin: miter; stroke-linecap: square"/>
   </g>
   <g id="patch_5">
    <path d="M 72 256.32 
L 518.4 256.32 
" style="fill: none; stroke: #ffffff; stroke-linejoin: miter; stroke-linecap: square"/>
   </g>
   <g id="patch_6">
    <path d="M 72 34.56 
L 518.4 34.56 
" style="fill: none; stroke: #ffffff; stroke-linejoin: miter; stroke-linecap: square"/>
   </g>
   <g id="text_16">
    <!-- Accuracy Performances across Different Network Widths -->
    <g transform="translate(92.053125 28.56) scale(0.144 -0.144)">
     <defs>
      <path id="DejaVuSans-50" d="M 1259 4147 
L 1259 2394 
L 2053 2394 
Q 2494 2394 2734 2622 
Q 2975 2850 2975 3272 
Q 2975 3691 2734 3919 
Q 2494 4147 2053 4147 
L 1259 4147 
z
M 628 4666 
L 2053 4666 
Q 2838 4666 3239 4311 
Q 3641 3956 3641 3272 
Q 3641 2581 3239 2228 
Q 2838 1875 2053 1875 
L 1259 1875 
L 1259 0 
L 628 0 
L 628 4666 
z
" transform="scale(0.015625)"/>
      <path id="DejaVuSans-66" d="M 2375 4863 
L 2375 4384 
L 1825 4384 
Q 1516 4384 1395 4259 
Q 1275 4134 1275 3809 
L 1275 3500 
L 2222 3500 
L 2222 3053 
L 1275 3053 
L 1275 0 
L 697 0 
L 697 3053 
L 147 3053 
L 147 3500 
L 697 3500 
L 697 3744 
Q 697 4328 969 4595 
Q 1241 4863 1831 4863 
L 2375 4863 
z
" transform="scale(0.015625)"/>
      <path id="DejaVuSans-73" d="M 2834 3397 
L 2834 2853 
Q 2591 2978 2328 3040 
Q 2066 3103 1784 3103 
Q 1356 3103 1142 2972 
Q 928 2841 928 2578 
Q 928 2378 1081 2264 
Q 1234 2150 1697 2047 
L 1894 2003 
Q 2506 1872 2764 1633 
Q 3022 1394 3022 966 
Q 3022 478 2636 193 
Q 2250 -91 1575 -91 
Q 1294 -91 989 -36 
Q 684 19 347 128 
L 347 722 
Q 666 556 975 473 
Q 1284 391 1588 391 
Q 1994 391 2212 530 
Q 2431 669 2431 922 
Q 2431 1156 2273 1281 
Q 2116 1406 1581 1522 
L 1381 1569 
Q 847 1681 609 1914 
Q 372 2147 372 2553 
Q 372 3047 722 3315 
Q 1072 3584 1716 3584 
Q 2034 3584 2315 3537 
Q 2597 3491 2834 3397 
z
" transform="scale(0.015625)"/>
      <path id="DejaVuSans-44" d="M 1259 4147 
L 1259 519 
L 2022 519 
Q 2988 519 3436 956 
Q 3884 1394 3884 2338 
Q 3884 3275 3436 3711 
Q 2988 4147 2022 4147 
L 1259 4147 
z
M 628 4666 
L 1925 4666 
Q 3281 4666 3915 4102 
Q 4550 3538 4550 2338 
Q 4550 1131 3912 565 
Q 3275 0 1925 0 
L 628 0 
L 628 4666 
z
" transform="scale(0.015625)"/>
      <path id="DejaVuSans-69" d="M 603 3500 
L 1178 3500 
L 1178 0 
L 603 0 
L 603 3500 
z
M 603 4863 
L 1178 4863 
L 1178 4134 
L 603 4134 
L 603 4863 
z
" transform="scale(0.015625)"/>
      <path id="DejaVuSans-74" d="M 1172 4494 
L 1172 3500 
L 2356 3500 
L 2356 3053 
L 1172 3053 
L 1172 1153 
Q 1172 725 1289 603 
Q 1406 481 1766 481 
L 2356 481 
L 2356 0 
L 1766 0 
Q 1100 0 847 248 
Q 594 497 594 1153 
L 594 3053 
L 172 3053 
L 172 3500 
L 594 3500 
L 594 4494 
L 1172 4494 
z
" transform="scale(0.015625)"/>
      <path id="DejaVuSans-4e" d="M 628 4666 
L 1478 4666 
L 3547 763 
L 3547 4666 
L 4159 4666 
L 4159 0 
L 3309 0 
L 1241 3903 
L 1241 0 
L 628 0 
L 628 4666 
z
" transform="scale(0.015625)"/>
      <path id="DejaVuSans-77" d="M 269 3500 
L 844 3500 
L 1563 769 
L 2278 3500 
L 2956 3500 
L 3675 769 
L 4391 3500 
L 4966 3500 
L 4050 0 
L 3372 0 
L 2619 2869 
L 1863 0 
L 1184 0 
L 269 3500 
z
" transform="scale(0.015625)"/>
      <path id="DejaVuSans-6b" d="M 581 4863 
L 1159 4863 
L 1159 1991 
L 2875 3500 
L 3609 3500 
L 1753 1863 
L 3688 0 
L 2938 0 
L 1159 1709 
L 1159 0 
L 581 0 
L 581 4863 
z
" transform="scale(0.015625)"/>
      <path id="DejaVuSans-57" d="M 213 4666 
L 850 4666 
L 1831 722 
L 2809 4666 
L 3519 4666 
L 4500 722 
L 5478 4666 
L 6119 4666 
L 4947 0 
L 4153 0 
L 3169 4050 
L 2175 0 
L 1381 0 
L 213 4666 
z
" transform="scale(0.015625)"/>
      <path id="DejaVuSans-64" d="M 2906 2969 
L 2906 4863 
L 3481 4863 
L 3481 0 
L 2906 0 
L 2906 525 
Q 2725 213 2448 61 
Q 2172 -91 1784 -91 
Q 1150 -91 751 415 
Q 353 922 353 1747 
Q 353 2572 751 3078 
Q 1150 3584 1784 3584 
Q 2172 3584 2448 3432 
Q 2725 3281 2906 2969 
z
M 947 1747 
Q 947 1113 1208 752 
Q 1469 391 1925 391 
Q 2381 391 2643 752 
Q 2906 1113 2906 1747 
Q 2906 2381 2643 2742 
Q 2381 3103 1925 3103 
Q 1469 3103 1208 2742 
Q 947 2381 947 1747 
z
" transform="scale(0.015625)"/>
     </defs>
     <use xlink:href="#DejaVuSans-41"/>
     <use xlink:href="#DejaVuSans-63" x="66.658203"/>
     <use xlink:href="#DejaVuSans-63" x="121.638672"/>
     <use xlink:href="#DejaVuSans-75" x="176.619141"/>
     <use xlink:href="#DejaVuSans-72" x="239.998047"/>
     <use xlink:href="#DejaVuSans-61" x="281.111328"/>
     <use xlink:href="#DejaVuSans-63" x="342.390625"/>
     <use xlink:href="#DejaVuSans-79" x="397.371094"/>
     <use xlink:href="#DejaVuSans-20" x="456.550781"/>
     <use xlink:href="#DejaVuSans-50" x="488.337891"/>
     <use xlink:href="#DejaVuSans-65" x="545.015625"/>
     <use xlink:href="#DejaVuSans-72" x="606.539062"/>
     <use xlink:href="#DejaVuSans-66" x="647.652344"/>
     <use xlink:href="#DejaVuSans-6f" x="682.857422"/>
     <use xlink:href="#DejaVuSans-72" x="744.039062"/>
     <use xlink:href="#DejaVuSans-6d" x="783.402344"/>
     <use xlink:href="#DejaVuSans-61" x="880.814453"/>
     <use xlink:href="#DejaVuSans-6e" x="942.09375"/>
     <use xlink:href="#DejaVuSans-63" x="1005.472656"/>
     <use xlink:href="#DejaVuSans-65" x="1060.453125"/>
     <use xlink:href="#DejaVuSans-73" x="1121.976562"/>
     <use xlink:href="#DejaVuSans-20" x="1174.076172"/>
     <use xlink:href="#DejaVuSans-61" x="1205.863281"/>
     <use xlink:href="#DejaVuSans-63" x="1267.142578"/>
     <use xlink:href="#DejaVuSans-72" x="1322.123047"/>
     <use xlink:href="#DejaVuSans-6f" x="1360.986328"/>
     <use xlink:href="#DejaVuSans-73" x="1422.167969"/>
     <use xlink:href="#DejaVuSans-73" x="1474.267578"/>
     <use xlink:href="#DejaVuSans-20" x="1526.367188"/>
     <use xlink:href="#DejaVuSans-44" x="1558.154297"/>
     <use xlink:href="#DejaVuSans-69" x="1635.15625"/>
     <use xlink:href="#DejaVuSans-66" x="1662.939453"/>
     <use xlink:href="#DejaVuSans-66" x="1698.144531"/>
     <use xlink:href="#DejaVuSans-65" x="1733.349609"/>
     <use xlink:href="#DejaVuSans-72" x="1794.873047"/>
     <use xlink:href="#DejaVuSans-65" x="1833.736328"/>
     <use xlink:href="#DejaVuSans-6e" x="1895.259766"/>
     <use xlink:href="#DejaVuSans-74" x="1958.638672"/>
     <use xlink:href="#DejaVuSans-20" x="1997.847656"/>
     <use xlink:href="#DejaVuSans-4e" x="2029.634766"/>
     <use xlink:href="#DejaVuSans-65" x="2104.439453"/>
     <use xlink:href="#DejaVuSans-74" x="2165.962891"/>
     <use xlink:href="#DejaVuSans-77" x="2205.171875"/>
     <use xlink:href="#DejaVuSans-6f" x="2286.958984"/>
     <use xlink:href="#DejaVuSans-72" x="2348.140625"/>
     <use xlink:href="#DejaVuSans-6b" x="2389.253906"/>
     <use xlink:href="#DejaVuSans-20" x="2447.164062"/>
     <use xlink:href="#DejaVuSans-57" x="2478.951172"/>
     <use xlink:href="#DejaVuSans-69" x="2575.578125"/>
     <use xlink:href="#DejaVuSans-64" x="2603.361328"/>
     <use xlink:href="#DejaVuSans-74" x="2666.837891"/>
     <use xlink:href="#DejaVuSans-68" x="2706.046875"/>
     <use xlink:href="#DejaVuSans-73" x="2769.425781"/>
    </g>
   </g>
   <g id="legend_1">
    <g id="patch_7">
     <path d="M 393.71125 252.32 
L 512.8 252.32 
Q 514.4 252.32 514.4 250.72 
L 514.4 181.065 
Q 514.4 179.465 512.8 179.465 
L 393.71125 179.465 
Q 392.11125 179.465 392.11125 181.065 
L 392.11125 250.72 
Q 392.11125 252.32 393.71125 252.32 
z
" style="fill: #e5e5e5; opacity: 0.8; stroke: #cccccc; stroke-width: 0.5; stroke-linejoin: miter"/>
    </g>
    <g id="line2d_33">
     <path d="M 395.31125 185.94375 
L 403.31125 185.94375 
L 411.31125 185.94375 
" style="fill: none; stroke: #ff0000; stroke-width: 1.5; stroke-linecap: square"/>
    </g>
    <g id="text_17">
     <!-- Acc Train - (32 Units) -->
     <g transform="translate(417.71125 188.74375) scale(0.08 -0.08)">
      <defs>
       <path id="DejaVuSans-54" d="M -19 4666 
L 3928 4666 
L 3928 4134 
L 2272 4134 
L 2272 0 
L 1638 0 
L 1638 4134 
L -19 4134 
L -19 4666 
z
" transform="scale(0.015625)"/>
       <path id="DejaVuSans-2d" d="M 313 2009 
L 1997 2009 
L 1997 1497 
L 313 1497 
L 313 2009 
z
" transform="scale(0.015625)"/>
       <path id="DejaVuSans-28" d="M 1984 4856 
Q 1566 4138 1362 3434 
Q 1159 2731 1159 2009 
Q 1159 1288 1364 580 
Q 1569 -128 1984 -844 
L 1484 -844 
Q 1016 -109 783 600 
Q 550 1309 550 2009 
Q 550 2706 781 3412 
Q 1013 4119 1484 4856 
L 1984 4856 
z
" transform="scale(0.015625)"/>
       <path id="DejaVuSans-33" d="M 2597 2516 
Q 3050 2419 3304 2112 
Q 3559 1806 3559 1356 
Q 3559 666 3084 287 
Q 2609 -91 1734 -91 
Q 1441 -91 1130 -33 
Q 819 25 488 141 
L 488 750 
Q 750 597 1062 519 
Q 1375 441 1716 441 
Q 2309 441 2620 675 
Q 2931 909 2931 1356 
Q 2931 1769 2642 2001 
Q 2353 2234 1838 2234 
L 1294 2234 
L 1294 2753 
L 1863 2753 
Q 2328 2753 2575 2939 
Q 2822 3125 2822 3475 
Q 2822 3834 2567 4026 
Q 2313 4219 1838 4219 
Q 1578 4219 1281 4162 
Q 984 4106 628 3988 
L 628 4550 
Q 988 4650 1302 4700 
Q 1616 4750 1894 4750 
Q 2613 4750 3031 4423 
Q 3450 4097 3450 3541 
Q 3450 3153 3228 2886 
Q 3006 2619 2597 2516 
z
" transform="scale(0.015625)"/>
       <path id="DejaVuSans-55" d="M 556 4666 
L 1191 4666 
L 1191 1831 
Q 1191 1081 1462 751 
Q 1734 422 2344 422 
Q 2950 422 3222 751 
Q 3494 1081 3494 1831 
L 3494 4666 
L 4128 4666 
L 4128 1753 
Q 4128 841 3676 375 
Q 3225 -91 2344 -91 
Q 1459 -91 1007 375 
Q 556 841 556 1753 
L 556 4666 
z
" transform="scale(0.015625)"/>
       <path id="DejaVuSans-29" d="M 513 4856 
L 1013 4856 
Q 1481 4119 1714 3412 
Q 1947 2706 1947 2009 
Q 1947 1309 1714 600 
Q 1481 -109 1013 -844 
L 513 -844 
Q 928 -128 1133 580 
Q 1338 1288 1338 2009 
Q 1338 2731 1133 3434 
Q 928 4138 513 4856 
z
" transform="scale(0.015625)"/>
      </defs>
      <use xlink:href="#DejaVuSans-41"/>
      <use xlink:href="#DejaVuSans-63" x="66.658203"/>
      <use xlink:href="#DejaVuSans-63" x="121.638672"/>
      <use xlink:href="#DejaVuSans-20" x="176.619141"/>
      <use xlink:href="#DejaVuSans-54" x="208.40625"/>
      <use xlink:href="#DejaVuSans-72" x="254.740234"/>
      <use xlink:href="#DejaVuSans-61" x="295.853516"/>
      <use xlink:href="#DejaVuSans-69" x="357.132812"/>
      <use xlink:href="#DejaVuSans-6e" x="384.916016"/>
      <use xlink:href="#DejaVuSans-20" x="448.294922"/>
      <use xlink:href="#DejaVuSans-2d" x="480.082031"/>
      <use xlink:href="#DejaVuSans-20" x="516.166016"/>
      <use xlink:href="#DejaVuSans-28" x="547.953125"/>
      <use xlink:href="#DejaVuSans-33" x="586.966797"/>
      <use xlink:href="#DejaVuSans-32" x="650.589844"/>
      <use xlink:href="#DejaVuSans-20" x="714.212891"/>
      <use xlink:href="#DejaVuSans-55" x="746"/>
      <use xlink:href="#DejaVuSans-6e" x="819.193359"/>
      <use xlink:href="#DejaVuSans-69" x="882.572266"/>
      <use xlink:href="#DejaVuSans-74" x="910.355469"/>
      <use xlink:href="#DejaVuSans-73" x="949.564453"/>
      <use xlink:href="#DejaVuSans-29" x="1001.664062"/>
     </g>
    </g>
    <g id="line2d_34">
     <path d="M 395.31125 197.68625 
L 403.31125 197.68625 
L 411.31125 197.68625 
" style="fill: none; stroke-dasharray: 5.55,2.4; stroke-dashoffset: 0; stroke: #ff0000; stroke-width: 1.5"/>
    </g>
    <g id="text_18">
     <!-- Valid Train - (32 Units) -->
     <g transform="translate(417.71125 200.48625) scale(0.08 -0.08)">
      <defs>
       <path id="DejaVuSans-56" d="M 1831 0 
L 50 4666 
L 709 4666 
L 2188 738 
L 3669 4666 
L 4325 4666 
L 2547 0 
L 1831 0 
z
" transform="scale(0.015625)"/>
       <path id="DejaVuSans-6c" d="M 603 4863 
L 1178 4863 
L 1178 0 
L 603 0 
L 603 4863 
z
" transform="scale(0.015625)"/>
      </defs>
      <use xlink:href="#DejaVuSans-56"/>
      <use xlink:href="#DejaVuSans-61" x="60.658203"/>
      <use xlink:href="#DejaVuSans-6c" x="121.9375"/>
      <use xlink:href="#DejaVuSans-69" x="149.720703"/>
      <use xlink:href="#DejaVuSans-64" x="177.503906"/>
      <use xlink:href="#DejaVuSans-20" x="240.980469"/>
      <use xlink:href="#DejaVuSans-54" x="272.767578"/>
      <use xlink:href="#DejaVuSans-72" x="319.101562"/>
      <use xlink:href="#DejaVuSans-61" x="360.214844"/>
      <use xlink:href="#DejaVuSans-69" x="421.494141"/>
      <use xlink:href="#DejaVuSans-6e" x="449.277344"/>
      <use xlink:href="#DejaVuSans-20" x="512.65625"/>
      <use xlink:href="#DejaVuSans-2d" x="544.443359"/>
      <use xlink:href="#DejaVuSans-20" x="580.527344"/>
      <use xlink:href="#DejaVuSans-28" x="612.314453"/>
      <use xlink:href="#DejaVuSans-33" x="651.328125"/>
      <use xlink:href="#DejaVuSans-32" x="714.951172"/>
      <use xlink:href="#DejaVuSans-20" x="778.574219"/>
      <use xlink:href="#DejaVuSans-55" x="810.361328"/>
      <use xlink:href="#DejaVuSans-6e" x="883.554688"/>
      <use xlink:href="#DejaVuSans-69" x="946.933594"/>
      <use xlink:href="#DejaVuSans-74" x="974.716797"/>
      <use xlink:href="#DejaVuSans-73" x="1013.925781"/>
      <use xlink:href="#DejaVuSans-29" x="1066.025391"/>
     </g>
    </g>
    <g id="line2d_35">
     <path d="M 395.31125 209.42875 
L 403.31125 209.42875 
L 411.31125 209.42875 
" style="fill: none; stroke: #008000; stroke-width: 1.5; stroke-linecap: square"/>
    </g>
    <g id="text_19">
     <!-- Acc Train - (64 Units) -->
     <g transform="translate(417.71125 212.22875) scale(0.08 -0.08)">
      <use xlink:href="#DejaVuSans-41"/>
      <use xlink:href="#DejaVuSans-63" x="66.658203"/>
      <use xlink:href="#DejaVuSans-63" x="121.638672"/>
      <use xlink:href="#DejaVuSans-20" x="176.619141"/>
      <use xlink:href="#DejaVuSans-54" x="208.40625"/>
      <use xlink:href="#DejaVuSans-72" x="254.740234"/>
      <use xlink:href="#DejaVuSans-61" x="295.853516"/>
      <use xlink:href="#DejaVuSans-69" x="357.132812"/>
      <use xlink:href="#DejaVuSans-6e" x="384.916016"/>
      <use xlink:href="#DejaVuSans-20" x="448.294922"/>
      <use xlink:href="#DejaVuSans-2d" x="480.082031"/>
      <use xlink:href="#DejaVuSans-20" x="516.166016"/>
      <use xlink:href="#DejaVuSans-28" x="547.953125"/>
      <use xlink:href="#DejaVuSans-36" x="586.966797"/>
      <use xlink:href="#DejaVuSans-34" x="650.589844"/>
      <use xlink:href="#DejaVuSans-20" x="714.212891"/>
      <use xlink:href="#DejaVuSans-55" x="746"/>
      <use xlink:href="#DejaVuSans-6e" x="819.193359"/>
      <use xlink:href="#DejaVuSans-69" x="882.572266"/>
      <use xlink:href="#DejaVuSans-74" x="910.355469"/>
      <use xlink:href="#DejaVuSans-73" x="949.564453"/>
      <use xlink:href="#DejaVuSans-29" x="1001.664062"/>
     </g>
    </g>
    <g id="line2d_36">
     <path d="M 395.31125 221.17125 
L 403.31125 221.17125 
L 411.31125 221.17125 
" style="fill: none; stroke-dasharray: 5.55,2.4; stroke-dashoffset: 0; stroke: #008000; stroke-width: 1.5"/>
    </g>
    <g id="text_20">
     <!-- Valid Train - (64 Units) -->
     <g transform="translate(417.71125 223.97125) scale(0.08 -0.08)">
      <use xlink:href="#DejaVuSans-56"/>
      <use xlink:href="#DejaVuSans-61" x="60.658203"/>
      <use xlink:href="#DejaVuSans-6c" x="121.9375"/>
      <use xlink:href="#DejaVuSans-69" x="149.720703"/>
      <use xlink:href="#DejaVuSans-64" x="177.503906"/>
      <use xlink:href="#DejaVuSans-20" x="240.980469"/>
      <use xlink:href="#DejaVuSans-54" x="272.767578"/>
      <use xlink:href="#DejaVuSans-72" x="319.101562"/>
      <use xlink:href="#DejaVuSans-61" x="360.214844"/>
      <use xlink:href="#DejaVuSans-69" x="421.494141"/>
      <use xlink:href="#DejaVuSans-6e" x="449.277344"/>
      <use xlink:href="#DejaVuSans-20" x="512.65625"/>
      <use xlink:href="#DejaVuSans-2d" x="544.443359"/>
      <use xlink:href="#DejaVuSans-20" x="580.527344"/>
      <use xlink:href="#DejaVuSans-28" x="612.314453"/>
      <use xlink:href="#DejaVuSans-36" x="651.328125"/>
      <use xlink:href="#DejaVuSans-34" x="714.951172"/>
      <use xlink:href="#DejaVuSans-20" x="778.574219"/>
      <use xlink:href="#DejaVuSans-55" x="810.361328"/>
      <use xlink:href="#DejaVuSans-6e" x="883.554688"/>
      <use xlink:href="#DejaVuSans-69" x="946.933594"/>
      <use xlink:href="#DejaVuSans-74" x="974.716797"/>
      <use xlink:href="#DejaVuSans-73" x="1013.925781"/>
      <use xlink:href="#DejaVuSans-29" x="1066.025391"/>
     </g>
    </g>
    <g id="line2d_37">
     <path d="M 395.31125 232.91375 
L 403.31125 232.91375 
L 411.31125 232.91375 
" style="fill: none; stroke: #0000ff; stroke-width: 1.5; stroke-linecap: square"/>
    </g>
    <g id="text_21">
     <!-- Acc Train - (128 Units) -->
     <g transform="translate(417.71125 235.71375) scale(0.08 -0.08)">
      <use xlink:href="#DejaVuSans-41"/>
      <use xlink:href="#DejaVuSans-63" x="66.658203"/>
      <use xlink:href="#DejaVuSans-63" x="121.638672"/>
      <use xlink:href="#DejaVuSans-20" x="176.619141"/>
      <use xlink:href="#DejaVuSans-54" x="208.40625"/>
      <use xlink:href="#DejaVuSans-72" x="254.740234"/>
      <use xlink:href="#DejaVuSans-61" x="295.853516"/>
      <use xlink:href="#DejaVuSans-69" x="357.132812"/>
      <use xlink:href="#DejaVuSans-6e" x="384.916016"/>
      <use xlink:href="#DejaVuSans-20" x="448.294922"/>
      <use xlink:href="#DejaVuSans-2d" x="480.082031"/>
      <use xlink:href="#DejaVuSans-20" x="516.166016"/>
      <use xlink:href="#DejaVuSans-28" x="547.953125"/>
      <use xlink:href="#DejaVuSans-31" x="586.966797"/>
      <use xlink:href="#DejaVuSans-32" x="650.589844"/>
      <use xlink:href="#DejaVuSans-38" x="714.212891"/>
      <use xlink:href="#DejaVuSans-20" x="777.835938"/>
      <use xlink:href="#DejaVuSans-55" x="809.623047"/>
      <use xlink:href="#DejaVuSans-6e" x="882.816406"/>
      <use xlink:href="#DejaVuSans-69" x="946.195312"/>
      <use xlink:href="#DejaVuSans-74" x="973.978516"/>
      <use xlink:href="#DejaVuSans-73" x="1013.1875"/>
      <use xlink:href="#DejaVuSans-29" x="1065.287109"/>
     </g>
    </g>
    <g id="line2d_38">
     <path d="M 395.31125 244.65625 
L 403.31125 244.65625 
L 411.31125 244.65625 
" style="fill: none; stroke-dasharray: 5.55,2.4; stroke-dashoffset: 0; stroke: #0000ff; stroke-width: 1.5"/>
    </g>
    <g id="text_22">
     <!-- Valid Train - (128 Units) -->
     <g transform="translate(417.71125 247.45625) scale(0.08 -0.08)">
      <use xlink:href="#DejaVuSans-56"/>
      <use xlink:href="#DejaVuSans-61" x="60.658203"/>
      <use xlink:href="#DejaVuSans-6c" x="121.9375"/>
      <use xlink:href="#DejaVuSans-69" x="149.720703"/>
      <use xlink:href="#DejaVuSans-64" x="177.503906"/>
      <use xlink:href="#DejaVuSans-20" x="240.980469"/>
      <use xlink:href="#DejaVuSans-54" x="272.767578"/>
      <use xlink:href="#DejaVuSans-72" x="319.101562"/>
      <use xlink:href="#DejaVuSans-61" x="360.214844"/>
      <use xlink:href="#DejaVuSans-69" x="421.494141"/>
      <use xlink:href="#DejaVuSans-6e" x="449.277344"/>
      <use xlink:href="#DejaVuSans-20" x="512.65625"/>
      <use xlink:href="#DejaVuSans-2d" x="544.443359"/>
      <use xlink:href="#DejaVuSans-20" x="580.527344"/>
      <use xlink:href="#DejaVuSans-28" x="612.314453"/>
      <use xlink:href="#DejaVuSans-31" x="651.328125"/>
      <use xlink:href="#DejaVuSans-32" x="714.951172"/>
      <use xlink:href="#DejaVuSans-38" x="778.574219"/>
      <use xlink:href="#DejaVuSans-20" x="842.197266"/>
      <use xlink:href="#DejaVuSans-55" x="873.984375"/>
      <use xlink:href="#DejaVuSans-6e" x="947.177734"/>
      <use xlink:href="#DejaVuSans-69" x="1010.556641"/>
      <use xlink:href="#DejaVuSans-74" x="1038.339844"/>
      <use xlink:href="#DejaVuSans-73" x="1077.548828"/>
      <use xlink:href="#DejaVuSans-29" x="1129.648438"/>
     </g>
    </g>
   </g>
  </g>
 </g>
 <defs>
  <clipPath id="p47b93a183a">
   <rect x="72" y="34.56" width="446.4" height="221.76"/>
  </clipPath>
 </defs>
</svg>
