<?xml version="1.0" encoding="utf-8" standalone="no"?>
<!DOCTYPE svg PUBLIC "-//W3C//DTD SVG 1.1//EN"
  "http://www.w3.org/Graphics/SVG/1.1/DTD/svg11.dtd">
<svg xmlns:xlink="http://www.w3.org/1999/xlink" width="576pt" height="288pt" viewBox="0 0 576 288" xmlns="http://www.w3.org/2000/svg" version="1.1">
 <metadata>
  <rdf:RDF xmlns:dc="http://purl.org/dc/elements/1.1/" xmlns:cc="http://creativecommons.org/ns#" xmlns:rdf="http://www.w3.org/1999/02/22-rdf-syntax-ns#">
   <cc:Work>
    <dc:type rdf:resource="http://purl.org/dc/dcmitype/StillImage"/>
    <dc:date>2024-10-21T17:13:14.875425</dc:date>
    <dc:format>image/svg+xml</dc:format>
    <dc:creator>
     <cc:Agent>
      <dc:title>Matplotlib v3.9.2, https://matplotlib.org/</dc:title>
     </cc:Agent>
    </dc:creator>
   </cc:Work>
  </rdf:RDF>
 </metadata>
 <defs>
  <style type="text/css">*{stroke-linejoin: round; stroke-linecap: butt}</style>
 </defs>
 <g id="figure_1">
  <g id="patch_1">
   <path d="M 0 288 
L 576 288 
L 576 0 
L 0 0 
z
" style="fill: #ffffff"/>
  </g>
  <g id="axes_1">
   <g id="patch_2">
    <path d="M 72 256.32 
L 518.4 256.32 
L 518.4 34.56 
L 72 34.56 
z
" style="fill: #e5e5e5"/>
   </g>
   <g id="matplotlib.axis_1">
    <g id="xtick_1">
     <g id="line2d_1">
      <path d="M 88.191736 256.32 
L 88.191736 34.56 
" clip-path="url(#p2a92d15ffd)" style="fill: none; stroke: #ffffff; stroke-width: 0.8; stroke-linecap: square"/>
     </g>
     <g id="line2d_2">
      <defs>
       <path id="m1db099d914" d="M 0 0 
L 0 3.5 
" style="stroke: #555555; stroke-width: 0.8"/>
      </defs>
      <g>
       <use xlink:href="#m1db099d914" x="88.191736" y="256.32" style="fill: #555555; stroke: #555555; stroke-width: 0.8"/>
      </g>
     </g>
     <g id="text_1">
      <!-- 0 -->
      <g style="fill: #555555" transform="translate(85.010486 270.918437) scale(0.1 -0.1)">
       <defs>
        <path id="DejaVuSans-30" d="M 2034 4250 
Q 1547 4250 1301 3770 
Q 1056 3291 1056 2328 
Q 1056 1369 1301 889 
Q 1547 409 2034 409 
Q 2525 409 2770 889 
Q 3016 1369 3016 2328 
Q 3016 3291 2770 3770 
Q 2525 4250 2034 4250 
z
M 2034 4750 
Q 2819 4750 3233 4129 
Q 3647 3509 3647 2328 
Q 3647 1150 3233 529 
Q 2819 -91 2034 -91 
Q 1250 -91 836 529 
Q 422 1150 422 2328 
Q 422 3509 836 4129 
Q 1250 4750 2034 4750 
z
" transform="scale(0.015625)"/>
       </defs>
       <use xlink:href="#DejaVuSans-30"/>
      </g>
     </g>
    </g>
    <g id="xtick_2">
     <g id="line2d_3">
      <path d="M 170.175207 256.32 
L 170.175207 34.56 
" clip-path="url(#p2a92d15ffd)" style="fill: none; stroke: #ffffff; stroke-width: 0.8; stroke-linecap: square"/>
     </g>
     <g id="line2d_4">
      <g>
       <use xlink:href="#m1db099d914" x="170.175207" y="256.32" style="fill: #555555; stroke: #555555; stroke-width: 0.8"/>
      </g>
     </g>
     <g id="text_2">
      <!-- 20 -->
      <g style="fill: #555555" transform="translate(163.812707 270.918437) scale(0.1 -0.1)">
       <defs>
        <path id="DejaVuSans-32" d="M 1228 531 
L 3431 531 
L 3431 0 
L 469 0 
L 469 531 
Q 828 903 1448 1529 
Q 2069 2156 2228 2338 
Q 2531 2678 2651 2914 
Q 2772 3150 2772 3378 
Q 2772 3750 2511 3984 
Q 2250 4219 1831 4219 
Q 1534 4219 1204 4116 
Q 875 4013 500 3803 
L 500 4441 
Q 881 4594 1212 4672 
Q 1544 4750 1819 4750 
Q 2544 4750 2975 4387 
Q 3406 4025 3406 3419 
Q 3406 3131 3298 2873 
Q 3191 2616 2906 2266 
Q 2828 2175 2409 1742 
Q 1991 1309 1228 531 
z
" transform="scale(0.015625)"/>
       </defs>
       <use xlink:href="#DejaVuSans-32"/>
       <use xlink:href="#DejaVuSans-30" x="63.623047"/>
      </g>
     </g>
    </g>
    <g id="xtick_3">
     <g id="line2d_5">
      <path d="M 252.158678 256.32 
L 252.158678 34.56 
" clip-path="url(#p2a92d15ffd)" style="fill: none; stroke: #ffffff; stroke-width: 0.8; stroke-linecap: square"/>
     </g>
     <g id="line2d_6">
      <g>
       <use xlink:href="#m1db099d914" x="252.158678" y="256.32" style="fill: #555555; stroke: #555555; stroke-width: 0.8"/>
      </g>
     </g>
     <g id="text_3">
      <!-- 40 -->
      <g style="fill: #555555" transform="translate(245.796178 270.918437) scale(0.1 -0.1)">
       <defs>
        <path id="DejaVuSans-34" d="M 2419 4116 
L 825 1625 
L 2419 1625 
L 2419 4116 
z
M 2253 4666 
L 3047 4666 
L 3047 1625 
L 3713 1625 
L 3713 1100 
L 3047 1100 
L 3047 0 
L 2419 0 
L 2419 1100 
L 313 1100 
L 313 1709 
L 2253 4666 
z
" transform="scale(0.015625)"/>
       </defs>
       <use xlink:href="#DejaVuSans-34"/>
       <use xlink:href="#DejaVuSans-30" x="63.623047"/>
      </g>
     </g>
    </g>
    <g id="xtick_4">
     <g id="line2d_7">
      <path d="M 334.142149 256.32 
L 334.142149 34.56 
" clip-path="url(#p2a92d15ffd)" style="fill: none; stroke: #ffffff; stroke-width: 0.8; stroke-linecap: square"/>
     </g>
     <g id="line2d_8">
      <g>
       <use xlink:href="#m1db099d914" x="334.142149" y="256.32" style="fill: #555555; stroke: #555555; stroke-width: 0.8"/>
      </g>
     </g>
     <g id="text_4">
      <!-- 60 -->
      <g style="fill: #555555" transform="translate(327.779649 270.918437) scale(0.1 -0.1)">
       <defs>
        <path id="DejaVuSans-36" d="M 2113 2584 
Q 1688 2584 1439 2293 
Q 1191 2003 1191 1497 
Q 1191 994 1439 701 
Q 1688 409 2113 409 
Q 2538 409 2786 701 
Q 3034 994 3034 1497 
Q 3034 2003 2786 2293 
Q 2538 2584 2113 2584 
z
M 3366 4563 
L 3366 3988 
Q 3128 4100 2886 4159 
Q 2644 4219 2406 4219 
Q 1781 4219 1451 3797 
Q 1122 3375 1075 2522 
Q 1259 2794 1537 2939 
Q 1816 3084 2150 3084 
Q 2853 3084 3261 2657 
Q 3669 2231 3669 1497 
Q 3669 778 3244 343 
Q 2819 -91 2113 -91 
Q 1303 -91 875 529 
Q 447 1150 447 2328 
Q 447 3434 972 4092 
Q 1497 4750 2381 4750 
Q 2619 4750 2861 4703 
Q 3103 4656 3366 4563 
z
" transform="scale(0.015625)"/>
       </defs>
       <use xlink:href="#DejaVuSans-36"/>
       <use xlink:href="#DejaVuSans-30" x="63.623047"/>
      </g>
     </g>
    </g>
    <g id="xtick_5">
     <g id="line2d_9">
      <path d="M 416.12562 256.32 
L 416.12562 34.56 
" clip-path="url(#p2a92d15ffd)" style="fill: none; stroke: #ffffff; stroke-width: 0.8; stroke-linecap: square"/>
     </g>
     <g id="line2d_10">
      <g>
       <use xlink:href="#m1db099d914" x="416.12562" y="256.32" style="fill: #555555; stroke: #555555; stroke-width: 0.8"/>
      </g>
     </g>
     <g id="text_5">
      <!-- 80 -->
      <g style="fill: #555555" transform="translate(409.76312 270.918437) scale(0.1 -0.1)">
       <defs>
        <path id="DejaVuSans-38" d="M 2034 2216 
Q 1584 2216 1326 1975 
Q 1069 1734 1069 1313 
Q 1069 891 1326 650 
Q 1584 409 2034 409 
Q 2484 409 2743 651 
Q 3003 894 3003 1313 
Q 3003 1734 2745 1975 
Q 2488 2216 2034 2216 
z
M 1403 2484 
Q 997 2584 770 2862 
Q 544 3141 544 3541 
Q 544 4100 942 4425 
Q 1341 4750 2034 4750 
Q 2731 4750 3128 4425 
Q 3525 4100 3525 3541 
Q 3525 3141 3298 2862 
Q 3072 2584 2669 2484 
Q 3125 2378 3379 2068 
Q 3634 1759 3634 1313 
Q 3634 634 3220 271 
Q 2806 -91 2034 -91 
Q 1263 -91 848 271 
Q 434 634 434 1313 
Q 434 1759 690 2068 
Q 947 2378 1403 2484 
z
M 1172 3481 
Q 1172 3119 1398 2916 
Q 1625 2713 2034 2713 
Q 2441 2713 2670 2916 
Q 2900 3119 2900 3481 
Q 2900 3844 2670 4047 
Q 2441 4250 2034 4250 
Q 1625 4250 1398 4047 
Q 1172 3844 1172 3481 
z
" transform="scale(0.015625)"/>
       </defs>
       <use xlink:href="#DejaVuSans-38"/>
       <use xlink:href="#DejaVuSans-30" x="63.623047"/>
      </g>
     </g>
    </g>
    <g id="xtick_6">
     <g id="line2d_11">
      <path d="M 498.109091 256.32 
L 498.109091 34.56 
" clip-path="url(#p2a92d15ffd)" style="fill: none; stroke: #ffffff; stroke-width: 0.8; stroke-linecap: square"/>
     </g>
     <g id="line2d_12">
      <g>
       <use xlink:href="#m1db099d914" x="498.109091" y="256.32" style="fill: #555555; stroke: #555555; stroke-width: 0.8"/>
      </g>
     </g>
     <g id="text_6">
      <!-- 100 -->
      <g style="fill: #555555" transform="translate(488.565341 270.918437) scale(0.1 -0.1)">
       <defs>
        <path id="DejaVuSans-31" d="M 794 531 
L 1825 531 
L 1825 4091 
L 703 3866 
L 703 4441 
L 1819 4666 
L 2450 4666 
L 2450 531 
L 3481 531 
L 3481 0 
L 794 0 
L 794 531 
z
" transform="scale(0.015625)"/>
       </defs>
       <use xlink:href="#DejaVuSans-31"/>
       <use xlink:href="#DejaVuSans-30" x="63.623047"/>
       <use xlink:href="#DejaVuSans-30" x="127.246094"/>
      </g>
     </g>
    </g>
    <g id="text_7">
     <!-- Epoch number -->
     <g style="fill: #555555" transform="translate(251.503125 286.11625) scale(0.12 -0.12)">
      <defs>
       <path id="DejaVuSans-45" d="M 628 4666 
L 3578 4666 
L 3578 4134 
L 1259 4134 
L 1259 2753 
L 3481 2753 
L 3481 2222 
L 1259 2222 
L 1259 531 
L 3634 531 
L 3634 0 
L 628 0 
L 628 4666 
z
" transform="scale(0.015625)"/>
       <path id="DejaVuSans-70" d="M 1159 525 
L 1159 -1331 
L 581 -1331 
L 581 3500 
L 1159 3500 
L 1159 2969 
Q 1341 3281 1617 3432 
Q 1894 3584 2278 3584 
Q 2916 3584 3314 3078 
Q 3713 2572 3713 1747 
Q 3713 922 3314 415 
Q 2916 -91 2278 -91 
Q 1894 -91 1617 61 
Q 1341 213 1159 525 
z
M 3116 1747 
Q 3116 2381 2855 2742 
Q 2594 3103 2138 3103 
Q 1681 3103 1420 2742 
Q 1159 2381 1159 1747 
Q 1159 1113 1420 752 
Q 1681 391 2138 391 
Q 2594 391 2855 752 
Q 3116 1113 3116 1747 
z
" transform="scale(0.015625)"/>
       <path id="DejaVuSans-6f" d="M 1959 3097 
Q 1497 3097 1228 2736 
Q 959 2375 959 1747 
Q 959 1119 1226 758 
Q 1494 397 1959 397 
Q 2419 397 2687 759 
Q 2956 1122 2956 1747 
Q 2956 2369 2687 2733 
Q 2419 3097 1959 3097 
z
M 1959 3584 
Q 2709 3584 3137 3096 
Q 3566 2609 3566 1747 
Q 3566 888 3137 398 
Q 2709 -91 1959 -91 
Q 1206 -91 779 398 
Q 353 888 353 1747 
Q 353 2609 779 3096 
Q 1206 3584 1959 3584 
z
" transform="scale(0.015625)"/>
       <path id="DejaVuSans-63" d="M 3122 3366 
L 3122 2828 
Q 2878 2963 2633 3030 
Q 2388 3097 2138 3097 
Q 1578 3097 1268 2742 
Q 959 2388 959 1747 
Q 959 1106 1268 751 
Q 1578 397 2138 397 
Q 2388 397 2633 464 
Q 2878 531 3122 666 
L 3122 134 
Q 2881 22 2623 -34 
Q 2366 -91 2075 -91 
Q 1284 -91 818 406 
Q 353 903 353 1747 
Q 353 2603 823 3093 
Q 1294 3584 2113 3584 
Q 2378 3584 2631 3529 
Q 2884 3475 3122 3366 
z
" transform="scale(0.015625)"/>
       <path id="DejaVuSans-68" d="M 3513 2113 
L 3513 0 
L 2938 0 
L 2938 2094 
Q 2938 2591 2744 2837 
Q 2550 3084 2163 3084 
Q 1697 3084 1428 2787 
Q 1159 2491 1159 1978 
L 1159 0 
L 581 0 
L 581 4863 
L 1159 4863 
L 1159 2956 
Q 1366 3272 1645 3428 
Q 1925 3584 2291 3584 
Q 2894 3584 3203 3211 
Q 3513 2838 3513 2113 
z
" transform="scale(0.015625)"/>
       <path id="DejaVuSans-20" transform="scale(0.015625)"/>
       <path id="DejaVuSans-6e" d="M 3513 2113 
L 3513 0 
L 2938 0 
L 2938 2094 
Q 2938 2591 2744 2837 
Q 2550 3084 2163 3084 
Q 1697 3084 1428 2787 
Q 1159 2491 1159 1978 
L 1159 0 
L 581 0 
L 581 3500 
L 1159 3500 
L 1159 2956 
Q 1366 3272 1645 3428 
Q 1925 3584 2291 3584 
Q 2894 3584 3203 3211 
Q 3513 2838 3513 2113 
z
" transform="scale(0.015625)"/>
       <path id="DejaVuSans-75" d="M 544 1381 
L 544 3500 
L 1119 3500 
L 1119 1403 
Q 1119 906 1312 657 
Q 1506 409 1894 409 
Q 2359 409 2629 706 
Q 2900 1003 2900 1516 
L 2900 3500 
L 3475 3500 
L 3475 0 
L 2900 0 
L 2900 538 
Q 2691 219 2414 64 
Q 2138 -91 1772 -91 
Q 1169 -91 856 284 
Q 544 659 544 1381 
z
M 1991 3584 
L 1991 3584 
z
" transform="scale(0.015625)"/>
       <path id="DejaVuSans-6d" d="M 3328 2828 
Q 3544 3216 3844 3400 
Q 4144 3584 4550 3584 
Q 5097 3584 5394 3201 
Q 5691 2819 5691 2113 
L 5691 0 
L 5113 0 
L 5113 2094 
Q 5113 2597 4934 2840 
Q 4756 3084 4391 3084 
Q 3944 3084 3684 2787 
Q 3425 2491 3425 1978 
L 3425 0 
L 2847 0 
L 2847 2094 
Q 2847 2600 2669 2842 
Q 2491 3084 2119 3084 
Q 1678 3084 1418 2786 
Q 1159 2488 1159 1978 
L 1159 0 
L 581 0 
L 581 3500 
L 1159 3500 
L 1159 2956 
Q 1356 3278 1631 3431 
Q 1906 3584 2284 3584 
Q 2666 3584 2933 3390 
Q 3200 3197 3328 2828 
z
" transform="scale(0.015625)"/>
       <path id="DejaVuSans-62" d="M 3116 1747 
Q 3116 2381 2855 2742 
Q 2594 3103 2138 3103 
Q 1681 3103 1420 2742 
Q 1159 2381 1159 1747 
Q 1159 1113 1420 752 
Q 1681 391 2138 391 
Q 2594 391 2855 752 
Q 3116 1113 3116 1747 
z
M 1159 2969 
Q 1341 3281 1617 3432 
Q 1894 3584 2278 3584 
Q 2916 3584 3314 3078 
Q 3713 2572 3713 1747 
Q 3713 922 3314 415 
Q 2916 -91 2278 -91 
Q 1894 -91 1617 61 
Q 1341 213 1159 525 
L 1159 0 
L 581 0 
L 581 4863 
L 1159 4863 
L 1159 2969 
z
" transform="scale(0.015625)"/>
       <path id="DejaVuSans-65" d="M 3597 1894 
L 3597 1613 
L 953 1613 
Q 991 1019 1311 708 
Q 1631 397 2203 397 
Q 2534 397 2845 478 
Q 3156 559 3463 722 
L 3463 178 
Q 3153 47 2828 -22 
Q 2503 -91 2169 -91 
Q 1331 -91 842 396 
Q 353 884 353 1716 
Q 353 2575 817 3079 
Q 1281 3584 2069 3584 
Q 2775 3584 3186 3129 
Q 3597 2675 3597 1894 
z
M 3022 2063 
Q 3016 2534 2758 2815 
Q 2500 3097 2075 3097 
Q 1594 3097 1305 2825 
Q 1016 2553 972 2059 
L 3022 2063 
z
" transform="scale(0.015625)"/>
       <path id="DejaVuSans-72" d="M 2631 2963 
Q 2534 3019 2420 3045 
Q 2306 3072 2169 3072 
Q 1681 3072 1420 2755 
Q 1159 2438 1159 1844 
L 1159 0 
L 581 0 
L 581 3500 
L 1159 3500 
L 1159 2956 
Q 1341 3275 1631 3429 
Q 1922 3584 2338 3584 
Q 2397 3584 2469 3576 
Q 2541 3569 2628 3553 
L 2631 2963 
z
" transform="scale(0.015625)"/>
      </defs>
      <use xlink:href="#DejaVuSans-45"/>
      <use xlink:href="#DejaVuSans-70" x="63.183594"/>
      <use xlink:href="#DejaVuSans-6f" x="126.660156"/>
      <use xlink:href="#DejaVuSans-63" x="187.841797"/>
      <use xlink:href="#DejaVuSans-68" x="242.822266"/>
      <use xlink:href="#DejaVuSans-20" x="306.201172"/>
      <use xlink:href="#DejaVuSans-6e" x="337.988281"/>
      <use xlink:href="#DejaVuSans-75" x="401.367188"/>
      <use xlink:href="#DejaVuSans-6d" x="464.746094"/>
      <use xlink:href="#DejaVuSans-62" x="562.158203"/>
      <use xlink:href="#DejaVuSans-65" x="625.634766"/>
      <use xlink:href="#DejaVuSans-72" x="687.158203"/>
     </g>
    </g>
   </g>
   <g id="matplotlib.axis_2">
    <g id="ytick_1">
     <g id="line2d_13">
      <path d="M 72 224.47803 
L 518.4 224.47803 
" clip-path="url(#p2a92d15ffd)" style="fill: none; stroke: #ffffff; stroke-width: 0.8; stroke-linecap: square"/>
     </g>
     <g id="line2d_14">
      <defs>
       <path id="m6bb3c5b50c" d="M 0 0 
L -3.5 0 
" style="stroke: #555555; stroke-width: 0.8"/>
      </defs>
      <g>
       <use xlink:href="#m6bb3c5b50c" x="72" y="224.47803" style="fill: #555555; stroke: #555555; stroke-width: 0.8"/>
      </g>
     </g>
     <g id="text_8">
      <!-- 0.75 -->
      <g style="fill: #555555" transform="translate(42.734375 228.277248) scale(0.1 -0.1)">
       <defs>
        <path id="DejaVuSans-2e" d="M 684 794 
L 1344 794 
L 1344 0 
L 684 0 
L 684 794 
z
" transform="scale(0.015625)"/>
        <path id="DejaVuSans-37" d="M 525 4666 
L 3525 4666 
L 3525 4397 
L 1831 0 
L 1172 0 
L 2766 4134 
L 525 4134 
L 525 4666 
z
" transform="scale(0.015625)"/>
        <path id="DejaVuSans-35" d="M 691 4666 
L 3169 4666 
L 3169 4134 
L 1269 4134 
L 1269 2991 
Q 1406 3038 1543 3061 
Q 1681 3084 1819 3084 
Q 2600 3084 3056 2656 
Q 3513 2228 3513 1497 
Q 3513 744 3044 326 
Q 2575 -91 1722 -91 
Q 1428 -91 1123 -41 
Q 819 9 494 109 
L 494 744 
Q 775 591 1075 516 
Q 1375 441 1709 441 
Q 2250 441 2565 725 
Q 2881 1009 2881 1497 
Q 2881 1984 2565 2268 
Q 2250 2553 1709 2553 
Q 1456 2553 1204 2497 
Q 953 2441 691 2322 
L 691 4666 
z
" transform="scale(0.015625)"/>
       </defs>
       <use xlink:href="#DejaVuSans-30"/>
       <use xlink:href="#DejaVuSans-2e" x="63.623047"/>
       <use xlink:href="#DejaVuSans-37" x="95.410156"/>
       <use xlink:href="#DejaVuSans-35" x="159.033203"/>
      </g>
     </g>
    </g>
    <g id="ytick_2">
     <g id="line2d_15">
      <path d="M 72 182.133309 
L 518.4 182.133309 
" clip-path="url(#p2a92d15ffd)" style="fill: none; stroke: #ffffff; stroke-width: 0.8; stroke-linecap: square"/>
     </g>
     <g id="line2d_16">
      <g>
       <use xlink:href="#m6bb3c5b50c" x="72" y="182.133309" style="fill: #555555; stroke: #555555; stroke-width: 0.8"/>
      </g>
     </g>
     <g id="text_9">
      <!-- 0.80 -->
      <g style="fill: #555555" transform="translate(42.734375 185.932527) scale(0.1 -0.1)">
       <use xlink:href="#DejaVuSans-30"/>
       <use xlink:href="#DejaVuSans-2e" x="63.623047"/>
       <use xlink:href="#DejaVuSans-38" x="95.410156"/>
       <use xlink:href="#DejaVuSans-30" x="159.033203"/>
      </g>
     </g>
    </g>
    <g id="ytick_3">
     <g id="line2d_17">
      <path d="M 72 139.788588 
L 518.4 139.788588 
" clip-path="url(#p2a92d15ffd)" style="fill: none; stroke: #ffffff; stroke-width: 0.8; stroke-linecap: square"/>
     </g>
     <g id="line2d_18">
      <g>
       <use xlink:href="#m6bb3c5b50c" x="72" y="139.788588" style="fill: #555555; stroke: #555555; stroke-width: 0.8"/>
      </g>
     </g>
     <g id="text_10">
      <!-- 0.85 -->
      <g style="fill: #555555" transform="translate(42.734375 143.587807) scale(0.1 -0.1)">
       <use xlink:href="#DejaVuSans-30"/>
       <use xlink:href="#DejaVuSans-2e" x="63.623047"/>
       <use xlink:href="#DejaVuSans-38" x="95.410156"/>
       <use xlink:href="#DejaVuSans-35" x="159.033203"/>
      </g>
     </g>
    </g>
    <g id="ytick_4">
     <g id="line2d_19">
      <path d="M 72 97.443867 
L 518.4 97.443867 
" clip-path="url(#p2a92d15ffd)" style="fill: none; stroke: #ffffff; stroke-width: 0.8; stroke-linecap: square"/>
     </g>
     <g id="line2d_20">
      <g>
       <use xlink:href="#m6bb3c5b50c" x="72" y="97.443867" style="fill: #555555; stroke: #555555; stroke-width: 0.8"/>
      </g>
     </g>
     <g id="text_11">
      <!-- 0.90 -->
      <g style="fill: #555555" transform="translate(42.734375 101.243086) scale(0.1 -0.1)">
       <defs>
        <path id="DejaVuSans-39" d="M 703 97 
L 703 672 
Q 941 559 1184 500 
Q 1428 441 1663 441 
Q 2288 441 2617 861 
Q 2947 1281 2994 2138 
Q 2813 1869 2534 1725 
Q 2256 1581 1919 1581 
Q 1219 1581 811 2004 
Q 403 2428 403 3163 
Q 403 3881 828 4315 
Q 1253 4750 1959 4750 
Q 2769 4750 3195 4129 
Q 3622 3509 3622 2328 
Q 3622 1225 3098 567 
Q 2575 -91 1691 -91 
Q 1453 -91 1209 -44 
Q 966 3 703 97 
z
M 1959 2075 
Q 2384 2075 2632 2365 
Q 2881 2656 2881 3163 
Q 2881 3666 2632 3958 
Q 2384 4250 1959 4250 
Q 1534 4250 1286 3958 
Q 1038 3666 1038 3163 
Q 1038 2656 1286 2365 
Q 1534 2075 1959 2075 
z
" transform="scale(0.015625)"/>
       </defs>
       <use xlink:href="#DejaVuSans-30"/>
       <use xlink:href="#DejaVuSans-2e" x="63.623047"/>
       <use xlink:href="#DejaVuSans-39" x="95.410156"/>
       <use xlink:href="#DejaVuSans-30" x="159.033203"/>
      </g>
     </g>
    </g>
    <g id="ytick_5">
     <g id="line2d_21">
      <path d="M 72 55.099146 
L 518.4 55.099146 
" clip-path="url(#p2a92d15ffd)" style="fill: none; stroke: #ffffff; stroke-width: 0.8; stroke-linecap: square"/>
     </g>
     <g id="line2d_22">
      <g>
       <use xlink:href="#m6bb3c5b50c" x="72" y="55.099146" style="fill: #555555; stroke: #555555; stroke-width: 0.8"/>
      </g>
     </g>
     <g id="text_12">
      <!-- 0.95 -->
      <g style="fill: #555555" transform="translate(42.734375 58.898365) scale(0.1 -0.1)">
       <use xlink:href="#DejaVuSans-30"/>
       <use xlink:href="#DejaVuSans-2e" x="63.623047"/>
       <use xlink:href="#DejaVuSans-39" x="95.410156"/>
       <use xlink:href="#DejaVuSans-35" x="159.033203"/>
      </g>
     </g>
    </g>
    <g id="text_13">
     <!-- Accuracy -->
     <g style="fill: #555555" transform="translate(36.23875 172.83375) rotate(-90) scale(0.12 -0.12)">
      <defs>
       <path id="DejaVuSans-41" d="M 2188 4044 
L 1331 1722 
L 3047 1722 
L 2188 4044 
z
M 1831 4666 
L 2547 4666 
L 4325 0 
L 3669 0 
L 3244 1197 
L 1141 1197 
L 716 0 
L 50 0 
L 1831 4666 
z
" transform="scale(0.015625)"/>
       <path id="DejaVuSans-61" d="M 2194 1759 
Q 1497 1759 1228 1600 
Q 959 1441 959 1056 
Q 959 750 1161 570 
Q 1363 391 1709 391 
Q 2188 391 2477 730 
Q 2766 1069 2766 1631 
L 2766 1759 
L 2194 1759 
z
M 3341 1997 
L 3341 0 
L 2766 0 
L 2766 531 
Q 2569 213 2275 61 
Q 1981 -91 1556 -91 
Q 1019 -91 701 211 
Q 384 513 384 1019 
Q 384 1609 779 1909 
Q 1175 2209 1959 2209 
L 2766 2209 
L 2766 2266 
Q 2766 2663 2505 2880 
Q 2244 3097 1772 3097 
Q 1472 3097 1187 3025 
Q 903 2953 641 2809 
L 641 3341 
Q 956 3463 1253 3523 
Q 1550 3584 1831 3584 
Q 2591 3584 2966 3190 
Q 3341 2797 3341 1997 
z
" transform="scale(0.015625)"/>
       <path id="DejaVuSans-79" d="M 2059 -325 
Q 1816 -950 1584 -1140 
Q 1353 -1331 966 -1331 
L 506 -1331 
L 506 -850 
L 844 -850 
Q 1081 -850 1212 -737 
Q 1344 -625 1503 -206 
L 1606 56 
L 191 3500 
L 800 3500 
L 1894 763 
L 2988 3500 
L 3597 3500 
L 2059 -325 
z
" transform="scale(0.015625)"/>
      </defs>
      <use xlink:href="#DejaVuSans-41"/>
      <use xlink:href="#DejaVuSans-63" x="66.658203"/>
      <use xlink:href="#DejaVuSans-63" x="121.638672"/>
      <use xlink:href="#DejaVuSans-75" x="176.619141"/>
      <use xlink:href="#DejaVuSans-72" x="239.998047"/>
      <use xlink:href="#DejaVuSans-61" x="281.111328"/>
      <use xlink:href="#DejaVuSans-63" x="342.390625"/>
      <use xlink:href="#DejaVuSans-79" x="397.371094"/>
     </g>
    </g>
   </g>
   <g id="line2d_23">
    <path d="M 92.290909 239.197055 
L 96.390083 192.821116 
L 100.489256 173.867619 
L 104.58843 162.71402 
L 108.687603 151.509607 
L 112.786777 146.089482 
L 116.88595 141.846541 
L 120.985124 135.833591 
L 125.084298 133.19128 
L 129.183471 130.379591 
L 133.282645 128.397858 
L 137.381818 125.518417 
L 141.480992 121.969929 
L 145.580165 121.868302 
L 149.679339 119.056612 
L 153.778512 117.07488 
L 157.877686 114.000653 
L 161.97686 113.128352 
L 166.076033 112.205237 
L 170.175207 112.637153 
L 174.27438 111.061929 
L 178.373554 108.555122 
L 182.472727 106.547982 
L 186.571901 105.463957 
L 190.671074 103.228156 
L 194.770248 103.778637 
L 198.869421 102.161069 
L 202.968595 102.144131 
L 207.067769 100.873789 
L 211.166942 98.688802 
L 215.266116 97.477743 
L 219.365289 97.97741 
L 223.464463 93.226333 
L 227.563636 94.251075 
L 231.66281 94.318827 
L 235.761983 95.843236 
L 239.861157 94.979404 
L 243.960331 94.183323 
L 248.059504 90.92278 
L 252.158678 91.227662 
L 256.257851 89.533873 
L 260.357025 88.526069 
L 264.456198 91.397041 
L 268.555372 88.509131 
L 272.654545 93.217864 
L 276.753719 85.985385 
L 280.852893 84.300066 
L 284.952066 86.154764 
L 289.05124 82.809531 
L 293.150413 82.826469 
L 297.249587 85.358684 
L 301.34876 83.817336 
L 305.447934 83.995184 
L 309.547107 82.826469 
L 313.646281 80.878612 
L 317.745455 80.624544 
L 321.844628 83.537861 
L 325.943802 83.22451 
L 330.042975 79.947028 
L 334.142149 81.649286 
L 338.241322 81.208901 
L 342.340496 79.21023 
L 346.439669 77.211559 
L 350.538843 76.703423 
L 354.638017 78.00764 
L 358.73719 79.362671 
L 362.836364 78.939224 
L 366.935537 76.982898 
L 371.034711 77.04218 
L 375.133884 73.603789 
L 379.233058 75.153606 
L 383.332231 74.628531 
L 387.431405 79.582864 
L 391.530579 74.001829 
L 395.629752 73.891733 
L 399.728926 72.477419 
L 403.828099 70.986885 
L 407.927273 75.136668 
L 412.026446 72.460482 
L 416.12562 75.873466 
L 420.224793 70.775162 
L 424.323967 70.029895 
L 428.42314 68.132851 
L 432.522314 69.047497 
L 436.621488 70.487218 
L 440.720661 70.114584 
L 444.819835 67.379115 
L 448.919008 69.750419 
L 453.018182 67.971941 
L 457.117355 72.782301 
L 461.216529 70.444873 
L 465.315702 67.514618 
L 469.414876 68.725677 
L 473.51405 66.769351 
L 477.613223 66.066429 
L 481.712397 67.472273 
L 485.81157 65.499009 
L 489.910744 66.396718 
L 494.009917 66.955668 
L 498.109091 67.887252 
" clip-path="url(#p2a92d15ffd)" style="fill: none; stroke: #0000ff; stroke-width: 1.5; stroke-linecap: square"/>
   </g>
   <g id="line2d_24">
    <path d="M 92.290909 246.24 
L 96.390083 199.392802 
L 100.489256 184.384547 
L 104.58843 174.950786 
L 108.687603 167.607461 
L 112.786777 164.230604 
L 116.88595 161.925765 
L 120.985124 158.388104 
L 125.084298 157.316086 
L 129.183471 155.76166 
L 133.282645 154.904045 
L 137.381818 156.244068 
L 141.480992 154.58244 
L 145.580165 154.58244 
L 149.679339 154.421637 
L 153.778512 154.314435 
L 157.877686 153.40322 
L 161.97686 154.368036 
L 166.076033 154.743242 
L 170.175207 157.101683 
L 174.27438 155.279252 
L 178.373554 155.064848 
L 182.472727 156.190467 
L 186.571901 153.564022 
L 190.671074 153.188816 
L 194.770248 153.778426 
L 198.869421 153.135215 
L 202.968595 158.441705 
L 207.067769 156.083265 
L 211.166942 156.083265 
L 215.266116 156.029664 
L 219.365289 159.674526 
L 223.464463 154.314435 
L 227.563636 158.70971 
L 231.66281 155.118449 
L 235.761983 160.264136 
L 239.861157 160.639343 
L 243.960331 158.870513 
L 248.059504 157.637692 
L 252.158678 159.138517 
L 256.257851 159.728127 
L 260.357025 160.532141 
L 264.456198 161.014549 
L 268.555372 161.06815 
L 272.654545 164.659411 
L 276.753719 159.728127 
L 280.852893 159.29932 
L 284.952066 164.284205 
L 289.05124 159.781728 
L 293.150413 163.694595 
L 297.249587 163.42659 
L 301.34876 164.177003 
L 305.447934 167.393058 
L 309.547107 162.193769 
L 313.646281 164.0162 
L 317.745455 165.677829 
L 321.844628 165.517026 
L 325.943802 166.803448 
L 330.042975 164.60581 
L 334.142149 167.232255 
L 338.241322 166.96425 
L 342.340496 167.50026 
L 346.439669 168.411475 
L 350.538843 169.26909 
L 354.638017 168.411475 
L 358.73719 173.289158 
L 362.836364 171.520328 
L 366.935537 169.429892 
L 371.034711 169.054686 
L 375.133884 168.572278 
L 379.233058 169.644296 
L 383.332231 167.768264 
L 387.431405 172.002736 
L 391.530579 169.965902 
L 395.629752 171.305924 
L 399.728926 167.50026 
L 403.828099 169.054686 
L 407.927273 172.538745 
L 412.026446 170.984319 
L 416.12562 175.862002 
L 420.224793 170.341108 
L 424.323967 173.235557 
L 428.42314 172.913952 
L 432.522314 173.181956 
L 436.621488 174.897185 
L 440.720661 173.289158 
L 444.819835 170.126704 
L 448.919008 174.093172 
L 453.018182 170.877117 
L 457.117355 176.130006 
L 461.216529 175.486796 
L 465.315702 173.289158 
L 469.414876 174.629181 
L 473.51405 173.610764 
L 477.613223 174.629181 
L 481.712397 173.878768 
L 485.81157 175.540396 
L 489.910744 174.950786 
L 494.009917 177.362827 
L 498.109091 180.203676 
" clip-path="url(#p2a92d15ffd)" style="fill: none; stroke-dasharray: 5.55,2.4; stroke-dashoffset: 0; stroke: #0000ff; stroke-width: 1.5"/>
   </g>
   <g id="line2d_25">
    <path d="M 92.290909 214.222138 
L 96.390083 175.993324 
L 100.489256 166.541982 
L 104.58843 145.691442 
L 108.687603 141.423094 
L 112.786777 128.279293 
L 116.88595 133.631665 
L 120.985124 127.347709 
L 125.084298 120.530209 
L 129.183471 118.616227 
L 133.282645 120.852029 
L 137.381818 111.273653 
L 141.480992 109.359671 
L 145.580165 101.788435 
L 149.679339 102.770833 
L 153.778512 100.331777 
L 157.877686 102.135662 
L 161.97686 95.57223 
L 166.076033 96.385249 
L 170.175207 91.270007 
L 174.27438 95.479072 
L 178.373554 89.262867 
L 182.472727 89.449184 
L 186.571901 87.357354 
L 190.671074 87.39123 
L 194.770248 85.926103 
L 198.869421 88.153435 
L 202.968595 83.393889 
L 207.067769 82.851876 
L 211.166942 79.074727 
L 215.266116 78.964631 
L 219.365289 77.728165 
L 223.464463 76.203755 
L 227.563636 74.382932 
L 231.66281 74.027236 
L 235.761983 71.782966 
L 239.861157 72.443544 
L 243.960331 72.731488 
L 248.059504 70.732817 
L 252.158678 68.505485 
L 256.257851 68.420795 
L 260.357025 69.648792 
L 264.456198 65.532885 
L 268.555372 67.74328 
L 272.654545 68.53936 
L 276.753719 64.753742 
L 280.852893 68.166727 
L 284.952066 62.416314 
L 289.05124 68.217541 
L 293.150413 67.616246 
L 297.249587 62.704258 
L 301.34876 62.221528 
L 305.447934 64.889246 
L 309.547107 58.131028 
L 313.646281 59.367494 
L 317.745455 57.699112 
L 321.844628 59.130363 
L 325.943802 59.045674 
L 330.042975 58.867826 
L 334.142149 60.332954 
L 338.241322 57.970118 
L 342.340496 56.073075 
L 346.439669 59.291273 
L 350.538843 55.166898 
L 354.638017 60.544677 
L 358.73719 58.698447 
L 362.836364 57.182506 
L 366.935537 52.592339 
L 371.034711 53.693301 
L 375.133884 54.650292 
L 379.233058 53.684832 
L 383.332231 53.930432 
L 387.431405 52.58387 
L 391.530579 53.329137 
L 395.629752 52.914158 
L 399.728926 54.303065 
L 403.828099 51.330466 
L 407.927273 50.585199 
L 412.026446 51.550658 
L 416.12562 52.092671 
L 420.224793 53.591674 
L 424.323967 55.641158 
L 428.42314 51.94023 
L 432.522314 51.415155 
L 436.621488 48.146143 
L 440.720661 47.798916 
L 444.819835 48.916817 
L 448.919008 52.821 
L 453.018182 47.036711 
L 457.117355 46.477761 
L 461.216529 48.417149 
L 465.315702 48.33246 
L 469.414876 49.357202 
L 473.51405 46.655609 
L 477.613223 52.854876 
L 481.712397 45.258233 
L 485.81157 46.791112 
L 489.910744 45.893404 
L 494.009917 47.146807 
L 498.109091 44.64 
" clip-path="url(#p2a92d15ffd)" style="fill: none; stroke: #ff0000; stroke-width: 1.5; stroke-linecap: square"/>
   </g>
   <g id="line2d_26">
    <path d="M 92.290909 219.439544 
L 96.390083 184.062942 
L 100.489256 180.739685 
L 104.58843 162.83698 
L 108.687603 161.979366 
L 112.786777 152.2776 
L 116.88595 160.800145 
L 120.985124 155.440054 
L 125.084298 152.492004 
L 129.183471 152.170399 
L 133.282645 158.870513 
L 137.381818 151.366385 
L 141.480992 150.240766 
L 145.580165 147.667922 
L 149.679339 151.259183 
L 153.778512 149.061546 
L 157.877686 151.527188 
L 161.97686 149.222348 
L 166.076033 152.920811 
L 170.175207 148.311133 
L 174.27438 156.94088 
L 178.373554 153.242417 
L 182.472727 153.778426 
L 186.571901 154.850444 
L 190.671074 153.135215 
L 194.770248 154.904045 
L 198.869421 158.763311 
L 202.968595 155.922462 
L 207.067769 157.101683 
L 211.166942 155.654458 
L 215.266116 156.029664 
L 219.365289 158.70971 
L 223.464463 158.656109 
L 227.563636 155.76166 
L 231.66281 156.672875 
L 235.761983 156.726476 
L 239.861157 157.584091 
L 243.960331 158.977714 
L 248.059504 158.1201 
L 252.158678 157.852095 
L 256.257851 158.334504 
L 260.357025 160.585742 
L 264.456198 158.602508 
L 268.555372 161.06815 
L 272.654545 161.228953 
L 276.753719 160.853746 
L 280.852893 160.156935 
L 284.952066 160.103334 
L 289.05124 165.570627 
L 293.150413 164.069801 
L 297.249587 161.496957 
L 301.34876 164.123402 
L 305.447934 161.014549 
L 309.547107 160.424939 
L 313.646281 161.65776 
L 317.745455 160.960948 
L 321.844628 164.069801 
L 325.943802 165.731429 
L 330.042975 162.354572 
L 334.142149 163.42659 
L 338.241322 164.0162 
L 342.340496 162.622577 
L 346.439669 166.96425 
L 350.538843 166.213838 
L 354.638017 166.642645 
L 358.73719 168.250672 
L 362.836364 167.071452 
L 366.935537 166.267439 
L 371.034711 163.265787 
L 375.133884 169.965902 
L 379.233058 165.517026 
L 383.332231 167.607461 
L 387.431405 167.929067 
L 391.530579 168.250672 
L 395.629752 169.537094 
L 399.728926 169.912301 
L 403.828099 167.071452 
L 407.927273 167.446659 
L 412.026446 167.285856 
L 416.12562 170.287507 
L 420.224793 171.573929 
L 424.323967 172.21714 
L 428.42314 169.429892 
L 432.522314 168.625879 
L 436.621488 167.55386 
L 440.720661 167.50026 
L 444.819835 168.304273 
L 448.919008 172.699548 
L 453.018182 167.929067 
L 457.117355 169.483493 
L 461.216529 170.823516 
L 465.315702 167.875466 
L 469.414876 169.644296 
L 473.51405 173.128355 
L 477.613223 174.843585 
L 481.712397 168.411475 
L 485.81157 172.002736 
L 489.910744 167.393058 
L 494.009917 169.697897 
L 498.109091 168.893883 
" clip-path="url(#p2a92d15ffd)" style="fill: none; stroke-dasharray: 5.55,2.4; stroke-dashoffset: 0; stroke: #ff0000; stroke-width: 1.5"/>
   </g>
   <g id="line2d_27">
    <path d="M 92.290909 202.662029 
L 96.390083 166.330259 
L 100.489256 160.181805 
L 104.58843 140.889551 
L 108.687603 137.654414 
L 112.786777 128.61805 
L 116.88595 118.844889 
L 120.985124 118.523069 
L 125.084298 120.868967 
L 129.183471 108.377274 
L 133.282645 113.585675 
L 137.381818 107.369469 
L 141.480992 101.221016 
L 145.580165 98.002817 
L 149.679339 101.085513 
L 153.778512 96.486876 
L 157.877686 93.150112 
L 161.97686 98.307699 
L 166.076033 94.04782 
L 170.175207 85.028395 
L 174.27438 91.015938 
L 178.373554 87.63683 
L 182.472727 83.842743 
L 186.571901 81.014115 
L 190.671074 80.302724 
L 194.770248 80.505979 
L 198.869421 78.456494 
L 202.968595 76.008969 
L 207.067769 75.983562 
L 211.166942 80.988708 
L 215.266116 73.510631 
L 219.365289 69.640323 
L 223.464463 75.365329 
L 227.563636 69.970612 
L 231.66281 69.360848 
L 235.761983 73.383597 
L 239.861157 65.97327 
L 243.960331 70.258556 
L 248.059504 67.726342 
L 252.158678 65.956332 
L 256.257851 68.649457 
L 260.357025 64.660584 
L 264.456198 61.552482 
L 268.555372 61.518606 
L 272.654545 61.450854 
L 276.753719 64.999342 
L 280.852893 61.755736 
L 284.952066 62.92445 
L 289.05124 60.60396 
L 293.150413 67.912659 
L 297.249587 64.186323 
L 301.34876 59.282804 
L 305.447934 58.67304 
L 309.547107 58.579882 
L 313.646281 59.511466 
L 317.745455 56.843749 
L 321.844628 61.975929 
L 325.943802 60.112761 
L 330.042975 57.800739 
L 334.142149 54.430099 
L 338.241322 57.690643 
L 342.340496 57.902367 
L 346.439669 54.929767 
L 350.538843 55.683503 
L 354.638017 55.22618 
L 358.73719 54.929767 
L 362.836364 53.659426 
L 366.935537 54.633354 
L 371.034711 52.685497 
L 375.133884 53.557798 
L 379.233058 51.923292 
L 383.332231 52.202767 
L 387.431405 52.448367 
L 391.530579 50.280317 
L 395.629752 60.536208 
L 399.728926 51.465969 
L 403.828099 50.424289 
L 407.927273 51.593003 
L 412.026446 52.278988 
L 416.12562 49.196292 
L 420.224793 52.236643 
L 424.323967 54.320003 
L 428.42314 51.245776 
L 432.522314 53.100475 
L 436.621488 54.10828 
L 440.720661 46.943553 
L 444.819835 49.975435 
L 448.919008 55.107615 
L 453.018182 50.398882 
L 457.117355 48.137674 
L 461.216529 48.112267 
L 465.315702 48.637342 
L 469.414876 46.579388 
L 473.51405 51.076398 
L 477.613223 49.950028 
L 481.712397 48.535714 
L 485.81157 46.105127 
L 489.910744 47.553317 
L 494.009917 45.732494 
L 498.109091 50.559792 
" clip-path="url(#p2a92d15ffd)" style="fill: none; stroke: #008000; stroke-width: 1.5; stroke-linecap: square"/>
   </g>
   <g id="line2d_28">
    <path d="M 92.290909 208.451357 
L 96.390083 177.684433 
L 100.489256 174.200374 
L 104.58843 159.084916 
L 108.687603 159.942531 
L 112.786777 153.028013 
L 116.88595 146.810307 
L 120.985124 148.686339 
L 125.084298 154.528839 
L 129.183471 146.3815 
L 133.282645 155.493655 
L 137.381818 151.044779 
L 141.480992 146.488702 
L 145.580165 148.096729 
L 149.679339 153.188816 
L 153.778512 149.91916 
L 157.877686 149.490353 
L 161.97686 155.976063 
L 166.076033 154.528839 
L 170.175207 146.649505 
L 174.27438 153.188816 
L 178.373554 154.421637 
L 182.472727 152.760009 
L 186.571901 149.704757 
L 190.671074 153.028013 
L 194.770248 156.136866 
L 198.869421 151.312784 
L 202.968595 150.347968 
L 207.067769 151.848793 
L 211.166942 159.352921 
L 215.266116 154.850444 
L 219.365289 152.760009 
L 223.464463 154.314435 
L 227.563636 155.547256 
L 231.66281 156.512072 
L 235.761983 157.369687 
L 239.861157 155.440054 
L 243.960331 157.369687 
L 248.059504 156.512072 
L 252.158678 157.905696 
L 256.257851 160.692944 
L 260.357025 156.780077 
L 264.456198 157.423288 
L 268.555372 155.332852 
L 272.654545 158.763311 
L 276.753719 160.264136 
L 280.852893 160.47854 
L 284.952066 161.550558 
L 289.05124 160.317737 
L 293.150413 162.140168 
L 297.249587 160.156935 
L 301.34876 159.29932 
L 305.447934 158.441705 
L 309.547107 159.996132 
L 313.646281 157.691293 
L 317.745455 158.924114 
L 321.844628 163.855398 
L 325.943802 161.496957 
L 330.042975 160.907347 
L 334.142149 158.763311 
L 338.241322 159.567325 
L 342.340496 160.47854 
L 346.439669 160.47854 
L 350.538843 159.406522 
L 354.638017 160.853746 
L 358.73719 165.19542 
L 362.836364 162.032966 
L 366.935537 161.282554 
L 371.034711 160.103334 
L 375.133884 158.924114 
L 379.233058 162.890581 
L 383.332231 162.24737 
L 387.431405 162.783379 
L 391.530579 160.800145 
L 395.629752 165.088218 
L 399.728926 159.674526 
L 403.828099 163.640994 
L 407.927273 163.962599 
L 412.026446 165.034618 
L 416.12562 161.443356 
L 420.224793 161.443356 
L 424.323967 166.481842 
L 428.42314 164.177003 
L 432.522314 166.589044 
L 436.621488 164.391407 
L 440.720661 162.622577 
L 444.819835 165.677829 
L 448.919008 164.177003 
L 453.018182 166.91065 
L 457.117355 162.997783 
L 461.216529 160.210535 
L 465.315702 162.515375 
L 469.414876 161.228953 
L 473.51405 161.496957 
L 477.613223 166.106636 
L 481.712397 163.319388 
L 485.81157 161.121751 
L 489.910744 163.42659 
L 494.009917 162.032966 
L 498.109091 164.60581 
" clip-path="url(#p2a92d15ffd)" style="fill: none; stroke-dasharray: 5.55,2.4; stroke-dashoffset: 0; stroke: #008000; stroke-width: 1.5"/>
   </g>
   <g id="patch_3">
    <path d="M 72 256.32 
L 72 34.56 
" style="fill: none; stroke: #ffffff; stroke-linejoin: miter; stroke-linecap: square"/>
   </g>
   <g id="patch_4">
    <path d="M 518.4 256.32 
L 518.4 34.56 
" style="fill: none; stroke: #ffffff; stroke-linejoin: miter; stroke-linecap: square"/>
   </g>
   <g id="patch_5">
    <path d="M 72 256.32 
L 518.4 256.32 
" style="fill: none; stroke: #ffffff; stroke-linejoin: miter; stroke-linecap: square"/>
   </g>
   <g id="patch_6">
    <path d="M 72 34.56 
L 518.4 34.56 
" style="fill: none; stroke: #ffffff; stroke-linejoin: miter; stroke-linecap: square"/>
   </g>
   <g id="text_14">
    <!-- Accuracy Performances across Different Network Depths -->
    <g transform="translate(91.036125 28.56) scale(0.144 -0.144)">
     <defs>
      <path id="DejaVuSans-50" d="M 1259 4147 
L 1259 2394 
L 2053 2394 
Q 2494 2394 2734 2622 
Q 2975 2850 2975 3272 
Q 2975 3691 2734 3919 
Q 2494 4147 2053 4147 
L 1259 4147 
z
M 628 4666 
L 2053 4666 
Q 2838 4666 3239 4311 
Q 3641 3956 3641 3272 
Q 3641 2581 3239 2228 
Q 2838 1875 2053 1875 
L 1259 1875 
L 1259 0 
L 628 0 
L 628 4666 
z
" transform="scale(0.015625)"/>
      <path id="DejaVuSans-66" d="M 2375 4863 
L 2375 4384 
L 1825 4384 
Q 1516 4384 1395 4259 
Q 1275 4134 1275 3809 
L 1275 3500 
L 2222 3500 
L 2222 3053 
L 1275 3053 
L 1275 0 
L 697 0 
L 697 3053 
L 147 3053 
L 147 3500 
L 697 3500 
L 697 3744 
Q 697 4328 969 4595 
Q 1241 4863 1831 4863 
L 2375 4863 
z
" transform="scale(0.015625)"/>
      <path id="DejaVuSans-73" d="M 2834 3397 
L 2834 2853 
Q 2591 2978 2328 3040 
Q 2066 3103 1784 3103 
Q 1356 3103 1142 2972 
Q 928 2841 928 2578 
Q 928 2378 1081 2264 
Q 1234 2150 1697 2047 
L 1894 2003 
Q 2506 1872 2764 1633 
Q 3022 1394 3022 966 
Q 3022 478 2636 193 
Q 2250 -91 1575 -91 
Q 1294 -91 989 -36 
Q 684 19 347 128 
L 347 722 
Q 666 556 975 473 
Q 1284 391 1588 391 
Q 1994 391 2212 530 
Q 2431 669 2431 922 
Q 2431 1156 2273 1281 
Q 2116 1406 1581 1522 
L 1381 1569 
Q 847 1681 609 1914 
Q 372 2147 372 2553 
Q 372 3047 722 3315 
Q 1072 3584 1716 3584 
Q 2034 3584 2315 3537 
Q 2597 3491 2834 3397 
z
" transform="scale(0.015625)"/>
      <path id="DejaVuSans-44" d="M 1259 4147 
L 1259 519 
L 2022 519 
Q 2988 519 3436 956 
Q 3884 1394 3884 2338 
Q 3884 3275 3436 3711 
Q 2988 4147 2022 4147 
L 1259 4147 
z
M 628 4666 
L 1925 4666 
Q 3281 4666 3915 4102 
Q 4550 3538 4550 2338 
Q 4550 1131 3912 565 
Q 3275 0 1925 0 
L 628 0 
L 628 4666 
z
" transform="scale(0.015625)"/>
      <path id="DejaVuSans-69" d="M 603 3500 
L 1178 3500 
L 1178 0 
L 603 0 
L 603 3500 
z
M 603 4863 
L 1178 4863 
L 1178 4134 
L 603 4134 
L 603 4863 
z
" transform="scale(0.015625)"/>
      <path id="DejaVuSans-74" d="M 1172 4494 
L 1172 3500 
L 2356 3500 
L 2356 3053 
L 1172 3053 
L 1172 1153 
Q 1172 725 1289 603 
Q 1406 481 1766 481 
L 2356 481 
L 2356 0 
L 1766 0 
Q 1100 0 847 248 
Q 594 497 594 1153 
L 594 3053 
L 172 3053 
L 172 3500 
L 594 3500 
L 594 4494 
L 1172 4494 
z
" transform="scale(0.015625)"/>
      <path id="DejaVuSans-4e" d="M 628 4666 
L 1478 4666 
L 3547 763 
L 3547 4666 
L 4159 4666 
L 4159 0 
L 3309 0 
L 1241 3903 
L 1241 0 
L 628 0 
L 628 4666 
z
" transform="scale(0.015625)"/>
      <path id="DejaVuSans-77" d="M 269 3500 
L 844 3500 
L 1563 769 
L 2278 3500 
L 2956 3500 
L 3675 769 
L 4391 3500 
L 4966 3500 
L 4050 0 
L 3372 0 
L 2619 2869 
L 1863 0 
L 1184 0 
L 269 3500 
z
" transform="scale(0.015625)"/>
      <path id="DejaVuSans-6b" d="M 581 4863 
L 1159 4863 
L 1159 1991 
L 2875 3500 
L 3609 3500 
L 1753 1863 
L 3688 0 
L 2938 0 
L 1159 1709 
L 1159 0 
L 581 0 
L 581 4863 
z
" transform="scale(0.015625)"/>
     </defs>
     <use xlink:href="#DejaVuSans-41"/>
     <use xlink:href="#DejaVuSans-63" x="66.658203"/>
     <use xlink:href="#DejaVuSans-63" x="121.638672"/>
     <use xlink:href="#DejaVuSans-75" x="176.619141"/>
     <use xlink:href="#DejaVuSans-72" x="239.998047"/>
     <use xlink:href="#DejaVuSans-61" x="281.111328"/>
     <use xlink:href="#DejaVuSans-63" x="342.390625"/>
     <use xlink:href="#DejaVuSans-79" x="397.371094"/>
     <use xlink:href="#DejaVuSans-20" x="456.550781"/>
     <use xlink:href="#DejaVuSans-50" x="488.337891"/>
     <use xlink:href="#DejaVuSans-65" x="545.015625"/>
     <use xlink:href="#DejaVuSans-72" x="606.539062"/>
     <use xlink:href="#DejaVuSans-66" x="647.652344"/>
     <use xlink:href="#DejaVuSans-6f" x="682.857422"/>
     <use xlink:href="#DejaVuSans-72" x="744.039062"/>
     <use xlink:href="#DejaVuSans-6d" x="783.402344"/>
     <use xlink:href="#DejaVuSans-61" x="880.814453"/>
     <use xlink:href="#DejaVuSans-6e" x="942.09375"/>
     <use xlink:href="#DejaVuSans-63" x="1005.472656"/>
     <use xlink:href="#DejaVuSans-65" x="1060.453125"/>
     <use xlink:href="#DejaVuSans-73" x="1121.976562"/>
     <use xlink:href="#DejaVuSans-20" x="1174.076172"/>
     <use xlink:href="#DejaVuSans-61" x="1205.863281"/>
     <use xlink:href="#DejaVuSans-63" x="1267.142578"/>
     <use xlink:href="#DejaVuSans-72" x="1322.123047"/>
     <use xlink:href="#DejaVuSans-6f" x="1360.986328"/>
     <use xlink:href="#DejaVuSans-73" x="1422.167969"/>
     <use xlink:href="#DejaVuSans-73" x="1474.267578"/>
     <use xlink:href="#DejaVuSans-20" x="1526.367188"/>
     <use xlink:href="#DejaVuSans-44" x="1558.154297"/>
     <use xlink:href="#DejaVuSans-69" x="1635.15625"/>
     <use xlink:href="#DejaVuSans-66" x="1662.939453"/>
     <use xlink:href="#DejaVuSans-66" x="1698.144531"/>
     <use xlink:href="#DejaVuSans-65" x="1733.349609"/>
     <use xlink:href="#DejaVuSans-72" x="1794.873047"/>
     <use xlink:href="#DejaVuSans-65" x="1833.736328"/>
     <use xlink:href="#DejaVuSans-6e" x="1895.259766"/>
     <use xlink:href="#DejaVuSans-74" x="1958.638672"/>
     <use xlink:href="#DejaVuSans-20" x="1997.847656"/>
     <use xlink:href="#DejaVuSans-4e" x="2029.634766"/>
     <use xlink:href="#DejaVuSans-65" x="2104.439453"/>
     <use xlink:href="#DejaVuSans-74" x="2165.962891"/>
     <use xlink:href="#DejaVuSans-77" x="2205.171875"/>
     <use xlink:href="#DejaVuSans-6f" x="2286.958984"/>
     <use xlink:href="#DejaVuSans-72" x="2348.140625"/>
     <use xlink:href="#DejaVuSans-6b" x="2389.253906"/>
     <use xlink:href="#DejaVuSans-20" x="2447.164062"/>
     <use xlink:href="#DejaVuSans-44" x="2478.951172"/>
     <use xlink:href="#DejaVuSans-65" x="2555.953125"/>
     <use xlink:href="#DejaVuSans-70" x="2617.476562"/>
     <use xlink:href="#DejaVuSans-74" x="2680.953125"/>
     <use xlink:href="#DejaVuSans-68" x="2720.162109"/>
     <use xlink:href="#DejaVuSans-73" x="2783.541016"/>
    </g>
   </g>
   <g id="legend_1">
    <g id="patch_7">
     <path d="M 218.80625 252.32 
L 371.59375 252.32 
Q 373.19375 252.32 373.19375 250.72 
L 373.19375 181.065 
Q 373.19375 179.465 371.59375 179.465 
L 218.80625 179.465 
Q 217.20625 179.465 217.20625 181.065 
L 217.20625 250.72 
Q 217.20625 252.32 218.80625 252.32 
z
" style="fill: #e5e5e5; opacity: 0.8; stroke: #cccccc; stroke-width: 0.5; stroke-linejoin: miter"/>
    </g>
    <g id="line2d_29">
     <path d="M 220.40625 185.94375 
L 228.40625 185.94375 
L 236.40625 185.94375 
" style="fill: none; stroke: #0000ff; stroke-width: 1.5; stroke-linecap: square"/>
    </g>
    <g id="text_15">
     <!-- Accuracy Train - 1 Hidden Layer -->
     <g transform="translate(242.80625 188.74375) scale(0.08 -0.08)">
      <defs>
       <path id="DejaVuSans-54" d="M -19 4666 
L 3928 4666 
L 3928 4134 
L 2272 4134 
L 2272 0 
L 1638 0 
L 1638 4134 
L -19 4134 
L -19 4666 
z
" transform="scale(0.015625)"/>
       <path id="DejaVuSans-2d" d="M 313 2009 
L 1997 2009 
L 1997 1497 
L 313 1497 
L 313 2009 
z
" transform="scale(0.015625)"/>
       <path id="DejaVuSans-48" d="M 628 4666 
L 1259 4666 
L 1259 2753 
L 3553 2753 
L 3553 4666 
L 4184 4666 
L 4184 0 
L 3553 0 
L 3553 2222 
L 1259 2222 
L 1259 0 
L 628 0 
L 628 4666 
z
" transform="scale(0.015625)"/>
       <path id="DejaVuSans-64" d="M 2906 2969 
L 2906 4863 
L 3481 4863 
L 3481 0 
L 2906 0 
L 2906 525 
Q 2725 213 2448 61 
Q 2172 -91 1784 -91 
Q 1150 -91 751 415 
Q 353 922 353 1747 
Q 353 2572 751 3078 
Q 1150 3584 1784 3584 
Q 2172 3584 2448 3432 
Q 2725 3281 2906 2969 
z
M 947 1747 
Q 947 1113 1208 752 
Q 1469 391 1925 391 
Q 2381 391 2643 752 
Q 2906 1113 2906 1747 
Q 2906 2381 2643 2742 
Q 2381 3103 1925 3103 
Q 1469 3103 1208 2742 
Q 947 2381 947 1747 
z
" transform="scale(0.015625)"/>
       <path id="DejaVuSans-4c" d="M 628 4666 
L 1259 4666 
L 1259 531 
L 3531 531 
L 3531 0 
L 628 0 
L 628 4666 
z
" transform="scale(0.015625)"/>
      </defs>
      <use xlink:href="#DejaVuSans-41"/>
      <use xlink:href="#DejaVuSans-63" x="66.658203"/>
      <use xlink:href="#DejaVuSans-63" x="121.638672"/>
      <use xlink:href="#DejaVuSans-75" x="176.619141"/>
      <use xlink:href="#DejaVuSans-72" x="239.998047"/>
      <use xlink:href="#DejaVuSans-61" x="281.111328"/>
      <use xlink:href="#DejaVuSans-63" x="342.390625"/>
      <use xlink:href="#DejaVuSans-79" x="397.371094"/>
      <use xlink:href="#DejaVuSans-20" x="456.550781"/>
      <use xlink:href="#DejaVuSans-54" x="488.337891"/>
      <use xlink:href="#DejaVuSans-72" x="534.671875"/>
      <use xlink:href="#DejaVuSans-61" x="575.785156"/>
      <use xlink:href="#DejaVuSans-69" x="637.064453"/>
      <use xlink:href="#DejaVuSans-6e" x="664.847656"/>
      <use xlink:href="#DejaVuSans-20" x="728.226562"/>
      <use xlink:href="#DejaVuSans-2d" x="760.013672"/>
      <use xlink:href="#DejaVuSans-20" x="796.097656"/>
      <use xlink:href="#DejaVuSans-31" x="827.884766"/>
      <use xlink:href="#DejaVuSans-20" x="891.507812"/>
      <use xlink:href="#DejaVuSans-48" x="923.294922"/>
      <use xlink:href="#DejaVuSans-69" x="998.490234"/>
      <use xlink:href="#DejaVuSans-64" x="1026.273438"/>
      <use xlink:href="#DejaVuSans-64" x="1089.75"/>
      <use xlink:href="#DejaVuSans-65" x="1153.226562"/>
      <use xlink:href="#DejaVuSans-6e" x="1214.75"/>
      <use xlink:href="#DejaVuSans-20" x="1278.128906"/>
      <use xlink:href="#DejaVuSans-4c" x="1309.916016"/>
      <use xlink:href="#DejaVuSans-61" x="1365.628906"/>
      <use xlink:href="#DejaVuSans-79" x="1426.908203"/>
      <use xlink:href="#DejaVuSans-65" x="1486.087891"/>
      <use xlink:href="#DejaVuSans-72" x="1547.611328"/>
     </g>
    </g>
    <g id="line2d_30">
     <path d="M 220.40625 197.68625 
L 228.40625 197.68625 
L 236.40625 197.68625 
" style="fill: none; stroke-dasharray: 5.55,2.4; stroke-dashoffset: 0; stroke: #0000ff; stroke-width: 1.5"/>
    </g>
    <g id="text_16">
     <!-- Accuracy Valid - 1 Hidden Layer -->
     <g transform="translate(242.80625 200.48625) scale(0.08 -0.08)">
      <defs>
       <path id="DejaVuSans-56" d="M 1831 0 
L 50 4666 
L 709 4666 
L 2188 738 
L 3669 4666 
L 4325 4666 
L 2547 0 
L 1831 0 
z
" transform="scale(0.015625)"/>
       <path id="DejaVuSans-6c" d="M 603 4863 
L 1178 4863 
L 1178 0 
L 603 0 
L 603 4863 
z
" transform="scale(0.015625)"/>
      </defs>
      <use xlink:href="#DejaVuSans-41"/>
      <use xlink:href="#DejaVuSans-63" x="66.658203"/>
      <use xlink:href="#DejaVuSans-63" x="121.638672"/>
      <use xlink:href="#DejaVuSans-75" x="176.619141"/>
      <use xlink:href="#DejaVuSans-72" x="239.998047"/>
      <use xlink:href="#DejaVuSans-61" x="281.111328"/>
      <use xlink:href="#DejaVuSans-63" x="342.390625"/>
      <use xlink:href="#DejaVuSans-79" x="397.371094"/>
      <use xlink:href="#DejaVuSans-20" x="456.550781"/>
      <use xlink:href="#DejaVuSans-56" x="488.337891"/>
      <use xlink:href="#DejaVuSans-61" x="548.996094"/>
      <use xlink:href="#DejaVuSans-6c" x="610.275391"/>
      <use xlink:href="#DejaVuSans-69" x="638.058594"/>
      <use xlink:href="#DejaVuSans-64" x="665.841797"/>
      <use xlink:href="#DejaVuSans-20" x="729.318359"/>
      <use xlink:href="#DejaVuSans-2d" x="761.105469"/>
      <use xlink:href="#DejaVuSans-20" x="797.189453"/>
      <use xlink:href="#DejaVuSans-31" x="828.976562"/>
      <use xlink:href="#DejaVuSans-20" x="892.599609"/>
      <use xlink:href="#DejaVuSans-48" x="924.386719"/>
      <use xlink:href="#DejaVuSans-69" x="999.582031"/>
      <use xlink:href="#DejaVuSans-64" x="1027.365234"/>
      <use xlink:href="#DejaVuSans-64" x="1090.841797"/>
      <use xlink:href="#DejaVuSans-65" x="1154.318359"/>
      <use xlink:href="#DejaVuSans-6e" x="1215.841797"/>
      <use xlink:href="#DejaVuSans-20" x="1279.220703"/>
      <use xlink:href="#DejaVuSans-4c" x="1311.007812"/>
      <use xlink:href="#DejaVuSans-61" x="1366.720703"/>
      <use xlink:href="#DejaVuSans-79" x="1428"/>
      <use xlink:href="#DejaVuSans-65" x="1487.179688"/>
      <use xlink:href="#DejaVuSans-72" x="1548.703125"/>
     </g>
    </g>
    <g id="line2d_31">
     <path d="M 220.40625 209.42875 
L 228.40625 209.42875 
L 236.40625 209.42875 
" style="fill: none; stroke: #ff0000; stroke-width: 1.5; stroke-linecap: square"/>
    </g>
    <g id="text_17">
     <!-- Accuracy Train - 2 Hidden Layer -->
     <g transform="translate(242.80625 212.22875) scale(0.08 -0.08)">
      <use xlink:href="#DejaVuSans-41"/>
      <use xlink:href="#DejaVuSans-63" x="66.658203"/>
      <use xlink:href="#DejaVuSans-63" x="121.638672"/>
      <use xlink:href="#DejaVuSans-75" x="176.619141"/>
      <use xlink:href="#DejaVuSans-72" x="239.998047"/>
      <use xlink:href="#DejaVuSans-61" x="281.111328"/>
      <use xlink:href="#DejaVuSans-63" x="342.390625"/>
      <use xlink:href="#DejaVuSans-79" x="397.371094"/>
      <use xlink:href="#DejaVuSans-20" x="456.550781"/>
      <use xlink:href="#DejaVuSans-54" x="488.337891"/>
      <use xlink:href="#DejaVuSans-72" x="534.671875"/>
      <use xlink:href="#DejaVuSans-61" x="575.785156"/>
      <use xlink:href="#DejaVuSans-69" x="637.064453"/>
      <use xlink:href="#DejaVuSans-6e" x="664.847656"/>
      <use xlink:href="#DejaVuSans-20" x="728.226562"/>
      <use xlink:href="#DejaVuSans-2d" x="760.013672"/>
      <use xlink:href="#DejaVuSans-20" x="796.097656"/>
      <use xlink:href="#DejaVuSans-32" x="827.884766"/>
      <use xlink:href="#DejaVuSans-20" x="891.507812"/>
      <use xlink:href="#DejaVuSans-48" x="923.294922"/>
      <use xlink:href="#DejaVuSans-69" x="998.490234"/>
      <use xlink:href="#DejaVuSans-64" x="1026.273438"/>
      <use xlink:href="#DejaVuSans-64" x="1089.75"/>
      <use xlink:href="#DejaVuSans-65" x="1153.226562"/>
      <use xlink:href="#DejaVuSans-6e" x="1214.75"/>
      <use xlink:href="#DejaVuSans-20" x="1278.128906"/>
      <use xlink:href="#DejaVuSans-4c" x="1309.916016"/>
      <use xlink:href="#DejaVuSans-61" x="1365.628906"/>
      <use xlink:href="#DejaVuSans-79" x="1426.908203"/>
      <use xlink:href="#DejaVuSans-65" x="1486.087891"/>
      <use xlink:href="#DejaVuSans-72" x="1547.611328"/>
     </g>
    </g>
    <g id="line2d_32">
     <path d="M 220.40625 221.17125 
L 228.40625 221.17125 
L 236.40625 221.17125 
" style="fill: none; stroke-dasharray: 5.55,2.4; stroke-dashoffset: 0; stroke: #ff0000; stroke-width: 1.5"/>
    </g>
    <g id="text_18">
     <!-- Accuracy Valid - 2 Hidden Layer -->
     <g transform="translate(242.80625 223.97125) scale(0.08 -0.08)">
      <use xlink:href="#DejaVuSans-41"/>
      <use xlink:href="#DejaVuSans-63" x="66.658203"/>
      <use xlink:href="#DejaVuSans-63" x="121.638672"/>
      <use xlink:href="#DejaVuSans-75" x="176.619141"/>
      <use xlink:href="#DejaVuSans-72" x="239.998047"/>
      <use xlink:href="#DejaVuSans-61" x="281.111328"/>
      <use xlink:href="#DejaVuSans-63" x="342.390625"/>
      <use xlink:href="#DejaVuSans-79" x="397.371094"/>
      <use xlink:href="#DejaVuSans-20" x="456.550781"/>
      <use xlink:href="#DejaVuSans-56" x="488.337891"/>
      <use xlink:href="#DejaVuSans-61" x="548.996094"/>
      <use xlink:href="#DejaVuSans-6c" x="610.275391"/>
      <use xlink:href="#DejaVuSans-69" x="638.058594"/>
      <use xlink:href="#DejaVuSans-64" x="665.841797"/>
      <use xlink:href="#DejaVuSans-20" x="729.318359"/>
      <use xlink:href="#DejaVuSans-2d" x="761.105469"/>
      <use xlink:href="#DejaVuSans-20" x="797.189453"/>
      <use xlink:href="#DejaVuSans-32" x="828.976562"/>
      <use xlink:href="#DejaVuSans-20" x="892.599609"/>
      <use xlink:href="#DejaVuSans-48" x="924.386719"/>
      <use xlink:href="#DejaVuSans-69" x="999.582031"/>
      <use xlink:href="#DejaVuSans-64" x="1027.365234"/>
      <use xlink:href="#DejaVuSans-64" x="1090.841797"/>
      <use xlink:href="#DejaVuSans-65" x="1154.318359"/>
      <use xlink:href="#DejaVuSans-6e" x="1215.841797"/>
      <use xlink:href="#DejaVuSans-20" x="1279.220703"/>
      <use xlink:href="#DejaVuSans-4c" x="1311.007812"/>
      <use xlink:href="#DejaVuSans-61" x="1366.720703"/>
      <use xlink:href="#DejaVuSans-79" x="1428"/>
      <use xlink:href="#DejaVuSans-65" x="1487.179688"/>
      <use xlink:href="#DejaVuSans-72" x="1548.703125"/>
     </g>
    </g>
    <g id="line2d_33">
     <path d="M 220.40625 232.91375 
L 228.40625 232.91375 
L 236.40625 232.91375 
" style="fill: none; stroke: #008000; stroke-width: 1.5; stroke-linecap: square"/>
    </g>
    <g id="text_19">
     <!-- Accuracy Train - 3 Hidden Layer -->
     <g transform="translate(242.80625 235.71375) scale(0.08 -0.08)">
      <defs>
       <path id="DejaVuSans-33" d="M 2597 2516 
Q 3050 2419 3304 2112 
Q 3559 1806 3559 1356 
Q 3559 666 3084 287 
Q 2609 -91 1734 -91 
Q 1441 -91 1130 -33 
Q 819 25 488 141 
L 488 750 
Q 750 597 1062 519 
Q 1375 441 1716 441 
Q 2309 441 2620 675 
Q 2931 909 2931 1356 
Q 2931 1769 2642 2001 
Q 2353 2234 1838 2234 
L 1294 2234 
L 1294 2753 
L 1863 2753 
Q 2328 2753 2575 2939 
Q 2822 3125 2822 3475 
Q 2822 3834 2567 4026 
Q 2313 4219 1838 4219 
Q 1578 4219 1281 4162 
Q 984 4106 628 3988 
L 628 4550 
Q 988 4650 1302 4700 
Q 1616 4750 1894 4750 
Q 2613 4750 3031 4423 
Q 3450 4097 3450 3541 
Q 3450 3153 3228 2886 
Q 3006 2619 2597 2516 
z
" transform="scale(0.015625)"/>
      </defs>
      <use xlink:href="#DejaVuSans-41"/>
      <use xlink:href="#DejaVuSans-63" x="66.658203"/>
      <use xlink:href="#DejaVuSans-63" x="121.638672"/>
      <use xlink:href="#DejaVuSans-75" x="176.619141"/>
      <use xlink:href="#DejaVuSans-72" x="239.998047"/>
      <use xlink:href="#DejaVuSans-61" x="281.111328"/>
      <use xlink:href="#DejaVuSans-63" x="342.390625"/>
      <use xlink:href="#DejaVuSans-79" x="397.371094"/>
      <use xlink:href="#DejaVuSans-20" x="456.550781"/>
      <use xlink:href="#DejaVuSans-54" x="488.337891"/>
      <use xlink:href="#DejaVuSans-72" x="534.671875"/>
      <use xlink:href="#DejaVuSans-61" x="575.785156"/>
      <use xlink:href="#DejaVuSans-69" x="637.064453"/>
      <use xlink:href="#DejaVuSans-6e" x="664.847656"/>
      <use xlink:href="#DejaVuSans-20" x="728.226562"/>
      <use xlink:href="#DejaVuSans-2d" x="760.013672"/>
      <use xlink:href="#DejaVuSans-20" x="796.097656"/>
      <use xlink:href="#DejaVuSans-33" x="827.884766"/>
      <use xlink:href="#DejaVuSans-20" x="891.507812"/>
      <use xlink:href="#DejaVuSans-48" x="923.294922"/>
      <use xlink:href="#DejaVuSans-69" x="998.490234"/>
      <use xlink:href="#DejaVuSans-64" x="1026.273438"/>
      <use xlink:href="#DejaVuSans-64" x="1089.75"/>
      <use xlink:href="#DejaVuSans-65" x="1153.226562"/>
      <use xlink:href="#DejaVuSans-6e" x="1214.75"/>
      <use xlink:href="#DejaVuSans-20" x="1278.128906"/>
      <use xlink:href="#DejaVuSans-4c" x="1309.916016"/>
      <use xlink:href="#DejaVuSans-61" x="1365.628906"/>
      <use xlink:href="#DejaVuSans-79" x="1426.908203"/>
      <use xlink:href="#DejaVuSans-65" x="1486.087891"/>
      <use xlink:href="#DejaVuSans-72" x="1547.611328"/>
     </g>
    </g>
    <g id="line2d_34">
     <path d="M 220.40625 244.65625 
L 228.40625 244.65625 
L 236.40625 244.65625 
" style="fill: none; stroke-dasharray: 5.55,2.4; stroke-dashoffset: 0; stroke: #008000; stroke-width: 1.5"/>
    </g>
    <g id="text_20">
     <!-- Accuracy Valid - 3 Hidden Layer -->
     <g transform="translate(242.80625 247.45625) scale(0.08 -0.08)">
      <use xlink:href="#DejaVuSans-41"/>
      <use xlink:href="#DejaVuSans-63" x="66.658203"/>
      <use xlink:href="#DejaVuSans-63" x="121.638672"/>
      <use xlink:href="#DejaVuSans-75" x="176.619141"/>
      <use xlink:href="#DejaVuSans-72" x="239.998047"/>
      <use xlink:href="#DejaVuSans-61" x="281.111328"/>
      <use xlink:href="#DejaVuSans-63" x="342.390625"/>
      <use xlink:href="#DejaVuSans-79" x="397.371094"/>
      <use xlink:href="#DejaVuSans-20" x="456.550781"/>
      <use xlink:href="#DejaVuSans-56" x="488.337891"/>
      <use xlink:href="#DejaVuSans-61" x="548.996094"/>
      <use xlink:href="#DejaVuSans-6c" x="610.275391"/>
      <use xlink:href="#DejaVuSans-69" x="638.058594"/>
      <use xlink:href="#DejaVuSans-64" x="665.841797"/>
      <use xlink:href="#DejaVuSans-20" x="729.318359"/>
      <use xlink:href="#DejaVuSans-2d" x="761.105469"/>
      <use xlink:href="#DejaVuSans-20" x="797.189453"/>
      <use xlink:href="#DejaVuSans-33" x="828.976562"/>
      <use xlink:href="#DejaVuSans-20" x="892.599609"/>
      <use xlink:href="#DejaVuSans-48" x="924.386719"/>
      <use xlink:href="#DejaVuSans-69" x="999.582031"/>
      <use xlink:href="#DejaVuSans-64" x="1027.365234"/>
      <use xlink:href="#DejaVuSans-64" x="1090.841797"/>
      <use xlink:href="#DejaVuSans-65" x="1154.318359"/>
      <use xlink:href="#DejaVuSans-6e" x="1215.841797"/>
      <use xlink:href="#DejaVuSans-20" x="1279.220703"/>
      <use xlink:href="#DejaVuSans-4c" x="1311.007812"/>
      <use xlink:href="#DejaVuSans-61" x="1366.720703"/>
      <use xlink:href="#DejaVuSans-79" x="1428"/>
      <use xlink:href="#DejaVuSans-65" x="1487.179688"/>
      <use xlink:href="#DejaVuSans-72" x="1548.703125"/>
     </g>
    </g>
   </g>
  </g>
 </g>
 <defs>
  <clipPath id="p2a92d15ffd">
   <rect x="72" y="34.56" width="446.4" height="221.76"/>
  </clipPath>
 </defs>
</svg>
