<?xml version="1.0" encoding="utf-8" standalone="no"?>
<!DOCTYPE svg PUBLIC "-//W3C//DTD SVG 1.1//EN"
  "http://www.w3.org/Graphics/SVG/1.1/DTD/svg11.dtd">
<svg xmlns:xlink="http://www.w3.org/1999/xlink" width="576pt" height="288pt" viewBox="0 0 576 288" xmlns="http://www.w3.org/2000/svg" version="1.1">
 <metadata>
  <rdf:RDF xmlns:dc="http://purl.org/dc/elements/1.1/" xmlns:cc="http://creativecommons.org/ns#" xmlns:rdf="http://www.w3.org/1999/02/22-rdf-syntax-ns#">
   <cc:Work>
    <dc:type rdf:resource="http://purl.org/dc/dcmitype/StillImage"/>
    <dc:date>2024-10-22T21:52:08.585542</dc:date>
    <dc:format>image/svg+xml</dc:format>
    <dc:creator>
     <cc:Agent>
      <dc:title>Matplotlib v3.9.2, https://matplotlib.org/</dc:title>
     </cc:Agent>
    </dc:creator>
   </cc:Work>
  </rdf:RDF>
 </metadata>
 <defs>
  <style type="text/css">*{stroke-linejoin: round; stroke-linecap: butt}</style>
 </defs>
 <g id="figure_1">
  <g id="patch_1">
   <path d="M 0 288 
L 576 288 
L 576 0 
L 0 0 
z
" style="fill: #ffffff"/>
  </g>
  <g id="axes_1">
   <g id="patch_2">
    <path d="M 72 256.32 
L 518.4 256.32 
L 518.4 34.56 
L 72 34.56 
z
" style="fill: #e5e5e5"/>
   </g>
   <g id="matplotlib.axis_1">
    <g id="xtick_1">
     <g id="line2d_1">
      <path d="M 88.191736 256.32 
L 88.191736 34.56 
" clip-path="url(#p6607b9d518)" style="fill: none; stroke: #ffffff; stroke-width: 0.8; stroke-linecap: square"/>
     </g>
     <g id="line2d_2">
      <defs>
       <path id="m55f9a4d701" d="M 0 0 
L 0 3.5 
" style="stroke: #555555; stroke-width: 0.8"/>
      </defs>
      <g>
       <use xlink:href="#m55f9a4d701" x="88.191736" y="256.32" style="fill: #555555; stroke: #555555; stroke-width: 0.8"/>
      </g>
     </g>
     <g id="text_1">
      <!-- 0 -->
      <g style="fill: #555555" transform="translate(85.010486 270.918437) scale(0.1 -0.1)">
       <defs>
        <path id="DejaVuSans-30" d="M 2034 4250 
Q 1547 4250 1301 3770 
Q 1056 3291 1056 2328 
Q 1056 1369 1301 889 
Q 1547 409 2034 409 
Q 2525 409 2770 889 
Q 3016 1369 3016 2328 
Q 3016 3291 2770 3770 
Q 2525 4250 2034 4250 
z
M 2034 4750 
Q 2819 4750 3233 4129 
Q 3647 3509 3647 2328 
Q 3647 1150 3233 529 
Q 2819 -91 2034 -91 
Q 1250 -91 836 529 
Q 422 1150 422 2328 
Q 422 3509 836 4129 
Q 1250 4750 2034 4750 
z
" transform="scale(0.015625)"/>
       </defs>
       <use xlink:href="#DejaVuSans-30"/>
      </g>
     </g>
    </g>
    <g id="xtick_2">
     <g id="line2d_3">
      <path d="M 170.175207 256.32 
L 170.175207 34.56 
" clip-path="url(#p6607b9d518)" style="fill: none; stroke: #ffffff; stroke-width: 0.8; stroke-linecap: square"/>
     </g>
     <g id="line2d_4">
      <g>
       <use xlink:href="#m55f9a4d701" x="170.175207" y="256.32" style="fill: #555555; stroke: #555555; stroke-width: 0.8"/>
      </g>
     </g>
     <g id="text_2">
      <!-- 20 -->
      <g style="fill: #555555" transform="translate(163.812707 270.918437) scale(0.1 -0.1)">
       <defs>
        <path id="DejaVuSans-32" d="M 1228 531 
L 3431 531 
L 3431 0 
L 469 0 
L 469 531 
Q 828 903 1448 1529 
Q 2069 2156 2228 2338 
Q 2531 2678 2651 2914 
Q 2772 3150 2772 3378 
Q 2772 3750 2511 3984 
Q 2250 4219 1831 4219 
Q 1534 4219 1204 4116 
Q 875 4013 500 3803 
L 500 4441 
Q 881 4594 1212 4672 
Q 1544 4750 1819 4750 
Q 2544 4750 2975 4387 
Q 3406 4025 3406 3419 
Q 3406 3131 3298 2873 
Q 3191 2616 2906 2266 
Q 2828 2175 2409 1742 
Q 1991 1309 1228 531 
z
" transform="scale(0.015625)"/>
       </defs>
       <use xlink:href="#DejaVuSans-32"/>
       <use xlink:href="#DejaVuSans-30" x="63.623047"/>
      </g>
     </g>
    </g>
    <g id="xtick_3">
     <g id="line2d_5">
      <path d="M 252.158678 256.32 
L 252.158678 34.56 
" clip-path="url(#p6607b9d518)" style="fill: none; stroke: #ffffff; stroke-width: 0.8; stroke-linecap: square"/>
     </g>
     <g id="line2d_6">
      <g>
       <use xlink:href="#m55f9a4d701" x="252.158678" y="256.32" style="fill: #555555; stroke: #555555; stroke-width: 0.8"/>
      </g>
     </g>
     <g id="text_3">
      <!-- 40 -->
      <g style="fill: #555555" transform="translate(245.796178 270.918437) scale(0.1 -0.1)">
       <defs>
        <path id="DejaVuSans-34" d="M 2419 4116 
L 825 1625 
L 2419 1625 
L 2419 4116 
z
M 2253 4666 
L 3047 4666 
L 3047 1625 
L 3713 1625 
L 3713 1100 
L 3047 1100 
L 3047 0 
L 2419 0 
L 2419 1100 
L 313 1100 
L 313 1709 
L 2253 4666 
z
" transform="scale(0.015625)"/>
       </defs>
       <use xlink:href="#DejaVuSans-34"/>
       <use xlink:href="#DejaVuSans-30" x="63.623047"/>
      </g>
     </g>
    </g>
    <g id="xtick_4">
     <g id="line2d_7">
      <path d="M 334.142149 256.32 
L 334.142149 34.56 
" clip-path="url(#p6607b9d518)" style="fill: none; stroke: #ffffff; stroke-width: 0.8; stroke-linecap: square"/>
     </g>
     <g id="line2d_8">
      <g>
       <use xlink:href="#m55f9a4d701" x="334.142149" y="256.32" style="fill: #555555; stroke: #555555; stroke-width: 0.8"/>
      </g>
     </g>
     <g id="text_4">
      <!-- 60 -->
      <g style="fill: #555555" transform="translate(327.779649 270.918437) scale(0.1 -0.1)">
       <defs>
        <path id="DejaVuSans-36" d="M 2113 2584 
Q 1688 2584 1439 2293 
Q 1191 2003 1191 1497 
Q 1191 994 1439 701 
Q 1688 409 2113 409 
Q 2538 409 2786 701 
Q 3034 994 3034 1497 
Q 3034 2003 2786 2293 
Q 2538 2584 2113 2584 
z
M 3366 4563 
L 3366 3988 
Q 3128 4100 2886 4159 
Q 2644 4219 2406 4219 
Q 1781 4219 1451 3797 
Q 1122 3375 1075 2522 
Q 1259 2794 1537 2939 
Q 1816 3084 2150 3084 
Q 2853 3084 3261 2657 
Q 3669 2231 3669 1497 
Q 3669 778 3244 343 
Q 2819 -91 2113 -91 
Q 1303 -91 875 529 
Q 447 1150 447 2328 
Q 447 3434 972 4092 
Q 1497 4750 2381 4750 
Q 2619 4750 2861 4703 
Q 3103 4656 3366 4563 
z
" transform="scale(0.015625)"/>
       </defs>
       <use xlink:href="#DejaVuSans-36"/>
       <use xlink:href="#DejaVuSans-30" x="63.623047"/>
      </g>
     </g>
    </g>
    <g id="xtick_5">
     <g id="line2d_9">
      <path d="M 416.12562 256.32 
L 416.12562 34.56 
" clip-path="url(#p6607b9d518)" style="fill: none; stroke: #ffffff; stroke-width: 0.8; stroke-linecap: square"/>
     </g>
     <g id="line2d_10">
      <g>
       <use xlink:href="#m55f9a4d701" x="416.12562" y="256.32" style="fill: #555555; stroke: #555555; stroke-width: 0.8"/>
      </g>
     </g>
     <g id="text_5">
      <!-- 80 -->
      <g style="fill: #555555" transform="translate(409.76312 270.918437) scale(0.1 -0.1)">
       <defs>
        <path id="DejaVuSans-38" d="M 2034 2216 
Q 1584 2216 1326 1975 
Q 1069 1734 1069 1313 
Q 1069 891 1326 650 
Q 1584 409 2034 409 
Q 2484 409 2743 651 
Q 3003 894 3003 1313 
Q 3003 1734 2745 1975 
Q 2488 2216 2034 2216 
z
M 1403 2484 
Q 997 2584 770 2862 
Q 544 3141 544 3541 
Q 544 4100 942 4425 
Q 1341 4750 2034 4750 
Q 2731 4750 3128 4425 
Q 3525 4100 3525 3541 
Q 3525 3141 3298 2862 
Q 3072 2584 2669 2484 
Q 3125 2378 3379 2068 
Q 3634 1759 3634 1313 
Q 3634 634 3220 271 
Q 2806 -91 2034 -91 
Q 1263 -91 848 271 
Q 434 634 434 1313 
Q 434 1759 690 2068 
Q 947 2378 1403 2484 
z
M 1172 3481 
Q 1172 3119 1398 2916 
Q 1625 2713 2034 2713 
Q 2441 2713 2670 2916 
Q 2900 3119 2900 3481 
Q 2900 3844 2670 4047 
Q 2441 4250 2034 4250 
Q 1625 4250 1398 4047 
Q 1172 3844 1172 3481 
z
" transform="scale(0.015625)"/>
       </defs>
       <use xlink:href="#DejaVuSans-38"/>
       <use xlink:href="#DejaVuSans-30" x="63.623047"/>
      </g>
     </g>
    </g>
    <g id="xtick_6">
     <g id="line2d_11">
      <path d="M 498.109091 256.32 
L 498.109091 34.56 
" clip-path="url(#p6607b9d518)" style="fill: none; stroke: #ffffff; stroke-width: 0.8; stroke-linecap: square"/>
     </g>
     <g id="line2d_12">
      <g>
       <use xlink:href="#m55f9a4d701" x="498.109091" y="256.32" style="fill: #555555; stroke: #555555; stroke-width: 0.8"/>
      </g>
     </g>
     <g id="text_6">
      <!-- 100 -->
      <g style="fill: #555555" transform="translate(488.565341 270.918437) scale(0.1 -0.1)">
       <defs>
        <path id="DejaVuSans-31" d="M 794 531 
L 1825 531 
L 1825 4091 
L 703 3866 
L 703 4441 
L 1819 4666 
L 2450 4666 
L 2450 531 
L 3481 531 
L 3481 0 
L 794 0 
L 794 531 
z
" transform="scale(0.015625)"/>
       </defs>
       <use xlink:href="#DejaVuSans-31"/>
       <use xlink:href="#DejaVuSans-30" x="63.623047"/>
       <use xlink:href="#DejaVuSans-30" x="127.246094"/>
      </g>
     </g>
    </g>
    <g id="text_7">
     <!-- Epoch number -->
     <g style="fill: #555555" transform="translate(251.503125 286.11625) scale(0.12 -0.12)">
      <defs>
       <path id="DejaVuSans-45" d="M 628 4666 
L 3578 4666 
L 3578 4134 
L 1259 4134 
L 1259 2753 
L 3481 2753 
L 3481 2222 
L 1259 2222 
L 1259 531 
L 3634 531 
L 3634 0 
L 628 0 
L 628 4666 
z
" transform="scale(0.015625)"/>
       <path id="DejaVuSans-70" d="M 1159 525 
L 1159 -1331 
L 581 -1331 
L 581 3500 
L 1159 3500 
L 1159 2969 
Q 1341 3281 1617 3432 
Q 1894 3584 2278 3584 
Q 2916 3584 3314 3078 
Q 3713 2572 3713 1747 
Q 3713 922 3314 415 
Q 2916 -91 2278 -91 
Q 1894 -91 1617 61 
Q 1341 213 1159 525 
z
M 3116 1747 
Q 3116 2381 2855 2742 
Q 2594 3103 2138 3103 
Q 1681 3103 1420 2742 
Q 1159 2381 1159 1747 
Q 1159 1113 1420 752 
Q 1681 391 2138 391 
Q 2594 391 2855 752 
Q 3116 1113 3116 1747 
z
" transform="scale(0.015625)"/>
       <path id="DejaVuSans-6f" d="M 1959 3097 
Q 1497 3097 1228 2736 
Q 959 2375 959 1747 
Q 959 1119 1226 758 
Q 1494 397 1959 397 
Q 2419 397 2687 759 
Q 2956 1122 2956 1747 
Q 2956 2369 2687 2733 
Q 2419 3097 1959 3097 
z
M 1959 3584 
Q 2709 3584 3137 3096 
Q 3566 2609 3566 1747 
Q 3566 888 3137 398 
Q 2709 -91 1959 -91 
Q 1206 -91 779 398 
Q 353 888 353 1747 
Q 353 2609 779 3096 
Q 1206 3584 1959 3584 
z
" transform="scale(0.015625)"/>
       <path id="DejaVuSans-63" d="M 3122 3366 
L 3122 2828 
Q 2878 2963 2633 3030 
Q 2388 3097 2138 3097 
Q 1578 3097 1268 2742 
Q 959 2388 959 1747 
Q 959 1106 1268 751 
Q 1578 397 2138 397 
Q 2388 397 2633 464 
Q 2878 531 3122 666 
L 3122 134 
Q 2881 22 2623 -34 
Q 2366 -91 2075 -91 
Q 1284 -91 818 406 
Q 353 903 353 1747 
Q 353 2603 823 3093 
Q 1294 3584 2113 3584 
Q 2378 3584 2631 3529 
Q 2884 3475 3122 3366 
z
" transform="scale(0.015625)"/>
       <path id="DejaVuSans-68" d="M 3513 2113 
L 3513 0 
L 2938 0 
L 2938 2094 
Q 2938 2591 2744 2837 
Q 2550 3084 2163 3084 
Q 1697 3084 1428 2787 
Q 1159 2491 1159 1978 
L 1159 0 
L 581 0 
L 581 4863 
L 1159 4863 
L 1159 2956 
Q 1366 3272 1645 3428 
Q 1925 3584 2291 3584 
Q 2894 3584 3203 3211 
Q 3513 2838 3513 2113 
z
" transform="scale(0.015625)"/>
       <path id="DejaVuSans-20" transform="scale(0.015625)"/>
       <path id="DejaVuSans-6e" d="M 3513 2113 
L 3513 0 
L 2938 0 
L 2938 2094 
Q 2938 2591 2744 2837 
Q 2550 3084 2163 3084 
Q 1697 3084 1428 2787 
Q 1159 2491 1159 1978 
L 1159 0 
L 581 0 
L 581 3500 
L 1159 3500 
L 1159 2956 
Q 1366 3272 1645 3428 
Q 1925 3584 2291 3584 
Q 2894 3584 3203 3211 
Q 3513 2838 3513 2113 
z
" transform="scale(0.015625)"/>
       <path id="DejaVuSans-75" d="M 544 1381 
L 544 3500 
L 1119 3500 
L 1119 1403 
Q 1119 906 1312 657 
Q 1506 409 1894 409 
Q 2359 409 2629 706 
Q 2900 1003 2900 1516 
L 2900 3500 
L 3475 3500 
L 3475 0 
L 2900 0 
L 2900 538 
Q 2691 219 2414 64 
Q 2138 -91 1772 -91 
Q 1169 -91 856 284 
Q 544 659 544 1381 
z
M 1991 3584 
L 1991 3584 
z
" transform="scale(0.015625)"/>
       <path id="DejaVuSans-6d" d="M 3328 2828 
Q 3544 3216 3844 3400 
Q 4144 3584 4550 3584 
Q 5097 3584 5394 3201 
Q 5691 2819 5691 2113 
L 5691 0 
L 5113 0 
L 5113 2094 
Q 5113 2597 4934 2840 
Q 4756 3084 4391 3084 
Q 3944 3084 3684 2787 
Q 3425 2491 3425 1978 
L 3425 0 
L 2847 0 
L 2847 2094 
Q 2847 2600 2669 2842 
Q 2491 3084 2119 3084 
Q 1678 3084 1418 2786 
Q 1159 2488 1159 1978 
L 1159 0 
L 581 0 
L 581 3500 
L 1159 3500 
L 1159 2956 
Q 1356 3278 1631 3431 
Q 1906 3584 2284 3584 
Q 2666 3584 2933 3390 
Q 3200 3197 3328 2828 
z
" transform="scale(0.015625)"/>
       <path id="DejaVuSans-62" d="M 3116 1747 
Q 3116 2381 2855 2742 
Q 2594 3103 2138 3103 
Q 1681 3103 1420 2742 
Q 1159 2381 1159 1747 
Q 1159 1113 1420 752 
Q 1681 391 2138 391 
Q 2594 391 2855 752 
Q 3116 1113 3116 1747 
z
M 1159 2969 
Q 1341 3281 1617 3432 
Q 1894 3584 2278 3584 
Q 2916 3584 3314 3078 
Q 3713 2572 3713 1747 
Q 3713 922 3314 415 
Q 2916 -91 2278 -91 
Q 1894 -91 1617 61 
Q 1341 213 1159 525 
L 1159 0 
L 581 0 
L 581 4863 
L 1159 4863 
L 1159 2969 
z
" transform="scale(0.015625)"/>
       <path id="DejaVuSans-65" d="M 3597 1894 
L 3597 1613 
L 953 1613 
Q 991 1019 1311 708 
Q 1631 397 2203 397 
Q 2534 397 2845 478 
Q 3156 559 3463 722 
L 3463 178 
Q 3153 47 2828 -22 
Q 2503 -91 2169 -91 
Q 1331 -91 842 396 
Q 353 884 353 1716 
Q 353 2575 817 3079 
Q 1281 3584 2069 3584 
Q 2775 3584 3186 3129 
Q 3597 2675 3597 1894 
z
M 3022 2063 
Q 3016 2534 2758 2815 
Q 2500 3097 2075 3097 
Q 1594 3097 1305 2825 
Q 1016 2553 972 2059 
L 3022 2063 
z
" transform="scale(0.015625)"/>
       <path id="DejaVuSans-72" d="M 2631 2963 
Q 2534 3019 2420 3045 
Q 2306 3072 2169 3072 
Q 1681 3072 1420 2755 
Q 1159 2438 1159 1844 
L 1159 0 
L 581 0 
L 581 3500 
L 1159 3500 
L 1159 2956 
Q 1341 3275 1631 3429 
Q 1922 3584 2338 3584 
Q 2397 3584 2469 3576 
Q 2541 3569 2628 3553 
L 2631 2963 
z
" transform="scale(0.015625)"/>
      </defs>
      <use xlink:href="#DejaVuSans-45"/>
      <use xlink:href="#DejaVuSans-70" x="63.183594"/>
      <use xlink:href="#DejaVuSans-6f" x="126.660156"/>
      <use xlink:href="#DejaVuSans-63" x="187.841797"/>
      <use xlink:href="#DejaVuSans-68" x="242.822266"/>
      <use xlink:href="#DejaVuSans-20" x="306.201172"/>
      <use xlink:href="#DejaVuSans-6e" x="337.988281"/>
      <use xlink:href="#DejaVuSans-75" x="401.367188"/>
      <use xlink:href="#DejaVuSans-6d" x="464.746094"/>
      <use xlink:href="#DejaVuSans-62" x="562.158203"/>
      <use xlink:href="#DejaVuSans-65" x="625.634766"/>
      <use xlink:href="#DejaVuSans-72" x="687.158203"/>
     </g>
    </g>
   </g>
   <g id="matplotlib.axis_2">
    <g id="ytick_1">
     <g id="line2d_13">
      <path d="M 72 228.127613 
L 518.4 228.127613 
" clip-path="url(#p6607b9d518)" style="fill: none; stroke: #ffffff; stroke-width: 0.8; stroke-linecap: square"/>
     </g>
     <g id="line2d_14">
      <defs>
       <path id="m766549a57f" d="M 0 0 
L -3.5 0 
" style="stroke: #555555; stroke-width: 0.8"/>
      </defs>
      <g>
       <use xlink:href="#m766549a57f" x="72" y="228.127613" style="fill: #555555; stroke: #555555; stroke-width: 0.8"/>
      </g>
     </g>
     <g id="text_8">
      <!-- 0.75 -->
      <g style="fill: #555555" transform="translate(42.734375 231.926832) scale(0.1 -0.1)">
       <defs>
        <path id="DejaVuSans-2e" d="M 684 794 
L 1344 794 
L 1344 0 
L 684 0 
L 684 794 
z
" transform="scale(0.015625)"/>
        <path id="DejaVuSans-37" d="M 525 4666 
L 3525 4666 
L 3525 4397 
L 1831 0 
L 1172 0 
L 2766 4134 
L 525 4134 
L 525 4666 
z
" transform="scale(0.015625)"/>
        <path id="DejaVuSans-35" d="M 691 4666 
L 3169 4666 
L 3169 4134 
L 1269 4134 
L 1269 2991 
Q 1406 3038 1543 3061 
Q 1681 3084 1819 3084 
Q 2600 3084 3056 2656 
Q 3513 2228 3513 1497 
Q 3513 744 3044 326 
Q 2575 -91 1722 -91 
Q 1428 -91 1123 -41 
Q 819 9 494 109 
L 494 744 
Q 775 591 1075 516 
Q 1375 441 1709 441 
Q 2250 441 2565 725 
Q 2881 1009 2881 1497 
Q 2881 1984 2565 2268 
Q 2250 2553 1709 2553 
Q 1456 2553 1204 2497 
Q 953 2441 691 2322 
L 691 4666 
z
" transform="scale(0.015625)"/>
       </defs>
       <use xlink:href="#DejaVuSans-30"/>
       <use xlink:href="#DejaVuSans-2e" x="63.623047"/>
       <use xlink:href="#DejaVuSans-37" x="95.410156"/>
       <use xlink:href="#DejaVuSans-35" x="159.033203"/>
      </g>
     </g>
    </g>
    <g id="ytick_2">
     <g id="line2d_15">
      <path d="M 72 185.158288 
L 518.4 185.158288 
" clip-path="url(#p6607b9d518)" style="fill: none; stroke: #ffffff; stroke-width: 0.8; stroke-linecap: square"/>
     </g>
     <g id="line2d_16">
      <g>
       <use xlink:href="#m766549a57f" x="72" y="185.158288" style="fill: #555555; stroke: #555555; stroke-width: 0.8"/>
      </g>
     </g>
     <g id="text_9">
      <!-- 0.80 -->
      <g style="fill: #555555" transform="translate(42.734375 188.957507) scale(0.1 -0.1)">
       <use xlink:href="#DejaVuSans-30"/>
       <use xlink:href="#DejaVuSans-2e" x="63.623047"/>
       <use xlink:href="#DejaVuSans-38" x="95.410156"/>
       <use xlink:href="#DejaVuSans-30" x="159.033203"/>
      </g>
     </g>
    </g>
    <g id="ytick_3">
     <g id="line2d_17">
      <path d="M 72 142.188963 
L 518.4 142.188963 
" clip-path="url(#p6607b9d518)" style="fill: none; stroke: #ffffff; stroke-width: 0.8; stroke-linecap: square"/>
     </g>
     <g id="line2d_18">
      <g>
       <use xlink:href="#m766549a57f" x="72" y="142.188963" style="fill: #555555; stroke: #555555; stroke-width: 0.8"/>
      </g>
     </g>
     <g id="text_10">
      <!-- 0.85 -->
      <g style="fill: #555555" transform="translate(42.734375 145.988181) scale(0.1 -0.1)">
       <use xlink:href="#DejaVuSans-30"/>
       <use xlink:href="#DejaVuSans-2e" x="63.623047"/>
       <use xlink:href="#DejaVuSans-38" x="95.410156"/>
       <use xlink:href="#DejaVuSans-35" x="159.033203"/>
      </g>
     </g>
    </g>
    <g id="ytick_4">
     <g id="line2d_19">
      <path d="M 72 99.219637 
L 518.4 99.219637 
" clip-path="url(#p6607b9d518)" style="fill: none; stroke: #ffffff; stroke-width: 0.8; stroke-linecap: square"/>
     </g>
     <g id="line2d_20">
      <g>
       <use xlink:href="#m766549a57f" x="72" y="99.219637" style="fill: #555555; stroke: #555555; stroke-width: 0.8"/>
      </g>
     </g>
     <g id="text_11">
      <!-- 0.90 -->
      <g style="fill: #555555" transform="translate(42.734375 103.018856) scale(0.1 -0.1)">
       <defs>
        <path id="DejaVuSans-39" d="M 703 97 
L 703 672 
Q 941 559 1184 500 
Q 1428 441 1663 441 
Q 2288 441 2617 861 
Q 2947 1281 2994 2138 
Q 2813 1869 2534 1725 
Q 2256 1581 1919 1581 
Q 1219 1581 811 2004 
Q 403 2428 403 3163 
Q 403 3881 828 4315 
Q 1253 4750 1959 4750 
Q 2769 4750 3195 4129 
Q 3622 3509 3622 2328 
Q 3622 1225 3098 567 
Q 2575 -91 1691 -91 
Q 1453 -91 1209 -44 
Q 966 3 703 97 
z
M 1959 2075 
Q 2384 2075 2632 2365 
Q 2881 2656 2881 3163 
Q 2881 3666 2632 3958 
Q 2384 4250 1959 4250 
Q 1534 4250 1286 3958 
Q 1038 3666 1038 3163 
Q 1038 2656 1286 2365 
Q 1534 2075 1959 2075 
z
" transform="scale(0.015625)"/>
       </defs>
       <use xlink:href="#DejaVuSans-30"/>
       <use xlink:href="#DejaVuSans-2e" x="63.623047"/>
       <use xlink:href="#DejaVuSans-39" x="95.410156"/>
       <use xlink:href="#DejaVuSans-30" x="159.033203"/>
      </g>
     </g>
    </g>
    <g id="ytick_5">
     <g id="line2d_21">
      <path d="M 72 56.250312 
L 518.4 56.250312 
" clip-path="url(#p6607b9d518)" style="fill: none; stroke: #ffffff; stroke-width: 0.8; stroke-linecap: square"/>
     </g>
     <g id="line2d_22">
      <g>
       <use xlink:href="#m766549a57f" x="72" y="56.250312" style="fill: #555555; stroke: #555555; stroke-width: 0.8"/>
      </g>
     </g>
     <g id="text_12">
      <!-- 0.95 -->
      <g style="fill: #555555" transform="translate(42.734375 60.04953) scale(0.1 -0.1)">
       <use xlink:href="#DejaVuSans-30"/>
       <use xlink:href="#DejaVuSans-2e" x="63.623047"/>
       <use xlink:href="#DejaVuSans-39" x="95.410156"/>
       <use xlink:href="#DejaVuSans-35" x="159.033203"/>
      </g>
     </g>
    </g>
    <g id="text_13">
     <!-- Accuracy -->
     <g style="fill: #555555" transform="translate(36.23875 172.83375) rotate(-90) scale(0.12 -0.12)">
      <defs>
       <path id="DejaVuSans-41" d="M 2188 4044 
L 1331 1722 
L 3047 1722 
L 2188 4044 
z
M 1831 4666 
L 2547 4666 
L 4325 0 
L 3669 0 
L 3244 1197 
L 1141 1197 
L 716 0 
L 50 0 
L 1831 4666 
z
" transform="scale(0.015625)"/>
       <path id="DejaVuSans-61" d="M 2194 1759 
Q 1497 1759 1228 1600 
Q 959 1441 959 1056 
Q 959 750 1161 570 
Q 1363 391 1709 391 
Q 2188 391 2477 730 
Q 2766 1069 2766 1631 
L 2766 1759 
L 2194 1759 
z
M 3341 1997 
L 3341 0 
L 2766 0 
L 2766 531 
Q 2569 213 2275 61 
Q 1981 -91 1556 -91 
Q 1019 -91 701 211 
Q 384 513 384 1019 
Q 384 1609 779 1909 
Q 1175 2209 1959 2209 
L 2766 2209 
L 2766 2266 
Q 2766 2663 2505 2880 
Q 2244 3097 1772 3097 
Q 1472 3097 1187 3025 
Q 903 2953 641 2809 
L 641 3341 
Q 956 3463 1253 3523 
Q 1550 3584 1831 3584 
Q 2591 3584 2966 3190 
Q 3341 2797 3341 1997 
z
" transform="scale(0.015625)"/>
       <path id="DejaVuSans-79" d="M 2059 -325 
Q 1816 -950 1584 -1140 
Q 1353 -1331 966 -1331 
L 506 -1331 
L 506 -850 
L 844 -850 
Q 1081 -850 1212 -737 
Q 1344 -625 1503 -206 
L 1606 56 
L 191 3500 
L 800 3500 
L 1894 763 
L 2988 3500 
L 3597 3500 
L 2059 -325 
z
" transform="scale(0.015625)"/>
      </defs>
      <use xlink:href="#DejaVuSans-41"/>
      <use xlink:href="#DejaVuSans-63" x="66.658203"/>
      <use xlink:href="#DejaVuSans-63" x="121.638672"/>
      <use xlink:href="#DejaVuSans-75" x="176.619141"/>
      <use xlink:href="#DejaVuSans-72" x="239.998047"/>
      <use xlink:href="#DejaVuSans-61" x="281.111328"/>
      <use xlink:href="#DejaVuSans-63" x="342.390625"/>
      <use xlink:href="#DejaVuSans-79" x="397.371094"/>
     </g>
    </g>
   </g>
   <g id="line2d_23">
    <path d="M 92.290909 242.46218 
L 96.390083 198.195181 
L 100.489256 179.701184 
L 104.58843 166.509601 
L 108.687603 156.643844 
L 112.786777 152.510195 
L 116.88595 145.841355 
L 120.985124 144.853061 
L 125.084298 135.84669 
L 129.183471 132.864619 
L 133.282645 132.40055 
L 137.381818 125.362175 
L 141.480992 126.255937 
L 145.580165 125.362175 
L 149.679339 123.050425 
L 153.778512 121.408997 
L 157.877686 119.217561 
L 161.97686 116.699559 
L 166.076033 115.427667 
L 170.175207 115.419073 
L 174.27438 111.242454 
L 178.373554 109.222896 
L 182.472727 109.136957 
L 186.571901 107.194744 
L 190.671074 107.56428 
L 194.770248 107.280683 
L 198.869421 109.618214 
L 202.968595 107.07443 
L 207.067769 103.714229 
L 211.166942 103.275941 
L 215.266116 97.990714 
L 219.365289 100.29387 
L 223.464463 97.784462 
L 227.563636 96.366474 
L 231.66281 99.288388 
L 235.761983 96.710229 
L 239.861157 92.989085 
L 243.960331 97.672741 
L 248.059504 92.894552 
L 252.158678 89.912481 
L 256.257851 92.344545 
L 260.357025 93.702376 
L 264.456198 88.546057 
L 268.555372 92.507829 
L 272.654545 89.723416 
L 276.753719 88.932781 
L 280.852893 88.889811 
L 284.952066 89.4656 
L 289.05124 85.426484 
L 293.150413 87.033536 
L 297.249587 85.160074 
L 301.34876 84.730381 
L 305.447934 85.976491 
L 309.547107 84.309281 
L 313.646281 84.343657 
L 317.745455 82.315505 
L 321.844628 86.045242 
L 325.943802 81.653777 
L 330.042975 82.040501 
L 334.142149 83.21786 
L 338.241322 80.914705 
L 342.340496 83.836619 
L 346.439669 84.867882 
L 350.538843 78.327951 
L 354.638017 83.415519 
L 358.73719 80.063912 
L 362.836364 80.0811 
L 366.935537 76.755274 
L 371.034711 79.453747 
L 375.133884 78.181855 
L 379.233058 79.213119 
L 383.332231 72.475529 
L 387.431405 76.944339 
L 391.530579 75.861512 
L 395.629752 74.348992 
L 399.728926 78.706081 
L 403.828099 74.005237 
L 407.927273 70.404408 
L 412.026446 72.423966 
L 416.12562 72.320839 
L 420.224793 76.179485 
L 424.323967 74.073988 
L 428.42314 72.243495 
L 432.522314 72.140368 
L 436.621488 72.784908 
L 440.720661 72.570062 
L 444.819835 74.280241 
L 448.919008 72.080211 
L 453.018182 70.834101 
L 457.117355 67.894999 
L 461.216529 69.003608 
L 465.315702 67.54265 
L 469.414876 71.959897 
L 473.51405 69.691117 
L 477.613223 68.642665 
L 481.712397 68.582508 
L 485.81157 65.626219 
L 489.910744 69.871588 
L 494.009917 71.684893 
L 498.109091 69.441895 
" clip-path="url(#p6607b9d518)" style="fill: none; stroke: #0000ff; stroke-width: 1.5; stroke-linecap: square"/>
   </g>
   <g id="line2d_24">
    <path d="M 92.290909 246.24 
L 96.390083 208.492263 
L 100.489256 191.739666 
L 104.58843 179.936699 
L 108.687603 175.694158 
L 112.786777 175.802941 
L 116.88595 169.384738 
L 120.985124 170.363786 
L 125.084298 166.121245 
L 129.183471 161.715529 
L 133.282645 164.924631 
L 137.381818 162.640186 
L 141.480992 161.334789 
L 145.580165 163.347276 
L 149.679339 164.108758 
L 153.778512 163.347276 
L 157.877686 161.715529 
L 161.97686 162.150662 
L 166.076033 162.313837 
L 170.175207 163.238493 
L 174.27438 161.171614 
L 178.373554 161.334789 
L 182.472727 160.573307 
L 186.571901 161.226006 
L 190.671074 161.38918 
L 194.770248 161.933096 
L 198.869421 166.99151 
L 202.968595 163.619234 
L 207.067769 163.347276 
L 211.166942 163.510451 
L 215.266116 162.477011 
L 219.365289 162.150662 
L 223.464463 160.68209 
L 227.563636 161.38918 
L 231.66281 165.142197 
L 235.761983 166.066854 
L 239.861157 163.020927 
L 243.960331 164.979023 
L 248.059504 164.707065 
L 252.158678 162.585794 
L 256.257851 169.384738 
L 260.357025 167.045901 
L 264.456198 165.196589 
L 268.555372 167.861775 
L 272.654545 166.121245 
L 276.753719 166.610769 
L 280.852893 168.786431 
L 284.952066 171.125268 
L 289.05124 169.058389 
L 293.150413 171.397226 
L 297.249587 167.807383 
L 301.34876 167.589817 
L 305.447934 169.547913 
L 309.547107 165.522938 
L 313.646281 171.125268 
L 317.745455 170.526961 
L 321.844628 172.213099 
L 325.943802 169.711087 
L 330.042975 171.016485 
L 334.142149 172.59384 
L 338.241322 170.14622 
L 342.340496 169.602304 
L 346.439669 173.137755 
L 350.538843 171.941141 
L 354.638017 175.095851 
L 358.73719 171.342834 
L 362.836364 171.995533 
L 366.935537 171.5604 
L 371.034711 174.660719 
L 375.133884 171.941141 
L 379.233058 174.00802 
L 383.332231 171.234051 
L 387.431405 171.723575 
L 391.530579 175.150243 
L 395.629752 174.606327 
L 399.728926 177.271513 
L 403.828099 176.510031 
L 407.927273 170.744527 
L 412.026446 174.334369 
L 416.12562 173.844845 
L 420.224793 175.639767 
L 424.323967 173.572888 
L 428.42314 173.083364 
L 432.522314 174.551936 
L 436.621488 177.924212 
L 440.720661 176.292465 
L 444.819835 176.727598 
L 448.919008 178.087386 
L 453.018182 178.468127 
L 457.117355 172.702623 
L 461.216529 176.999555 
L 465.315702 179.284 
L 469.414876 181.133313 
L 473.51405 180.426223 
L 477.613223 179.719133 
L 481.712397 176.401248 
L 485.81157 179.827916 
L 489.910744 178.740085 
L 494.009917 182.166753 
L 498.109091 180.915747 
" clip-path="url(#p6607b9d518)" style="fill: none; stroke-dasharray: 5.55,2.4; stroke-dashoffset: 0; stroke: #0000ff; stroke-width: 1.5"/>
   </g>
   <g id="line2d_25">
    <path d="M 92.290909 214.480556 
L 96.390083 176.7363 
L 100.489256 161.301719 
L 104.58843 145.901512 
L 108.687603 145.54057 
L 112.786777 129.762234 
L 116.88595 128.911441 
L 120.985124 127.871583 
L 125.084298 116.656589 
L 129.183471 112.780756 
L 133.282645 110.838543 
L 137.381818 109.669777 
L 141.480992 109.334616 
L 145.580165 104.865807 
L 149.679339 100.929816 
L 153.778512 99.846989 
L 157.877686 96.486788 
L 161.97686 96.813355 
L 166.076033 96.031313 
L 170.175207 93.874253 
L 174.27438 89.568727 
L 178.373554 88.915593 
L 182.472727 89.646071 
L 186.571901 89.13044 
L 190.671074 86.535092 
L 194.770248 86.165556 
L 198.869421 85.658518 
L 202.968595 77.39122 
L 207.067769 85.108511 
L 211.166942 78.353733 
L 215.266116 80.287352 
L 219.365289 73.747421 
L 223.464463 84.670224 
L 227.563636 75.784167 
L 231.66281 73.154444 
L 235.761983 76.987308 
L 239.861157 70.327063 
L 243.960331 74.228677 
L 248.059504 70.146592 
L 252.158678 71.796614 
L 256.257851 74.091176 
L 260.357025 66.348103 
L 264.456198 67.241865 
L 268.555372 69.192673 
L 272.654545 64.268388 
L 276.753719 67.731715 
L 280.852893 71.057541 
L 284.952066 62.824619 
L 289.05124 61.415225 
L 293.150413 65.342621 
L 297.249587 65.643406 
L 301.34876 63.391814 
L 305.447934 59.507387 
L 309.547107 59.756609 
L 313.646281 66.425448 
L 317.745455 61.019907 
L 321.844628 66.923892 
L 325.943802 62.412113 
L 330.042975 58.605031 
L 334.142149 58.716751 
L 338.241322 57.462047 
L 342.340496 59.430042 
L 346.439669 56.817507 
L 350.538843 60.366773 
L 354.638017 55.880776 
L 358.73719 55.932339 
L 362.836364 56.044059 
L 366.935537 59.094881 
L 371.034711 51.75572 
L 375.133884 55.588584 
L 379.233058 55.537021 
L 383.332231 53.611995 
L 387.431405 58.355809 
L 391.530579 52.142444 
L 395.629752 51.480717 
L 399.728926 56.301875 
L 403.828099 53.697934 
L 407.927273 56.508128 
L 412.026446 53.84403 
L 416.12562 55.872182 
L 420.224793 53.079176 
L 424.323967 51.231495 
L 428.42314 49.297875 
L 432.522314 49.358032 
L 436.621488 50.320545 
L 440.720661 46.599401 
L 444.819835 46.650964 
L 448.919008 49.641629 
L 453.018182 46.53065 
L 457.117355 48.146297 
L 461.216529 49.091622 
L 465.315702 45.628294 
L 469.414876 51.368996 
L 473.51405 45.757202 
L 477.613223 51.429153 
L 481.712397 49.065841 
L 485.81157 45.628294 
L 489.910744 44.64 
L 494.009917 52.589325 
L 498.109091 45.387666 
" clip-path="url(#p6607b9d518)" style="fill: none; stroke: #ff0000; stroke-width: 1.5; stroke-linecap: square"/>
   </g>
   <g id="line2d_26">
    <path d="M 92.290909 221.926977 
L 96.390083 187.551516 
L 100.489256 175.585375 
L 104.58843 162.259445 
L 108.687603 166.447594 
L 112.786777 151.816267 
L 116.88595 154.535845 
L 120.985124 159.213518 
L 125.084298 148.226425 
L 129.183471 148.661557 
L 133.282645 148.77034 
L 137.381818 150.456478 
L 141.480992 152.577749 
L 145.580165 150.238912 
L 149.679339 150.619653 
L 153.778512 149.966954 
L 157.877686 149.586214 
L 161.97686 151.163569 
L 166.076033 150.293304 
L 170.175207 151.435526 
L 174.27438 149.259864 
L 178.373554 152.305791 
L 182.472727 150.946002 
L 186.571901 152.360183 
L 190.671074 151.761876 
L 194.770248 152.142616 
L 198.869421 156.929073 
L 202.968595 150.782828 
L 207.067769 159.376693 
L 211.166942 153.556797 
L 215.266116 157.472988 
L 219.365289 151.381135 
L 223.464463 163.564842 
L 227.563636 159.811825 
L 231.66281 158.23447 
L 235.761983 156.385157 
L 239.861157 154.862194 
L 243.960331 156.276374 
L 248.059504 158.343253 
L 252.158678 159.159127 
L 256.257851 163.564842 
L 260.357025 161.334789 
L 264.456198 161.443572 
L 268.555372 161.171614 
L 272.654545 157.472988 
L 276.753719 160.736482 
L 280.852893 163.020927 
L 284.952066 159.757434 
L 289.05124 161.715529 
L 293.150413 165.359763 
L 297.249587 166.230028 
L 301.34876 165.196589 
L 305.447934 161.497963 
L 309.547107 163.999975 
L 313.646281 166.28442 
L 317.745455 162.368228 
L 321.844628 166.773944 
L 325.943802 166.066854 
L 330.042975 162.205053 
L 334.142149 164.217541 
L 338.241322 164.054366 
L 342.340496 164.979023 
L 346.439669 164.707065 
L 350.538843 169.058389 
L 354.638017 164.380715 
L 358.73719 163.292884 
L 362.836364 165.686113 
L 366.935537 169.221564 
L 371.034711 162.912144 
L 375.133884 164.54389 
L 379.233058 165.95807 
L 383.332231 165.142197 
L 387.431405 166.882727 
L 391.530579 167.426642 
L 395.629752 167.372251 
L 399.728926 171.234051 
L 403.828099 165.794896 
L 407.927273 168.079341 
L 412.026446 167.372251 
L 416.12562 169.711087 
L 420.224793 170.962093 
L 424.323967 166.393203 
L 428.42314 168.133733 
L 432.522314 168.40569 
L 436.621488 171.5604 
L 440.720661 168.623256 
L 444.819835 168.242516 
L 448.919008 170.526961 
L 453.018182 168.133733 
L 457.117355 169.874262 
L 461.216529 166.610769 
L 465.315702 167.752992 
L 469.414876 170.418178 
L 473.51405 170.200611 
L 477.613223 172.26749 
L 481.712397 173.518496 
L 485.81157 169.547913 
L 489.910744 171.288442 
L 494.009917 173.572888 
L 498.109091 169.547913 
" clip-path="url(#p6607b9d518)" style="fill: none; stroke-dasharray: 5.55,2.4; stroke-dashoffset: 0; stroke: #ff0000; stroke-width: 1.5"/>
   </g>
   <g id="line2d_27">
    <path d="M 92.290909 212.770377 
L 96.390083 170.333871 
L 100.489256 157.907142 
L 104.58843 144.071019 
L 108.687603 137.290459 
L 112.786777 131.059907 
L 116.88595 128.834096 
L 120.985124 120.162886 
L 125.084298 117.266754 
L 129.183471 113.476859 
L 133.282645 108.114288 
L 137.381818 111.199485 
L 141.480992 107.813502 
L 145.580165 101.497011 
L 149.679339 98.093841 
L 153.778512 100.29387 
L 157.877686 97.105546 
L 161.97686 94.510199 
L 166.076033 97.767274 
L 170.175207 91.579691 
L 174.27438 94.458636 
L 178.373554 87.927298 
L 182.472727 90.677335 
L 186.571901 85.873365 
L 190.671074 79.935004 
L 194.770248 80.338916 
L 198.869421 80.330322 
L 202.968595 76.248236 
L 207.067769 77.958415 
L 211.166942 79.892035 
L 215.266116 76.557615 
L 219.365289 77.924039 
L 223.464463 70.473158 
L 227.563636 71.427077 
L 231.66281 75.423225 
L 235.761983 70.473158 
L 239.861157 70.2755 
L 243.960331 77.081841 
L 248.059504 67.611401 
L 252.158678 65.497311 
L 256.257851 68.359068 
L 260.357025 67.551244 
L 264.456198 62.145703 
L 268.555372 63.443377 
L 272.654545 64.715269 
L 276.753719 63.11681 
L 280.852893 60.16052 
L 284.952066 63.692599 
L 289.05124 66.399666 
L 293.150413 61.82773 
L 297.249587 60.994125 
L 301.34876 62.515239 
L 305.447934 56.422189 
L 309.547107 59.155038 
L 313.646281 60.229271 
L 317.745455 60.186302 
L 321.844628 55.562803 
L 325.943802 61.82773 
L 330.042975 66.176226 
L 334.142149 58.321433 
L 338.241322 56.576879 
L 342.340496 56.722974 
L 346.439669 57.367514 
L 350.538843 57.728457 
L 354.638017 61.707416 
L 358.73719 55.640147 
L 362.836364 55.906557 
L 366.935537 55.133109 
L 371.034711 54.60029 
L 375.133884 54.368255 
L 379.233058 51.566655 
L 383.332231 54.918263 
L 387.431405 54.780761 
L 391.530579 53.242459 
L 395.629752 49.263499 
L 399.728926 56.353438 
L 403.828099 55.820618 
L 407.927273 53.414336 
L 412.026446 51.016648 
L 416.12562 48.034577 
L 420.224793 60.796466 
L 424.323967 53.233865 
L 428.42314 48.99709 
L 432.522314 50.655706 
L 436.621488 49.022871 
L 440.720661 52.838547 
L 444.819835 47.433006 
L 448.919008 48.945526 
L 453.018182 49.97679 
L 457.117355 47.561914 
L 461.216529 46.178302 
L 465.315702 52.039318 
L 469.414876 49.125998 
L 473.51405 56.551097 
L 477.613223 46.204083 
L 481.712397 50.045541 
L 485.81157 46.857217 
L 489.910744 48.627553 
L 494.009917 49.959602 
L 498.109091 46.212677 
" clip-path="url(#p6607b9d518)" style="fill: none; stroke: #008000; stroke-width: 1.5; stroke-linecap: square"/>
   </g>
   <g id="line2d_28">
    <path d="M 92.290909 218.5547 
L 96.390083 182.819451 
L 100.489256 171.723575 
L 104.58843 160.954048 
L 108.687603 162.259445 
L 112.786777 159.376693 
L 116.88595 156.983465 
L 120.985124 150.021346 
L 125.084298 151.653092 
L 129.183471 153.66558 
L 133.282645 147.573726 
L 137.381818 151.272352 
L 141.480992 151.761876 
L 145.580165 150.130129 
L 149.679339 149.314256 
L 153.778512 153.176056 
L 157.877686 150.946002 
L 161.97686 155.678067 
L 166.076033 157.636163 
L 170.175207 155.297326 
L 174.27438 157.201031 
L 178.373554 154.318279 
L 182.472727 159.376693 
L 186.571901 154.644628 
L 190.671074 154.427062 
L 194.770248 153.448014 
L 198.869421 150.021346 
L 202.968595 152.088225 
L 207.067769 152.468966 
L 211.166942 159.050343 
L 215.266116 153.284839 
L 219.365289 156.765898 
L 223.464463 151.598701 
L 227.563636 153.556797 
L 231.66281 156.983465 
L 235.761983 158.995952 
L 239.861157 156.221983 
L 243.960331 160.138174 
L 248.059504 157.744946 
L 252.158678 157.201031 
L 256.257851 155.40611 
L 260.357025 156.765898 
L 264.456198 156.548332 
L 268.555372 157.309814 
L 272.654545 160.790873 
L 276.753719 159.866217 
L 280.852893 155.569284 
L 284.952066 162.80336 
L 289.05124 159.703042 
L 293.150413 162.259445 
L 297.249587 160.790873 
L 301.34876 161.062831 
L 305.447934 158.832777 
L 309.547107 162.531403 
L 313.646281 159.811825 
L 317.745455 163.510451 
L 321.844628 157.037856 
L 325.943802 161.987487 
L 330.042975 162.150662 
L 334.142149 160.627698 
L 338.241322 161.552355 
L 342.340496 163.184101 
L 346.439669 162.09627 
L 350.538843 161.497963 
L 354.638017 160.954048 
L 358.73719 160.954048 
L 362.836364 162.477011 
L 366.935537 161.334789 
L 371.034711 165.305372 
L 375.133884 160.627698 
L 379.233058 163.238493 
L 383.332231 160.954048 
L 387.431405 162.150662 
L 391.530579 166.121245 
L 395.629752 161.497963 
L 399.728926 170.690135 
L 403.828099 164.979023 
L 407.927273 162.477011 
L 412.026446 163.456059 
L 416.12562 158.452036 
L 420.224793 169.003997 
L 424.323967 164.271932 
L 428.42314 161.280397 
L 432.522314 161.334789 
L 436.621488 162.259445 
L 440.720661 165.903679 
L 444.819835 161.334789 
L 448.919008 160.899656 
L 453.018182 164.435107 
L 457.117355 163.673625 
L 461.216529 163.510451 
L 465.315702 163.020927 
L 469.414876 163.020927 
L 473.51405 170.962093 
L 477.613223 163.728017 
L 481.712397 167.154685 
L 485.81157 164.598282 
L 489.910744 165.142197 
L 494.009917 168.895214 
L 498.109091 167.861775 
" clip-path="url(#p6607b9d518)" style="fill: none; stroke-dasharray: 5.55,2.4; stroke-dashoffset: 0; stroke: #008000; stroke-width: 1.5"/>
   </g>
   <g id="patch_3">
    <path d="M 72 256.32 
L 72 34.56 
" style="fill: none; stroke: #ffffff; stroke-linejoin: miter; stroke-linecap: square"/>
   </g>
   <g id="patch_4">
    <path d="M 518.4 256.32 
L 518.4 34.56 
" style="fill: none; stroke: #ffffff; stroke-linejoin: miter; stroke-linecap: square"/>
   </g>
   <g id="patch_5">
    <path d="M 72 256.32 
L 518.4 256.32 
" style="fill: none; stroke: #ffffff; stroke-linejoin: miter; stroke-linecap: square"/>
   </g>
   <g id="patch_6">
    <path d="M 72 34.56 
L 518.4 34.56 
" style="fill: none; stroke: #ffffff; stroke-linejoin: miter; stroke-linecap: square"/>
   </g>
   <g id="text_14">
    <!-- Accuracy Performances across Different Network Depths -->
    <g transform="translate(91.036125 28.56) scale(0.144 -0.144)">
     <defs>
      <path id="DejaVuSans-50" d="M 1259 4147 
L 1259 2394 
L 2053 2394 
Q 2494 2394 2734 2622 
Q 2975 2850 2975 3272 
Q 2975 3691 2734 3919 
Q 2494 4147 2053 4147 
L 1259 4147 
z
M 628 4666 
L 2053 4666 
Q 2838 4666 3239 4311 
Q 3641 3956 3641 3272 
Q 3641 2581 3239 2228 
Q 2838 1875 2053 1875 
L 1259 1875 
L 1259 0 
L 628 0 
L 628 4666 
z
" transform="scale(0.015625)"/>
      <path id="DejaVuSans-66" d="M 2375 4863 
L 2375 4384 
L 1825 4384 
Q 1516 4384 1395 4259 
Q 1275 4134 1275 3809 
L 1275 3500 
L 2222 3500 
L 2222 3053 
L 1275 3053 
L 1275 0 
L 697 0 
L 697 3053 
L 147 3053 
L 147 3500 
L 697 3500 
L 697 3744 
Q 697 4328 969 4595 
Q 1241 4863 1831 4863 
L 2375 4863 
z
" transform="scale(0.015625)"/>
      <path id="DejaVuSans-73" d="M 2834 3397 
L 2834 2853 
Q 2591 2978 2328 3040 
Q 2066 3103 1784 3103 
Q 1356 3103 1142 2972 
Q 928 2841 928 2578 
Q 928 2378 1081 2264 
Q 1234 2150 1697 2047 
L 1894 2003 
Q 2506 1872 2764 1633 
Q 3022 1394 3022 966 
Q 3022 478 2636 193 
Q 2250 -91 1575 -91 
Q 1294 -91 989 -36 
Q 684 19 347 128 
L 347 722 
Q 666 556 975 473 
Q 1284 391 1588 391 
Q 1994 391 2212 530 
Q 2431 669 2431 922 
Q 2431 1156 2273 1281 
Q 2116 1406 1581 1522 
L 1381 1569 
Q 847 1681 609 1914 
Q 372 2147 372 2553 
Q 372 3047 722 3315 
Q 1072 3584 1716 3584 
Q 2034 3584 2315 3537 
Q 2597 3491 2834 3397 
z
" transform="scale(0.015625)"/>
      <path id="DejaVuSans-44" d="M 1259 4147 
L 1259 519 
L 2022 519 
Q 2988 519 3436 956 
Q 3884 1394 3884 2338 
Q 3884 3275 3436 3711 
Q 2988 4147 2022 4147 
L 1259 4147 
z
M 628 4666 
L 1925 4666 
Q 3281 4666 3915 4102 
Q 4550 3538 4550 2338 
Q 4550 1131 3912 565 
Q 3275 0 1925 0 
L 628 0 
L 628 4666 
z
" transform="scale(0.015625)"/>
      <path id="DejaVuSans-69" d="M 603 3500 
L 1178 3500 
L 1178 0 
L 603 0 
L 603 3500 
z
M 603 4863 
L 1178 4863 
L 1178 4134 
L 603 4134 
L 603 4863 
z
" transform="scale(0.015625)"/>
      <path id="DejaVuSans-74" d="M 1172 4494 
L 1172 3500 
L 2356 3500 
L 2356 3053 
L 1172 3053 
L 1172 1153 
Q 1172 725 1289 603 
Q 1406 481 1766 481 
L 2356 481 
L 2356 0 
L 1766 0 
Q 1100 0 847 248 
Q 594 497 594 1153 
L 594 3053 
L 172 3053 
L 172 3500 
L 594 3500 
L 594 4494 
L 1172 4494 
z
" transform="scale(0.015625)"/>
      <path id="DejaVuSans-4e" d="M 628 4666 
L 1478 4666 
L 3547 763 
L 3547 4666 
L 4159 4666 
L 4159 0 
L 3309 0 
L 1241 3903 
L 1241 0 
L 628 0 
L 628 4666 
z
" transform="scale(0.015625)"/>
      <path id="DejaVuSans-77" d="M 269 3500 
L 844 3500 
L 1563 769 
L 2278 3500 
L 2956 3500 
L 3675 769 
L 4391 3500 
L 4966 3500 
L 4050 0 
L 3372 0 
L 2619 2869 
L 1863 0 
L 1184 0 
L 269 3500 
z
" transform="scale(0.015625)"/>
      <path id="DejaVuSans-6b" d="M 581 4863 
L 1159 4863 
L 1159 1991 
L 2875 3500 
L 3609 3500 
L 1753 1863 
L 3688 0 
L 2938 0 
L 1159 1709 
L 1159 0 
L 581 0 
L 581 4863 
z
" transform="scale(0.015625)"/>
     </defs>
     <use xlink:href="#DejaVuSans-41"/>
     <use xlink:href="#DejaVuSans-63" x="66.658203"/>
     <use xlink:href="#DejaVuSans-63" x="121.638672"/>
     <use xlink:href="#DejaVuSans-75" x="176.619141"/>
     <use xlink:href="#DejaVuSans-72" x="239.998047"/>
     <use xlink:href="#DejaVuSans-61" x="281.111328"/>
     <use xlink:href="#DejaVuSans-63" x="342.390625"/>
     <use xlink:href="#DejaVuSans-79" x="397.371094"/>
     <use xlink:href="#DejaVuSans-20" x="456.550781"/>
     <use xlink:href="#DejaVuSans-50" x="488.337891"/>
     <use xlink:href="#DejaVuSans-65" x="545.015625"/>
     <use xlink:href="#DejaVuSans-72" x="606.539062"/>
     <use xlink:href="#DejaVuSans-66" x="647.652344"/>
     <use xlink:href="#DejaVuSans-6f" x="682.857422"/>
     <use xlink:href="#DejaVuSans-72" x="744.039062"/>
     <use xlink:href="#DejaVuSans-6d" x="783.402344"/>
     <use xlink:href="#DejaVuSans-61" x="880.814453"/>
     <use xlink:href="#DejaVuSans-6e" x="942.09375"/>
     <use xlink:href="#DejaVuSans-63" x="1005.472656"/>
     <use xlink:href="#DejaVuSans-65" x="1060.453125"/>
     <use xlink:href="#DejaVuSans-73" x="1121.976562"/>
     <use xlink:href="#DejaVuSans-20" x="1174.076172"/>
     <use xlink:href="#DejaVuSans-61" x="1205.863281"/>
     <use xlink:href="#DejaVuSans-63" x="1267.142578"/>
     <use xlink:href="#DejaVuSans-72" x="1322.123047"/>
     <use xlink:href="#DejaVuSans-6f" x="1360.986328"/>
     <use xlink:href="#DejaVuSans-73" x="1422.167969"/>
     <use xlink:href="#DejaVuSans-73" x="1474.267578"/>
     <use xlink:href="#DejaVuSans-20" x="1526.367188"/>
     <use xlink:href="#DejaVuSans-44" x="1558.154297"/>
     <use xlink:href="#DejaVuSans-69" x="1635.15625"/>
     <use xlink:href="#DejaVuSans-66" x="1662.939453"/>
     <use xlink:href="#DejaVuSans-66" x="1698.144531"/>
     <use xlink:href="#DejaVuSans-65" x="1733.349609"/>
     <use xlink:href="#DejaVuSans-72" x="1794.873047"/>
     <use xlink:href="#DejaVuSans-65" x="1833.736328"/>
     <use xlink:href="#DejaVuSans-6e" x="1895.259766"/>
     <use xlink:href="#DejaVuSans-74" x="1958.638672"/>
     <use xlink:href="#DejaVuSans-20" x="1997.847656"/>
     <use xlink:href="#DejaVuSans-4e" x="2029.634766"/>
     <use xlink:href="#DejaVuSans-65" x="2104.439453"/>
     <use xlink:href="#DejaVuSans-74" x="2165.962891"/>
     <use xlink:href="#DejaVuSans-77" x="2205.171875"/>
     <use xlink:href="#DejaVuSans-6f" x="2286.958984"/>
     <use xlink:href="#DejaVuSans-72" x="2348.140625"/>
     <use xlink:href="#DejaVuSans-6b" x="2389.253906"/>
     <use xlink:href="#DejaVuSans-20" x="2447.164062"/>
     <use xlink:href="#DejaVuSans-44" x="2478.951172"/>
     <use xlink:href="#DejaVuSans-65" x="2555.953125"/>
     <use xlink:href="#DejaVuSans-70" x="2617.476562"/>
     <use xlink:href="#DejaVuSans-74" x="2680.953125"/>
     <use xlink:href="#DejaVuSans-68" x="2720.162109"/>
     <use xlink:href="#DejaVuSans-73" x="2783.541016"/>
    </g>
   </g>
   <g id="legend_1">
    <g id="patch_7">
     <path d="M 218.80625 252.32 
L 371.59375 252.32 
Q 373.19375 252.32 373.19375 250.72 
L 373.19375 181.065 
Q 373.19375 179.465 371.59375 179.465 
L 218.80625 179.465 
Q 217.20625 179.465 217.20625 181.065 
L 217.20625 250.72 
Q 217.20625 252.32 218.80625 252.32 
z
" style="fill: #e5e5e5; opacity: 0.8; stroke: #cccccc; stroke-width: 0.5; stroke-linejoin: miter"/>
    </g>
    <g id="line2d_29">
     <path d="M 220.40625 185.94375 
L 228.40625 185.94375 
L 236.40625 185.94375 
" style="fill: none; stroke: #0000ff; stroke-width: 1.5; stroke-linecap: square"/>
    </g>
    <g id="text_15">
     <!-- Accuracy Train - 1 Hidden Layer -->
     <g transform="translate(242.80625 188.74375) scale(0.08 -0.08)">
      <defs>
       <path id="DejaVuSans-54" d="M -19 4666 
L 3928 4666 
L 3928 4134 
L 2272 4134 
L 2272 0 
L 1638 0 
L 1638 4134 
L -19 4134 
L -19 4666 
z
" transform="scale(0.015625)"/>
       <path id="DejaVuSans-2d" d="M 313 2009 
L 1997 2009 
L 1997 1497 
L 313 1497 
L 313 2009 
z
" transform="scale(0.015625)"/>
       <path id="DejaVuSans-48" d="M 628 4666 
L 1259 4666 
L 1259 2753 
L 3553 2753 
L 3553 4666 
L 4184 4666 
L 4184 0 
L 3553 0 
L 3553 2222 
L 1259 2222 
L 1259 0 
L 628 0 
L 628 4666 
z
" transform="scale(0.015625)"/>
       <path id="DejaVuSans-64" d="M 2906 2969 
L 2906 4863 
L 3481 4863 
L 3481 0 
L 2906 0 
L 2906 525 
Q 2725 213 2448 61 
Q 2172 -91 1784 -91 
Q 1150 -91 751 415 
Q 353 922 353 1747 
Q 353 2572 751 3078 
Q 1150 3584 1784 3584 
Q 2172 3584 2448 3432 
Q 2725 3281 2906 2969 
z
M 947 1747 
Q 947 1113 1208 752 
Q 1469 391 1925 391 
Q 2381 391 2643 752 
Q 2906 1113 2906 1747 
Q 2906 2381 2643 2742 
Q 2381 3103 1925 3103 
Q 1469 3103 1208 2742 
Q 947 2381 947 1747 
z
" transform="scale(0.015625)"/>
       <path id="DejaVuSans-4c" d="M 628 4666 
L 1259 4666 
L 1259 531 
L 3531 531 
L 3531 0 
L 628 0 
L 628 4666 
z
" transform="scale(0.015625)"/>
      </defs>
      <use xlink:href="#DejaVuSans-41"/>
      <use xlink:href="#DejaVuSans-63" x="66.658203"/>
      <use xlink:href="#DejaVuSans-63" x="121.638672"/>
      <use xlink:href="#DejaVuSans-75" x="176.619141"/>
      <use xlink:href="#DejaVuSans-72" x="239.998047"/>
      <use xlink:href="#DejaVuSans-61" x="281.111328"/>
      <use xlink:href="#DejaVuSans-63" x="342.390625"/>
      <use xlink:href="#DejaVuSans-79" x="397.371094"/>
      <use xlink:href="#DejaVuSans-20" x="456.550781"/>
      <use xlink:href="#DejaVuSans-54" x="488.337891"/>
      <use xlink:href="#DejaVuSans-72" x="534.671875"/>
      <use xlink:href="#DejaVuSans-61" x="575.785156"/>
      <use xlink:href="#DejaVuSans-69" x="637.064453"/>
      <use xlink:href="#DejaVuSans-6e" x="664.847656"/>
      <use xlink:href="#DejaVuSans-20" x="728.226562"/>
      <use xlink:href="#DejaVuSans-2d" x="760.013672"/>
      <use xlink:href="#DejaVuSans-20" x="796.097656"/>
      <use xlink:href="#DejaVuSans-31" x="827.884766"/>
      <use xlink:href="#DejaVuSans-20" x="891.507812"/>
      <use xlink:href="#DejaVuSans-48" x="923.294922"/>
      <use xlink:href="#DejaVuSans-69" x="998.490234"/>
      <use xlink:href="#DejaVuSans-64" x="1026.273438"/>
      <use xlink:href="#DejaVuSans-64" x="1089.75"/>
      <use xlink:href="#DejaVuSans-65" x="1153.226562"/>
      <use xlink:href="#DejaVuSans-6e" x="1214.75"/>
      <use xlink:href="#DejaVuSans-20" x="1278.128906"/>
      <use xlink:href="#DejaVuSans-4c" x="1309.916016"/>
      <use xlink:href="#DejaVuSans-61" x="1365.628906"/>
      <use xlink:href="#DejaVuSans-79" x="1426.908203"/>
      <use xlink:href="#DejaVuSans-65" x="1486.087891"/>
      <use xlink:href="#DejaVuSans-72" x="1547.611328"/>
     </g>
    </g>
    <g id="line2d_30">
     <path d="M 220.40625 197.68625 
L 228.40625 197.68625 
L 236.40625 197.68625 
" style="fill: none; stroke-dasharray: 5.55,2.4; stroke-dashoffset: 0; stroke: #0000ff; stroke-width: 1.5"/>
    </g>
    <g id="text_16">
     <!-- Accuracy Valid - 1 Hidden Layer -->
     <g transform="translate(242.80625 200.48625) scale(0.08 -0.08)">
      <defs>
       <path id="DejaVuSans-56" d="M 1831 0 
L 50 4666 
L 709 4666 
L 2188 738 
L 3669 4666 
L 4325 4666 
L 2547 0 
L 1831 0 
z
" transform="scale(0.015625)"/>
       <path id="DejaVuSans-6c" d="M 603 4863 
L 1178 4863 
L 1178 0 
L 603 0 
L 603 4863 
z
" transform="scale(0.015625)"/>
      </defs>
      <use xlink:href="#DejaVuSans-41"/>
      <use xlink:href="#DejaVuSans-63" x="66.658203"/>
      <use xlink:href="#DejaVuSans-63" x="121.638672"/>
      <use xlink:href="#DejaVuSans-75" x="176.619141"/>
      <use xlink:href="#DejaVuSans-72" x="239.998047"/>
      <use xlink:href="#DejaVuSans-61" x="281.111328"/>
      <use xlink:href="#DejaVuSans-63" x="342.390625"/>
      <use xlink:href="#DejaVuSans-79" x="397.371094"/>
      <use xlink:href="#DejaVuSans-20" x="456.550781"/>
      <use xlink:href="#DejaVuSans-56" x="488.337891"/>
      <use xlink:href="#DejaVuSans-61" x="548.996094"/>
      <use xlink:href="#DejaVuSans-6c" x="610.275391"/>
      <use xlink:href="#DejaVuSans-69" x="638.058594"/>
      <use xlink:href="#DejaVuSans-64" x="665.841797"/>
      <use xlink:href="#DejaVuSans-20" x="729.318359"/>
      <use xlink:href="#DejaVuSans-2d" x="761.105469"/>
      <use xlink:href="#DejaVuSans-20" x="797.189453"/>
      <use xlink:href="#DejaVuSans-31" x="828.976562"/>
      <use xlink:href="#DejaVuSans-20" x="892.599609"/>
      <use xlink:href="#DejaVuSans-48" x="924.386719"/>
      <use xlink:href="#DejaVuSans-69" x="999.582031"/>
      <use xlink:href="#DejaVuSans-64" x="1027.365234"/>
      <use xlink:href="#DejaVuSans-64" x="1090.841797"/>
      <use xlink:href="#DejaVuSans-65" x="1154.318359"/>
      <use xlink:href="#DejaVuSans-6e" x="1215.841797"/>
      <use xlink:href="#DejaVuSans-20" x="1279.220703"/>
      <use xlink:href="#DejaVuSans-4c" x="1311.007812"/>
      <use xlink:href="#DejaVuSans-61" x="1366.720703"/>
      <use xlink:href="#DejaVuSans-79" x="1428"/>
      <use xlink:href="#DejaVuSans-65" x="1487.179688"/>
      <use xlink:href="#DejaVuSans-72" x="1548.703125"/>
     </g>
    </g>
    <g id="line2d_31">
     <path d="M 220.40625 209.42875 
L 228.40625 209.42875 
L 236.40625 209.42875 
" style="fill: none; stroke: #ff0000; stroke-width: 1.5; stroke-linecap: square"/>
    </g>
    <g id="text_17">
     <!-- Accuracy Train - 2 Hidden Layer -->
     <g transform="translate(242.80625 212.22875) scale(0.08 -0.08)">
      <use xlink:href="#DejaVuSans-41"/>
      <use xlink:href="#DejaVuSans-63" x="66.658203"/>
      <use xlink:href="#DejaVuSans-63" x="121.638672"/>
      <use xlink:href="#DejaVuSans-75" x="176.619141"/>
      <use xlink:href="#DejaVuSans-72" x="239.998047"/>
      <use xlink:href="#DejaVuSans-61" x="281.111328"/>
      <use xlink:href="#DejaVuSans-63" x="342.390625"/>
      <use xlink:href="#DejaVuSans-79" x="397.371094"/>
      <use xlink:href="#DejaVuSans-20" x="456.550781"/>
      <use xlink:href="#DejaVuSans-54" x="488.337891"/>
      <use xlink:href="#DejaVuSans-72" x="534.671875"/>
      <use xlink:href="#DejaVuSans-61" x="575.785156"/>
      <use xlink:href="#DejaVuSans-69" x="637.064453"/>
      <use xlink:href="#DejaVuSans-6e" x="664.847656"/>
      <use xlink:href="#DejaVuSans-20" x="728.226562"/>
      <use xlink:href="#DejaVuSans-2d" x="760.013672"/>
      <use xlink:href="#DejaVuSans-20" x="796.097656"/>
      <use xlink:href="#DejaVuSans-32" x="827.884766"/>
      <use xlink:href="#DejaVuSans-20" x="891.507812"/>
      <use xlink:href="#DejaVuSans-48" x="923.294922"/>
      <use xlink:href="#DejaVuSans-69" x="998.490234"/>
      <use xlink:href="#DejaVuSans-64" x="1026.273438"/>
      <use xlink:href="#DejaVuSans-64" x="1089.75"/>
      <use xlink:href="#DejaVuSans-65" x="1153.226562"/>
      <use xlink:href="#DejaVuSans-6e" x="1214.75"/>
      <use xlink:href="#DejaVuSans-20" x="1278.128906"/>
      <use xlink:href="#DejaVuSans-4c" x="1309.916016"/>
      <use xlink:href="#DejaVuSans-61" x="1365.628906"/>
      <use xlink:href="#DejaVuSans-79" x="1426.908203"/>
      <use xlink:href="#DejaVuSans-65" x="1486.087891"/>
      <use xlink:href="#DejaVuSans-72" x="1547.611328"/>
     </g>
    </g>
    <g id="line2d_32">
     <path d="M 220.40625 221.17125 
L 228.40625 221.17125 
L 236.40625 221.17125 
" style="fill: none; stroke-dasharray: 5.55,2.4; stroke-dashoffset: 0; stroke: #ff0000; stroke-width: 1.5"/>
    </g>
    <g id="text_18">
     <!-- Accuracy Valid - 2 Hidden Layer -->
     <g transform="translate(242.80625 223.97125) scale(0.08 -0.08)">
      <use xlink:href="#DejaVuSans-41"/>
      <use xlink:href="#DejaVuSans-63" x="66.658203"/>
      <use xlink:href="#DejaVuSans-63" x="121.638672"/>
      <use xlink:href="#DejaVuSans-75" x="176.619141"/>
      <use xlink:href="#DejaVuSans-72" x="239.998047"/>
      <use xlink:href="#DejaVuSans-61" x="281.111328"/>
      <use xlink:href="#DejaVuSans-63" x="342.390625"/>
      <use xlink:href="#DejaVuSans-79" x="397.371094"/>
      <use xlink:href="#DejaVuSans-20" x="456.550781"/>
      <use xlink:href="#DejaVuSans-56" x="488.337891"/>
      <use xlink:href="#DejaVuSans-61" x="548.996094"/>
      <use xlink:href="#DejaVuSans-6c" x="610.275391"/>
      <use xlink:href="#DejaVuSans-69" x="638.058594"/>
      <use xlink:href="#DejaVuSans-64" x="665.841797"/>
      <use xlink:href="#DejaVuSans-20" x="729.318359"/>
      <use xlink:href="#DejaVuSans-2d" x="761.105469"/>
      <use xlink:href="#DejaVuSans-20" x="797.189453"/>
      <use xlink:href="#DejaVuSans-32" x="828.976562"/>
      <use xlink:href="#DejaVuSans-20" x="892.599609"/>
      <use xlink:href="#DejaVuSans-48" x="924.386719"/>
      <use xlink:href="#DejaVuSans-69" x="999.582031"/>
      <use xlink:href="#DejaVuSans-64" x="1027.365234"/>
      <use xlink:href="#DejaVuSans-64" x="1090.841797"/>
      <use xlink:href="#DejaVuSans-65" x="1154.318359"/>
      <use xlink:href="#DejaVuSans-6e" x="1215.841797"/>
      <use xlink:href="#DejaVuSans-20" x="1279.220703"/>
      <use xlink:href="#DejaVuSans-4c" x="1311.007812"/>
      <use xlink:href="#DejaVuSans-61" x="1366.720703"/>
      <use xlink:href="#DejaVuSans-79" x="1428"/>
      <use xlink:href="#DejaVuSans-65" x="1487.179688"/>
      <use xlink:href="#DejaVuSans-72" x="1548.703125"/>
     </g>
    </g>
    <g id="line2d_33">
     <path d="M 220.40625 232.91375 
L 228.40625 232.91375 
L 236.40625 232.91375 
" style="fill: none; stroke: #008000; stroke-width: 1.5; stroke-linecap: square"/>
    </g>
    <g id="text_19">
     <!-- Accuracy Train - 3 Hidden Layer -->
     <g transform="translate(242.80625 235.71375) scale(0.08 -0.08)">
      <defs>
       <path id="DejaVuSans-33" d="M 2597 2516 
Q 3050 2419 3304 2112 
Q 3559 1806 3559 1356 
Q 3559 666 3084 287 
Q 2609 -91 1734 -91 
Q 1441 -91 1130 -33 
Q 819 25 488 141 
L 488 750 
Q 750 597 1062 519 
Q 1375 441 1716 441 
Q 2309 441 2620 675 
Q 2931 909 2931 1356 
Q 2931 1769 2642 2001 
Q 2353 2234 1838 2234 
L 1294 2234 
L 1294 2753 
L 1863 2753 
Q 2328 2753 2575 2939 
Q 2822 3125 2822 3475 
Q 2822 3834 2567 4026 
Q 2313 4219 1838 4219 
Q 1578 4219 1281 4162 
Q 984 4106 628 3988 
L 628 4550 
Q 988 4650 1302 4700 
Q 1616 4750 1894 4750 
Q 2613 4750 3031 4423 
Q 3450 4097 3450 3541 
Q 3450 3153 3228 2886 
Q 3006 2619 2597 2516 
z
" transform="scale(0.015625)"/>
      </defs>
      <use xlink:href="#DejaVuSans-41"/>
      <use xlink:href="#DejaVuSans-63" x="66.658203"/>
      <use xlink:href="#DejaVuSans-63" x="121.638672"/>
      <use xlink:href="#DejaVuSans-75" x="176.619141"/>
      <use xlink:href="#DejaVuSans-72" x="239.998047"/>
      <use xlink:href="#DejaVuSans-61" x="281.111328"/>
      <use xlink:href="#DejaVuSans-63" x="342.390625"/>
      <use xlink:href="#DejaVuSans-79" x="397.371094"/>
      <use xlink:href="#DejaVuSans-20" x="456.550781"/>
      <use xlink:href="#DejaVuSans-54" x="488.337891"/>
      <use xlink:href="#DejaVuSans-72" x="534.671875"/>
      <use xlink:href="#DejaVuSans-61" x="575.785156"/>
      <use xlink:href="#DejaVuSans-69" x="637.064453"/>
      <use xlink:href="#DejaVuSans-6e" x="664.847656"/>
      <use xlink:href="#DejaVuSans-20" x="728.226562"/>
      <use xlink:href="#DejaVuSans-2d" x="760.013672"/>
      <use xlink:href="#DejaVuSans-20" x="796.097656"/>
      <use xlink:href="#DejaVuSans-33" x="827.884766"/>
      <use xlink:href="#DejaVuSans-20" x="891.507812"/>
      <use xlink:href="#DejaVuSans-48" x="923.294922"/>
      <use xlink:href="#DejaVuSans-69" x="998.490234"/>
      <use xlink:href="#DejaVuSans-64" x="1026.273438"/>
      <use xlink:href="#DejaVuSans-64" x="1089.75"/>
      <use xlink:href="#DejaVuSans-65" x="1153.226562"/>
      <use xlink:href="#DejaVuSans-6e" x="1214.75"/>
      <use xlink:href="#DejaVuSans-20" x="1278.128906"/>
      <use xlink:href="#DejaVuSans-4c" x="1309.916016"/>
      <use xlink:href="#DejaVuSans-61" x="1365.628906"/>
      <use xlink:href="#DejaVuSans-79" x="1426.908203"/>
      <use xlink:href="#DejaVuSans-65" x="1486.087891"/>
      <use xlink:href="#DejaVuSans-72" x="1547.611328"/>
     </g>
    </g>
    <g id="line2d_34">
     <path d="M 220.40625 244.65625 
L 228.40625 244.65625 
L 236.40625 244.65625 
" style="fill: none; stroke-dasharray: 5.55,2.4; stroke-dashoffset: 0; stroke: #008000; stroke-width: 1.5"/>
    </g>
    <g id="text_20">
     <!-- Accuracy Valid - 3 Hidden Layer -->
     <g transform="translate(242.80625 247.45625) scale(0.08 -0.08)">
      <use xlink:href="#DejaVuSans-41"/>
      <use xlink:href="#DejaVuSans-63" x="66.658203"/>
      <use xlink:href="#DejaVuSans-63" x="121.638672"/>
      <use xlink:href="#DejaVuSans-75" x="176.619141"/>
      <use xlink:href="#DejaVuSans-72" x="239.998047"/>
      <use xlink:href="#DejaVuSans-61" x="281.111328"/>
      <use xlink:href="#DejaVuSans-63" x="342.390625"/>
      <use xlink:href="#DejaVuSans-79" x="397.371094"/>
      <use xlink:href="#DejaVuSans-20" x="456.550781"/>
      <use xlink:href="#DejaVuSans-56" x="488.337891"/>
      <use xlink:href="#DejaVuSans-61" x="548.996094"/>
      <use xlink:href="#DejaVuSans-6c" x="610.275391"/>
      <use xlink:href="#DejaVuSans-69" x="638.058594"/>
      <use xlink:href="#DejaVuSans-64" x="665.841797"/>
      <use xlink:href="#DejaVuSans-20" x="729.318359"/>
      <use xlink:href="#DejaVuSans-2d" x="761.105469"/>
      <use xlink:href="#DejaVuSans-20" x="797.189453"/>
      <use xlink:href="#DejaVuSans-33" x="828.976562"/>
      <use xlink:href="#DejaVuSans-20" x="892.599609"/>
      <use xlink:href="#DejaVuSans-48" x="924.386719"/>
      <use xlink:href="#DejaVuSans-69" x="999.582031"/>
      <use xlink:href="#DejaVuSans-64" x="1027.365234"/>
      <use xlink:href="#DejaVuSans-64" x="1090.841797"/>
      <use xlink:href="#DejaVuSans-65" x="1154.318359"/>
      <use xlink:href="#DejaVuSans-6e" x="1215.841797"/>
      <use xlink:href="#DejaVuSans-20" x="1279.220703"/>
      <use xlink:href="#DejaVuSans-4c" x="1311.007812"/>
      <use xlink:href="#DejaVuSans-61" x="1366.720703"/>
      <use xlink:href="#DejaVuSans-79" x="1428"/>
      <use xlink:href="#DejaVuSans-65" x="1487.179688"/>
      <use xlink:href="#DejaVuSans-72" x="1548.703125"/>
     </g>
    </g>
   </g>
  </g>
 </g>
 <defs>
  <clipPath id="p6607b9d518">
   <rect x="72" y="34.56" width="446.4" height="221.76"/>
  </clipPath>
 </defs>
</svg>
