<?xml version="1.0" encoding="utf-8" standalone="no"?>
<!DOCTYPE svg PUBLIC "-//W3C//DTD SVG 1.1//EN"
  "http://www.w3.org/Graphics/SVG/1.1/DTD/svg11.dtd">
<svg xmlns:xlink="http://www.w3.org/1999/xlink" width="576pt" height="288pt" viewBox="0 0 576 288" xmlns="http://www.w3.org/2000/svg" version="1.1">
 <metadata>
  <rdf:RDF xmlns:dc="http://purl.org/dc/elements/1.1/" xmlns:cc="http://creativecommons.org/ns#" xmlns:rdf="http://www.w3.org/1999/02/22-rdf-syntax-ns#">
   <cc:Work>
    <dc:type rdf:resource="http://purl.org/dc/dcmitype/StillImage"/>
    <dc:date>2024-10-22T20:38:30.050069</dc:date>
    <dc:format>image/svg+xml</dc:format>
    <dc:creator>
     <cc:Agent>
      <dc:title>Matplotlib v3.9.2, https://matplotlib.org/</dc:title>
     </cc:Agent>
    </dc:creator>
   </cc:Work>
  </rdf:RDF>
 </metadata>
 <defs>
  <style type="text/css">*{stroke-linejoin: round; stroke-linecap: butt}</style>
 </defs>
 <g id="figure_1">
  <g id="patch_1">
   <path d="M 0 288 
L 576 288 
L 576 0 
L 0 0 
z
" style="fill: #ffffff"/>
  </g>
  <g id="axes_1">
   <g id="patch_2">
    <path d="M 72 256.32 
L 518.4 256.32 
L 518.4 34.56 
L 72 34.56 
z
" style="fill: #e5e5e5"/>
   </g>
   <g id="matplotlib.axis_1">
    <g id="xtick_1">
     <g id="line2d_1">
      <path d="M 88.191736 256.32 
L 88.191736 34.56 
" clip-path="url(#p91ef4b518a)" style="fill: none; stroke: #ffffff; stroke-width: 0.8; stroke-linecap: square"/>
     </g>
     <g id="line2d_2">
      <defs>
       <path id="m48fcc187dd" d="M 0 0 
L 0 3.5 
" style="stroke: #555555; stroke-width: 0.8"/>
      </defs>
      <g>
       <use xlink:href="#m48fcc187dd" x="88.191736" y="256.32" style="fill: #555555; stroke: #555555; stroke-width: 0.8"/>
      </g>
     </g>
     <g id="text_1">
      <!-- 0 -->
      <g style="fill: #555555" transform="translate(85.010486 270.918437) scale(0.1 -0.1)">
       <defs>
        <path id="DejaVuSans-30" d="M 2034 4250 
Q 1547 4250 1301 3770 
Q 1056 3291 1056 2328 
Q 1056 1369 1301 889 
Q 1547 409 2034 409 
Q 2525 409 2770 889 
Q 3016 1369 3016 2328 
Q 3016 3291 2770 3770 
Q 2525 4250 2034 4250 
z
M 2034 4750 
Q 2819 4750 3233 4129 
Q 3647 3509 3647 2328 
Q 3647 1150 3233 529 
Q 2819 -91 2034 -91 
Q 1250 -91 836 529 
Q 422 1150 422 2328 
Q 422 3509 836 4129 
Q 1250 4750 2034 4750 
z
" transform="scale(0.015625)"/>
       </defs>
       <use xlink:href="#DejaVuSans-30"/>
      </g>
     </g>
    </g>
    <g id="xtick_2">
     <g id="line2d_3">
      <path d="M 170.175207 256.32 
L 170.175207 34.56 
" clip-path="url(#p91ef4b518a)" style="fill: none; stroke: #ffffff; stroke-width: 0.8; stroke-linecap: square"/>
     </g>
     <g id="line2d_4">
      <g>
       <use xlink:href="#m48fcc187dd" x="170.175207" y="256.32" style="fill: #555555; stroke: #555555; stroke-width: 0.8"/>
      </g>
     </g>
     <g id="text_2">
      <!-- 20 -->
      <g style="fill: #555555" transform="translate(163.812707 270.918437) scale(0.1 -0.1)">
       <defs>
        <path id="DejaVuSans-32" d="M 1228 531 
L 3431 531 
L 3431 0 
L 469 0 
L 469 531 
Q 828 903 1448 1529 
Q 2069 2156 2228 2338 
Q 2531 2678 2651 2914 
Q 2772 3150 2772 3378 
Q 2772 3750 2511 3984 
Q 2250 4219 1831 4219 
Q 1534 4219 1204 4116 
Q 875 4013 500 3803 
L 500 4441 
Q 881 4594 1212 4672 
Q 1544 4750 1819 4750 
Q 2544 4750 2975 4387 
Q 3406 4025 3406 3419 
Q 3406 3131 3298 2873 
Q 3191 2616 2906 2266 
Q 2828 2175 2409 1742 
Q 1991 1309 1228 531 
z
" transform="scale(0.015625)"/>
       </defs>
       <use xlink:href="#DejaVuSans-32"/>
       <use xlink:href="#DejaVuSans-30" x="63.623047"/>
      </g>
     </g>
    </g>
    <g id="xtick_3">
     <g id="line2d_5">
      <path d="M 252.158678 256.32 
L 252.158678 34.56 
" clip-path="url(#p91ef4b518a)" style="fill: none; stroke: #ffffff; stroke-width: 0.8; stroke-linecap: square"/>
     </g>
     <g id="line2d_6">
      <g>
       <use xlink:href="#m48fcc187dd" x="252.158678" y="256.32" style="fill: #555555; stroke: #555555; stroke-width: 0.8"/>
      </g>
     </g>
     <g id="text_3">
      <!-- 40 -->
      <g style="fill: #555555" transform="translate(245.796178 270.918437) scale(0.1 -0.1)">
       <defs>
        <path id="DejaVuSans-34" d="M 2419 4116 
L 825 1625 
L 2419 1625 
L 2419 4116 
z
M 2253 4666 
L 3047 4666 
L 3047 1625 
L 3713 1625 
L 3713 1100 
L 3047 1100 
L 3047 0 
L 2419 0 
L 2419 1100 
L 313 1100 
L 313 1709 
L 2253 4666 
z
" transform="scale(0.015625)"/>
       </defs>
       <use xlink:href="#DejaVuSans-34"/>
       <use xlink:href="#DejaVuSans-30" x="63.623047"/>
      </g>
     </g>
    </g>
    <g id="xtick_4">
     <g id="line2d_7">
      <path d="M 334.142149 256.32 
L 334.142149 34.56 
" clip-path="url(#p91ef4b518a)" style="fill: none; stroke: #ffffff; stroke-width: 0.8; stroke-linecap: square"/>
     </g>
     <g id="line2d_8">
      <g>
       <use xlink:href="#m48fcc187dd" x="334.142149" y="256.32" style="fill: #555555; stroke: #555555; stroke-width: 0.8"/>
      </g>
     </g>
     <g id="text_4">
      <!-- 60 -->
      <g style="fill: #555555" transform="translate(327.779649 270.918437) scale(0.1 -0.1)">
       <defs>
        <path id="DejaVuSans-36" d="M 2113 2584 
Q 1688 2584 1439 2293 
Q 1191 2003 1191 1497 
Q 1191 994 1439 701 
Q 1688 409 2113 409 
Q 2538 409 2786 701 
Q 3034 994 3034 1497 
Q 3034 2003 2786 2293 
Q 2538 2584 2113 2584 
z
M 3366 4563 
L 3366 3988 
Q 3128 4100 2886 4159 
Q 2644 4219 2406 4219 
Q 1781 4219 1451 3797 
Q 1122 3375 1075 2522 
Q 1259 2794 1537 2939 
Q 1816 3084 2150 3084 
Q 2853 3084 3261 2657 
Q 3669 2231 3669 1497 
Q 3669 778 3244 343 
Q 2819 -91 2113 -91 
Q 1303 -91 875 529 
Q 447 1150 447 2328 
Q 447 3434 972 4092 
Q 1497 4750 2381 4750 
Q 2619 4750 2861 4703 
Q 3103 4656 3366 4563 
z
" transform="scale(0.015625)"/>
       </defs>
       <use xlink:href="#DejaVuSans-36"/>
       <use xlink:href="#DejaVuSans-30" x="63.623047"/>
      </g>
     </g>
    </g>
    <g id="xtick_5">
     <g id="line2d_9">
      <path d="M 416.12562 256.32 
L 416.12562 34.56 
" clip-path="url(#p91ef4b518a)" style="fill: none; stroke: #ffffff; stroke-width: 0.8; stroke-linecap: square"/>
     </g>
     <g id="line2d_10">
      <g>
       <use xlink:href="#m48fcc187dd" x="416.12562" y="256.32" style="fill: #555555; stroke: #555555; stroke-width: 0.8"/>
      </g>
     </g>
     <g id="text_5">
      <!-- 80 -->
      <g style="fill: #555555" transform="translate(409.76312 270.918437) scale(0.1 -0.1)">
       <defs>
        <path id="DejaVuSans-38" d="M 2034 2216 
Q 1584 2216 1326 1975 
Q 1069 1734 1069 1313 
Q 1069 891 1326 650 
Q 1584 409 2034 409 
Q 2484 409 2743 651 
Q 3003 894 3003 1313 
Q 3003 1734 2745 1975 
Q 2488 2216 2034 2216 
z
M 1403 2484 
Q 997 2584 770 2862 
Q 544 3141 544 3541 
Q 544 4100 942 4425 
Q 1341 4750 2034 4750 
Q 2731 4750 3128 4425 
Q 3525 4100 3525 3541 
Q 3525 3141 3298 2862 
Q 3072 2584 2669 2484 
Q 3125 2378 3379 2068 
Q 3634 1759 3634 1313 
Q 3634 634 3220 271 
Q 2806 -91 2034 -91 
Q 1263 -91 848 271 
Q 434 634 434 1313 
Q 434 1759 690 2068 
Q 947 2378 1403 2484 
z
M 1172 3481 
Q 1172 3119 1398 2916 
Q 1625 2713 2034 2713 
Q 2441 2713 2670 2916 
Q 2900 3119 2900 3481 
Q 2900 3844 2670 4047 
Q 2441 4250 2034 4250 
Q 1625 4250 1398 4047 
Q 1172 3844 1172 3481 
z
" transform="scale(0.015625)"/>
       </defs>
       <use xlink:href="#DejaVuSans-38"/>
       <use xlink:href="#DejaVuSans-30" x="63.623047"/>
      </g>
     </g>
    </g>
    <g id="xtick_6">
     <g id="line2d_11">
      <path d="M 498.109091 256.32 
L 498.109091 34.56 
" clip-path="url(#p91ef4b518a)" style="fill: none; stroke: #ffffff; stroke-width: 0.8; stroke-linecap: square"/>
     </g>
     <g id="line2d_12">
      <g>
       <use xlink:href="#m48fcc187dd" x="498.109091" y="256.32" style="fill: #555555; stroke: #555555; stroke-width: 0.8"/>
      </g>
     </g>
     <g id="text_6">
      <!-- 100 -->
      <g style="fill: #555555" transform="translate(488.565341 270.918437) scale(0.1 -0.1)">
       <defs>
        <path id="DejaVuSans-31" d="M 794 531 
L 1825 531 
L 1825 4091 
L 703 3866 
L 703 4441 
L 1819 4666 
L 2450 4666 
L 2450 531 
L 3481 531 
L 3481 0 
L 794 0 
L 794 531 
z
" transform="scale(0.015625)"/>
       </defs>
       <use xlink:href="#DejaVuSans-31"/>
       <use xlink:href="#DejaVuSans-30" x="63.623047"/>
       <use xlink:href="#DejaVuSans-30" x="127.246094"/>
      </g>
     </g>
    </g>
    <g id="text_7">
     <!-- Epoch number -->
     <g style="fill: #555555" transform="translate(251.503125 286.11625) scale(0.12 -0.12)">
      <defs>
       <path id="DejaVuSans-45" d="M 628 4666 
L 3578 4666 
L 3578 4134 
L 1259 4134 
L 1259 2753 
L 3481 2753 
L 3481 2222 
L 1259 2222 
L 1259 531 
L 3634 531 
L 3634 0 
L 628 0 
L 628 4666 
z
" transform="scale(0.015625)"/>
       <path id="DejaVuSans-70" d="M 1159 525 
L 1159 -1331 
L 581 -1331 
L 581 3500 
L 1159 3500 
L 1159 2969 
Q 1341 3281 1617 3432 
Q 1894 3584 2278 3584 
Q 2916 3584 3314 3078 
Q 3713 2572 3713 1747 
Q 3713 922 3314 415 
Q 2916 -91 2278 -91 
Q 1894 -91 1617 61 
Q 1341 213 1159 525 
z
M 3116 1747 
Q 3116 2381 2855 2742 
Q 2594 3103 2138 3103 
Q 1681 3103 1420 2742 
Q 1159 2381 1159 1747 
Q 1159 1113 1420 752 
Q 1681 391 2138 391 
Q 2594 391 2855 752 
Q 3116 1113 3116 1747 
z
" transform="scale(0.015625)"/>
       <path id="DejaVuSans-6f" d="M 1959 3097 
Q 1497 3097 1228 2736 
Q 959 2375 959 1747 
Q 959 1119 1226 758 
Q 1494 397 1959 397 
Q 2419 397 2687 759 
Q 2956 1122 2956 1747 
Q 2956 2369 2687 2733 
Q 2419 3097 1959 3097 
z
M 1959 3584 
Q 2709 3584 3137 3096 
Q 3566 2609 3566 1747 
Q 3566 888 3137 398 
Q 2709 -91 1959 -91 
Q 1206 -91 779 398 
Q 353 888 353 1747 
Q 353 2609 779 3096 
Q 1206 3584 1959 3584 
z
" transform="scale(0.015625)"/>
       <path id="DejaVuSans-63" d="M 3122 3366 
L 3122 2828 
Q 2878 2963 2633 3030 
Q 2388 3097 2138 3097 
Q 1578 3097 1268 2742 
Q 959 2388 959 1747 
Q 959 1106 1268 751 
Q 1578 397 2138 397 
Q 2388 397 2633 464 
Q 2878 531 3122 666 
L 3122 134 
Q 2881 22 2623 -34 
Q 2366 -91 2075 -91 
Q 1284 -91 818 406 
Q 353 903 353 1747 
Q 353 2603 823 3093 
Q 1294 3584 2113 3584 
Q 2378 3584 2631 3529 
Q 2884 3475 3122 3366 
z
" transform="scale(0.015625)"/>
       <path id="DejaVuSans-68" d="M 3513 2113 
L 3513 0 
L 2938 0 
L 2938 2094 
Q 2938 2591 2744 2837 
Q 2550 3084 2163 3084 
Q 1697 3084 1428 2787 
Q 1159 2491 1159 1978 
L 1159 0 
L 581 0 
L 581 4863 
L 1159 4863 
L 1159 2956 
Q 1366 3272 1645 3428 
Q 1925 3584 2291 3584 
Q 2894 3584 3203 3211 
Q 3513 2838 3513 2113 
z
" transform="scale(0.015625)"/>
       <path id="DejaVuSans-20" transform="scale(0.015625)"/>
       <path id="DejaVuSans-6e" d="M 3513 2113 
L 3513 0 
L 2938 0 
L 2938 2094 
Q 2938 2591 2744 2837 
Q 2550 3084 2163 3084 
Q 1697 3084 1428 2787 
Q 1159 2491 1159 1978 
L 1159 0 
L 581 0 
L 581 3500 
L 1159 3500 
L 1159 2956 
Q 1366 3272 1645 3428 
Q 1925 3584 2291 3584 
Q 2894 3584 3203 3211 
Q 3513 2838 3513 2113 
z
" transform="scale(0.015625)"/>
       <path id="DejaVuSans-75" d="M 544 1381 
L 544 3500 
L 1119 3500 
L 1119 1403 
Q 1119 906 1312 657 
Q 1506 409 1894 409 
Q 2359 409 2629 706 
Q 2900 1003 2900 1516 
L 2900 3500 
L 3475 3500 
L 3475 0 
L 2900 0 
L 2900 538 
Q 2691 219 2414 64 
Q 2138 -91 1772 -91 
Q 1169 -91 856 284 
Q 544 659 544 1381 
z
M 1991 3584 
L 1991 3584 
z
" transform="scale(0.015625)"/>
       <path id="DejaVuSans-6d" d="M 3328 2828 
Q 3544 3216 3844 3400 
Q 4144 3584 4550 3584 
Q 5097 3584 5394 3201 
Q 5691 2819 5691 2113 
L 5691 0 
L 5113 0 
L 5113 2094 
Q 5113 2597 4934 2840 
Q 4756 3084 4391 3084 
Q 3944 3084 3684 2787 
Q 3425 2491 3425 1978 
L 3425 0 
L 2847 0 
L 2847 2094 
Q 2847 2600 2669 2842 
Q 2491 3084 2119 3084 
Q 1678 3084 1418 2786 
Q 1159 2488 1159 1978 
L 1159 0 
L 581 0 
L 581 3500 
L 1159 3500 
L 1159 2956 
Q 1356 3278 1631 3431 
Q 1906 3584 2284 3584 
Q 2666 3584 2933 3390 
Q 3200 3197 3328 2828 
z
" transform="scale(0.015625)"/>
       <path id="DejaVuSans-62" d="M 3116 1747 
Q 3116 2381 2855 2742 
Q 2594 3103 2138 3103 
Q 1681 3103 1420 2742 
Q 1159 2381 1159 1747 
Q 1159 1113 1420 752 
Q 1681 391 2138 391 
Q 2594 391 2855 752 
Q 3116 1113 3116 1747 
z
M 1159 2969 
Q 1341 3281 1617 3432 
Q 1894 3584 2278 3584 
Q 2916 3584 3314 3078 
Q 3713 2572 3713 1747 
Q 3713 922 3314 415 
Q 2916 -91 2278 -91 
Q 1894 -91 1617 61 
Q 1341 213 1159 525 
L 1159 0 
L 581 0 
L 581 4863 
L 1159 4863 
L 1159 2969 
z
" transform="scale(0.015625)"/>
       <path id="DejaVuSans-65" d="M 3597 1894 
L 3597 1613 
L 953 1613 
Q 991 1019 1311 708 
Q 1631 397 2203 397 
Q 2534 397 2845 478 
Q 3156 559 3463 722 
L 3463 178 
Q 3153 47 2828 -22 
Q 2503 -91 2169 -91 
Q 1331 -91 842 396 
Q 353 884 353 1716 
Q 353 2575 817 3079 
Q 1281 3584 2069 3584 
Q 2775 3584 3186 3129 
Q 3597 2675 3597 1894 
z
M 3022 2063 
Q 3016 2534 2758 2815 
Q 2500 3097 2075 3097 
Q 1594 3097 1305 2825 
Q 1016 2553 972 2059 
L 3022 2063 
z
" transform="scale(0.015625)"/>
       <path id="DejaVuSans-72" d="M 2631 2963 
Q 2534 3019 2420 3045 
Q 2306 3072 2169 3072 
Q 1681 3072 1420 2755 
Q 1159 2438 1159 1844 
L 1159 0 
L 581 0 
L 581 3500 
L 1159 3500 
L 1159 2956 
Q 1341 3275 1631 3429 
Q 1922 3584 2338 3584 
Q 2397 3584 2469 3576 
Q 2541 3569 2628 3553 
L 2631 2963 
z
" transform="scale(0.015625)"/>
      </defs>
      <use xlink:href="#DejaVuSans-45"/>
      <use xlink:href="#DejaVuSans-70" x="63.183594"/>
      <use xlink:href="#DejaVuSans-6f" x="126.660156"/>
      <use xlink:href="#DejaVuSans-63" x="187.841797"/>
      <use xlink:href="#DejaVuSans-68" x="242.822266"/>
      <use xlink:href="#DejaVuSans-20" x="306.201172"/>
      <use xlink:href="#DejaVuSans-6e" x="337.988281"/>
      <use xlink:href="#DejaVuSans-75" x="401.367188"/>
      <use xlink:href="#DejaVuSans-6d" x="464.746094"/>
      <use xlink:href="#DejaVuSans-62" x="562.158203"/>
      <use xlink:href="#DejaVuSans-65" x="625.634766"/>
      <use xlink:href="#DejaVuSans-72" x="687.158203"/>
     </g>
    </g>
   </g>
   <g id="matplotlib.axis_2">
    <g id="ytick_1">
     <g id="line2d_13">
      <path d="M 72 238.645579 
L 518.4 238.645579 
" clip-path="url(#p91ef4b518a)" style="fill: none; stroke: #ffffff; stroke-width: 0.8; stroke-linecap: square"/>
     </g>
     <g id="line2d_14">
      <defs>
       <path id="m72fadf4e35" d="M 0 0 
L -3.5 0 
" style="stroke: #555555; stroke-width: 0.8"/>
      </defs>
      <g>
       <use xlink:href="#m72fadf4e35" x="72" y="238.645579" style="fill: #555555; stroke: #555555; stroke-width: 0.8"/>
      </g>
     </g>
     <g id="text_8">
      <!-- 0.2 -->
      <g style="fill: #555555" transform="translate(49.096875 242.444798) scale(0.1 -0.1)">
       <defs>
        <path id="DejaVuSans-2e" d="M 684 794 
L 1344 794 
L 1344 0 
L 684 0 
L 684 794 
z
" transform="scale(0.015625)"/>
       </defs>
       <use xlink:href="#DejaVuSans-30"/>
       <use xlink:href="#DejaVuSans-2e" x="63.623047"/>
       <use xlink:href="#DejaVuSans-32" x="95.410156"/>
      </g>
     </g>
    </g>
    <g id="ytick_2">
     <g id="line2d_15">
      <path d="M 72 201.874639 
L 518.4 201.874639 
" clip-path="url(#p91ef4b518a)" style="fill: none; stroke: #ffffff; stroke-width: 0.8; stroke-linecap: square"/>
     </g>
     <g id="line2d_16">
      <g>
       <use xlink:href="#m72fadf4e35" x="72" y="201.874639" style="fill: #555555; stroke: #555555; stroke-width: 0.8"/>
      </g>
     </g>
     <g id="text_9">
      <!-- 0.4 -->
      <g style="fill: #555555" transform="translate(49.096875 205.673857) scale(0.1 -0.1)">
       <use xlink:href="#DejaVuSans-30"/>
       <use xlink:href="#DejaVuSans-2e" x="63.623047"/>
       <use xlink:href="#DejaVuSans-34" x="95.410156"/>
      </g>
     </g>
    </g>
    <g id="ytick_3">
     <g id="line2d_17">
      <path d="M 72 165.103698 
L 518.4 165.103698 
" clip-path="url(#p91ef4b518a)" style="fill: none; stroke: #ffffff; stroke-width: 0.8; stroke-linecap: square"/>
     </g>
     <g id="line2d_18">
      <g>
       <use xlink:href="#m72fadf4e35" x="72" y="165.103698" style="fill: #555555; stroke: #555555; stroke-width: 0.8"/>
      </g>
     </g>
     <g id="text_10">
      <!-- 0.6 -->
      <g style="fill: #555555" transform="translate(49.096875 168.902917) scale(0.1 -0.1)">
       <use xlink:href="#DejaVuSans-30"/>
       <use xlink:href="#DejaVuSans-2e" x="63.623047"/>
       <use xlink:href="#DejaVuSans-36" x="95.410156"/>
      </g>
     </g>
    </g>
    <g id="ytick_4">
     <g id="line2d_19">
      <path d="M 72 128.332758 
L 518.4 128.332758 
" clip-path="url(#p91ef4b518a)" style="fill: none; stroke: #ffffff; stroke-width: 0.8; stroke-linecap: square"/>
     </g>
     <g id="line2d_20">
      <g>
       <use xlink:href="#m72fadf4e35" x="72" y="128.332758" style="fill: #555555; stroke: #555555; stroke-width: 0.8"/>
      </g>
     </g>
     <g id="text_11">
      <!-- 0.8 -->
      <g style="fill: #555555" transform="translate(49.096875 132.131976) scale(0.1 -0.1)">
       <use xlink:href="#DejaVuSans-30"/>
       <use xlink:href="#DejaVuSans-2e" x="63.623047"/>
       <use xlink:href="#DejaVuSans-38" x="95.410156"/>
      </g>
     </g>
    </g>
    <g id="ytick_5">
     <g id="line2d_21">
      <path d="M 72 91.561817 
L 518.4 91.561817 
" clip-path="url(#p91ef4b518a)" style="fill: none; stroke: #ffffff; stroke-width: 0.8; stroke-linecap: square"/>
     </g>
     <g id="line2d_22">
      <g>
       <use xlink:href="#m72fadf4e35" x="72" y="91.561817" style="fill: #555555; stroke: #555555; stroke-width: 0.8"/>
      </g>
     </g>
     <g id="text_12">
      <!-- 1.0 -->
      <g style="fill: #555555" transform="translate(49.096875 95.361036) scale(0.1 -0.1)">
       <use xlink:href="#DejaVuSans-31"/>
       <use xlink:href="#DejaVuSans-2e" x="63.623047"/>
       <use xlink:href="#DejaVuSans-30" x="95.410156"/>
      </g>
     </g>
    </g>
    <g id="ytick_6">
     <g id="line2d_23">
      <path d="M 72 54.790877 
L 518.4 54.790877 
" clip-path="url(#p91ef4b518a)" style="fill: none; stroke: #ffffff; stroke-width: 0.8; stroke-linecap: square"/>
     </g>
     <g id="line2d_24">
      <g>
       <use xlink:href="#m72fadf4e35" x="72" y="54.790877" style="fill: #555555; stroke: #555555; stroke-width: 0.8"/>
      </g>
     </g>
     <g id="text_13">
      <!-- 1.2 -->
      <g style="fill: #555555" transform="translate(49.096875 58.590096) scale(0.1 -0.1)">
       <use xlink:href="#DejaVuSans-31"/>
       <use xlink:href="#DejaVuSans-2e" x="63.623047"/>
       <use xlink:href="#DejaVuSans-32" x="95.410156"/>
      </g>
     </g>
    </g>
    <g id="text_14">
     <!-- Error -->
     <g style="fill: #555555" transform="translate(42.60125 160.062187) rotate(-90) scale(0.12 -0.12)">
      <use xlink:href="#DejaVuSans-45"/>
      <use xlink:href="#DejaVuSans-72" x="63.183594"/>
      <use xlink:href="#DejaVuSans-72" x="102.546875"/>
      <use xlink:href="#DejaVuSans-6f" x="141.410156"/>
      <use xlink:href="#DejaVuSans-72" x="202.591797"/>
     </g>
    </g>
   </g>
   <g id="line2d_25">
    <path d="M 92.290909 46.254166 
L 96.390083 73.263892 
L 100.489256 88.003893 
L 104.58843 98.200594 
L 108.687603 105.503124 
L 112.786777 114.142493 
L 116.88595 119.896163 
L 120.985124 123.595955 
L 125.084298 128.259975 
L 129.183471 132.161901 
L 133.282645 134.955791 
L 137.381818 136.942838 
L 141.480992 139.627361 
L 145.580165 141.892455 
L 149.679339 143.341531 
L 153.778512 145.40919 
L 157.877686 144.141075 
L 161.97686 146.7465 
L 166.076033 148.787761 
L 170.175207 150.573364 
L 174.27438 150.143341 
L 178.373554 151.561851 
L 182.472727 152.953282 
L 186.571901 152.685854 
L 190.671074 153.742085 
L 194.770248 154.463158 
L 198.869421 156.139443 
L 202.968595 155.047081 
L 207.067769 157.285757 
L 211.166942 156.511976 
L 215.266116 157.37654 
L 219.365289 157.687163 
L 223.464463 159.047023 
L 227.563636 159.350035 
L 231.66281 160.177459 
L 235.761983 159.806052 
L 239.861157 160.950667 
L 243.960331 160.816003 
L 248.059504 162.269639 
L 252.158678 162.280683 
L 256.257851 161.616457 
L 260.357025 162.313499 
L 264.456198 163.374516 
L 268.555372 162.761584 
L 272.654545 162.981679 
L 276.753719 163.545164 
L 280.852893 164.513349 
L 284.952066 164.595267 
L 289.05124 164.002574 
L 293.150413 164.957616 
L 297.249587 164.339939 
L 301.34876 165.981872 
L 305.447934 166.372079 
L 309.547107 165.304389 
L 313.646281 165.978189 
L 317.745455 166.756329 
L 321.844628 166.296345 
L 325.943802 167.109855 
L 330.042975 167.616254 
L 334.142149 165.642604 
L 338.241322 166.493198 
L 342.340496 168.258481 
L 346.439669 169.010708 
L 350.538843 168.510284 
L 354.638017 167.931529 
L 358.73719 167.711464 
L 362.836364 167.978638 
L 366.935537 169.289099 
L 371.034711 166.769852 
L 375.133884 169.256774 
L 379.233058 169.772201 
L 383.332231 169.725913 
L 387.431405 169.922165 
L 391.530579 169.150875 
L 395.629752 171.196747 
L 399.728926 170.48905 
L 403.828099 170.141814 
L 407.927273 170.577822 
L 412.026446 171.00068 
L 416.12562 171.541986 
L 420.224793 171.25869 
L 424.323967 170.272144 
L 428.42314 171.211066 
L 432.522314 171.365331 
L 436.621488 172.067815 
L 440.720661 170.64271 
L 444.819835 172.258311 
L 448.919008 172.178665 
L 453.018182 172.12125 
L 457.117355 172.540232 
L 461.216529 172.997718 
L 465.315702 171.510233 
L 469.414876 172.289839 
L 473.51405 173.197519 
L 477.613223 173.311142 
L 481.712397 172.821246 
L 485.81157 173.090034 
L 489.910744 174.020488 
L 494.009917 172.999141 
L 498.109091 173.945931 
" clip-path="url(#p91ef4b518a)" style="fill: none; stroke: #ff0000; stroke-width: 1.5; stroke-linecap: square"/>
   </g>
   <g id="line2d_26">
    <path d="M 92.290909 44.64 
L 96.390083 71.133325 
L 100.489256 84.926683 
L 104.58843 93.805524 
L 108.687603 100.706822 
L 112.786777 109.466417 
L 116.88595 114.970883 
L 120.985124 118.057603 
L 125.084298 121.955992 
L 129.183471 125.926618 
L 133.282645 128.740905 
L 137.381818 130.814183 
L 141.480992 132.409489 
L 145.580165 134.516396 
L 149.679339 135.404687 
L 153.778512 137.441545 
L 157.877686 134.89258 
L 161.97686 137.73104 
L 166.076033 139.395917 
L 170.175207 140.904105 
L 174.27438 139.749317 
L 178.373554 141.297309 
L 182.472727 142.181401 
L 186.571901 142.077282 
L 190.671074 142.281179 
L 194.770248 142.871272 
L 198.869421 144.367151 
L 202.968595 142.973315 
L 207.067769 144.479717 
L 211.166942 144.254126 
L 215.266116 144.304534 
L 219.365289 144.511734 
L 223.464463 145.085469 
L 227.563636 145.237075 
L 231.66281 145.941812 
L 235.761983 145.386149 
L 239.861157 146.05885 
L 243.960331 145.571716 
L 248.059504 146.897054 
L 252.158678 146.903357 
L 256.257851 145.935723 
L 260.357025 146.467106 
L 264.456198 147.087123 
L 268.555372 146.553103 
L 272.654545 146.256521 
L 276.753719 146.540883 
L 280.852893 147.027536 
L 284.952066 147.230396 
L 289.05124 146.680506 
L 293.150413 147.250396 
L 297.249587 146.412362 
L 301.34876 148.017238 
L 305.447934 148.457781 
L 309.547107 146.949245 
L 313.646281 147.414146 
L 317.745455 148.00321 
L 321.844628 147.150707 
L 325.943802 148.451298 
L 330.042975 148.059585 
L 334.142149 146.22269 
L 338.241322 147.07657 
L 342.340496 148.405698 
L 346.439669 148.895452 
L 350.538843 148.189914 
L 354.638017 147.255185 
L 358.73719 146.740201 
L 362.836364 147.234366 
L 366.935537 148.041292 
L 371.034711 145.342229 
L 375.133884 148.185887 
L 379.233058 148.337705 
L 383.332231 148.196239 
L 387.431405 148.352569 
L 391.530579 147.586258 
L 395.629752 149.159444 
L 399.728926 148.323252 
L 403.828099 147.717662 
L 407.927273 148.475169 
L 412.026446 148.050206 
L 416.12562 148.908812 
L 420.224793 148.554964 
L 424.323967 147.224379 
L 428.42314 148.08354 
L 432.522314 148.073138 
L 436.621488 149.012469 
L 440.720661 147.271721 
L 444.819835 148.953859 
L 448.919008 148.572357 
L 453.018182 148.346065 
L 457.117355 148.756172 
L 461.216529 148.954703 
L 465.315702 147.369378 
L 469.414876 147.824367 
L 473.51405 148.640524 
L 477.613223 148.57124 
L 481.712397 148.099397 
L 485.81157 148.339946 
L 489.910744 149.126113 
L 494.009917 147.902463 
L 498.109091 149.205906 
" clip-path="url(#p91ef4b518a)" style="fill: none; stroke-dasharray: 5.55,2.4; stroke-dashoffset: 0; stroke: #ff0000; stroke-width: 1.5"/>
   </g>
   <g id="line2d_27">
    <path d="M 92.290909 76.413764 
L 96.390083 112.988549 
L 100.489256 129.440418 
L 104.58843 140.964123 
L 108.687603 148.580292 
L 112.786777 153.654299 
L 116.88595 160.18069 
L 120.985124 164.181258 
L 125.084298 167.658439 
L 129.183471 170.35436 
L 133.282645 172.107046 
L 137.381818 175.97126 
L 141.480992 178.276602 
L 145.580165 179.494585 
L 149.679339 180.807438 
L 153.778512 183.178098 
L 157.877686 184.626908 
L 161.97686 185.49306 
L 166.076033 186.363419 
L 170.175207 187.620847 
L 174.27438 187.61865 
L 178.373554 189.397571 
L 182.472727 189.54643 
L 186.571901 190.597699 
L 190.671074 191.761211 
L 194.770248 190.46934 
L 198.869421 191.120843 
L 202.968595 193.907609 
L 207.067769 194.992599 
L 211.166942 195.31439 
L 215.266116 195.15783 
L 219.365289 196.060062 
L 223.464463 197.573484 
L 227.563636 196.455828 
L 231.66281 196.212288 
L 235.761983 197.554106 
L 239.861157 199.235884 
L 243.960331 199.03357 
L 248.059504 198.568327 
L 252.158678 199.931683 
L 256.257851 200.157435 
L 260.357025 201.442716 
L 264.456198 201.225513 
L 268.555372 201.367865 
L 272.654545 201.24465 
L 276.753719 201.894406 
L 280.852893 201.278886 
L 284.952066 201.646865 
L 289.05124 202.963585 
L 293.150413 202.952148 
L 297.249587 204.393763 
L 301.34876 204.063539 
L 305.447934 203.884439 
L 309.547107 204.470889 
L 313.646281 204.065498 
L 317.745455 205.908174 
L 321.844628 205.416813 
L 325.943802 206.13611 
L 330.042975 205.654284 
L 334.142149 206.557698 
L 338.241322 205.875532 
L 342.340496 207.217289 
L 346.439669 207.509562 
L 350.538843 207.191527 
L 354.638017 207.148326 
L 358.73719 207.752587 
L 362.836364 208.230048 
L 366.935537 206.819863 
L 371.034711 206.149714 
L 375.133884 208.361063 
L 379.233058 208.909311 
L 383.332231 208.017496 
L 387.431405 208.785848 
L 391.530579 209.863735 
L 395.629752 209.773349 
L 399.728926 209.670309 
L 403.828099 209.619339 
L 407.927273 210.167524 
L 412.026446 209.9977 
L 416.12562 209.956735 
L 420.224793 210.358762 
L 424.323967 209.208358 
L 428.42314 209.141841 
L 432.522314 210.249299 
L 436.621488 210.71537 
L 440.720661 210.367491 
L 444.819835 210.321798 
L 448.919008 210.065019 
L 453.018182 211.925367 
L 457.117355 211.546104 
L 461.216529 212.796944 
L 465.315702 212.376394 
L 469.414876 211.326688 
L 473.51405 210.771486 
L 477.613223 212.568135 
L 481.712397 210.505348 
L 485.81157 213.284844 
L 489.910744 212.440777 
L 494.009917 213.180797 
L 498.109091 212.689962 
" clip-path="url(#p91ef4b518a)" style="fill: none; stroke: #008000; stroke-width: 1.5; stroke-linecap: square"/>
   </g>
   <g id="line2d_28">
    <path d="M 92.290909 74.718482 
L 96.390083 109.55124 
L 100.489256 124.966984 
L 104.58843 135.224851 
L 108.687603 141.797443 
L 112.786777 144.762437 
L 116.88595 150.568513 
L 120.985124 153.863103 
L 125.084298 156.840199 
L 129.183471 158.123838 
L 133.282645 159.742497 
L 137.381818 162.217482 
L 141.480992 164.123855 
L 145.580165 164.145994 
L 149.679339 165.329551 
L 153.778512 166.830053 
L 157.877686 167.249365 
L 161.97686 167.749158 
L 166.076033 168.41986 
L 170.175207 168.197337 
L 174.27438 167.943955 
L 178.373554 169.291227 
L 182.472727 168.770939 
L 186.571901 169.373515 
L 190.671074 169.197658 
L 194.770248 168.178808 
L 198.869421 167.878459 
L 202.968595 170.850599 
L 207.067769 171.091232 
L 211.166942 170.259038 
L 215.266116 168.978749 
L 219.365289 170.332482 
L 223.464463 171.553522 
L 227.563636 170.253792 
L 231.66281 169.55662 
L 235.761983 169.70233 
L 239.861157 170.928782 
L 243.960331 169.76001 
L 248.059504 169.728945 
L 252.158678 169.523514 
L 256.257851 169.671276 
L 260.357025 170.536602 
L 264.456198 170.405761 
L 268.555372 169.346752 
L 272.654545 168.009436 
L 276.753719 167.998165 
L 280.852893 168.452908 
L 284.952066 167.727988 
L 289.05124 168.732451 
L 293.150413 168.888906 
L 297.249587 169.65772 
L 301.34876 168.497953 
L 305.447934 167.876814 
L 309.547107 168.333489 
L 313.646281 166.676924 
L 317.745455 168.856024 
L 321.844628 167.844014 
L 325.943802 167.653537 
L 330.042975 166.286413 
L 334.142149 166.575241 
L 338.241322 165.743472 
L 342.340496 166.934247 
L 346.439669 167.039824 
L 350.538843 166.325193 
L 354.638017 166.233828 
L 358.73719 166.053018 
L 362.836364 165.572164 
L 366.935537 163.625169 
L 371.034711 163.019637 
L 375.133884 164.889148 
L 379.233058 165.299266 
L 383.332231 164.668876 
L 387.431405 163.616332 
L 391.530579 164.33917 
L 395.629752 164.522352 
L 399.728926 163.813249 
L 403.828099 163.492001 
L 407.927273 162.912556 
L 412.026446 162.298009 
L 416.12562 161.832569 
L 420.224793 161.875156 
L 424.323967 160.813588 
L 428.42314 159.974002 
L 432.522314 160.887864 
L 436.621488 161.609748 
L 440.720661 160.521479 
L 444.819835 159.887577 
L 448.919008 159.473509 
L 453.018182 161.172743 
L 457.117355 159.086825 
L 461.216529 161.05338 
L 465.315702 160.97041 
L 469.414876 158.953935 
L 473.51405 157.404307 
L 477.613223 159.353458 
L 481.712397 156.298521 
L 485.81157 158.886351 
L 489.910744 157.90207 
L 494.009917 158.23883 
L 498.109091 157.11034 
" clip-path="url(#p91ef4b518a)" style="fill: none; stroke-dasharray: 5.55,2.4; stroke-dashoffset: 0; stroke: #008000; stroke-width: 1.5"/>
   </g>
   <g id="line2d_29">
    <path d="M 92.290909 103.787908 
L 96.390083 141.003462 
L 100.489256 160.75764 
L 104.58843 171.162325 
L 108.687603 179.343491 
L 112.786777 184.391627 
L 116.88595 190.060667 
L 120.985124 193.875838 
L 125.084298 197.911252 
L 129.183471 199.522743 
L 133.282645 200.919447 
L 137.381818 202.022946 
L 141.480992 205.111152 
L 145.580165 207.776955 
L 149.679339 209.222142 
L 153.778512 209.479297 
L 157.877686 212.22385 
L 161.97686 213.140401 
L 166.076033 214.557988 
L 170.175207 215.060564 
L 174.27438 215.879136 
L 178.373554 217.267138 
L 182.472727 217.331507 
L 186.571901 219.244932 
L 190.671074 220.522387 
L 194.770248 220.289826 
L 198.869421 221.681792 
L 202.968595 220.780918 
L 207.067769 222.87558 
L 211.166942 223.31262 
L 215.266116 223.722064 
L 219.365289 225.843001 
L 223.464463 225.563462 
L 227.563636 226.395808 
L 231.66281 227.365502 
L 235.761983 227.77684 
L 239.861157 227.083578 
L 243.960331 228.804443 
L 248.059504 229.321564 
L 252.158678 229.6492 
L 256.257851 230.467905 
L 260.357025 228.87672 
L 264.456198 230.776711 
L 268.555372 230.757585 
L 272.654545 230.465784 
L 276.753719 231.526824 
L 280.852893 232.221943 
L 284.952066 232.969632 
L 289.05124 233.262655 
L 293.150413 233.507104 
L 297.249587 232.336372 
L 301.34876 234.465552 
L 305.447934 232.588923 
L 309.547107 232.984484 
L 313.646281 234.931 
L 317.745455 234.950376 
L 321.844628 236.095921 
L 325.943802 236.125246 
L 330.042975 236.244131 
L 334.142149 235.218342 
L 338.241322 236.856138 
L 342.340496 237.399977 
L 346.439669 238.628246 
L 350.538843 237.733306 
L 354.638017 238.941565 
L 358.73719 238.953134 
L 362.836364 238.463606 
L 366.935537 239.170353 
L 371.034711 239.357268 
L 375.133884 240.272202 
L 379.233058 239.606901 
L 383.332231 240.160474 
L 387.431405 239.842257 
L 391.530579 240.141064 
L 395.629752 240.157808 
L 399.728926 242.263651 
L 403.828099 241.005203 
L 407.927273 241.395927 
L 412.026446 242.652239 
L 416.12562 240.900267 
L 420.224793 242.291546 
L 424.323967 242.208517 
L 428.42314 242.831549 
L 432.522314 242.042035 
L 436.621488 243.587753 
L 440.720661 241.626615 
L 444.819835 244.392341 
L 448.919008 241.119641 
L 453.018182 244.949355 
L 457.117355 244.142023 
L 461.216529 244.951882 
L 465.315702 245.631148 
L 469.414876 245.453476 
L 473.51405 246.08076 
L 477.613223 245.72729 
L 481.712397 245.699952 
L 485.81157 246.24 
L 489.910744 244.385596 
L 494.009917 245.860687 
L 498.109091 245.612382 
" clip-path="url(#p91ef4b518a)" style="fill: none; stroke: #0000ff; stroke-width: 1.5; stroke-linecap: square"/>
   </g>
   <g id="line2d_30">
    <path d="M 92.290909 100.509088 
L 96.390083 135.124673 
L 100.489256 152.204427 
L 104.58843 160.2693 
L 108.687603 166.606939 
L 112.786777 169.639553 
L 116.88595 174.054224 
L 120.985124 175.745934 
L 125.084298 177.548122 
L 129.183471 177.495562 
L 133.282645 177.868302 
L 137.381818 176.793567 
L 141.480992 177.820044 
L 145.580165 179.402355 
L 149.679339 179.314238 
L 153.778512 177.36695 
L 157.877686 179.166612 
L 161.97686 178.813841 
L 166.076033 178.287011 
L 170.175207 176.755383 
L 174.27438 175.951293 
L 178.373554 176.806763 
L 182.472727 175.307689 
L 186.571901 176.203779 
L 190.671074 174.986826 
L 194.770248 173.307022 
L 198.869421 171.871531 
L 202.968595 171.515001 
L 207.067769 171.485516 
L 211.166942 170.849868 
L 215.266116 170.033048 
L 219.365289 171.535501 
L 223.464463 170.241766 
L 227.563636 169.672484 
L 231.66281 169.09113 
L 235.761983 166.878322 
L 239.861157 164.978388 
L 243.960331 165.854296 
L 248.059504 165.270982 
L 252.158678 165.392483 
L 256.257851 164.105222 
L 260.357025 161.31079 
L 264.456198 162.423251 
L 268.555372 161.407953 
L 272.654545 158.329088 
L 276.753719 158.399676 
L 280.852893 157.897857 
L 284.952066 157.646767 
L 289.05124 157.438847 
L 293.150413 154.436986 
L 297.249587 151.635449 
L 301.34876 153.255233 
L 305.447934 150.862589 
L 309.547107 150.125283 
L 313.646281 149.922519 
L 317.745455 148.617753 
L 321.844628 148.076127 
L 325.943802 148.487207 
L 330.042975 147.419204 
L 334.142149 143.037529 
L 338.241322 145.388132 
L 342.340496 145.319859 
L 346.439669 144.593275 
L 350.538843 141.453465 
L 354.638017 142.502322 
L 358.73719 141.418527 
L 362.836364 139.095543 
L 366.935537 139.172748 
L 371.034711 136.46889 
L 375.133884 138.767461 
L 379.233058 135.028628 
L 383.332231 133.64462 
L 387.431405 133.645977 
L 391.530579 132.577931 
L 395.629752 131.40558 
L 399.728926 132.321514 
L 403.828099 129.157124 
L 407.927273 129.534563 
L 412.026446 129.923915 
L 416.12562 124.494329 
L 420.224793 126.440142 
L 424.323967 122.637797 
L 428.42314 122.959364 
L 432.522314 122.11167 
L 436.621488 121.613892 
L 440.720661 117.325372 
L 444.819835 118.514896 
L 448.919008 114.996477 
L 453.018182 117.635492 
L 457.117355 116.320609 
L 461.216529 115.800838 
L 465.315702 113.532428 
L 469.414876 112.304491 
L 473.51405 113.369006 
L 477.613223 112.513216 
L 481.712397 108.310575 
L 485.81157 109.425363 
L 489.910744 106.735812 
L 494.009917 107.116767 
L 498.109091 106.953949 
" clip-path="url(#p91ef4b518a)" style="fill: none; stroke-dasharray: 5.55,2.4; stroke-dashoffset: 0; stroke: #0000ff; stroke-width: 1.5"/>
   </g>
   <g id="patch_3">
    <path d="M 72 256.32 
L 72 34.56 
" style="fill: none; stroke: #ffffff; stroke-linejoin: miter; stroke-linecap: square"/>
   </g>
   <g id="patch_4">
    <path d="M 518.4 256.32 
L 518.4 34.56 
" style="fill: none; stroke: #ffffff; stroke-linejoin: miter; stroke-linecap: square"/>
   </g>
   <g id="patch_5">
    <path d="M 72 256.32 
L 518.4 256.32 
" style="fill: none; stroke: #ffffff; stroke-linejoin: miter; stroke-linecap: square"/>
   </g>
   <g id="patch_6">
    <path d="M 72 34.56 
L 518.4 34.56 
" style="fill: none; stroke: #ffffff; stroke-linejoin: miter; stroke-linecap: square"/>
   </g>
   <g id="text_15">
    <!-- Error Performances across Different Network Widths -->
    <g transform="translate(107.379 28.56) scale(0.144 -0.144)">
     <defs>
      <path id="DejaVuSans-50" d="M 1259 4147 
L 1259 2394 
L 2053 2394 
Q 2494 2394 2734 2622 
Q 2975 2850 2975 3272 
Q 2975 3691 2734 3919 
Q 2494 4147 2053 4147 
L 1259 4147 
z
M 628 4666 
L 2053 4666 
Q 2838 4666 3239 4311 
Q 3641 3956 3641 3272 
Q 3641 2581 3239 2228 
Q 2838 1875 2053 1875 
L 1259 1875 
L 1259 0 
L 628 0 
L 628 4666 
z
" transform="scale(0.015625)"/>
      <path id="DejaVuSans-66" d="M 2375 4863 
L 2375 4384 
L 1825 4384 
Q 1516 4384 1395 4259 
Q 1275 4134 1275 3809 
L 1275 3500 
L 2222 3500 
L 2222 3053 
L 1275 3053 
L 1275 0 
L 697 0 
L 697 3053 
L 147 3053 
L 147 3500 
L 697 3500 
L 697 3744 
Q 697 4328 969 4595 
Q 1241 4863 1831 4863 
L 2375 4863 
z
" transform="scale(0.015625)"/>
      <path id="DejaVuSans-61" d="M 2194 1759 
Q 1497 1759 1228 1600 
Q 959 1441 959 1056 
Q 959 750 1161 570 
Q 1363 391 1709 391 
Q 2188 391 2477 730 
Q 2766 1069 2766 1631 
L 2766 1759 
L 2194 1759 
z
M 3341 1997 
L 3341 0 
L 2766 0 
L 2766 531 
Q 2569 213 2275 61 
Q 1981 -91 1556 -91 
Q 1019 -91 701 211 
Q 384 513 384 1019 
Q 384 1609 779 1909 
Q 1175 2209 1959 2209 
L 2766 2209 
L 2766 2266 
Q 2766 2663 2505 2880 
Q 2244 3097 1772 3097 
Q 1472 3097 1187 3025 
Q 903 2953 641 2809 
L 641 3341 
Q 956 3463 1253 3523 
Q 1550 3584 1831 3584 
Q 2591 3584 2966 3190 
Q 3341 2797 3341 1997 
z
" transform="scale(0.015625)"/>
      <path id="DejaVuSans-73" d="M 2834 3397 
L 2834 2853 
Q 2591 2978 2328 3040 
Q 2066 3103 1784 3103 
Q 1356 3103 1142 2972 
Q 928 2841 928 2578 
Q 928 2378 1081 2264 
Q 1234 2150 1697 2047 
L 1894 2003 
Q 2506 1872 2764 1633 
Q 3022 1394 3022 966 
Q 3022 478 2636 193 
Q 2250 -91 1575 -91 
Q 1294 -91 989 -36 
Q 684 19 347 128 
L 347 722 
Q 666 556 975 473 
Q 1284 391 1588 391 
Q 1994 391 2212 530 
Q 2431 669 2431 922 
Q 2431 1156 2273 1281 
Q 2116 1406 1581 1522 
L 1381 1569 
Q 847 1681 609 1914 
Q 372 2147 372 2553 
Q 372 3047 722 3315 
Q 1072 3584 1716 3584 
Q 2034 3584 2315 3537 
Q 2597 3491 2834 3397 
z
" transform="scale(0.015625)"/>
      <path id="DejaVuSans-44" d="M 1259 4147 
L 1259 519 
L 2022 519 
Q 2988 519 3436 956 
Q 3884 1394 3884 2338 
Q 3884 3275 3436 3711 
Q 2988 4147 2022 4147 
L 1259 4147 
z
M 628 4666 
L 1925 4666 
Q 3281 4666 3915 4102 
Q 4550 3538 4550 2338 
Q 4550 1131 3912 565 
Q 3275 0 1925 0 
L 628 0 
L 628 4666 
z
" transform="scale(0.015625)"/>
      <path id="DejaVuSans-69" d="M 603 3500 
L 1178 3500 
L 1178 0 
L 603 0 
L 603 3500 
z
M 603 4863 
L 1178 4863 
L 1178 4134 
L 603 4134 
L 603 4863 
z
" transform="scale(0.015625)"/>
      <path id="DejaVuSans-74" d="M 1172 4494 
L 1172 3500 
L 2356 3500 
L 2356 3053 
L 1172 3053 
L 1172 1153 
Q 1172 725 1289 603 
Q 1406 481 1766 481 
L 2356 481 
L 2356 0 
L 1766 0 
Q 1100 0 847 248 
Q 594 497 594 1153 
L 594 3053 
L 172 3053 
L 172 3500 
L 594 3500 
L 594 4494 
L 1172 4494 
z
" transform="scale(0.015625)"/>
      <path id="DejaVuSans-4e" d="M 628 4666 
L 1478 4666 
L 3547 763 
L 3547 4666 
L 4159 4666 
L 4159 0 
L 3309 0 
L 1241 3903 
L 1241 0 
L 628 0 
L 628 4666 
z
" transform="scale(0.015625)"/>
      <path id="DejaVuSans-77" d="M 269 3500 
L 844 3500 
L 1563 769 
L 2278 3500 
L 2956 3500 
L 3675 769 
L 4391 3500 
L 4966 3500 
L 4050 0 
L 3372 0 
L 2619 2869 
L 1863 0 
L 1184 0 
L 269 3500 
z
" transform="scale(0.015625)"/>
      <path id="DejaVuSans-6b" d="M 581 4863 
L 1159 4863 
L 1159 1991 
L 2875 3500 
L 3609 3500 
L 1753 1863 
L 3688 0 
L 2938 0 
L 1159 1709 
L 1159 0 
L 581 0 
L 581 4863 
z
" transform="scale(0.015625)"/>
      <path id="DejaVuSans-57" d="M 213 4666 
L 850 4666 
L 1831 722 
L 2809 4666 
L 3519 4666 
L 4500 722 
L 5478 4666 
L 6119 4666 
L 4947 0 
L 4153 0 
L 3169 4050 
L 2175 0 
L 1381 0 
L 213 4666 
z
" transform="scale(0.015625)"/>
      <path id="DejaVuSans-64" d="M 2906 2969 
L 2906 4863 
L 3481 4863 
L 3481 0 
L 2906 0 
L 2906 525 
Q 2725 213 2448 61 
Q 2172 -91 1784 -91 
Q 1150 -91 751 415 
Q 353 922 353 1747 
Q 353 2572 751 3078 
Q 1150 3584 1784 3584 
Q 2172 3584 2448 3432 
Q 2725 3281 2906 2969 
z
M 947 1747 
Q 947 1113 1208 752 
Q 1469 391 1925 391 
Q 2381 391 2643 752 
Q 2906 1113 2906 1747 
Q 2906 2381 2643 2742 
Q 2381 3103 1925 3103 
Q 1469 3103 1208 2742 
Q 947 2381 947 1747 
z
" transform="scale(0.015625)"/>
     </defs>
     <use xlink:href="#DejaVuSans-45"/>
     <use xlink:href="#DejaVuSans-72" x="63.183594"/>
     <use xlink:href="#DejaVuSans-72" x="102.546875"/>
     <use xlink:href="#DejaVuSans-6f" x="141.410156"/>
     <use xlink:href="#DejaVuSans-72" x="202.591797"/>
     <use xlink:href="#DejaVuSans-20" x="243.705078"/>
     <use xlink:href="#DejaVuSans-50" x="275.492188"/>
     <use xlink:href="#DejaVuSans-65" x="332.169922"/>
     <use xlink:href="#DejaVuSans-72" x="393.693359"/>
     <use xlink:href="#DejaVuSans-66" x="434.806641"/>
     <use xlink:href="#DejaVuSans-6f" x="470.011719"/>
     <use xlink:href="#DejaVuSans-72" x="531.193359"/>
     <use xlink:href="#DejaVuSans-6d" x="570.556641"/>
     <use xlink:href="#DejaVuSans-61" x="667.96875"/>
     <use xlink:href="#DejaVuSans-6e" x="729.248047"/>
     <use xlink:href="#DejaVuSans-63" x="792.626953"/>
     <use xlink:href="#DejaVuSans-65" x="847.607422"/>
     <use xlink:href="#DejaVuSans-73" x="909.130859"/>
     <use xlink:href="#DejaVuSans-20" x="961.230469"/>
     <use xlink:href="#DejaVuSans-61" x="993.017578"/>
     <use xlink:href="#DejaVuSans-63" x="1054.296875"/>
     <use xlink:href="#DejaVuSans-72" x="1109.277344"/>
     <use xlink:href="#DejaVuSans-6f" x="1148.140625"/>
     <use xlink:href="#DejaVuSans-73" x="1209.322266"/>
     <use xlink:href="#DejaVuSans-73" x="1261.421875"/>
     <use xlink:href="#DejaVuSans-20" x="1313.521484"/>
     <use xlink:href="#DejaVuSans-44" x="1345.308594"/>
     <use xlink:href="#DejaVuSans-69" x="1422.310547"/>
     <use xlink:href="#DejaVuSans-66" x="1450.09375"/>
     <use xlink:href="#DejaVuSans-66" x="1485.298828"/>
     <use xlink:href="#DejaVuSans-65" x="1520.503906"/>
     <use xlink:href="#DejaVuSans-72" x="1582.027344"/>
     <use xlink:href="#DejaVuSans-65" x="1620.890625"/>
     <use xlink:href="#DejaVuSans-6e" x="1682.414062"/>
     <use xlink:href="#DejaVuSans-74" x="1745.792969"/>
     <use xlink:href="#DejaVuSans-20" x="1785.001953"/>
     <use xlink:href="#DejaVuSans-4e" x="1816.789062"/>
     <use xlink:href="#DejaVuSans-65" x="1891.59375"/>
     <use xlink:href="#DejaVuSans-74" x="1953.117188"/>
     <use xlink:href="#DejaVuSans-77" x="1992.326172"/>
     <use xlink:href="#DejaVuSans-6f" x="2074.113281"/>
     <use xlink:href="#DejaVuSans-72" x="2135.294922"/>
     <use xlink:href="#DejaVuSans-6b" x="2176.408203"/>
     <use xlink:href="#DejaVuSans-20" x="2234.318359"/>
     <use xlink:href="#DejaVuSans-57" x="2266.105469"/>
     <use xlink:href="#DejaVuSans-69" x="2362.732422"/>
     <use xlink:href="#DejaVuSans-64" x="2390.515625"/>
     <use xlink:href="#DejaVuSans-74" x="2453.992188"/>
     <use xlink:href="#DejaVuSans-68" x="2493.201172"/>
     <use xlink:href="#DejaVuSans-73" x="2556.580078"/>
    </g>
   </g>
   <g id="legend_1">
    <g id="patch_7">
     <path d="M 235.5025 111.415 
L 354.8975 111.415 
Q 356.4975 111.415 356.4975 109.815 
L 356.4975 40.16 
Q 356.4975 38.56 354.8975 38.56 
L 235.5025 38.56 
Q 233.9025 38.56 233.9025 40.16 
L 233.9025 109.815 
Q 233.9025 111.415 235.5025 111.415 
z
" style="fill: #e5e5e5; opacity: 0.8; stroke: #cccccc; stroke-width: 0.5; stroke-linejoin: miter"/>
    </g>
    <g id="line2d_31">
     <path d="M 237.1025 45.03875 
L 245.1025 45.03875 
L 253.1025 45.03875 
" style="fill: none; stroke: #ff0000; stroke-width: 1.5; stroke-linecap: square"/>
    </g>
    <g id="text_16">
     <!-- Error Train - (32 Units) -->
     <g transform="translate(259.5025 47.83875) scale(0.08 -0.08)">
      <defs>
       <path id="DejaVuSans-54" d="M -19 4666 
L 3928 4666 
L 3928 4134 
L 2272 4134 
L 2272 0 
L 1638 0 
L 1638 4134 
L -19 4134 
L -19 4666 
z
" transform="scale(0.015625)"/>
       <path id="DejaVuSans-2d" d="M 313 2009 
L 1997 2009 
L 1997 1497 
L 313 1497 
L 313 2009 
z
" transform="scale(0.015625)"/>
       <path id="DejaVuSans-28" d="M 1984 4856 
Q 1566 4138 1362 3434 
Q 1159 2731 1159 2009 
Q 1159 1288 1364 580 
Q 1569 -128 1984 -844 
L 1484 -844 
Q 1016 -109 783 600 
Q 550 1309 550 2009 
Q 550 2706 781 3412 
Q 1013 4119 1484 4856 
L 1984 4856 
z
" transform="scale(0.015625)"/>
       <path id="DejaVuSans-33" d="M 2597 2516 
Q 3050 2419 3304 2112 
Q 3559 1806 3559 1356 
Q 3559 666 3084 287 
Q 2609 -91 1734 -91 
Q 1441 -91 1130 -33 
Q 819 25 488 141 
L 488 750 
Q 750 597 1062 519 
Q 1375 441 1716 441 
Q 2309 441 2620 675 
Q 2931 909 2931 1356 
Q 2931 1769 2642 2001 
Q 2353 2234 1838 2234 
L 1294 2234 
L 1294 2753 
L 1863 2753 
Q 2328 2753 2575 2939 
Q 2822 3125 2822 3475 
Q 2822 3834 2567 4026 
Q 2313 4219 1838 4219 
Q 1578 4219 1281 4162 
Q 984 4106 628 3988 
L 628 4550 
Q 988 4650 1302 4700 
Q 1616 4750 1894 4750 
Q 2613 4750 3031 4423 
Q 3450 4097 3450 3541 
Q 3450 3153 3228 2886 
Q 3006 2619 2597 2516 
z
" transform="scale(0.015625)"/>
       <path id="DejaVuSans-55" d="M 556 4666 
L 1191 4666 
L 1191 1831 
Q 1191 1081 1462 751 
Q 1734 422 2344 422 
Q 2950 422 3222 751 
Q 3494 1081 3494 1831 
L 3494 4666 
L 4128 4666 
L 4128 1753 
Q 4128 841 3676 375 
Q 3225 -91 2344 -91 
Q 1459 -91 1007 375 
Q 556 841 556 1753 
L 556 4666 
z
" transform="scale(0.015625)"/>
       <path id="DejaVuSans-29" d="M 513 4856 
L 1013 4856 
Q 1481 4119 1714 3412 
Q 1947 2706 1947 2009 
Q 1947 1309 1714 600 
Q 1481 -109 1013 -844 
L 513 -844 
Q 928 -128 1133 580 
Q 1338 1288 1338 2009 
Q 1338 2731 1133 3434 
Q 928 4138 513 4856 
z
" transform="scale(0.015625)"/>
      </defs>
      <use xlink:href="#DejaVuSans-45"/>
      <use xlink:href="#DejaVuSans-72" x="63.183594"/>
      <use xlink:href="#DejaVuSans-72" x="102.546875"/>
      <use xlink:href="#DejaVuSans-6f" x="141.410156"/>
      <use xlink:href="#DejaVuSans-72" x="202.591797"/>
      <use xlink:href="#DejaVuSans-20" x="243.705078"/>
      <use xlink:href="#DejaVuSans-54" x="275.492188"/>
      <use xlink:href="#DejaVuSans-72" x="321.826172"/>
      <use xlink:href="#DejaVuSans-61" x="362.939453"/>
      <use xlink:href="#DejaVuSans-69" x="424.21875"/>
      <use xlink:href="#DejaVuSans-6e" x="452.001953"/>
      <use xlink:href="#DejaVuSans-20" x="515.380859"/>
      <use xlink:href="#DejaVuSans-2d" x="547.167969"/>
      <use xlink:href="#DejaVuSans-20" x="583.251953"/>
      <use xlink:href="#DejaVuSans-28" x="615.039062"/>
      <use xlink:href="#DejaVuSans-33" x="654.052734"/>
      <use xlink:href="#DejaVuSans-32" x="717.675781"/>
      <use xlink:href="#DejaVuSans-20" x="781.298828"/>
      <use xlink:href="#DejaVuSans-55" x="813.085938"/>
      <use xlink:href="#DejaVuSans-6e" x="886.279297"/>
      <use xlink:href="#DejaVuSans-69" x="949.658203"/>
      <use xlink:href="#DejaVuSans-74" x="977.441406"/>
      <use xlink:href="#DejaVuSans-73" x="1016.650391"/>
      <use xlink:href="#DejaVuSans-29" x="1068.75"/>
     </g>
    </g>
    <g id="line2d_32">
     <path d="M 237.1025 56.78125 
L 245.1025 56.78125 
L 253.1025 56.78125 
" style="fill: none; stroke-dasharray: 5.55,2.4; stroke-dashoffset: 0; stroke: #ff0000; stroke-width: 1.5"/>
    </g>
    <g id="text_17">
     <!-- Error Valid - (32 Units) -->
     <g transform="translate(259.5025 59.58125) scale(0.08 -0.08)">
      <defs>
       <path id="DejaVuSans-56" d="M 1831 0 
L 50 4666 
L 709 4666 
L 2188 738 
L 3669 4666 
L 4325 4666 
L 2547 0 
L 1831 0 
z
" transform="scale(0.015625)"/>
       <path id="DejaVuSans-6c" d="M 603 4863 
L 1178 4863 
L 1178 0 
L 603 0 
L 603 4863 
z
" transform="scale(0.015625)"/>
      </defs>
      <use xlink:href="#DejaVuSans-45"/>
      <use xlink:href="#DejaVuSans-72" x="63.183594"/>
      <use xlink:href="#DejaVuSans-72" x="102.546875"/>
      <use xlink:href="#DejaVuSans-6f" x="141.410156"/>
      <use xlink:href="#DejaVuSans-72" x="202.591797"/>
      <use xlink:href="#DejaVuSans-20" x="243.705078"/>
      <use xlink:href="#DejaVuSans-56" x="275.492188"/>
      <use xlink:href="#DejaVuSans-61" x="336.150391"/>
      <use xlink:href="#DejaVuSans-6c" x="397.429688"/>
      <use xlink:href="#DejaVuSans-69" x="425.212891"/>
      <use xlink:href="#DejaVuSans-64" x="452.996094"/>
      <use xlink:href="#DejaVuSans-20" x="516.472656"/>
      <use xlink:href="#DejaVuSans-2d" x="548.259766"/>
      <use xlink:href="#DejaVuSans-20" x="584.34375"/>
      <use xlink:href="#DejaVuSans-28" x="616.130859"/>
      <use xlink:href="#DejaVuSans-33" x="655.144531"/>
      <use xlink:href="#DejaVuSans-32" x="718.767578"/>
      <use xlink:href="#DejaVuSans-20" x="782.390625"/>
      <use xlink:href="#DejaVuSans-55" x="814.177734"/>
      <use xlink:href="#DejaVuSans-6e" x="887.371094"/>
      <use xlink:href="#DejaVuSans-69" x="950.75"/>
      <use xlink:href="#DejaVuSans-74" x="978.533203"/>
      <use xlink:href="#DejaVuSans-73" x="1017.742188"/>
      <use xlink:href="#DejaVuSans-29" x="1069.841797"/>
     </g>
    </g>
    <g id="line2d_33">
     <path d="M 237.1025 68.52375 
L 245.1025 68.52375 
L 253.1025 68.52375 
" style="fill: none; stroke: #008000; stroke-width: 1.5; stroke-linecap: square"/>
    </g>
    <g id="text_18">
     <!-- Error Train - (64 Units) -->
     <g transform="translate(259.5025 71.32375) scale(0.08 -0.08)">
      <use xlink:href="#DejaVuSans-45"/>
      <use xlink:href="#DejaVuSans-72" x="63.183594"/>
      <use xlink:href="#DejaVuSans-72" x="102.546875"/>
      <use xlink:href="#DejaVuSans-6f" x="141.410156"/>
      <use xlink:href="#DejaVuSans-72" x="202.591797"/>
      <use xlink:href="#DejaVuSans-20" x="243.705078"/>
      <use xlink:href="#DejaVuSans-54" x="275.492188"/>
      <use xlink:href="#DejaVuSans-72" x="321.826172"/>
      <use xlink:href="#DejaVuSans-61" x="362.939453"/>
      <use xlink:href="#DejaVuSans-69" x="424.21875"/>
      <use xlink:href="#DejaVuSans-6e" x="452.001953"/>
      <use xlink:href="#DejaVuSans-20" x="515.380859"/>
      <use xlink:href="#DejaVuSans-2d" x="547.167969"/>
      <use xlink:href="#DejaVuSans-20" x="583.251953"/>
      <use xlink:href="#DejaVuSans-28" x="615.039062"/>
      <use xlink:href="#DejaVuSans-36" x="654.052734"/>
      <use xlink:href="#DejaVuSans-34" x="717.675781"/>
      <use xlink:href="#DejaVuSans-20" x="781.298828"/>
      <use xlink:href="#DejaVuSans-55" x="813.085938"/>
      <use xlink:href="#DejaVuSans-6e" x="886.279297"/>
      <use xlink:href="#DejaVuSans-69" x="949.658203"/>
      <use xlink:href="#DejaVuSans-74" x="977.441406"/>
      <use xlink:href="#DejaVuSans-73" x="1016.650391"/>
      <use xlink:href="#DejaVuSans-29" x="1068.75"/>
     </g>
    </g>
    <g id="line2d_34">
     <path d="M 237.1025 80.26625 
L 245.1025 80.26625 
L 253.1025 80.26625 
" style="fill: none; stroke-dasharray: 5.55,2.4; stroke-dashoffset: 0; stroke: #008000; stroke-width: 1.5"/>
    </g>
    <g id="text_19">
     <!-- Error Valid - (64 Units) -->
     <g transform="translate(259.5025 83.06625) scale(0.08 -0.08)">
      <use xlink:href="#DejaVuSans-45"/>
      <use xlink:href="#DejaVuSans-72" x="63.183594"/>
      <use xlink:href="#DejaVuSans-72" x="102.546875"/>
      <use xlink:href="#DejaVuSans-6f" x="141.410156"/>
      <use xlink:href="#DejaVuSans-72" x="202.591797"/>
      <use xlink:href="#DejaVuSans-20" x="243.705078"/>
      <use xlink:href="#DejaVuSans-56" x="275.492188"/>
      <use xlink:href="#DejaVuSans-61" x="336.150391"/>
      <use xlink:href="#DejaVuSans-6c" x="397.429688"/>
      <use xlink:href="#DejaVuSans-69" x="425.212891"/>
      <use xlink:href="#DejaVuSans-64" x="452.996094"/>
      <use xlink:href="#DejaVuSans-20" x="516.472656"/>
      <use xlink:href="#DejaVuSans-2d" x="548.259766"/>
      <use xlink:href="#DejaVuSans-20" x="584.34375"/>
      <use xlink:href="#DejaVuSans-28" x="616.130859"/>
      <use xlink:href="#DejaVuSans-36" x="655.144531"/>
      <use xlink:href="#DejaVuSans-34" x="718.767578"/>
      <use xlink:href="#DejaVuSans-20" x="782.390625"/>
      <use xlink:href="#DejaVuSans-55" x="814.177734"/>
      <use xlink:href="#DejaVuSans-6e" x="887.371094"/>
      <use xlink:href="#DejaVuSans-69" x="950.75"/>
      <use xlink:href="#DejaVuSans-74" x="978.533203"/>
      <use xlink:href="#DejaVuSans-73" x="1017.742188"/>
      <use xlink:href="#DejaVuSans-29" x="1069.841797"/>
     </g>
    </g>
    <g id="line2d_35">
     <path d="M 237.1025 92.00875 
L 245.1025 92.00875 
L 253.1025 92.00875 
" style="fill: none; stroke: #0000ff; stroke-width: 1.5; stroke-linecap: square"/>
    </g>
    <g id="text_20">
     <!-- Error Train - (128 Units) -->
     <g transform="translate(259.5025 94.80875) scale(0.08 -0.08)">
      <use xlink:href="#DejaVuSans-45"/>
      <use xlink:href="#DejaVuSans-72" x="63.183594"/>
      <use xlink:href="#DejaVuSans-72" x="102.546875"/>
      <use xlink:href="#DejaVuSans-6f" x="141.410156"/>
      <use xlink:href="#DejaVuSans-72" x="202.591797"/>
      <use xlink:href="#DejaVuSans-20" x="243.705078"/>
      <use xlink:href="#DejaVuSans-54" x="275.492188"/>
      <use xlink:href="#DejaVuSans-72" x="321.826172"/>
      <use xlink:href="#DejaVuSans-61" x="362.939453"/>
      <use xlink:href="#DejaVuSans-69" x="424.21875"/>
      <use xlink:href="#DejaVuSans-6e" x="452.001953"/>
      <use xlink:href="#DejaVuSans-20" x="515.380859"/>
      <use xlink:href="#DejaVuSans-2d" x="547.167969"/>
      <use xlink:href="#DejaVuSans-20" x="583.251953"/>
      <use xlink:href="#DejaVuSans-28" x="615.039062"/>
      <use xlink:href="#DejaVuSans-31" x="654.052734"/>
      <use xlink:href="#DejaVuSans-32" x="717.675781"/>
      <use xlink:href="#DejaVuSans-38" x="781.298828"/>
      <use xlink:href="#DejaVuSans-20" x="844.921875"/>
      <use xlink:href="#DejaVuSans-55" x="876.708984"/>
      <use xlink:href="#DejaVuSans-6e" x="949.902344"/>
      <use xlink:href="#DejaVuSans-69" x="1013.28125"/>
      <use xlink:href="#DejaVuSans-74" x="1041.064453"/>
      <use xlink:href="#DejaVuSans-73" x="1080.273438"/>
      <use xlink:href="#DejaVuSans-29" x="1132.373047"/>
     </g>
    </g>
    <g id="line2d_36">
     <path d="M 237.1025 103.75125 
L 245.1025 103.75125 
L 253.1025 103.75125 
" style="fill: none; stroke-dasharray: 5.55,2.4; stroke-dashoffset: 0; stroke: #0000ff; stroke-width: 1.5"/>
    </g>
    <g id="text_21">
     <!-- Error Valid - (128 Units) -->
     <g transform="translate(259.5025 106.55125) scale(0.08 -0.08)">
      <use xlink:href="#DejaVuSans-45"/>
      <use xlink:href="#DejaVuSans-72" x="63.183594"/>
      <use xlink:href="#DejaVuSans-72" x="102.546875"/>
      <use xlink:href="#DejaVuSans-6f" x="141.410156"/>
      <use xlink:href="#DejaVuSans-72" x="202.591797"/>
      <use xlink:href="#DejaVuSans-20" x="243.705078"/>
      <use xlink:href="#DejaVuSans-56" x="275.492188"/>
      <use xlink:href="#DejaVuSans-61" x="336.150391"/>
      <use xlink:href="#DejaVuSans-6c" x="397.429688"/>
      <use xlink:href="#DejaVuSans-69" x="425.212891"/>
      <use xlink:href="#DejaVuSans-64" x="452.996094"/>
      <use xlink:href="#DejaVuSans-20" x="516.472656"/>
      <use xlink:href="#DejaVuSans-2d" x="548.259766"/>
      <use xlink:href="#DejaVuSans-20" x="584.34375"/>
      <use xlink:href="#DejaVuSans-28" x="616.130859"/>
      <use xlink:href="#DejaVuSans-31" x="655.144531"/>
      <use xlink:href="#DejaVuSans-32" x="718.767578"/>
      <use xlink:href="#DejaVuSans-38" x="782.390625"/>
      <use xlink:href="#DejaVuSans-20" x="846.013672"/>
      <use xlink:href="#DejaVuSans-55" x="877.800781"/>
      <use xlink:href="#DejaVuSans-6e" x="950.994141"/>
      <use xlink:href="#DejaVuSans-69" x="1014.373047"/>
      <use xlink:href="#DejaVuSans-74" x="1042.15625"/>
      <use xlink:href="#DejaVuSans-73" x="1081.365234"/>
      <use xlink:href="#DejaVuSans-29" x="1133.464844"/>
     </g>
    </g>
   </g>
  </g>
 </g>
 <defs>
  <clipPath id="p91ef4b518a">
   <rect x="72" y="34.56" width="446.4" height="221.76"/>
  </clipPath>
 </defs>
</svg>
